<svg id="map" xmlns="http://www.w3.org/2000/svg" viewBox="0 0 1001.89 541.4">
    <defs>
        <style>
            .cls-1 {
                font-size: 10px;
                font-family: Minion Pro;
            }

            .cls-2 {
                fill: #fff;
            }

            .cls-3 {
                fill: none;
                stroke: #bebebe;
                stroke-linecap: round;
                stroke-width: 2px;
            }

            .cls-4 {
                fill: #5b5d5c;
            }
        </style>
    </defs>
    <path class="cls-2" d="M913,307.9l-25-10.46a62,62,0,0,1-13.92-8.64l-25.48-22.12a24.22,24.22,0,0,0-14.56-5.1l-15.91.64a32.84,32.84,0,0,0-15.05,5.15L789.66,277a12.15,12.15,0,0,1-13.4-.14l-5.34-4a30.77,30.77,0,0,0-15-5.17l-1.5,0a39.27,39.27,0,0,0-15.72,3.51l-36.18,18.17a9.6,9.6,0,0,1-12-3.17l-22.45-33.88a9.31,9.31,0,0,0-11.89-3l-22.51,12a12.84,12.84,0,0,1-13.52-1.58l-5-4.41c-3.41-3-9.72-5.3-14-5.07a22.82,22.82,0,0,0-5.73,1.22l1.75-1.22-19.5-24.31a23.16,23.16,0,0,1-4.34-14.21l0.51-6a11.07,11.07,0,0,0-6.85-10.7l-18.39-6.68a19.66,19.66,0,0,0-14.46,1.25l-0.41.23A9.46,9.46,0,0,1,522,187.42L512.41,175a9,9,0,0,1,1-11.77l1.22-1.13c3.23-3,4.2-8.36,2.16-11.93s-7.27-6-11.62-5.29L474,149.66a27.32,27.32,0,0,1-14.9-2.69l-7.17-4c-3.84-2.14-8.54-3-10.44-1.83s-1.49,5.09.92,8.77L445.7,155a9.22,9.22,0,0,1-1.79,11.81L432.78,176a9.48,9.48,0,0,1-12.06-.29l-14.43-13.19a14,14,0,0,1-3.64-13.07l4.16-14.12a14.13,14.13,0,0,0-3.61-13.1l-8.25-7.62a17.32,17.32,0,0,0-13.7-3.74L366.89,114a26.26,26.26,0,0,1-15-1.94L333,102.44a13.52,13.52,0,0,1-6.77-11.62l0.23-5.11a12.5,12.5,0,0,0-7-11.17l-16.44-7.11a7.12,7.12,0,0,0-9.79,4.44l-2.09,6.53c-1.34,4.19-4,4.39-6,.44l-6.91-14a14.13,14.13,0,0,0-11.54-7.17H251.57a7.25,7.25,0,0,0-7.33,8l0.64,7.65a10.57,10.57,0,0,1-6.95,10.42l-59.4,19.09a34.13,34.13,0,0,0-12.88,8.47L158,120a20.26,20.26,0,0,1-13.27,6.05l-12.71.05a17.34,17.34,0,0,0-12.58,6.59l-12.16,17.42a6.51,6.51,0,0,1-10.26.93l-9.81-9.73a9.16,9.16,0,0,0-11.9-.6L72.54,143a7.64,7.64,0,0,0-.94,11l25.15,28.65a11.77,11.77,0,0,1,1.19,12.89L95.3,200a15.42,15.42,0,0,0-.19,13.86s26.56,47.66,26.75,48.08l12.86,1.2c9.56,1,17.62,28.1,17.62,28.1a11.69,11.69,0,0,0,10.27,7.83l2.51,0.05a16.07,16.07,0,0,1,12.09,7l29.75,50A15,15,0,0,0,219,362.8l46.6-1.38a17.71,17.71,0,0,0,12.51-6.85l20.58-30.16a15.39,15.39,0,0,1,12.49-6l12.58,0.94a41.65,41.65,0,0,1,14.9,4.6L371,342.64a49.54,49.54,0,0,0,14.84,5.14s48.47,7,59.63,8.73l-7.41,21.14a24.53,24.53,0,0,0,.54,15.4l7.2,16.69a52.89,52.89,0,0,0,9.09,13.49l44.33,44.94a23.34,23.34,0,0,0,14.12,6l79.82,1.15a8.57,8.57,0,0,0,8.64-8.14l0.93-23.07a9.16,9.16,0,0,1,8.64-8.59l38-1.53a18.85,18.85,0,0,0,13-7.13l2.7-3.88a8.53,8.53,0,0,1,11.64-2.21l17.85,11.85a9.58,9.58,0,0,0,12.26-1.73l42.45-50.07a15.23,15.23,0,0,1,13.47-4.55l29.63,6.44a49.41,49.41,0,0,0,16.29.25L825,380a13.89,13.89,0,0,1,12.85,5.32l4.14,6c2.57,3.76,7.59,7.81,11.14,9s10.15,1.54,14.65.76l8.79-1.52a9.73,9.73,0,0,0,7.85-9.67l-0.22-5.51a28.32,28.32,0,0,1,4.45-15l17-24a76.47,76.47,0,0,0,7.68-14.5l4.5-12A8.71,8.71,0,0,0,913,307.9Z" />
    <path class="cls-3" d="M633.73,261.29a12.84,12.84,0,0,1-13.52-1.58l-5-4.41c-3.41-3-9.72-5.3-14-5.07a29.32,29.32,0,0,0-14.26,5.64l-35.8,29c-3.54,2.87-7,8.44-7.67,12.39s-4.25,9.36-7.94,12L499.94,335a26.34,26.34,0,0,1-15,4.22l-24.21-1.86a11.4,11.4,0,0,0-11,7.17L438.1,377.65a24.53,24.53,0,0,0,.54,15.4l7.2,16.69a52.89,52.89,0,0,0,9.09,13.49l44.33,44.94a23.34,23.34,0,0,0,14.13,6l79.82,1.15a8.57,8.57,0,0,0,8.64-8.14l0.93-23.07a9.16,9.16,0,0,1,8.64-8.59l38-1.53a18.85,18.85,0,0,0,13-7.13l2.7-3.88a8.53,8.53,0,0,1,11.64-2.21l17.85,11.85a9.58,9.58,0,0,0,12.26-1.73l42.45-50.07a15.23,15.23,0,0,1,13.47-4.55l29.63,6.44a49.41,49.41,0,0,0,16.29.25L825,380a13.89,13.89,0,0,1,12.85,5.32l4.14,6c2.57,3.76,7.59,7.81,11.14,9s10.15,1.54,14.65.76l8.79-1.52a9.73,9.73,0,0,0,7.85-9.67l-0.22-5.51a28.32,28.32,0,0,1,4.45-15l17-24a76.47,76.47,0,0,0,7.68-14.5l4.5-12A8.71,8.71,0,0,0,913,307.9l-25-10.46a62,62,0,0,1-13.92-8.64l-25.48-22.12a24.22,24.22,0,0,0-14.56-5.1l-15.91.64a32.84,32.84,0,0,0-15.05,5.15L789.66,277a12.15,12.15,0,0,1-13.4-.14l-5.34-4a30.77,30.77,0,0,0-15-5.17l-1.5,0a39.27,39.27,0,0,0-15.72,3.51l-36.18,18.17a9.6,9.6,0,0,1-12-3.17l-22.45-33.88a9.31,9.31,0,0,0-11.89-3Z" />
    <path class="cls-3" d="M445.58,356.52c-11-1.75-59.7-8.74-59.7-8.74A49.54,49.54,0,0,1,371,342.64L338.7,323.93a41.65,41.65,0,0,0-14.9-4.6l-12.58-.94a15.39,15.39,0,0,0-12.49,6l-20.58,30.16a17.71,17.71,0,0,1-12.51,6.85L219,362.8A15,15,0,0,1,207,356.16l-29.75-50a16.07,16.07,0,0,0-12.09-7l-2.51-.05a11.69,11.69,0,0,1-10.27-7.83s-8.06-27.14-17.62-28.1l-12.86-1.2c-0.18-.41-26.75-48.08-26.75-48.08A15.42,15.42,0,0,1,95.3,200l2.63-4.43a11.77,11.77,0,0,0-1.19-12.89L71.6,154a7.64,7.64,0,0,1,.94-11l2.81-2.27a9.16,9.16,0,0,1,11.9.61l9.81,9.73a6.51,6.51,0,0,0,10.26-.93l12.16-17.42a17.34,17.34,0,0,1,12.58-6.59l12.71-.05A20.26,20.26,0,0,0,158,120l7.63-8.72a34.13,34.13,0,0,1,12.88-8.47l59.4-19.09a10.57,10.57,0,0,0,6.95-10.42l-0.64-7.65a7.25,7.25,0,0,1,7.33-8h15.17a14.13,14.13,0,0,1,11.54,7.17l6.91,14c1.95,3.95,4.64,3.74,6-.44l2.09-6.53a7.12,7.12,0,0,1,9.79-4.44l16.44,7.11a12.5,12.5,0,0,1,7,11.17l-0.23,5.11A13.52,13.52,0,0,0,333,102.44l18.93,9.62a26.26,26.26,0,0,0,15,1.94l14.36-3.1a17.32,17.32,0,0,1,13.7,3.74l8.25,7.62a14.13,14.13,0,0,1,3.61,13.1l-4.16,14.12a14,14,0,0,0,3.64,13.07l14.43,13.19a9.48,9.48,0,0,0,12.06.29l11.14-9.24A9.22,9.22,0,0,0,445.7,155l-3.31-5.07c-2.4-3.69-2.82-7.63-.92-8.77s6.6-.32,10.44,1.83l7.17,4a27.32,27.32,0,0,0,14.9,2.69l31.18-4.76c4.35-.66,9.58,1.72,11.62,5.29s1.07,8.95-2.16,11.93l-1.22,1.13a9,9,0,0,0-1,11.77l9.55,12.4a9.46,9.46,0,0,0,11.83,2.36l0.41-.23a19.66,19.66,0,0,1,14.46-1.25L567.05,195a11.07,11.07,0,0,1,6.85,10.7l-0.51,6a23.16,23.16,0,0,0,4.34,14.21l19.5,24.31" />
    <path class="GNZ cls-4" d="M552.47,452.48l-0.32-.19a4.92,4.92,0,0,1-.79-0.63l-0.06-.06L546.82,446h-5.58a1.78,1.78,0,0,1-1.78-1.78V420.75a1.78,1.78,0,0,1,1.78-1.78h23.49a1.78,1.78,0,0,1,1.78,1.78v23.49a1.78,1.78,0,0,1-1.78,1.78h-5.52c-0.27.39-.83,1.19-1.24,1.72a38.64,38.64,0,0,1-3.38,3.93,5.07,5.07,0,0,1-.78.62l-0.32.19h-1Zm5.6-25.08H547.89v10.19h10.19V427.41Z" />
    <path class="cls-2" d="M564.73,420.32a0.43,0.43,0,0,1,.43.43v23.49a0.43,0.43,0,0,1-.43.43h-5.8a0.92,0.92,0,0,0-.67.35s-0.83,1.21-1.35,1.89a37.42,37.42,0,0,1-3.24,3.78,3.64,3.64,0,0,1-.53.43h-0.28a3.55,3.55,0,0,1-.54-0.43L547.73,445a1,1,0,0,0-.7-0.33h-5.79a0.43,0.43,0,0,1-.43-0.43V420.75a0.43,0.43,0,0,1,.43-0.43h23.49M547,438.94h12a0.43,0.43,0,0,0,.43-0.43v-12a0.43,0.43,0,0,0-.43-0.43H547a0.43,0.43,0,0,0-.43.43v12a0.43,0.43,0,0,0,.43.43m17.76-21.33H541.24a3.14,3.14,0,0,0-3.13,3.14v23.49a3.14,3.14,0,0,0,3.13,3.13h4.93l4,5,0.1,0.13,0.12,0.11a6.26,6.26,0,0,0,1,.83l0.64,0.38h1.76l0.64-.38a6.49,6.49,0,0,0,1-.82,40,40,0,0,0,3.51-4.08c0.26-.34.59-0.8,0.87-1.19h4.81a3.14,3.14,0,0,0,3.14-3.13V420.75a3.14,3.14,0,0,0-3.14-3.14m-15.48,11.14h7.48v7.48h-7.48v-7.48Z" />
    <path class="NGN cls-4" d="M535.05,409l-0.32-.19a4.92,4.92,0,0,1-.79-0.63l-0.06-.06-4.49-5.58h-5.58a1.78,1.78,0,0,1-1.78-1.78V377.3a1.78,1.78,0,0,1,1.78-1.78h23.49a1.78,1.78,0,0,1,1.78,1.78v23.49a1.78,1.78,0,0,1-1.78,1.78h-5.52c-0.27.39-.83,1.19-1.24,1.72a38.64,38.64,0,0,1-3.38,3.93,5.07,5.07,0,0,1-.78.62l-0.32.19h-1Zm5.6-25.08H530.47v10.19h10.19V384Z" />
    <path class="cls-2" d="M547.31,376.87a0.43,0.43,0,0,1,.43.43v23.49a0.43,0.43,0,0,1-.43.43h-5.8a0.92,0.92,0,0,0-.67.35s-0.83,1.21-1.35,1.89a37.42,37.42,0,0,1-3.24,3.78,3.64,3.64,0,0,1-.53.43h-0.28a3.55,3.55,0,0,1-.54-0.43l-4.58-5.69a1,1,0,0,0-.7-0.33h-5.79a0.43,0.43,0,0,1-.43-0.43V377.3a0.43,0.43,0,0,1,.43-0.43h23.49m-17.76,18.62h12a0.43,0.43,0,0,0,.43-0.43V383a0.43,0.43,0,0,0-.43-0.43h-12a0.43,0.43,0,0,0-.43.43v12a0.43,0.43,0,0,0,.43.43m17.76-21.33H523.82a3.14,3.14,0,0,0-3.13,3.14v23.49a3.14,3.14,0,0,0,3.13,3.13h4.93l4,5,0.1,0.13,0.12,0.11a6.26,6.26,0,0,0,1,.83l0.64,0.38h1.76l0.64-.38a6.49,6.49,0,0,0,1-.82,40,40,0,0,0,3.51-4.08c0.26-.34.59-0.8,0.87-1.19h4.81a3.14,3.14,0,0,0,3.14-3.13V377.3a3.14,3.14,0,0,0-3.14-3.14m-15.48,11.14h7.48v7.48h-7.48v-7.48Z" />
    <path class="SGB cls-4" d="M629.93,379.76l-0.32-.19a5,5,0,0,1-.79-0.63l-0.06-.06-4.49-5.58h-5.58a1.78,1.78,0,0,1-1.78-1.78V348a1.78,1.78,0,0,1,1.78-1.78h23.49A1.78,1.78,0,0,1,644,348v23.49a1.78,1.78,0,0,1-1.78,1.78h-5.52c-0.27.39-.83,1.19-1.24,1.72a38.61,38.61,0,0,1-3.38,3.93,5.05,5.05,0,0,1-.78.62l-0.32.19h-1Zm5.6-25.08H625.34v10.19h10.19V354.68Z" />
    <path class="cls-2" d="M642.18,347.6a0.43,0.43,0,0,1,.43.43v23.49a0.43,0.43,0,0,1-.43.43h-5.8a0.92,0.92,0,0,0-.67.35s-0.83,1.21-1.35,1.89a37.42,37.42,0,0,1-3.24,3.78,3.64,3.64,0,0,1-.53.43H630.3a3.55,3.55,0,0,1-.54-0.43l-4.58-5.69a1,1,0,0,0-.7-0.33h-5.79a0.43,0.43,0,0,1-.43-0.43V348a0.43,0.43,0,0,1,.43-0.43h23.49m-17.76,18.62h12a0.43,0.43,0,0,0,.43-0.43v-12a0.43,0.43,0,0,0-.43-0.43h-12a0.43,0.43,0,0,0-.43.43v12a0.43,0.43,0,0,0,.43.43m17.76-21.33H618.69a3.14,3.14,0,0,0-3.13,3.14v23.49a3.14,3.14,0,0,0,3.13,3.13h4.93l4,5,0.1,0.13,0.12,0.11a6.26,6.26,0,0,0,1,.83l0.64,0.38h1.76l0.64-.38a6.49,6.49,0,0,0,1-.82,40,40,0,0,0,3.51-4.08c0.26-.34.59-0.8,0.87-1.19h4.81a3.14,3.14,0,0,0,3.14-3.13V348a3.14,3.14,0,0,0-3.14-3.14M626.7,356h7.48v7.48H626.7V356Z" />
    <path class="SNG GMB cls-4" d="M469.8,427.14l-0.32-.19a4.72,4.72,0,0,1-.8-0.63l-0.06-.06-4.49-5.58h-5.58a1.78,1.78,0,0,1-1.78-1.78V395.41a1.78,1.78,0,0,1,1.78-1.78h23.49a1.78,1.78,0,0,1,1.78,1.78V418.9a1.78,1.78,0,0,1-1.78,1.78h-5.52c-0.27.39-.83,1.19-1.23,1.72a38.65,38.65,0,0,1-3.38,3.93,5,5,0,0,1-.78.62l-0.32.19h-1Zm5.6-25.08H465.22v10.19H475.4V402.06Z" />
    <path class="cls-2" d="M482.05,395a0.43,0.43,0,0,1,.43.43V418.9a0.43,0.43,0,0,1-.43.43h-5.8a0.92,0.92,0,0,0-.67.35s-0.83,1.21-1.35,1.89a37.49,37.49,0,0,1-3.25,3.78,3.69,3.69,0,0,1-.53.43h-0.28a3.51,3.51,0,0,1-.53-0.43l-4.58-5.69a1,1,0,0,0-.7-0.33h-5.79a0.43,0.43,0,0,1-.43-0.43V395.41a0.43,0.43,0,0,1,.43-0.43h23.49M464.29,413.6h12a0.43,0.43,0,0,0,.43-0.43v-12a0.43,0.43,0,0,0-.43-0.43h-12a0.43,0.43,0,0,0-.43.43v12a0.43,0.43,0,0,0,.43.43m17.76-21.33H458.56a3.14,3.14,0,0,0-3.13,3.14V418.9a3.14,3.14,0,0,0,3.13,3.13h4.93l4,5,0.1,0.12,0.11,0.11a6.25,6.25,0,0,0,1.05.83l0.64,0.38h1.76l0.64-.38a6.45,6.45,0,0,0,1-.82,40.23,40.23,0,0,0,3.51-4.08c0.26-.34.59-0.8,0.87-1.19h4.81a3.14,3.14,0,0,0,3.13-3.13V395.41a3.14,3.14,0,0,0-3.13-3.14m-15.49,11.14H474v7.48h-7.48v-7.48Z" />
    <path class="OGD cls-4" d="M647.08,286.47l-0.32-.19a4.86,4.86,0,0,1-.79-0.63l-0.06-.06L641.42,280h-5.58a1.78,1.78,0,0,1-1.78-1.78V254.74a1.78,1.78,0,0,1,1.78-1.78h23.49a1.78,1.78,0,0,1,1.78,1.78v23.49a1.78,1.78,0,0,1-1.78,1.78h-5.52c-0.27.39-.83,1.19-1.23,1.72a38.66,38.66,0,0,1-3.38,3.93,5.11,5.11,0,0,1-.78.63l-0.32.19h-1Zm5.6-25.08H642.49v10.19h10.19V261.39Z" />
    <path class="cls-2" d="M659.33,254.31a0.43,0.43,0,0,1,.43.43v23.49a0.43,0.43,0,0,1-.43.43h-5.8a0.92,0.92,0,0,0-.67.35s-0.83,1.21-1.35,1.89a37.58,37.58,0,0,1-3.25,3.78,3.7,3.7,0,0,1-.53.43h-0.28a3.57,3.57,0,0,1-.53-0.43L642.33,279a1,1,0,0,0-.7-0.33h-5.79a0.43,0.43,0,0,1-.43-0.43V254.74a0.43,0.43,0,0,1,.43-0.43h23.49m-17.76,18.62h12a0.43,0.43,0,0,0,.43-0.43v-12a0.43,0.43,0,0,0-.43-0.43h-12a0.43,0.43,0,0,0-.43.43v12a0.43,0.43,0,0,0,.43.43m17.76-21.32H635.84a3.14,3.14,0,0,0-3.13,3.13v23.49a3.14,3.14,0,0,0,3.13,3.14h4.93l4,5,0.1,0.13,0.12,0.11a6.29,6.29,0,0,0,1.05.83l0.64,0.38h1.76l0.64-.38a6.55,6.55,0,0,0,1-.82,40.39,40.39,0,0,0,3.51-4.08c0.26-.34.59-0.8,0.87-1.19h4.81a3.14,3.14,0,0,0,3.14-3.14V254.74a3.14,3.14,0,0,0-3.14-3.13m-15.48,11.14h7.48v7.48h-7.48v-7.48Z" />
    <path class="GPB cls-4" d="M679.61,318.71l-0.32-.19a4.85,4.85,0,0,1-.79-0.63l-0.06-.06L674,312.25h-5.58a1.78,1.78,0,0,1-1.78-1.78V287a1.78,1.78,0,0,1,1.78-1.78h23.49a1.78,1.78,0,0,1,1.78,1.78v23.49a1.78,1.78,0,0,1-1.78,1.78h-5.52c-0.27.39-.83,1.19-1.23,1.72a38.78,38.78,0,0,1-3.38,3.93,5.14,5.14,0,0,1-.78.62l-0.32.19h-1Zm5.6-25.08H675v10.19h10.19V293.63Z" />
    <path class="cls-2" d="M691.86,286.55a0.43,0.43,0,0,1,.43.43v23.49a0.43,0.43,0,0,1-.43.43h-5.8a0.92,0.92,0,0,0-.67.35s-0.83,1.21-1.35,1.89a37.48,37.48,0,0,1-3.25,3.78,3.66,3.66,0,0,1-.53.43H680a3.52,3.52,0,0,1-.53-0.43l-4.58-5.69a1,1,0,0,0-.7-0.33h-5.79a0.43,0.43,0,0,1-.43-0.43V287a0.43,0.43,0,0,1,.43-0.43h23.49M674.1,305.16h12a0.43,0.43,0,0,0,.43-0.43v-12a0.43,0.43,0,0,0-.43-0.43h-12a0.43,0.43,0,0,0-.43.43v12a0.43,0.43,0,0,0,.43.43m17.76-21.32H668.37a3.14,3.14,0,0,0-3.13,3.13v23.49a3.14,3.14,0,0,0,3.13,3.13h4.93l4,5,0.1,0.13,0.12,0.11a6.3,6.3,0,0,0,1.05.83l0.64,0.38H681l0.64-.38a6.51,6.51,0,0,0,1-.82,40.31,40.31,0,0,0,3.51-4.08c0.26-.34.59-0.8,0.87-1.19h4.81a3.14,3.14,0,0,0,3.14-3.13V287a3.14,3.14,0,0,0-3.14-3.13M676.38,295h7.48v7.48h-7.48V295Z" />
    <path class="GUS cls-4" d="M749.74,309.81l-0.32-.19a4.85,4.85,0,0,1-.79-0.63l-0.06-.06-4.49-5.58H738.5a1.78,1.78,0,0,1-1.78-1.78V278.08a1.78,1.78,0,0,1,1.78-1.78H762a1.78,1.78,0,0,1,1.78,1.78v23.49a1.78,1.78,0,0,1-1.78,1.78h-5.52c-0.27.39-.83,1.19-1.23,1.72a38.78,38.78,0,0,1-3.38,3.93,5.14,5.14,0,0,1-.78.62l-0.32.19h-1Zm5.6-25.08H745.16v10.19h10.19V284.73Z" />
    <path class="cls-2" d="M762,277.65a0.43,0.43,0,0,1,.43.43v23.49a0.43,0.43,0,0,1-.43.43h-5.8a0.92,0.92,0,0,0-.67.35s-0.83,1.21-1.35,1.89a37.48,37.48,0,0,1-3.25,3.78,3.66,3.66,0,0,1-.53.43h-0.28a3.52,3.52,0,0,1-.53-0.43L745,302.33a1,1,0,0,0-.7-0.33H738.5a0.43,0.43,0,0,1-.43-0.43V278.08a0.43,0.43,0,0,1,.43-0.43H762m-17.76,18.62h12a0.43,0.43,0,0,0,.43-0.43v-12a0.43,0.43,0,0,0-.43-0.43h-12a0.43,0.43,0,0,0-.43.43v12a0.43,0.43,0,0,0,.43.43M762,274.94H738.5a3.14,3.14,0,0,0-3.13,3.13v23.49a3.14,3.14,0,0,0,3.13,3.13h4.93l4,5,0.1,0.13,0.12,0.11a6.3,6.3,0,0,0,1.05.83l0.64,0.38h1.76l0.64-.38a6.51,6.51,0,0,0,1-.82,40.31,40.31,0,0,0,3.51-4.08c0.26-.34.59-0.8,0.87-1.19H762a3.14,3.14,0,0,0,3.14-3.13V278.08a3.14,3.14,0,0,0-3.14-3.13m-15.48,11.14H754v7.48h-7.48v-7.48Z" />
    <path class="VSG cls-4" d="M844.4,339.25l-0.32-.19a4.85,4.85,0,0,1-.79-0.63l-0.06-.06-4.49-5.58h-5.58a1.78,1.78,0,0,1-1.78-1.78V307.52a1.78,1.78,0,0,1,1.78-1.78h23.49a1.78,1.78,0,0,1,1.78,1.78V331a1.78,1.78,0,0,1-1.78,1.78h-5.52c-0.27.39-.83,1.19-1.23,1.72a38.78,38.78,0,0,1-3.38,3.93,5.14,5.14,0,0,1-.78.62l-0.32.19h-1Zm5.6-25.08H839.82v10.19H850V314.17Z" />
    <path class="cls-2" d="M856.66,307.09a0.43,0.43,0,0,1,.43.43V331a0.43,0.43,0,0,1-.43.43h-5.8a0.92,0.92,0,0,0-.67.35s-0.83,1.21-1.35,1.89a37.48,37.48,0,0,1-3.25,3.78,3.66,3.66,0,0,1-.53.43h-0.28a3.52,3.52,0,0,1-.53-0.43l-4.58-5.69a1,1,0,0,0-.7-0.33h-5.79a0.43,0.43,0,0,1-.43-0.43V307.52a0.43,0.43,0,0,1,.43-0.43h23.49M838.9,325.71h12a0.43,0.43,0,0,0,.43-0.43v-12a0.43,0.43,0,0,0-.43-0.43h-12a0.43,0.43,0,0,0-.43.43v12a0.43,0.43,0,0,0,.43.43m17.76-21.32H833.17a3.14,3.14,0,0,0-3.13,3.13V331a3.14,3.14,0,0,0,3.13,3.13h4.93l4,5,0.1,0.13,0.12,0.11a6.3,6.3,0,0,0,1.05.83L844,340.6h1.76l0.64-.38a6.51,6.51,0,0,0,1-.82,40.31,40.31,0,0,0,3.51-4.08c0.26-.34.59-0.8,0.87-1.19h4.81a3.14,3.14,0,0,0,3.14-3.13V307.52a3.14,3.14,0,0,0-3.14-3.13m-15.48,11.14h7.48V323h-7.48v-7.48Z" />
    <path class="GBT cls-4" d="M531.58,354.65l-0.32-.19a4.85,4.85,0,0,1-.8-0.63l-0.06-.06-4.49-5.58h-5.58a1.78,1.78,0,0,1-1.78-1.78V322.92a1.78,1.78,0,0,1,1.78-1.78h23.49a1.78,1.78,0,0,1,1.78,1.78v23.49a1.78,1.78,0,0,1-1.78,1.78h-5.52c-0.27.39-.83,1.19-1.23,1.72a38.71,38.71,0,0,1-3.38,3.93,4.91,4.91,0,0,1-.78.62l-0.32.19h-1Zm5.6-25.08H527v10.19h10.19V329.57Z" />
    <path class="cls-2" d="M543.83,322.49a0.43,0.43,0,0,1,.43.43v23.49a0.43,0.43,0,0,1-.43.43H538a0.92,0.92,0,0,0-.67.35s-0.83,1.21-1.35,1.89a37.61,37.61,0,0,1-3.25,3.78,3.71,3.71,0,0,1-.53.43h-0.28a3.56,3.56,0,0,1-.53-0.43l-4.58-5.69a1,1,0,0,0-.7-0.33h-5.79a0.43,0.43,0,0,1-.43-0.43V322.92a0.43,0.43,0,0,1,.43-0.43h23.49m-17.76,18.62h12a0.43,0.43,0,0,0,.43-0.43v-12a0.43,0.43,0,0,0-.43-0.43h-12a0.43,0.43,0,0,0-.43.43v12a0.43,0.43,0,0,0,.43.43m17.76-21.32H520.34a3.14,3.14,0,0,0-3.13,3.13v23.49a3.14,3.14,0,0,0,3.13,3.14h4.93l4,5,0.1,0.13,0.11,0.11a6.31,6.31,0,0,0,1.05.83l0.64,0.38H533l0.64-.38a6.51,6.51,0,0,0,1-.82,40.2,40.2,0,0,0,3.51-4.08c0.26-.34.59-0.8,0.86-1.19h4.81a3.14,3.14,0,0,0,3.13-3.14V322.92a3.14,3.14,0,0,0-3.13-3.13m-15.49,11.14h7.48v7.48h-7.48v-7.48Z" />
    <path class="MG cls-4" d="M449.92,291.7l-0.32-.19a4.83,4.83,0,0,1-.79-0.63l-0.06-.06-4.49-5.58h-5.58a1.78,1.78,0,0,1-1.78-1.78V260a1.78,1.78,0,0,1,1.78-1.78h23.49A1.78,1.78,0,0,1,464,260v23.49a1.78,1.78,0,0,1-1.78,1.78h-5.52c-0.27.39-.83,1.19-1.23,1.72a38.93,38.93,0,0,1-3.38,3.93,5,5,0,0,1-.78.62l-0.32.19h-1Zm5.6-25.08H445.34v10.19h10.19V266.62Z" />
    <path class="cls-2" d="M462.17,259.54a0.43,0.43,0,0,1,.43.43v23.49a0.43,0.43,0,0,1-.43.43h-5.8a0.92,0.92,0,0,0-.67.35s-0.83,1.21-1.35,1.89a37.58,37.58,0,0,1-3.25,3.78,3.75,3.75,0,0,1-.53.43h-0.28a3.56,3.56,0,0,1-.53-0.43l-4.58-5.69a1,1,0,0,0-.7-0.33h-5.79a0.43,0.43,0,0,1-.43-0.43V260a0.43,0.43,0,0,1,.43-0.43h23.49m-17.76,18.62h12a0.43,0.43,0,0,0,.43-0.43v-12a0.43,0.43,0,0,0-.43-0.43h-12a0.43,0.43,0,0,0-.43.43v12a0.43,0.43,0,0,0,.43.43m17.76-21.33H438.68a3.14,3.14,0,0,0-3.13,3.13v23.49a3.14,3.14,0,0,0,3.13,3.13h4.93l4,5,0.1,0.13,0.11,0.11a6.25,6.25,0,0,0,1.05.83l0.64,0.38h1.76l0.64-.38a6.55,6.55,0,0,0,1-.82,40.32,40.32,0,0,0,3.51-4.08c0.26-.34.59-0.8,0.87-1.19h4.81a3.14,3.14,0,0,0,3.13-3.13V260a3.14,3.14,0,0,0-3.13-3.13M446.69,268h7.48v7.48h-7.48V268Z" />
</svg>