<?xml version="1.0" encoding="UTF-8" standalone="no"?>
<svg
   xmlns:dc="http://purl.org/dc/elements/1.1/"
   xmlns:cc="http://creativecommons.org/ns#"
   xmlns:rdf="http://www.w3.org/1999/02/22-rdf-syntax-ns#"
   xmlns:svg="http://www.w3.org/2000/svg"
   xmlns="http://www.w3.org/2000/svg"
   xmlns:sodipodi="http://sodipodi.sourceforge.net/DTD/sodipodi-0.dtd"
   xmlns:inkscape="http://www.inkscape.org/namespaces/inkscape"
   version="1.1"
   viewBox="0 0 1001.89 541.4"
   id="map"
   sodipodi:docname="gallery-map.svg"
   inkscape:version="1.0beta2 (2b71d25, 2019-12-03)">
  <metadata
     id="metadata44">
    <rdf:RDF>
      <cc:Work
         rdf:about="">
        <dc:format>image/svg+xml</dc:format>
        <dc:type
           rdf:resource="http://purl.org/dc/dcmitype/StillImage" />
      </cc:Work>
    </rdf:RDF>
  </metadata>
  <sodipodi:namedview
     pagecolor="#ffffff"
     bordercolor="#666666"
     inkscape:document-rotation="0"
     borderopacity="1"
     objecttolerance="10"
     gridtolerance="10"
     guidetolerance="10"
     inkscape:pageopacity="0"
     inkscape:pageshadow="2"
     inkscape:window-width="1421"
     inkscape:window-height="762"
     id="namedview42"
     showgrid="false"
     inkscape:zoom="2.0864325"
     inkscape:cx="706.8531"
     inkscape:cy="286.49022"
     inkscape:window-x="0"
     inkscape:window-y="23"
     inkscape:window-maximized="0"
     inkscape:current-layer="map" />
  <defs
     id="defs156">
    <style
       id="style154">
      .cls-1 {font-size:10px;}
      .cls-2 {fill:#fff}
      .cls-3 {fill:none;stroke:#bebebe;stroke-linecap:round;stroke-width:2px}
      .cls-4 {fill:#5b5d5c}
    </style>
  </defs>
  <path
     id="path158"
     d="M 913,307.9 888,297.44 A 62,62 0 0 1 874.08,288.8 L 848.6,266.68 a 24.22,24.22 0 0 0 -14.56,-5.1 l -15.91,0.64 a 32.84,32.84 0 0 0 -15.05,5.15 L 789.66,277 a 12.15,12.15 0 0 1 -13.4,-0.14 l -5.34,-4 a 30.77,30.77 0 0 0 -15,-5.17 h -1.5 a 39.27,39.27 0 0 0 -15.72,3.51 l -36.18,18.17 a 9.6,9.6 0 0 1 -12,-3.17 l -22.45,-33.88 a 9.31,9.31 0 0 0 -11.89,-3 l -22.51,12 a 12.84,12.84 0 0 1 -13.52,-1.58 l -5,-4.41 c -3.41,-3 -9.72,-5.3 -14,-5.07 a 22.82,22.82 0 0 0 -5.73,1.22 l 1.75,-1.22 -19.5,-24.31 a 23.16,23.16 0 0 1 -4.34,-14.21 l 0.51,-6 a 11.07,11.07 0 0 0 -6.85,-10.7 l -18.39,-6.68 a 19.66,19.66 0 0 0 -14.46,1.25 l -0.41,0.23 A 9.46,9.46 0 0 1 522,187.42 L 512.41,175 a 9,9 0 0 1 1,-11.77 l 1.22,-1.13 c 3.23,-3 4.2,-8.36 2.16,-11.93 -2.04,-3.57 -7.27,-6 -11.62,-5.29 L 474,149.66 a 27.32,27.32 0 0 1 -14.9,-2.69 l -7.17,-4 c -3.84,-2.14 -8.54,-3 -10.44,-1.83 -1.9,1.17 -1.49,5.09 0.92,8.77 l 3.29,5.09 a 9.22,9.22 0 0 1 -1.79,11.81 L 432.78,176 a 9.48,9.48 0 0 1 -12.06,-0.29 l -14.43,-13.19 a 14,14 0 0 1 -3.64,-13.07 l 4.16,-14.12 a 14.13,14.13 0 0 0 -3.61,-13.1 l -8.25,-7.62 a 17.32,17.32 0 0 0 -13.7,-3.74 L 366.89,114 a 26.26,26.26 0 0 1 -15,-1.94 L 333,102.44 a 13.52,13.52 0 0 1 -6.77,-11.62 l 0.23,-5.11 a 12.5,12.5 0 0 0 -7,-11.17 l -16.44,-7.11 a 7.12,7.12 0 0 0 -9.79,4.44 l -2.09,6.53 c -1.34,4.19 -4,4.39 -6,0.44 l -6.91,-14 a 14.13,14.13 0 0 0 -11.54,-7.17 h -15.12 a 7.25,7.25 0 0 0 -7.33,8 l 0.64,7.65 a 10.57,10.57 0 0 1 -6.95,10.42 l -59.4,19.09 a 34.13,34.13 0 0 0 -12.88,8.47 L 158,120 a 20.26,20.26 0 0 1 -13.27,6.05 l -12.71,0.05 a 17.34,17.34 0 0 0 -12.58,6.59 l -12.16,17.42 a 6.51,6.51 0 0 1 -10.26,0.93 l -9.81,-9.73 a 9.16,9.16 0 0 0 -11.9,-0.6 L 72.54,143 a 7.64,7.64 0 0 0 -0.94,11 l 25.15,28.65 a 11.77,11.77 0 0 1 1.19,12.89 L 95.3,200 a 15.42,15.42 0 0 0 -0.19,13.86 c 0,0 26.56,47.66 26.75,48.08 l 12.86,1.2 c 9.56,1 17.62,28.1 17.62,28.1 a 11.69,11.69 0 0 0 10.27,7.83 l 2.51,0.05 a 16.07,16.07 0 0 1 12.09,7 l 29.75,50 A 15,15 0 0 0 219,362.8 l 46.6,-1.38 a 17.71,17.71 0 0 0 12.51,-6.85 l 20.58,-30.16 a 15.39,15.39 0 0 1 12.49,-6 l 12.58,0.94 a 41.65,41.65 0 0 1 14.9,4.6 L 371,342.64 a 49.54,49.54 0 0 0 14.84,5.14 c 0,0 48.47,7 59.63,8.73 l -7.41,21.14 a 24.53,24.53 0 0 0 0.54,15.4 l 7.2,16.69 a 52.89,52.89 0 0 0 9.09,13.49 l 44.33,44.94 a 23.34,23.34 0 0 0 14.12,6 l 79.82,1.15 a 8.57,8.57 0 0 0 8.64,-8.14 l 0.93,-23.07 a 9.16,9.16 0 0 1 8.64,-8.59 l 38,-1.53 a 18.85,18.85 0 0 0 13,-7.13 l 2.7,-3.88 a 8.53,8.53 0 0 1 11.64,-2.21 l 17.85,11.85 a 9.58,9.58 0 0 0 12.26,-1.73 l 42.45,-50.07 a 15.23,15.23 0 0 1 13.47,-4.55 l 29.63,6.44 a 49.41,49.41 0 0 0 16.29,0.25 L 825,380 a 13.89,13.89 0 0 1 12.85,5.32 l 4.14,6 c 2.57,3.76 7.59,7.81 11.14,9 3.55,1.19 10.15,1.54 14.65,0.76 l 8.79,-1.52 a 9.73,9.73 0 0 0 7.85,-9.67 l -0.22,-5.51 a 28.32,28.32 0 0 1 4.45,-15 l 17,-24 a 76.47,76.47 0 0 0 7.68,-14.5 l 4.5,-12 A 8.71,8.71 0 0 0 913,307.9 Z"
     class="cls-2"
     sodipodi:insensitive="true"
     inkscape:connector-curvature="0" />
  <path
     id="path160"
     d="M633.73 261.29a12.84 12.84 0 01-13.52-1.58l-5-4.41c-3.41-3-9.72-5.3-14-5.07a29.32 29.32 0 00-14.26 5.64l-35.8 29c-3.54 2.87-7 8.44-7.67 12.39s-4.25 9.36-7.94 12L499.94 335a26.34 26.34 0 01-15 4.22l-24.21-1.86a11.4 11.4 0 00-11 7.17l-11.63 33.12a24.53 24.53 0 00.54 15.4l7.2 16.69a52.89 52.89 0 009.09 13.49l44.33 44.94a23.34 23.34 0 0014.13 6l79.82 1.15a8.57 8.57 0 008.64-8.14l.93-23.07a9.16 9.16 0 018.64-8.59l38-1.53a18.85 18.85 0 0013-7.13l2.7-3.88a8.53 8.53 0 0111.64-2.21l17.85 11.85a9.58 9.58 0 0012.26-1.73l42.45-50.07a15.23 15.23 0 0113.47-4.55l29.63 6.44a49.41 49.41 0 0016.29.25L825 380a13.89 13.89 0 0112.85 5.32l4.14 6c2.57 3.76 7.59 7.81 11.14 9s10.15 1.54 14.65.76l8.79-1.52a9.73 9.73 0 007.85-9.67l-.22-5.51a28.32 28.32 0 014.45-15l17-24a76.47 76.47 0 007.68-14.5l4.5-12A8.71 8.71 0 00913 307.9l-25-10.46a62 62 0 01-13.92-8.64l-25.48-22.12a24.22 24.22 0 00-14.56-5.1l-15.91.64a32.84 32.84 0 00-15.05 5.15L789.66 277a12.15 12.15 0 01-13.4-.14l-5.34-4a30.77 30.77 0 00-15-5.17h-1.5a39.27 39.27 0 00-15.72 3.51l-36.18 18.17a9.6 9.6 0 01-12-3.17l-22.45-33.88a9.31 9.31 0 00-11.89-3z"
     class="cls-3" />
  <path
     id="path162"
     d="M445.58 356.52c-11-1.75-59.7-8.74-59.7-8.74a49.54 49.54 0 01-14.88-5.14l-32.3-18.71a41.65 41.65 0 00-14.9-4.6l-12.58-.94a15.39 15.39 0 00-12.49 6l-20.58 30.16a17.71 17.71 0 01-12.51 6.85L219 362.8a15 15 0 01-12-6.64l-29.75-50a16.07 16.07 0 00-12.09-7l-2.51-.05a11.69 11.69 0 01-10.27-7.83s-8.06-27.14-17.62-28.1l-12.86-1.2c-.18-.41-26.75-48.08-26.75-48.08a15.42 15.42 0 01.15-13.9l2.63-4.43a11.77 11.77 0 00-1.19-12.89L71.6 154a7.64 7.64 0 01.94-11l2.81-2.27a9.16 9.16 0 0111.9.61l9.81 9.73a6.51 6.51 0 0010.26-.93l12.16-17.42a17.34 17.34 0 0112.58-6.59l12.71-.05A20.26 20.26 0 00158 120l7.63-8.72a34.13 34.13 0 0112.88-8.47l59.4-19.09a10.57 10.57 0 006.95-10.42l-.64-7.65a7.25 7.25 0 017.33-8h15.17a14.13 14.13 0 0111.54 7.17l6.91 14c1.95 3.95 4.64 3.74 6-.44l2.09-6.53a7.12 7.12 0 019.79-4.44l16.44 7.11a12.5 12.5 0 017 11.17l-.23 5.11a13.52 13.52 0 006.74 11.64l18.93 9.62a26.26 26.26 0 0015 1.94l14.36-3.1a17.32 17.32 0 0113.7 3.74l8.25 7.62a14.13 14.13 0 013.61 13.1l-4.16 14.12a14 14 0 003.64 13.07l14.43 13.19a9.48 9.48 0 0012.06.29l11.14-9.24A9.22 9.22 0 00445.7 155l-3.31-5.07c-2.4-3.69-2.82-7.63-.92-8.77s6.6-.32 10.44 1.83l7.17 4a27.32 27.32 0 0014.9 2.69l31.18-4.76c4.35-.66 9.58 1.72 11.62 5.29s1.07 8.95-2.16 11.93l-1.22 1.13a9 9 0 00-1 11.77l9.55 12.4a9.46 9.46 0 0011.83 2.36l.41-.23a19.66 19.66 0 0114.46-1.25l18.4 6.68a11.07 11.07 0 016.85 10.7l-.51 6a23.16 23.16 0 004.34 14.21l19.5 24.31"
     class="cls-3" />
  <path
     id="path164"
     d="M552.47 452.48l-.32-.19a4.92 4.92 0 01-.79-.63l-.06-.06-4.48-5.6h-5.58a1.78 1.78 0 01-1.78-1.78v-23.47a1.78 1.78 0 011.78-1.78h23.49a1.78 1.78 0 011.78 1.78v23.49a1.78 1.78 0 01-1.78 1.78h-5.52c-.27.39-.83 1.19-1.24 1.72a38.64 38.64 0 01-3.38 3.93 5.07 5.07 0 01-.78.62l-.32.19h-1zm5.6-25.08h-10.18v10.19h10.19v-10.18z"
     class="GNZ cls-4" />
  <path
     id="path166"
     d="M564.73 420.32a.43.43 0 01.43.43v23.49a.43.43 0 01-.43.43h-5.8a.92.92 0 00-.67.35s-.83 1.21-1.35 1.89a37.42 37.42 0 01-3.24 3.78 3.64 3.64 0 01-.53.43h-.28a3.55 3.55 0 01-.54-.43l-4.59-5.69a1 1 0 00-.7-.33h-5.79a.43.43 0 01-.43-.43v-23.49a.43.43 0 01.43-.43h23.49M547 438.94h12a.43.43 0 00.43-.43v-12a.43.43 0 00-.43-.43h-12a.43.43 0 00-.43.43v12a.43.43 0 00.43.43m17.76-21.33h-23.52a3.14 3.14 0 00-3.13 3.14v23.49a3.14 3.14 0 003.13 3.13h4.93l4 5 .1.13.12.11a6.26 6.26 0 001 .83l.64.38h1.76l.64-.38a6.49 6.49 0 001-.82 40 40 0 003.51-4.08c.26-.34.59-.8.87-1.19h4.81a3.14 3.14 0 003.14-3.13v-23.47a3.14 3.14 0 00-3.14-3.14m-15.48 11.14h7.48v7.48h-7.48v-7.48z"
     class="cls-2" />
  <path
     id="path168"
     d="M535.05 409l-.32-.19a4.92 4.92 0 01-.79-.63l-.06-.06-4.49-5.58h-5.58a1.78 1.78 0 01-1.78-1.78V377.3a1.78 1.78 0 011.78-1.78h23.49a1.78 1.78 0 011.78 1.78v23.49a1.78 1.78 0 01-1.78 1.78h-5.52c-.27.39-.83 1.19-1.24 1.72a38.64 38.64 0 01-3.38 3.93 5.07 5.07 0 01-.78.62l-.32.19h-1zm5.6-25.08h-10.18v10.19h10.19V384z"
     class="NGN cls-4" />
  <path
     id="path170"
     d="M547.31 376.87a.43.43 0 01.43.43v23.49a.43.43 0 01-.43.43h-5.8a.92.92 0 00-.67.35s-.83 1.21-1.35 1.89a37.42 37.42 0 01-3.24 3.78 3.64 3.64 0 01-.53.43h-.28a3.55 3.55 0 01-.54-.43l-4.58-5.69a1 1 0 00-.7-.33h-5.79a.43.43 0 01-.43-.43V377.3a.43.43 0 01.43-.43h23.49m-17.76 18.62h12a.43.43 0 00.43-.43V383a.43.43 0 00-.43-.43h-12a.43.43 0 00-.43.43v12a.43.43 0 00.43.43m17.76-21.33h-23.5a3.14 3.14 0 00-3.13 3.14v23.49a3.14 3.14 0 003.13 3.13h4.93l4 5 .1.13.12.11a6.26 6.26 0 001 .83l.64.38h1.76l.64-.38a6.49 6.49 0 001-.82 40 40 0 003.51-4.08c.26-.34.59-.8.87-1.19h4.81a3.14 3.14 0 003.14-3.13V377.3a3.14 3.14 0 00-3.14-3.14m-15.48 11.14h7.48v7.48h-7.48v-7.48z"
     class="cls-2" />
  <path
     id="path172"
     d="M629.93 379.76l-.32-.19a5 5 0 01-.79-.63l-.06-.06-4.49-5.58h-5.58a1.78 1.78 0 01-1.78-1.78V348a1.78 1.78 0 011.78-1.78h23.49A1.78 1.78 0 01644 348v23.49a1.78 1.78 0 01-1.78 1.78h-5.52c-.27.39-.83 1.19-1.24 1.72a38.61 38.61 0 01-3.38 3.93 5.05 5.05 0 01-.78.62l-.32.19h-1zm5.6-25.08h-10.19v10.19h10.19v-10.19z"
     class="SGB cls-4" />
  <path
     id="path174"
     d="M642.18 347.6a.43.43 0 01.43.43v23.49a.43.43 0 01-.43.43h-5.8a.92.92 0 00-.67.35s-.83 1.21-1.35 1.89a37.42 37.42 0 01-3.24 3.78 3.64 3.64 0 01-.53.43h-.29a3.55 3.55 0 01-.54-.43l-4.58-5.69a1 1 0 00-.7-.33h-5.79a.43.43 0 01-.43-.43V348a.43.43 0 01.43-.43h23.49m-17.76 18.62h12a.43.43 0 00.43-.43v-12a.43.43 0 00-.43-.43h-12a.43.43 0 00-.43.43v12a.43.43 0 00.43.43m17.76-21.33h-23.49a3.14 3.14 0 00-3.13 3.14v23.49a3.14 3.14 0 003.13 3.13h4.93l4 5 .1.13.12.11a6.26 6.26 0 001 .83l.64.38h1.76l.64-.38a6.49 6.49 0 001-.82 40 40 0 003.51-4.08c.26-.34.59-.8.87-1.19h4.81a3.14 3.14 0 003.14-3.13V348a3.14 3.14 0 00-3.14-3.14M626.7 356h7.48v7.48h-7.48V356z"
     class="cls-2" />
  <path
     id="path176"
     d="M469.8 427.14l-.32-.19a4.72 4.72 0 01-.8-.63l-.06-.06-4.49-5.58h-5.58a1.78 1.78 0 01-1.78-1.78v-23.49a1.78 1.78 0 011.78-1.78h23.49a1.78 1.78 0 011.78 1.78v23.49a1.78 1.78 0 01-1.78 1.78h-5.52c-.27.39-.83 1.19-1.23 1.72a38.65 38.65 0 01-3.38 3.93 5 5 0 01-.78.62l-.32.19h-1zm5.6-25.08h-10.18v10.19h10.18v-10.19z"
     class="SNG GMB cls-4" />
  <path
     id="path178"
     d="M482.05 395a.43.43 0 01.43.43v23.47a.43.43 0 01-.43.43h-5.8a.92.92 0 00-.67.35s-.83 1.21-1.35 1.89a37.49 37.49 0 01-3.25 3.78 3.69 3.69 0 01-.53.43h-.28a3.51 3.51 0 01-.53-.43l-4.58-5.69a1 1 0 00-.7-.33h-5.79a.43.43 0 01-.43-.43v-23.49a.43.43 0 01.43-.43h23.49m-17.77 18.62h12a.43.43 0 00.43-.43v-12a.43.43 0 00-.43-.43h-12a.43.43 0 00-.43.43v12a.43.43 0 00.43.43m17.76-21.33h-23.49a3.14 3.14 0 00-3.13 3.14v23.49a3.14 3.14 0 003.13 3.13h4.93l4 5 .1.12.11.11a6.25 6.25 0 001.05.83l.64.38h1.76l.64-.38a6.45 6.45 0 001-.82 40.23 40.23 0 003.51-4.08c.26-.34.59-.8.87-1.19h4.81a3.14 3.14 0 003.13-3.13v-23.46a3.14 3.14 0 00-3.13-3.14m-15.49 11.14H474v7.48h-7.48v-7.48z"
     class="cls-2" />
  <path
     id="path180"
     d="M647.08 286.47l-.32-.19a4.86 4.86 0 01-.79-.63l-.06-.06-4.49-5.59h-5.58a1.78 1.78 0 01-1.78-1.78v-23.48a1.78 1.78 0 011.78-1.78h23.49a1.78 1.78 0 011.78 1.78v23.49a1.78 1.78 0 01-1.78 1.78h-5.52c-.27.39-.83 1.19-1.23 1.72a38.66 38.66 0 01-3.38 3.93 5.11 5.11 0 01-.78.63l-.32.19h-1zm5.6-25.08h-10.19v10.19h10.19v-10.19z"
     class="OGD cls-4" />
  <path
     id="path182"
     d="M659.33 254.31a.43.43 0 01.43.43v23.49a.43.43 0 01-.43.43h-5.8a.92.92 0 00-.67.35s-.83 1.21-1.35 1.89a37.58 37.58 0 01-3.25 3.78 3.7 3.7 0 01-.53.43h-.28a3.57 3.57 0 01-.53-.43l-4.59-5.68a1 1 0 00-.7-.33h-5.79a.43.43 0 01-.43-.43v-23.5a.43.43 0 01.43-.43h23.49m-17.76 18.62h12a.43.43 0 00.43-.43v-12a.43.43 0 00-.43-.43h-12a.43.43 0 00-.43.43v12a.43.43 0 00.43.43m17.76-21.32h-23.49a3.14 3.14 0 00-3.13 3.13v23.49a3.14 3.14 0 003.13 3.14h4.93l4 5 .1.13.12.11a6.29 6.29 0 001.05.83l.64.38h1.76l.64-.38a6.55 6.55 0 001-.82 40.39 40.39 0 003.51-4.08c.26-.34.59-.8.87-1.19h4.81a3.14 3.14 0 003.14-3.14v-23.47a3.14 3.14 0 00-3.14-3.13m-15.48 11.14h7.48v7.48h-7.48v-7.48z"
     class="cls-2" />
  <path
     id="path184"
     d="M679.61 318.71l-.32-.19a4.85 4.85 0 01-.79-.63l-.06-.06-4.44-5.58h-5.58a1.78 1.78 0 01-1.78-1.78V287a1.78 1.78 0 011.78-1.78h23.49a1.78 1.78 0 011.78 1.78v23.49a1.78 1.78 0 01-1.78 1.78h-5.52c-.27.39-.83 1.19-1.23 1.72a38.78 38.78 0 01-3.38 3.93 5.14 5.14 0 01-.78.62l-.32.19h-1zm5.6-25.08H675v10.19h10.19v-10.19z"
     class="GPB cls-4" />
  <path
     id="path186"
     d="M691.86 286.55a.43.43 0 01.43.43v23.49a.43.43 0 01-.43.43h-5.8a.92.92 0 00-.67.35s-.83 1.21-1.35 1.89a37.48 37.48 0 01-3.25 3.78 3.66 3.66 0 01-.53.43H680a3.52 3.52 0 01-.53-.43l-4.58-5.69a1 1 0 00-.7-.33h-5.79a.43.43 0 01-.43-.43V287a.43.43 0 01.43-.43h23.49m-17.79 18.59h12a.43.43 0 00.43-.43v-12a.43.43 0 00-.43-.43h-12a.43.43 0 00-.43.43v12a.43.43 0 00.43.43m17.76-21.32h-23.49a3.14 3.14 0 00-3.13 3.13v23.49a3.14 3.14 0 003.13 3.13h4.93l4 5 .1.13.12.11a6.3 6.3 0 001.05.83l.64.38H681l.64-.38a6.51 6.51 0 001-.82 40.31 40.31 0 003.51-4.08c.26-.34.59-.8.87-1.19h4.81a3.14 3.14 0 003.14-3.13V287a3.14 3.14 0 00-3.14-3.13M676.38 295h7.48v7.48h-7.48V295z"
     class="cls-2" />
  <path
     id="path188"
     d="M755.74 323.81l-.32-.19a4.85 4.85 0 01-.79-.63l-.06-.06-4.49-5.58h-5.58a1.78 1.78 0 01-1.78-1.78v-23.49a1.78 1.78 0 011.78-1.78H768a1.78 1.78 0 011.78 1.78v23.49a1.78 1.78 0 01-1.78 1.78h-5.52c-.27.39-.83 1.19-1.23 1.72a38.78 38.78 0 01-3.38 3.93 5.14 5.14 0 01-.78.62l-.32.19h-1zm5.6-25.08h-10.18v10.19h10.19v-10.19z"
     class="GUS cls-4" />
  <path
     id="path190"
     d="M768 291.65a.43.43 0 01.43.43v23.49a.43.43 0 01-.43.43h-5.8a.92.92 0 00-.67.35s-.83 1.21-1.35 1.89a37.48 37.48 0 01-3.25 3.78 3.66 3.66 0 01-.53.43h-.28a3.52 3.52 0 01-.53-.43l-4.59-5.69a1 1 0 00-.7-.33h-5.8a.43.43 0 01-.43-.43v-23.49a.43.43 0 01.43-.43H768m-17.76 18.62h12a.43.43 0 00.43-.43v-12a.43.43 0 00-.43-.43h-12a.43.43 0 00-.43.43v12a.43.43 0 00.43.43M768 288.94h-23.5a3.14 3.14 0 00-3.13 3.13v23.49a3.14 3.14 0 003.13 3.13h4.93l4 5 .1.13.12.11a6.3 6.3 0 001.05.83l.64.38h1.76l.64-.38a6.51 6.51 0 001-.82 40.31 40.31 0 003.51-4.08c.26-.34.59-.8.87-1.19H768a3.14 3.14 0 003.14-3.13v-23.46a3.14 3.14 0 00-3.14-3.13m-15.48 11.14H760v7.48h-7.48z"
     class="cls-2" />
  <path
     id="path192"
     d="M815.322 360.072l-.32-.19a4.85 4.85 0 01-.79-.63l-.06-.06-4.49-5.58h-5.58a1.78 1.78 0 01-1.78-1.78v-23.49a1.78 1.78 0 011.78-1.78h23.49a1.78 1.78 0 011.78 1.78v23.48a1.78 1.78 0 01-1.78 1.78h-5.52c-.27.39-.83 1.19-1.23 1.72a38.78 38.78 0 01-3.38 3.93 5.14 5.14 0 01-.78.62l-.32.19h-1zm5.6-25.08h-10.18v10.19h10.18z"
     class="VSG cls-4" />
  <path
     id="path194"
     d="M827.582 327.912a.43.43 0 01.43.43v23.48a.43.43 0 01-.43.43h-5.8a.92.92 0 00-.67.35s-.83 1.21-1.35 1.89a37.48 37.48 0 01-3.25 3.78 3.66 3.66 0 01-.53.43h-.28a3.52 3.52 0 01-.53-.43l-4.58-5.69a1 1 0 00-.7-.33h-5.79a.43.43 0 01-.43-.43v-23.48a.43.43 0 01.43-.43h23.49m-17.77 18.62h12a.43.43 0 00.43-.43v-12a.43.43 0 00-.43-.43h-12a.43.43 0 00-.43.43v12a.43.43 0 00.43.43m17.76-21.32h-23.49a3.14 3.14 0 00-3.13 3.13v23.48a3.14 3.14 0 003.13 3.13h4.93l4 5 .1.13.12.11a6.3 6.3 0 001.05.83l.63.4h1.76l.64-.38a6.51 6.51 0 001-.82 40.31 40.31 0 003.51-4.08c.26-.34.59-.8.87-1.19h4.81a3.14 3.14 0 003.14-3.13v-23.48a3.14 3.14 0 00-3.14-3.13m-15.48 11.14h7.48v7.47h-7.48v-7.48z"
     class="cls-2" />
  <path
     id="path196"
     d="M531.58 354.65l-.32-.19a4.85 4.85 0 01-.8-.63l-.06-.06-4.49-5.58h-5.58a1.78 1.78 0 01-1.78-1.78v-23.49a1.78 1.78 0 011.78-1.78h23.49a1.78 1.78 0 011.78 1.78v23.49a1.78 1.78 0 01-1.78 1.78h-5.52c-.27.39-.83 1.19-1.23 1.72a38.71 38.71 0 01-3.38 3.93 4.91 4.91 0 01-.78.62l-.32.19h-1zm5.6-25.08H527v10.19h10.19v-10.19z"
     class="GBT cls-4" />
  <path
     id="path198"
     d="M543.83 322.49a.43.43 0 01.43.43v23.49a.43.43 0 01-.43.43H538a.92.92 0 00-.67.35s-.83 1.21-1.35 1.89a37.61 37.61 0 01-3.25 3.78 3.71 3.71 0 01-.53.43h-.28a3.56 3.56 0 01-.53-.43l-4.58-5.69a1 1 0 00-.7-.33h-5.79a.43.43 0 01-.43-.43v-23.49a.43.43 0 01.43-.43h23.49m-17.76 18.62h12a.43.43 0 00.43-.43v-12a.43.43 0 00-.43-.43h-12a.43.43 0 00-.43.43v12a.43.43 0 00.43.43m17.76-21.32h-23.47a3.14 3.14 0 00-3.13 3.13v23.49a3.14 3.14 0 003.13 3.14h4.93l4 5 .1.13.11.11a6.31 6.31 0 001.05.83l.64.38H533l.64-.38a6.51 6.51 0 001-.82 40.2 40.2 0 003.51-4.08c.26-.34.59-.8.86-1.19h4.81a3.14 3.14 0 003.13-3.14v-23.47a3.14 3.14 0 00-3.13-3.13m-15.49 11.14h7.48v7.48h-7.48v-7.48z"
     class="cls-2" />
  <path
     id="path200"
     d="M449.92 291.7l-.32-.19a4.83 4.83 0 01-.79-.63l-.06-.06-4.49-5.58h-5.58a1.78 1.78 0 01-1.78-1.78V260a1.78 1.78 0 011.78-1.78h23.49A1.78 1.78 0 01464 260v23.49a1.78 1.78 0 01-1.78 1.78h-5.52c-.27.39-.83 1.19-1.23 1.72a38.93 38.93 0 01-3.38 3.93 5 5 0 01-.78.62l-.32.19h-1zm5.6-25.08h-10.18v10.19h10.19v-10.19z"
     class="MG cls-4" />
  <path
     id="path202"
     d="M462.17 259.54a.43.43 0 01.43.43v23.49a.43.43 0 01-.43.43h-5.8a.92.92 0 00-.67.35s-.83 1.21-1.35 1.89a37.58 37.58 0 01-3.25 3.78 3.75 3.75 0 01-.53.43h-.28a3.56 3.56 0 01-.53-.43l-4.58-5.69a1 1 0 00-.7-.33h-5.79a.43.43 0 01-.43-.43V260a.43.43 0 01.43-.43h23.49m-17.76 18.62h12a.43.43 0 00.43-.43v-12a.43.43 0 00-.43-.43h-12a.43.43 0 00-.43.43v12a.43.43 0 00.43.43m17.76-21.33h-23.5a3.14 3.14 0 00-3.13 3.13v23.49a3.14 3.14 0 003.13 3.13h4.93l4 5 .1.13.11.11a6.25 6.25 0 001.05.83l.64.38h1.76l.64-.38a6.55 6.55 0 001-.82 40.32 40.32 0 003.51-4.08c.26-.34.59-.8.87-1.19h4.81a3.14 3.14 0 003.13-3.13V260a3.14 3.14 0 00-3.13-3.13M446.69 268h7.48v7.48h-7.48V268z"
     class="cls-2" />
  <path
     class="PNP cls-4"
     d="M256.772 183.876l-.32-.19a4.83 4.83 0 01-.79-.63l-.06-.06-4.49-5.58h-5.58a1.78 1.78 0 01-1.78-1.78v-23.46a1.78 1.78 0 011.78-1.78h23.49a1.78 1.78 0 011.83 1.78v23.49a1.78 1.78 0 01-1.78 1.78h-5.52c-.27.39-.83 1.19-1.23 1.72a38.93 38.93 0 01-3.38 3.93 5 5 0 01-.78.62l-.32.19h-1zm5.6-25.08h-10.18v10.19h10.19v-10.19z"
     id="path200-8" />
  <path
     class="cls-2"
     d="M269.022 151.716a.43.43 0 01.43.43v23.49a.43.43 0 01-.43.43h-5.8a.92.92 0 00-.67.35s-.83 1.21-1.35 1.89a37.58 37.58 0 01-3.25 3.78 3.75 3.75 0 01-.53.43h-.28a3.56 3.56 0 01-.53-.43l-4.58-5.69a1 1 0 00-.7-.33h-5.79a.43.43 0 01-.43-.43v-23.46a.43.43 0 01.43-.43h23.49m-17.76 18.62h12a.43.43 0 00.43-.43v-12a.43.43 0 00-.43-.43h-12a.43.43 0 00-.43.43v12a.43.43 0 00.43.43m17.76-21.33h-23.5a3.14 3.14 0 00-3.13 3.13v23.49a3.14 3.14 0 003.13 3.13h4.93l4 5 .1.13.11.11a6.25 6.25 0 001.05.83l.64.38h1.76l.64-.38a6.55 6.55 0 001-.82 40.32 40.32 0 003.51-4.08c.26-.34.59-.8.87-1.19h4.81a3.14 3.14 0 003.13-3.13v-23.46a3.14 3.14 0 00-3.13-3.13m-15.41 11.13h7.48v7.48h-7.48z"
     id="path202-8" />
  <path
     class="PGU cls-4"
     d="M598.648 297.217l-.32-.19a5 5 0 01-.79-.63l-.06-.06-4.49-5.58h-5.58a1.78 1.78 0 01-1.78-1.78v-23.52a1.78 1.78 0 011.78-1.78h23.49a1.78 1.78 0 011.82 1.78v23.49a1.78 1.78 0 01-1.78 1.78h-5.52c-.27.39-.83 1.19-1.24 1.72a38.61 38.61 0 01-3.38 3.93 5.05 5.05 0 01-.78.62l-.32.19h-1zm5.6-25.08h-10.19v10.19h10.19z"
     id="path172-2" />
  <path
     class="cls-2"
     d="M610.898 265.057a.43.43 0 01.43.43v23.49a.43.43 0 01-.43.43h-5.8a.92.92 0 00-.67.35s-.83 1.21-1.35 1.89a37.42 37.42 0 01-3.24 3.78 3.64 3.64 0 01-.53.43h-.29a3.55 3.55 0 01-.54-.43l-4.58-5.69a1 1 0 00-.7-.33h-5.79a.43.43 0 01-.43-.43v-23.52a.43.43 0 01.43-.43h23.49m-17.76 18.62h12a.43.43 0 00.43-.43v-12a.43.43 0 00-.43-.43h-12a.43.43 0 00-.43.43v12a.43.43 0 00.43.43m17.76-21.33h-23.49a3.14 3.14 0 00-3.13 3.14v23.49a3.14 3.14 0 003.13 3.13h4.93l4 5 .1.13.12.11a6.26 6.26 0 001 .83l.64.38h1.76l.64-.38a6.49 6.49 0 001-.82 40 40 0 003.51-4.08c.26-.34.59-.8.87-1.19h4.81a3.14 3.14 0 003.14-3.13v-23.47a3.14 3.14 0 00-3.14-3.14m-15.37 11.14h7.48v7.48h-7.48z"
     id="path174-3" />
  <path
     class="TGP cls-4"
     d="M719.957 319.025l-.32-.19a4.85 4.85 0 01-.79-.63l-.06-.06-4.49-5.58h-5.58a1.78 1.78 0 01-1.78-1.78v-23.49a1.78 1.78 0 011.78-1.78h23.49a1.78 1.78 0 011.78 1.78v23.48a1.78 1.78 0 01-1.78 1.78h-5.52c-.27.39-.83 1.19-1.23 1.72a38.78 38.78 0 01-3.38 3.93 5.14 5.14 0 01-.78.62l-.32.19h-1zm5.6-25.08h-10.18v10.19h10.18z"
     id="path192-9" />
  <path
     class="cls-2"
     d="M732.217 286.865a.43.43 0 01.43.43v23.48a.43.43 0 01-.43.43h-5.8a.92.92 0 00-.67.35s-.83 1.21-1.35 1.89a37.48 37.48 0 01-3.25 3.78 3.66 3.66 0 01-.53.43h-.28a3.52 3.52 0 01-.53-.43l-4.58-5.69a1 1 0 00-.7-.33h-5.79a.43.43 0 01-.43-.43v-23.48a.43.43 0 01.43-.43h23.49m-17.77 18.62h12a.43.43 0 00.43-.43v-12a.43.43 0 00-.43-.43h-12a.43.43 0 00-.43.43v12a.43.43 0 00.43.43m17.76-21.32h-23.49a3.14 3.14 0 00-3.13 3.13v23.48a3.14 3.14 0 003.13 3.13h4.93l4 5 .1.13.12.11a6.3 6.3 0 001.05.83l.63.4h1.76l.64-.38a6.51 6.51 0 001-.82 40.31 40.31 0 003.51-4.08c.26-.34.59-.8.87-1.19h4.81a3.14 3.14 0 003.14-3.13v-23.48a3.14 3.14 0 00-3.14-3.13m-15.48 11.14h7.48v7.47h-7.48v-7.48z"
     id="path194-8" />
  <path
     id="path200-8-9"
     d="m 221.12051,135.35293 -0.32,-0.19 a 4.83,4.83 0 0 1 -0.79,-0.63 l -0.06,-0.06 -4.49,-5.58 h -5.58 a 1.78,1.78 0 0 1 -1.78,-1.78 v -23.46 a 1.78,1.78 0 0 1 1.78,-1.78 h 23.49 a 1.78,1.78 0 0 1 1.83,1.78 v 23.49 a 1.78,1.78 0 0 1 -1.78,1.78 h -5.52 c -0.27,0.39 -0.83,1.19 -1.23,1.72 a 38.93,38.93 0 0 1 -3.38,3.93 5,5 0 0 1 -0.78,0.62 l -0.32,0.19 h -1 z m 5.6,-25.08 h -10.18 v 10.19 h 10.19 v -10.19 z"
     class="RG cls-4" />
  <path
     id="path202-8-4"
     d="m 233.37051,103.19293 a 0.43,0.43 0 0 1 0.43,0.43 v 23.49 a 0.43,0.43 0 0 1 -0.43,0.43 h -5.8 a 0.92,0.92 0 0 0 -0.67,0.35 c 0,0 -0.83,1.21 -1.35,1.89 a 37.58,37.58 0 0 1 -3.25,3.78 3.75,3.75 0 0 1 -0.53,0.43 h -0.28 a 3.56,3.56 0 0 1 -0.53,-0.43 l -4.58,-5.69 a 1,1 0 0 0 -0.7,-0.33 h -5.79 a 0.43,0.43 0 0 1 -0.43,-0.43 v -23.46 a 0.43,0.43 0 0 1 0.43,-0.43 h 23.49 m -17.76,18.62 h 12 a 0.43,0.43 0 0 0 0.43,-0.43 v -12 a 0.43,0.43 0 0 0 -0.43,-0.43 h -12 a 0.43,0.43 0 0 0 -0.43,0.43 v 12 a 0.43,0.43 0 0 0 0.43,0.43 m 17.76,-21.33 h -23.5 a 3.14,3.14 0 0 0 -3.13,3.13 v 23.49 a 3.14,3.14 0 0 0 3.13,3.13 h 4.93 l 4,5 0.1,0.13 0.11,0.11 a 6.25,6.25 0 0 0 1.05,0.83 l 0.64,0.38 h 1.76 l 0.64,-0.38 a 6.55,6.55 0 0 0 1,-0.82 40.32,40.32 0 0 0 3.51,-4.08 c 0.26,-0.34 0.59,-0.8 0.87,-1.19 h 4.81 a 3.14,3.14 0 0 0 3.13,-3.13 v -23.46 a 3.14,3.14 0 0 0 -3.13,-3.13 m -15.41,11.13 h 7.48 v 7.48 h -7.48 z"
     class="cls-2"
     inkscape:connector-curvature="0" />
  <path
     inkscape:connector-curvature="0"
     class="SGP cls-4"
     d="m 816.74393,320.58448 -0.32,-0.19 a 4.85,4.85 0 0 1 -0.79,-0.63 l -0.06,-0.06 -4.49,-5.58 h -5.58 a 1.78,1.78 0 0 1 -1.78,-1.78 v -23.49 a 1.78,1.78 0 0 1 1.78,-1.78 h 23.49 a 1.78,1.78 0 0 1 1.78,1.78 v 23.48 a 1.78,1.78 0 0 1 -1.78,1.78 h -5.52 c -0.27,0.39 -0.83,1.19 -1.23,1.72 a 38.78,38.78 0 0 1 -3.38,3.93 5.14,5.14 0 0 1 -0.78,0.62 l -0.32,0.19 h -1 z m 5.6,-25.08 h -10.18 v 10.19 h 10.18 z"
     id="path192-0" />
  <path
     inkscape:connector-curvature="0"
     class="cls-2"
     d="m 829.00393,288.42448 a 0.43,0.43 0 0 1 0.43,0.43 v 23.48 a 0.43,0.43 0 0 1 -0.43,0.43 h -5.8 a 0.92,0.92 0 0 0 -0.67,0.35 c 0,0 -0.83,1.21 -1.35,1.89 a 37.48,37.48 0 0 1 -3.25,3.78 3.66,3.66 0 0 1 -0.53,0.43 h -0.28 a 3.52,3.52 0 0 1 -0.53,-0.43 l -4.58,-5.69 a 1,1 0 0 0 -0.7,-0.33 h -5.79 a 0.43,0.43 0 0 1 -0.43,-0.43 v -23.48 a 0.43,0.43 0 0 1 0.43,-0.43 h 23.49 m -17.77,18.62 h 12 a 0.43,0.43 0 0 0 0.43,-0.43 v -12 a 0.43,0.43 0 0 0 -0.43,-0.43 h -12 a 0.43,0.43 0 0 0 -0.43,0.43 v 12 a 0.43,0.43 0 0 0 0.43,0.43 m 17.76,-21.32 h -23.49 a 3.14,3.14 0 0 0 -3.13,3.13 v 23.48 a 3.14,3.14 0 0 0 3.13,3.13 h 4.93 l 4,5 0.1,0.13 0.12,0.11 a 6.3,6.3 0 0 0 1.05,0.83 l 0.63,0.4 h 1.76 l 0.64,-0.38 a 6.51,6.51 0 0 0 1,-0.82 40.31,40.31 0 0 0 3.51,-4.08 c 0.26,-0.34 0.59,-0.8 0.87,-1.19 h 4.81 a 3.14,3.14 0 0 0 3.14,-3.13 v -23.48 a 3.14,3.14 0 0 0 -3.14,-3.13 m -15.48,11.14 h 7.48 v 7.47 h -7.48 v -7.48 z"
     id="path194-6" />
</svg>
