<svg height="215.43333" viewBox="0 0 438.42401 215.43333" width="438.42401" xmlns="http://www.w3.org/2000/svg" xmlns:xlink="http://www.w3.org/1999/xlink"><clipPath id="a"><path d="m0 161.575h328.818v-161.575h-328.818z"/></clipPath><g clip-path="url(#a)" fill="#1d1d1b" transform="matrix(1.3333333 0 0 -1.3333333 0 215.43333)"><path d="m0 0c0 3.333-2.132 5.125-6.055 5.125h-6.691v-16.192h2.949v5.964h3.765c3.923 0 6.032 1.792 6.032 5.103m-9.797-2.744v5.488h3.492c2.245 0 3.334-.885 3.334-2.744s-1.089-2.744-3.334-2.744zm14.883-8.323v6.055h3.629l3.696-6.055h3.289l-4.06 6.509c2.154.703 3.447 2.358 3.447 4.603 0 3.288-2.154 5.08-6.009 5.08h-6.94v-16.192zm0 8.414v5.397h3.651c2.245 0 3.379-.908 3.379-2.699 0-1.792-1.134-2.698-3.379-2.698zm25.262-8.414h3.084l-6.509 16.192h-3.379l-6.509-16.192h2.948l1.543 3.969h7.302zm-5.171 13.289h.068l2.675-6.984h-5.465zm16.194-13.561c2.087 0 4.082 1.089 4.649 2.585l.204-2.313h2.336v8.254h-6.123v-2.176h3.129v-.567c0-1.996-1.632-3.402-4.014-3.402-2.97 0-4.717 2.246-4.717 6.01 0 3.741 1.792 5.965 4.763 5.965 2.064 0 3.402-.999 3.787-2.949h2.971c-.658 3.424-3.062 5.329-6.758 5.329-4.672 0-7.824-3.356-7.824-8.345 0-5.034 3.039-8.391 7.597-8.391m23.961 6.803v9.661h-2.994v-9.638c0-2.88-1.338-4.423-3.927-4.423-2.585 0-3.9 1.498-3.9 4.423v9.638h-3.017v-9.615c0-4.4 2.472-6.849 6.917-6.849 4.472 0 6.921 2.426 6.921 6.803m15.03-6.531v2.381h-8.777v4.536h7.687v2.38h-7.687v4.514h8.686v2.381h-11.633v-16.192z" transform="translate(94.0898 28.2334)"/><path d="m0 0h-3.515v-16.192h2.88v12.541h.046l8.322-12.541h2.79v16.192h-2.857v-11.476h-.046zm25.74-16.192h3.084l-6.509 16.192h-3.378l-6.509-16.192h2.948l1.541 3.968h7.304zm-5.171 13.289h.068l2.676-6.985h-5.465zm12.734-13.289h2.993v13.811h5.829v2.381h-14.628v-2.381h5.806zm11.028 0h3.017v16.192h-3.017zm13.359 16.464c-4.671 0-7.732-3.356-7.732-8.369 0-5.011 3.061-8.368 7.732-8.368 4.672 0 7.734 3.357 7.734 8.368 0 5.013-3.062 8.369-7.734 8.369m0-14.355c-2.97 0-4.671 2.199-4.671 5.986 0 3.81 1.701 5.988 4.671 5.988 2.972 0 4.672-2.223 4.672-5.988 0-3.787-1.7-5.986-4.672-5.986m13.867 14.083h-3.518v-16.192h2.883v12.541h.046l8.323-12.541h2.788v16.192h-2.857v-11.476h-.045zm25.739-16.192h3.084l-6.508 16.192h-3.379l-6.51-16.192h2.95l1.541 3.968h7.302zm-5.17 13.289h.068l2.676-6.985h-5.467zm10.182-13.289h11.363v2.38h-8.348v13.812h-3.015zm25.83-.273c2.086 0 4.082 1.089 4.648 2.586l.205-2.313h2.336v8.255h-6.123v-2.178h3.129v-.567c0-1.995-1.633-3.401-4.014-3.401-2.97 0-4.716 2.245-4.716 6.009 0 3.742 1.791 5.965 4.761 5.965 2.065 0 3.403-.998 3.787-2.948h2.971c-.656 3.424-3.06 5.329-6.758 5.329-4.672 0-7.824-3.356-7.824-8.346 0-5.034 3.039-8.391 7.598-8.391m22.271.273h3.086l-6.51 16.192h-3.379l-6.507-16.192h2.947l1.543 3.968h7.303zm-5.17 13.289h.069l2.675-6.985h-5.464zm10.182-13.289h11.361v2.38h-8.344v13.812h-3.017zm13.715 0h11.361v2.38h-8.346v13.812h-3.015zm25.437 0v2.38h-8.777v4.536h7.689v2.381h-7.689v4.514h8.687v2.381h-11.634v-16.192zm5.658 0v6.055h3.629l3.698-6.055h3.287l-4.061 6.508c2.156.704 3.447 2.359 3.447 4.604 0 3.288-2.154 5.08-6.007 5.08h-6.942v-16.192zm0 8.413v5.398h3.651c2.246 0 3.379-.908 3.379-2.699 0-1.792-1.133-2.699-3.379-2.699zm19.936-8.413v6.644l6.283 9.548h-3.289l-4.377-6.917h-.045l-4.49 6.917h-3.357l6.259-9.548v-6.644z" transform="translate(84.8594 57.1172)"/><path d="m0 0v30.968h-25.507v-7.949h14.78v-1.656c0-7.701-6.391-13.086-14.765-13.615v-8.652c7.133.613 13.85 4.359 15.779 9.35l.76-8.446zm-12.162 40.656h11.401c-2.448 12.503-11.908 19.458-25.928 19.458-17.821 0-29.983-12.254-29.983-30.47 0-2.311.186-4.524.545-6.628h11.796c-.394 2.035-.602 4.246-.602 6.628 0 13.662 6.927 21.777 18.244 21.777 7.855 0 13.091-3.644 14.527-10.765m-53.76 18.465h-10.04v-36.105h10.04zm-13.743-36.105-22.079 36.105h-13.413v-59.121h10.12v45.79h.161l13.945-22.781v.007zm-11.266-31.339h-24.226v-59.121h10.765v21.031h13.745c14.325 0 22.025 6.707 22.025 19.044 0 .032-.001.061-.002.091h-10.847c.001-.03.002-.059.002-.091 0-6.955-4.057-10.267-12.172-10.267h-12.751v20.452h12.751c.241 0 .477-.003.71-.008z" transform="translate(133.0156 84.6445)"/></g></svg>