<svg enable-background="new 0 0 150 74.3" viewBox="0 0 150 74.3" xmlns="http://www.w3.org/2000/svg"><path d="m74.8 61.7 1.3 3.4h-2.7zm2.5 6.5h1.5l-3.2-7.9h-1.6l-3.2 7.9h1.4l.8-1.9h3.6zm-14.4 0h1.5v-3.4h4v3.4h1.5v-7.9h-1.5v3.3h-4v-3.3h-1.5zm-5-6.5 1.3 3.4h-2.7zm2.6 6.5h1.5l-3.2-7.9h-1.6l-3.2 7.9h1.4l.8-1.9h3.6zm-12.4-4.1v-2.6h1.8c1.1 0 1.6.4 1.6 1.3s-.6 1.3-1.6 1.3zm0 4.1v-3h1.8l1.8 3h1.6l-2-3.2c1.1-.3 1.7-1.2 1.7-2.2 0-1.6-1.1-2.5-2.9-2.5h-3.4v7.9zm-7.2-4.1v-2.7h1.7c1.1 0 1.6.4 1.6 1.3s-.5 1.3-1.6 1.3h-1.7zm4.8-1.3c0-1.6-1-2.5-3-2.5h-3.3v7.9h1.4v-2.9h1.8c2 0 3.1-.9 3.1-2.5"/><path d="m141.5 56.6v-1.2h-4.3v-2.2h3.8v-1.2h-3.8v-2.2h4.2v-1.2h-5.7v7.9h5.8zm-8.9 0h1.5v-7.9h-1.5zm-6.2-4.1v-2.6h1.8c1.1 0 1.6.4 1.6 1.3s-.6 1.3-1.6 1.3zm0 4.1v-3h1.8l1.8 3h1.6l-2-3.2c1.1-.3 1.7-1.2 1.7-2.2 0-1.6-1.1-2.5-2.9-2.5h-3.4v7.9zm-2.8 0v-1.2h-4.3v-2.2h3.8v-1.2h-3.8v-2.2h4.2v-1.2h-5.7v7.9h5.8zm-12.4 0h5.5v-1.2h-4.1v-6.7h-1.5v7.9zm-5-6.5 1.3 3.4h-2.7zm2.5 6.5h1.5l-3.2-7.9h-1.6l-3.2 7.9h1.4l.8-1.9h3.6zm-10.8.1c1 0 2-.5 2.3-1.3l.1 1.1h1.1v-4h-3v1.1h1.5v.3c0 1-.8 1.7-2 1.7-1.4 0-2.3-1.1-2.3-2.9s.9-2.9 2.3-2.9c1 0 1.7.5 1.8 1.4h1.5c-.3-1.7-1.5-2.6-3.3-2.6-2.3 0-3.8 1.6-3.8 4.1.1 2.4 1.5 4 3.8 4m-8.9-.1h1.5v-7.9h-1.5zm1.2-8.5 1.3-1.7h-1.6l-.6 1.7zm-8 .6h-1.7v7.9h1.4v-6.1l4.1 6.1h1.4v-7.9h-1.4v5.6zm-4.5 3.9c0 1.8-.9 2.8-2.4 2.8h-1.6v-5.6h1.6c1.5.1 2.4 1.1 2.4 2.8m-2.4-3.9h-3v7.9h3c2.4 0 4-1.6 4-3.9-.1-2.4-1.6-4-4-4m-8.1 6.9c-1.4 0-2.3-1.1-2.3-2.9 0-1.9.8-2.9 2.3-2.9 1.4 0 2.3 1.1 2.3 2.9s-.9 2.9-2.3 2.9m0-7c-2.3 0-3.8 1.6-3.8 4.1 0 2.4 1.5 4.1 3.8 4.1s3.8-1.6 3.8-4.1c-.1-2.5-1.5-4.1-3.8-4.1m-9.6 3.9v-2.6h1.8c1.1 0 1.6.4 1.6 1.3s-.6 1.3-1.6 1.3zm0 4.1v-3h1.8l1.8 3h1.6l-2-3.2c1.1-.3 1.7-1.2 1.7-2.2 0-1.6-1.1-2.5-2.9-2.5h-3.4v7.9zm-6.4-6.5 1.3 3.4h-2.7zm2.5 6.5h1.5l-3.2-7.9h-1.6l-3.2 7.9h1.4l.8-1.9h3.6zm-2.1-8.5 1.3-1.7h-1.6l-.6 1.7zm-10.4.6h-1.7v7.9h1.4v-6.1l4.1 6.1h1.4v-7.9h-1.4v5.6z"/><path d="m20.3 39.4h-11.8v28.8h5.2v-10.3h6.7c7 0 10.7-3.3 10.7-9.3h-5.3c0 3.4-2 5-5.9 5h-6.2v-10h6.2.3v-4.2zm5.5-15.3-10.8-17.5h-6.5v28.8h4.9v-22.3h.1l6.8 11.1h5.5zm6.6-17.5h-4.9v17.6h4.9zm26.2 9h5.6c-1.2-6.1-5.8-9.5-12.7-9.5-8.7 0-14.6 6-14.6 14.8 0 1.1.1 2.2.3 3.2h5.8c-.2-1-.3-2.1-.3-3.2 0-6.7 3.4-10.6 8.9-10.6 3.8 0 6.3 1.8 7 5.3m5.9 19.8v-15.1h-12.4v3.9h7.2v.8c0 3.7-3.1 6.4-7.2 6.6v4.2c3.5-.3 6.7-2.1 7.7-4.6l.4 4.1h4.3z"/></svg>