<svg height="215.43333" viewBox="0 0 411.96933 215.43333" width="411.96933" xmlns="http://www.w3.org/2000/svg" xmlns:xlink="http://www.w3.org/1999/xlink"><clipPath id="a"><path d="m0 161.575h308.977v-161.575h-308.977z"/></clipPath><g clip-path="url(#a)" fill="#1d1d1b" transform="matrix(1.3333333 0 0 -1.3333333 0 215.43333)"><path d="m0 0c0 3.341-2.136 5.136-6.068 5.136h-6.704v-16.227h2.954v5.977h3.773c3.931 0 6.045 1.796 6.045 5.114m-9.818-2.75v5.499h3.5c2.25 0 3.341-.886 3.341-2.749 0-1.864-1.091-2.75-3.341-2.75zm14.916-8.341v6.069h3.636l3.704-6.069h3.295l-4.067 6.524c2.158.704 3.454 2.362 3.454 4.613 0 3.295-2.159 5.09-6.023 5.09h-6.954v-16.227zm0 8.433v5.407h3.658c2.25 0 3.387-.908 3.387-2.703 0-1.796-1.137-2.704-3.387-2.704zm25.315-8.433h3.09l-6.522 16.227h-3.386l-6.523-16.227h2.954l1.546 3.978h7.318zm-5.182 13.319h.068l2.681-7.001h-5.477zm10.204-13.319h3.023v7.045h8.318v-7.045h3v16.227h-3v-6.818h-8.318v6.818h-3.023zm29.602 0h3.09l-6.522 16.227h-3.387l-6.522-16.227h2.954l1.546 3.978h7.318zm-5.182 13.319h.068l2.682-7.001h-5.477z" transform="translate(94.2524 28.0986)"/><path d="m0 0h-3.522v-16.227h2.886v12.568h.046l8.34-12.568h2.795v16.227h-2.863v-11.5h-.045zm21.522 1.137 2.682 3.476h-3.272l-1.205-3.476zm4.273-17.364h3.091l-6.523 16.227h-3.386l-6.522-16.227h2.954l1.545 3.977h7.318zm-5.182 13.318h.069l2.681-7h-5.477zm13.158-13.318v6.068h3.637l3.705-6.068h3.295l-4.069 6.523c2.16.704 3.455 2.363 3.455 4.613 0 3.296-2.159 5.091-6.022 5.091h-6.955v-16.227zm0 8.431v5.409h3.66c2.25 0 3.386-.908 3.386-2.704 0-1.795-1.136-2.705-3.386-2.705zm19.668 8.068c-4.681 0-7.75-3.362-7.75-8.386 0-5.022 3.069-8.386 7.75-8.386 4.683 0 7.75 3.364 7.75 8.386 0 5.024-3.067 8.386-7.75 8.386m0-14.385c-2.977 0-4.681 2.204-4.681 5.999 0 3.818 1.704 6.001 4.681 6.001 2.978 0 4.683-2.228 4.683-6.001 0-3.795-1.705-5.999-4.683-5.999m16.62 14.113h-6.249v-16.227h6.249c4.909 0 8.114 3.205 8.114 8.113 0 4.91-3.205 8.114-8.114 8.114m5.024-8.114c0-3.658-1.796-5.727-5.024-5.727h-3.295v11.454h3.295c3.228 0 5.024-2.068 5.024-5.727m9.187 8.114h-3.521v-16.227h2.885v12.568h.045l8.341-12.568h2.796v16.227h-2.864v-11.5h-.045zm16.383 1.137 2.681 3.476h-3.273l-1.205-3.476zm-2.364-17.364h3.022v16.227h-3.022zm18.204-.273c2.09 0 4.09 1.092 4.658 2.591l.205-2.318h2.34v8.273h-6.135v-2.182h3.137v-.568c0-2.001-1.637-3.409-4.024-3.409-2.976 0-4.726 2.25-4.726 6.022 0 3.75 1.795 5.978 4.771 5.978 2.069 0 3.41-1 3.795-2.955h2.979c-.66 3.431-3.069 5.34-6.774 5.34-4.681 0-7.84-3.362-7.84-8.363 0-5.045 3.045-8.409 7.614-8.409m22.318.273h3.092l-6.522 16.227h-3.386l-6.524-16.227h2.955l1.545 3.977h7.319zm-5.182 13.318h.069l2.683-7h-5.478zm10.205-13.318h11.387v2.386h-8.363v13.841h-3.024zm25.493 0v2.386h-8.795v4.546h7.705v2.386h-7.705v4.522h8.705v2.387h-11.66v-16.227zm5.672 0v6.068h3.634l3.705-6.068h3.295l-4.068 6.523c2.158.704 3.455 2.363 3.455 4.613 0 3.296-2.16 5.091-6.023 5.091h-6.954v-16.227zm0 8.431v5.409h3.658c2.25 0 3.385-.908 3.385-2.704 0-1.795-1.135-2.705-3.385-2.705zm12.861-8.431h3.023v16.227h-3.023zm18.211 0v2.386h-8.795v4.546h7.705v2.386h-7.705v4.522h8.705v2.387h-11.66v-16.227z" transform="translate(85.0024 57.0439)"/><path d="m0 0v30.968h-25.507v-7.949h14.78v-1.656c0-7.701-6.391-13.086-14.765-13.615v-8.652c7.133.613 13.85 4.359 15.779 9.35l.76-8.446zm-12.162 40.656h11.401c-2.448 12.503-11.908 19.458-25.928 19.458-17.821 0-29.983-12.254-29.983-30.47 0-2.311.186-4.524.545-6.628h11.796c-.394 2.035-.602 4.246-.602 6.628 0 13.662 6.927 21.777 18.244 21.777 7.855 0 13.091-3.644 14.527-10.765m-53.76 18.465h-10.04v-36.105h10.04zm-13.743-36.105-22.079 36.105h-13.413v-59.121h10.12v45.79h.161l13.945-22.781v.007zm-11.266-31.339h-24.226v-59.121h10.765v21.031h13.745c14.325 0 22.025 6.707 22.025 19.044 0 .032-.001.061-.002.091h-10.847c.001-.03.002-.059.002-.091 0-6.955-4.057-10.267-12.172-10.267h-12.751v20.452h12.751c.241 0 .477-.003.71-.008z" transform="translate(133.0156 84.4521)"/></g></svg>