<?xml version="1.0" encoding="utf-8"?>
<!-- Generator: Adobe Illustrator 19.2.1, SVG Export Plug-In . SVG Version: 6.00 Build 0)  -->
<svg version="1.1" id="Vrstva_1" xmlns="http://www.w3.org/2000/svg" xmlns:xlink="http://www.w3.org/1999/xlink" x="0px" y="0px"
	 viewBox="0 0 576 145" style="enable-background:new 0 0 576 145;" xml:space="preserve">
<path d="M19.4,87.2l1.9-0.9c0.9-0.4,1.1-1,1.1-5.7c0-7.6-0.1-8-0.9-8.3l-2.1-0.8v-0.5c0.5,0,4,0,6.4-0.3c0.6-0.1,1.3-0.1,1.4-0.1
	l-0.1,3.1h0.1c1.5-2.2,4.2-3.4,6.7-3.4c3.4,0,5.5,1.8,5.5,5.1c0,1.8,0,3.1,0,4.2c0,6.1,0.2,6.3,1,6.7l2,0.9v0.5
	c-1.6-0.1-3.3-0.3-5.2-0.3c-1.7,0-3.5,0.1-5.3,0.3v-0.5l1.7-0.8c0.5-0.3,0.8-0.4,0.9-0.9c0.2-1.4,0.2-3.5,0.2-4.9v-3.2
	c0-3.1-1.2-4.4-3.3-4.4c-2.3,0-4.1,1.5-4.1,4.2v3.4c0,4.7,0.1,5.3,0.7,5.6l2.1,1v0.5c-1.8-0.1-3.6-0.3-5.3-0.3
	c-1.9,0-3.6,0.1-5.2,0.3V87.2z"/>
<path d="M59.7,83.1c0-3.8,4.3-4.3,7.2-4.3v3c0,2.9-1.9,4.5-4.2,4.5C60.7,86.2,59.7,85,59.7,83.1z M66.9,87.7
	c0.9-0.1,1.7-0.3,2.6-0.3c0.9,0,1.8,0.1,2.7,0.3v-0.5c-2.2-0.4-2.6-0.6-2.6-2.3v-9.9c0-3.3-2.5-4.3-5.3-4.3c-2.8,0-4.8,1.4-6.5,4.1
	l0.9,0.5c1.1-1.6,2.8-2.7,4.7-2.7c2,0,3.6,0.7,3.6,3.4v1.9h-0.2c-5.9,0-10,1.8-10,5.9c0,3.1,2.1,4.4,4.7,4.4c2.6,0,4.1-1.5,5.5-3.4
	h0.1L66.9,87.7z M61.2,67.1L62,68l5.6-3.8c0.7-0.4,0.9-0.8,0.9-1.4c0-0.6-0.5-1-1.1-1s-1.1,0.3-1.5,0.7L61.2,67.1z"/>
<path d="M88.7,87.2l2.3-0.9c0.5-0.2,0.7-0.4,0.7-2.5v-5.6c0-5.4,0-5.6-0.8-5.8l-2.2-0.6v-0.5c2,0,4-0.1,5.9-0.3
	c0,1.1-0.1,2.2-0.1,3.3h0.1c0.8-1.6,2.9-3.6,5-3.6c0.5,0,0.9,0.1,1.3,0.2v3.3h-0.3c-0.7-0.7-1.6-1.1-2.6-1.1c-2,0-3.5,1.5-3.5,4.5
	v5.8c0,2.3,0.2,2.6,0.9,2.8l2.7,0.9v0.5c-1.6-0.1-3.2-0.3-4.8-0.3c-1.5,0-3,0.1-4.5,0.3V87.2z"/>
<path d="M119.6,78.8c0-4.1,1.4-7.4,5-7.4c3.9,0,5.1,5.1,5.1,8.2c0,3.1-1,7.7-4.7,7.7C121.5,87.3,119.6,83.5,119.6,78.8z M132.9,78.8
	c0-4.7-3.1-8.2-7.9-8.2c-5.2,0-8.6,3.8-8.6,8.8c0,5,3.2,8.6,8.1,8.6C130,88,132.9,83.4,132.9,78.8z"/>
<path d="M161.7,79.7c0,4.4-1,6.9-4.3,6.9c-2.3,0-4.7-2.8-4.7-8.2c0-5,2.6-6.8,4.4-6.8C160.4,71.6,161.7,74.8,161.7,79.7z
	 M149.6,80.1c0,4.9,3,7.9,6.5,7.9c2.8,0,4.3-1.1,5.6-3.1h0.1c0,0.9,0,1.8-0.1,2.7c1-0.1,2.1-0.3,3.1-0.3c0.9,0,1.7,0.1,2.5,0.3v-0.5
	l-2.1-0.6c-0.7-0.2-0.8-0.9-0.8-1.4V69.8c0-2.4,0.1-4.8,0.2-7.3c-1.9,0.2-3.9,0.3-5.8,0.3v0.5l2.1,0.7c0.2,0.1,0.5,0.2,0.6,0.4
	c0.1,0.2,0.2,1.5,0.2,3l0.1,4.6c-1.3-0.8-2.7-1.4-4.5-1.4C153.1,70.6,149.6,74.8,149.6,80.1z"/>
<path d="M182.6,71.3c1.9,0,3.9-0.1,5.8-0.3l-0.1,2.6h0.1c1.5-2.1,3.6-3,6-3c2.3,0,5.4,0.6,5.4,4.2c0,1.1-0.1,3-0.1,6.2
	c0,3.8,0,4.3,0.3,4.9c0.3,0.6,1.9,0.9,2.9,1.1v0.5c-1.8-0.1-2.5-0.3-4.5-0.3c-1.9,0-2.9,0.1-4.6,0.3v-0.5c1.8-0.5,2.7-0.6,3-1.2
	c0.2-0.5,0.2-2.7,0.2-9c0-2.5-0.6-4.9-4-4.9c-2.8,0-4.6,2-4.6,4.9v4.7c0,1.4,0,4,0.3,4.3c0.5,0.5,2.1,1,2.9,1.2v0.5
	c-1.5-0.1-2.9-0.3-4.4-0.3c-1.6,0-3.2,0.1-4.7,0.3v-0.5c1.6-0.5,3-0.9,3.1-1.4c0.1-0.7,0.1-1.7,0.1-6.6c0-6.1-0.2-6.6-1.3-6.9
	l-1.8-0.5V71.3z"/>
<path d="M219.7,87.2l2-0.6c0.8-0.2,0.9-0.6,0.9-6.2c0-7.4-0.2-7.7-1.1-8l-1.8-0.5v-0.5c2,0,3.9-0.1,5.8-0.3
	c-0.1,0.5-0.2,3.6-0.2,5.8v7.1c0,1.7,0.2,2.4,1.1,2.7l1.8,0.6v0.5c-1.5-0.1-3-0.3-4.4-0.3c-1.4,0-2.9,0.1-4.1,0.3V87.2z M226.7,62.4
	c0.4-0.4,0.8-0.7,1.5-0.7c0.6,0,1.1,0.5,1.1,1c0,0.6-0.2,1-0.9,1.4l-5.6,3.8l-0.8-0.8L226.7,62.4z"/>
<path d="M250,90.5c0-1.5,1.9-2.7,2.2-2.7c0.4,0,0.7,0.1,2.4,0.1c1.3,0,1.6-0.1,2.3-0.1c0.9,0,2.5,0.1,2.5,1.7c0,2.4-3.4,3.3-5.4,3.3
	C251.5,92.9,250,92,250,90.5z M257.2,76c0,1.8-0.3,4.1-2.5,4.1c-2.4,0-2.8-3.1-2.8-4.9c0-1.5,0.7-3.5,2.5-3.5
	C256.6,71.7,257.2,74.2,257.2,76z M263.9,71.2v-0.5l-4.7,0.4c-1.2-0.6-3-1-4.3-1c-3.6,0-8,2-8,6.2c0,2.9,2.1,4.7,5,4.8v0.1
	c-1.1,0.7-4.1,2.4-4.1,3.9c0,1.1,1.1,2.1,2.6,2.2v0.1c-1.6,0.8-4.3,2-4.3,4.2c0,2.8,3.7,3.4,5.9,3.4c4.8,0,11.8-2.9,11.8-7.6
	c0-3.5-3.8-3.5-6.3-3.5h-1.9c-1.7,0-2.9,0-2.9-1.1c0-0.9,0.4-1.2,1.4-1.6c0.3,0,0.7,0,1,0c3.4,0,7.3-2.5,7.3-5.8
	c0-1-0.5-2.1-1.2-2.7L263.9,71.2z"/>
<path d="M285.1,83.1c0-3.8,4.3-4.3,7.2-4.3v3c0,2.9-1.9,4.5-4.2,4.5C286.1,86.2,285.1,85,285.1,83.1z M292.3,87.7
	c0.9-0.1,1.7-0.3,2.6-0.3c0.9,0,1.8,0.1,2.7,0.3v-0.5c-2.2-0.4-2.6-0.6-2.6-2.3v-9.9c0-3.3-2.5-4.3-5.3-4.3c-2.8,0-4.8,1.4-6.5,4.1
	l0.9,0.5c1.1-1.6,2.8-2.7,4.7-2.7c2,0,3.6,0.7,3.6,3.4v1.9h-0.2c-5.9,0-10,1.8-10,5.9c0,3.1,2.1,4.4,4.7,4.4c2.6,0,4.1-1.5,5.5-3.4
	h0.1L292.3,87.7z"/>
<path d="M318.3,67.4c0-1.5-0.1-2.8-0.2-3c-0.1-0.2-0.3-0.3-0.6-0.4l-2.1-0.7v-0.5c2,0,3.9-0.1,5.8-0.3c-0.1,2.4-0.2,4.8-0.2,7.3
	v14.1c0,1.7,0.1,2.4,1.2,2.7l1.7,0.6v0.5c-1.4-0.1-2.9-0.3-4.4-0.3c-1.4,0-2.9,0.1-4.2,0.3v-0.5l1.7-0.6c1.1-0.4,1.2-1,1.2-2.7V67.4
	z"/>
<path d="M352.3,76.1c-0.5,0-1,0-2.2,0.1l-5.7,0.1c0.5-3,2.1-5,4.2-5c2.5,0,3.6,1.7,3.6,4.1V76.1z M354.5,84.8c-1,1.1-2.5,1.6-4,1.6
	c-4.2,0-6.1-4-6.1-8c0-0.4,0-0.8,0.1-1.2h10.1c0.8,0,1-0.2,1-1.1c0-3.1-2-5.5-6.2-5.5c-5.5,0-8.2,4.6-8.2,8.9c0,5,3,8.5,7.6,8.5
	c2.5,0,4.7-0.7,6.3-2.6L354.5,84.8z"/>
<path d="M372.9,87.2l2.3-0.9c0.5-0.2,0.7-0.4,0.7-2.5v-5.6c0-5.4,0-5.6-0.8-5.8l-2.2-0.6v-0.5c2,0,4-0.1,5.9-0.3
	c0,1.1-0.1,2.2-0.1,3.3h0.1c0.8-1.6,2.9-3.6,5-3.6c0.5,0,0.9,0.1,1.3,0.2v3.3h-0.3c-0.7-0.7-1.6-1.1-2.6-1.1c-2,0-3.5,1.5-3.5,4.5
	v5.8c0,2.3,0.2,2.6,0.9,2.8l2.7,0.9v0.5c-1.6-0.1-3.2-0.3-4.8-0.3c-1.5,0-3,0.1-4.5,0.3V87.2z"/>
<path d="M401.8,87.2l2-0.6c0.8-0.2,0.9-0.6,0.9-6.2c0-7.4-0.2-7.7-1.1-8l-1.8-0.5v-0.5c2,0,3.9-0.1,5.8-0.3
	c-0.1,0.5-0.2,3.6-0.2,5.8v7.1c0,1.7,0.2,2.4,1.1,2.7l1.8,0.6v0.5c-1.5-0.1-3-0.3-4.4-0.3c-1.4,0-2.9,0.1-4.1,0.3V87.2z M407.7,65.5
	c0,1.1-0.9,2-1.9,2c-1.1,0-1.9-0.9-1.9-1.9c0-1.1,0.9-1.9,1.9-1.9C406.8,63.6,407.7,64.4,407.7,65.5z"/>
<path d="M439.4,76.1c-0.5,0-1,0-2.2,0.1l-5.7,0.1c0.5-3,2.1-5,4.2-5c2.5,0,3.6,1.7,3.6,4.1V76.1z M441,84.8c-1,1.1-2.5,1.6-4,1.6
	c-4.2,0-6.1-4-6.1-8c0-0.4,0-0.8,0.1-1.2H441c0.8,0,1-0.2,1-1.1c0-3.1-2-5.5-6.2-5.5c-5.5,0-8.2,4.6-8.2,8.9c0,5,3,8.5,7.6,8.5
	c2.5,0,4.7-0.7,6.3-2.6L441,84.8z"/>
<path d="M547.4,25.8H418v99.6h130.1V25.8H547.4z M546.8,27.1c0,1.3,0,95.8,0,97c-1.3,0-126.2,0-127.5,0c0-1.3,0-95.8,0-97
	C420.6,27.1,545.5,27.1,546.8,27.1z"/>
<g>
	<polygon points="507.6,20.1 503.6,14 499.6,20.1 493.6,14.8 494.8,22.4 512.4,22.4 513.6,14.8 	"/>
	<path d="M547,54.2c-0.2-0.2-0.4-0.3-0.6-0.5c-1.2-1-3.1-0.9-4.1-0.6c-1.3,0.5-1.8,0.8-2.7,0.8c-1.5,0.1-3.8-0.5-6.1-0.3
		c-2.1,0.1-4.4,1.3-4.4,1.3s-1.6-1.8-2.6-4.8c-1-3,0.2-4.1,0.8-4.8c1.1-1.1,1.4,1.4,3.8,1.7c2.4,0.3,3.4-1.1,4.4-1.5
		c1.1-0.4,4.3-1,5.1-0.8c3.3,0.7,4-1.2,0.9-3.6c-2.3-1.8-6.7,0.1-7.4,0.3c-1.7,0.3-1.6-1-0.8-1.4c1.4-0.7,2.2-0.3,3.9-1.3
		c2.4-1.4,2.5-3.7,2.7-5.8c0.2-2.6-2.3-6.6-3.6-4.1c-1.6,3,0,4.7-4.4,7.2c-1,0.6-3,1.2-1.9-0.9c0.6-1.1,1-2.2,0.8-3.5
		c-0.3-2.9-3.1-3.1-4.1-3c-1.6,0.2-1.5,1.4-0.2,3.3c0.7,1.1-1.1,2-1.7,2.9c-0.7,1-1.4,1.6-1.6,3.4c-0.2,1.3,0.8,3,1.3,3.4
		c0.5,0.4,0.1,1.1-0.8,3.1c-0.9,1.9-0.8,4.8,0,7.1c0.7,2,2.5,5,2.5,5s-3.1,1.8-3.1,6.8c0,3,2.1,6,3.5,7.5c4.6,5.2,4.7,7.5,3.2,10.1
		c-0.8,1.3-3.2,2.2-5.6,0.7c-6.6-4-8.5-6.6-11.7-10.2c-3.7-4.2,0.8-10.5,3.6-14.2c3.3-4.2,4.3-8.7,4.3-15.7c0-4.3-1.3-9.3-4.2-12.8
		c-0.8-0.9-1.5-1.7-2.3-2.4h-20.5c-0.6,0.6-1.2,1.4-1.4,1.8c-0.6,1-0.9,2-1,3.5c-0.1,1.2,0.3,1.9,0.8,2.6c0.6,0.7,1.6-0.5,1.8,1.7
		c0.1,1,1.2,2,2.5,2c2.2-0.1,4.5-1.5,4.5-1.5c1.4,0,2.6,1.8,2.3,3c-0.7,2.8-3.1-0.4-5-0.4c-1.2,0-3,0.4-4.3,0.9
		c-1.4,0.6-4.2,1-5.4,0.7c-0.8-0.2-1.8-1.1-2-2.3c-0.1-0.7-0.2-2.7-1.4-2.2c-1.3,0.5-1.9,2.6-1.4,4.8c0.4,2,2.2,3,4.1,3.1
		c2.2,0.2,5.9-1.1,6.8-1.7c2-1.4,1,0.8,1.5,1.8c0.3,0.7,0.6,1.3,2.1,1c1-0.2,1.6-0.5,2.2-0.1c0.5,0.4,0.7,1.9-0.7,2.3
		c-1,0.3-2.9,1.5-4.1,2.5c-2.5,2.2-4,4.6-7,4.6c-2.2,0-3.8-0.8-8.3-3.2c0,0-3.4-1.7-6.5-3.2c-2.1-1-4.6-1.7-4.8-4
		c-0.3-3.5,1.7-2.9,2.6-5.2c0.9-2.1,0-5.1-1.4-5.1c-0.7,0-1.8,2.2-2.2,2.3c-0.8,0.2-1.3-0.8-2-1.7c-0.9-1-3.3-2.5-4-1.8
		c-1.2,1.2,0.8,2.9-0.3,4.9c-0.5,1-4.6-0.1-4.7,3c0,1.4,1.9,1.3,3.2,1.5c1.5,0.2,2.2,0.7,2.6,1.4c0.4,0.7,0,1.6-0.4,1.8
		c-0.7,0.4-2.3,0.4-2.8,1.4c-0.4,0.8,0.9,2.2,2.1,2.9c1.3,0.8,3.3,0.7,5,1.1c1.4,0.4,3.2,2.4,4.7,3.5c2.3,1.6,3.5,2.6,5.8,4.3
		c2.6,1.9,4.2,3,4.4,5c0.4,3.2-2.7,5.6-5.4,8.3c-3.3,3.3-7.4,7.6-9.5,7.3c-3.3-0.5-2.7-4.1-4.4-5.2c-2.1-1.3-5.4-0.2-5.5,2.2
		c0,0.4,1.5,0.6,1.9,0.9c0.5,0.4,0.4,1.3-0.1,1.6c-0.4,0.3-1.2,0.3-2.3,0.8c-1.3,0.6-2.9,2.7-2.4,3.7c0.3,0.5,3.1-0.4,5,1.2
		c0.9,0.8,0.1,3.7,2,5.8c0.3,0.4,2.6,0.5,4.1-1.7c0.6-0.9,0.7-2.5,1-3.5c0.3-0.9,1.1-1.1,1.5-0.8c0.5,0.4-0.3,2.6,0.4,3.7
		c0.5,0.8,2.3,0.8,3.6,0c3.1-1.9,3-4.1,3.2-5.1c0.3-1.6,3.2-3,6.2-5c3.8-2.5,5.3-4.5,7.1-3.7c2.6,1.1,3.3,2.2,6.4,4.3
		c2.7,1.9,6,2.9,7.6,3.8c1.3,0.8,1.8,1.8,1.6,2.8c-0.4,2.4-4,3.1-6.3,3.6c-4.2,0.9-6.6,1.2-9.4,1.5c-2.9,0.3-4.7,0.6-6.4,2.1
		c-2.3,1.9-2.4,4.8-2.1,7c0.3,2.2,1.7,4.2,1,4.9c-0.8,0.7-1.7,0.3-2.7-0.6c-1.5-1.3-2.7-2.2-4.9-2.6c-2.2-0.3-4.3,0.2-6.2,1.8
		c-1.9,1.6-1.7,5-1.1,6.3c0.4,1,1,3.2,1,3.9c0,0.7,2.2-0.7,2.4-1.7c0.2-1,0.3-1.5,0.2-2.5c-0.1-1.1,0-2.1,1.4-2.7
		c1.3-0.5,2.8,0.5,5.6,1.9c3,1.5,5.9,0.2,7,0.1c1.6-0.2,4.2-0.6,5,2c0.7,2.5-2.8,9.7-5.5,9.8c-4.1,0.2-2.8-3.2-5.3-4.3
		c-2.4-1.1-5.1-0.1-5.1,1.6c0,0.9,1.2,1.6,1.7,1.8c0.6,0.3,0.5,1.2,0.2,1.6c-0.3,0.4-1,0.6-2.1,1.4c-0.6,0.5-1.3,1.4-1.6,2.3h20.9
		c0.4-1.3,0.2-2.3,0.2-3c0-1.7,2-2.5,3.3-4.2c1.2-1.5,1.6-2.8,2.4-4.1c0.5-0.8,1.8-0.4,1.4,0.7c-0.3,0.7-0.9,2.2-0.8,3
		c0.2,1,0.6,2,1.9,2.8c1.3,0.9,2.6,1.1,3.7,0.6c0.7-0.3,0.2-1.4-0.4-1.8c-0.5-0.3-1.2-1.1-0.9-2.2c0.3-1,1.8-2.2,2.4-4.5
		c0.6-2-0.1-4.3-1.2-5.6c-1.1-1.2-3.7-1.5-4.8-2.1c-0.9-0.4-3-1.8-1.9-3.5c0.7-1.1,1.8-0.9,4.2-1.9c1.5-0.6,3.3-1.5,5.1-2.9
		c1.6-1.2,3.1-3.3,4-4.3c1.8-2,3.9,0.9,2.7,2.6c-0.4,0.6-0.4,0.6-1.2,1.6c-1.7,2.1-3,3.7-3.1,5.9c-0.2,2.5,0.3,4,1.4,5.9
		c0.9,1.8,2.2,2.8,3.2,3.6c0.8,0.6,2.5,1.1,3.3,1.9c0.6,0.7,0.6,0.9,0.4,1.9c-0.4,1.8-1.7,1.8-1.7,2.7c0,1,1.3,1.5,2.5,1.5
		c1.3,0,2.5-0.6,3.4-1.9c0.6-0.9,1.2-2.4,1-3.6c-0.2-1.1,0.7-2.1,2.1-0.8c1.1,1,1.7,1.8,2.6,3.7c0.6,1.1,0.9,2.5,0.9,3.9
		c0,0.6-0.3,1.4-0.9,1.4c-1.3,0.1-1.8-0.7-3-1c-0.7-0.2-1.9-0.1-2.9,0.5c-0.8,0.5-2.3,1.6-2.5,2.8c0,0.1,0,0.2,0,0.2h20
		c-0.1-0.7-0.5-1.4-1-1.8c-0.7-0.6-0.8-1.9,0.9-2.5c1-0.3,2.4-1.3,3-1.9c1.2-1.4-2.3-4.4-4.8-3.3c-1.9,0.8-1.1,2.7-2.8,2.6
		c-2-0.1-1.8-6-0.4-9.3c2.2-5.2,10.8-11.9,3.4-10.3c-5.4,1.2-4.7,4.8-9.1,3.8c-2.6-0.6-3.2-4.4-2.3-7.3c1.5-4.8,4.4-5.8,6.5-6
		c2.1-0.2,3.7,0.2,5.6,1.4c1.4,0.8,4.5,4.3,3.9-2.8c-0.2-2.1,0.1-3.5,0.4-4.5c1.5-4.4,1.5-9,0.4-11.8c-1.4-3.6-3.8-6.1-5.1-7.8
		c-1.3-1.7-4.8-4.9-4.8-4.9s1.6-1,3.3-1c1.5,0,3,0.7,4.2,1.9c1.1,1.1,1.6,3,1.9,4.5c0.4,2.5,2,3.3,2.1,2.8c0.2-1.6,1-2.4,1.6-2.2
		c1.2,0.4,1.9,1.2,2.8,1.8V54.2z M497.9,32.8c-0.8,0-1.5-0.6-1.5-1.4c0-0.8,0.6-1.5,1.4-1.5c0.8,0,1.5,0.6,1.5,1.4
		C499.3,32.1,498.7,32.8,497.9,32.8z M531.4,62.5c2.2,2.3,3.1,3.1,4.6,5.5c1.3,2,2.6,4,2.5,7.9c-0.1,2-0.7,5.3-1.7,6.6
		c-1,1.2-3.1,0.6-2.9-1.3c0.2-1.8,0.6-3.3,0.2-4.9c-0.4-1.9-1.6-4.1-3.5-6c-1.9-1.9-2.9-3-3.6-4.7c-0.6-1.3-1.5-4.2,1.3-6.1
		L531.4,62.5z"/>
</g>
</svg>
