<svg xmlns="http://www.w3.org/2000/svg" id="Layer_1" data-name="Layer 1" viewBox="13.62 15.15 257.56 256"><defs><style>.cls-1{fill:#f0f0f1;}.cls-2{fill:#d6d3d2;}.cls-10,.cls-3,.cls-5,.cls-6,.cls-7,.cls-8,.cls-9{fill:none;stroke-miterlimit:10;}.cls-3,.cls-5{stroke:#d6d3d2;stroke-width:2px;}.cls-4{fill:#fff;}.cls-10,.cls-5,.cls-6,.cls-7,.cls-8,.cls-9{stroke-linecap:round;}.cls-6{stroke:#9e9b9a;stroke-width:5px;}.cls-10,.cls-7,.cls-8,.cls-9{stroke:#fff;stroke-width:3px;}.cls-7{stroke-dasharray:19.73 3.95;}.cls-8{stroke-dasharray:19.73 3.95;}.cls-9{stroke-dasharray:19.73 3.95;}</style></defs><path class="cls-1" d="M271.18,143.15a128,128,0,1,1-128-128,128,128,0,0,1,128,128"/><path class="cls-2" d="M145.65,198.87a2.22,2.22,0,0,1-4.43,0V195a2.22,2.22,0,0,1,4.43,0Z"/><path class="cls-3" d="M145.65,198.87a2.22,2.22,0,0,1-4.43,0V195a2.22,2.22,0,0,1,4.43,0Z"/><path class="cls-4" d="M88.19,220.05l-1.67-16.69H56.14l-1.21,19.77A14.65,14.65,0,0,0,69.5,239.57l3,.14c39.34,0,40.93-40.7,70.91-40.7v-4.15c-33.14,0-37.33,20.11-55.25,25.19"/><path class="cls-3" d="M88.19,220.05l-1.67-16.69H56.14l-1.21,19.77A14.65,14.65,0,0,0,69.5,239.57l3,.14c39.34,0,40.93-40.7,70.91-40.7v-4.15C110.3,194.86,106.11,215,88.19,220.05Z"/><path class="cls-2" d="M86.37,202.51c0,1.26-6.76,2.28-15.09,2.28s-15.08-1-15.08-2.28,6.75-2.28,15.08-2.28,15.09,1,15.09,2.28"/><path class="cls-3" d="M86.37,202.51c0,1.26-6.76,2.28-15.09,2.28s-15.08-1-15.08-2.28,6.75-2.28,15.08-2.28S86.37,201.25,86.37,202.51Z"/><line class="cls-5" x1="86.27" y1="203.61" x2="88.49" y2="225.8"/><path class="cls-6" d="M214,125.37a38.11,38.11,0,0,0-51.25,0"/><path class="cls-6" d="M123.57,125.37a38.11,38.11,0,0,0-51.25,0"/><line class="cls-6" x1="188.35" y1="138.11" x2="188.35" y2="115.47"/><line class="cls-6" x1="97.95" y1="138.11" x2="97.95" y2="115.47"/><path class="cls-7" d="M89.22,182.88a191.47,191.47,0,0,1-21.59,2"/><path class="cls-8" d="M42,184.74a171.17,171.17,0,0,1-21.58-2.2"/><path class="cls-8" d="M22.36,173.38A191.45,191.45,0,0,1,44,171.43"/><path class="cls-9" d="M69.6,171.52a169.14,169.14,0,0,1,21.57,2.2"/><path class="cls-10" d="M98.32,174.1c5.39,1.13,8.56,2.53,8.56,4s-3.17,2.9-8.56,4m-47.18-10.8c3.18-.1,6.48-.16,9.86-.16s6.69.06,9.87.16m-47.18,10.8c-5.39-1.13-8.57-2.52-8.57-4s3.18-2.9,8.57-4m47.18,10.8c-3.18.1-6.48.16-9.87.16s-6.68-.06-9.86-.16"/></svg>