<svg xmlns="http://www.w3.org/2000/svg" id="Layer_1" data-name="Layer 1" viewBox="15.18 15.15 256 256"><defs><style>.cls-1{fill:#bebbbb;}.cls-2{fill:#535352;}.cls-10,.cls-3,.cls-4,.cls-5,.cls-6,.cls-8,.cls-9{fill:none;}.cls-3,.cls-5,.cls-6{stroke:#9e9b9a;}.cls-10,.cls-3,.cls-4,.cls-5,.cls-6,.cls-8{stroke-miterlimit:10;}.cls-3,.cls-4{stroke-width:2px;}.cls-4,.cls-8{stroke:#d6d3d2;}.cls-5{stroke-width:2.48px;}.cls-6{stroke-linecap:round;stroke-width:5px;}.cls-7{fill:#fff;}.cls-10,.cls-8,.cls-9{stroke-width:2.14px;}.cls-10,.cls-9{stroke:#bebbbb;}.cls-9{stroke-linejoin:round;}</style></defs><path class="cls-1" d="M271.18,143.15a128,128,0,1,1-128-128,128,128,0,0,1,128,128"/><path class="cls-2" d="M196.84,41.52c-5-12.58-38.5-14.23-77.23-4.49v-5c0-.15,0-4.54,0-4.66-.34-.86-2.79-.91-5.48-.11s-4.58,2.15-4.24,3c0,0,0,4.27,0,4.29v5.06l-.72.21c-43,12.8-73.43,34.28-68,48,1.57,4,6,6.85,12.5,8.63V113.8c15.28,5.49,45.53,3.53,77.92-6.11,23.89-7.11,43.89-16.91,56-26.56a10.8,10.8,0,0,0,.83-2.35V59.9c7.24-6.65,10.48-13.09,8.39-18.38"/><path class="cls-3" d="M53.68,96.49V113.8c15.28,5.49,45.53,3.53,77.92-6.11a214.68,214.68,0,0,0,37.77-15"/><path class="cls-4" d="M197.14,47.43a9.56,9.56,0,0,0-.3-5.91c-5.43-13.7-44.67-14.44-87.65-1.64s-73.43,34.28-68,48,44.67,14.44,87.65,1.65a226,226,0,0,0,30.82-11.57"/><path class="cls-3" d="M197.35,46.35a9.27,9.27,0,0,0-.51-4.83c-5.43-13.7-44.67-14.44-87.65-1.64s-73.43,34.28-68,48,44.67,14.44,87.65,1.65a223.92,223.92,0,0,0,33.6-12.89"/><path class="cls-2" d="M119.61,54V32.08c0-.15,0-4.54,0-4.66-.34-.86-2.79-.91-5.48-.11s-4.58,2.15-4.24,3c0,0,0,4.27,0,4.28V56.93"/><path class="cls-5" d="M119.61,54V32.08c0-.15,0-4.54,0-4.66-.34-.86-2.79-.91-5.48-.11s-4.58,2.15-4.24,3c0,0,0,4.27,0,4.28V56.93"/><line class="cls-6" x1="90.43" y1="143.44" x2="122.37" y2="175.15"/><line class="cls-6" x1="122.37" y1="143.44" x2="90.43" y2="175.15"/><line class="cls-6" x1="163.93" y1="143.44" x2="195.87" y2="175.15"/><line class="cls-6" x1="195.87" y1="143.44" x2="163.93" y2="175.15"/><path class="cls-7" d="M195.72,71.72a7.44,7.44,0,1,1-7.44-7.44,7.44,7.44,0,0,1,7.44,7.44"/><path class="cls-8" d="M195.72,71.72a7.44,7.44,0,1,1-7.44-7.44A7.44,7.44,0,0,1,195.72,71.72Z"/><path class="cls-2" d="M185.84,75.63a3.74,3.74,0,0,0-5.12.86s-9.42,8.63-10,9.43a6.61,6.61,0,1,0,10.9,7.48,6.47,6.47,0,0,0,1.05-2.56l4.15-10.12a3.73,3.73,0,0,0-1-5.09"/><path class="cls-9" d="M185.84,75.63a3.74,3.74,0,0,0-5.12.86s-9.42,8.63-10,9.43a6.61,6.61,0,1,0,10.9,7.48,6.47,6.47,0,0,0,1.05-2.56l4.15-10.12A3.73,3.73,0,0,0,185.84,75.63Z"/><path class="cls-2" d="M224.52,124.16a6.31,6.31,0,0,0-1.5-2.23l-6-8.83a3.63,3.63,0,0,0-6.73,2.7l1.79,10.49a6.43,6.43,0,1,0,12.39-2.13"/><path class="cls-2" d="M251,188.33a3.63,3.63,0,0,0-5.66-4.53l-8.25,6.73a6.43,6.43,0,1,0,9.17,7.32Z"/><path class="cls-2" d="M196,72a7.68,7.68,0,1,1-7.67-7.68A7.67,7.67,0,0,1,196,72"/><path class="cls-10" d="M196,72a7.68,7.68,0,1,1-7.67-7.68A7.67,7.67,0,0,1,196,72Z"/><path class="cls-2" d="M199.6,52.49a7.2,7.2,0,0,0-9.83,2.63,7.39,7.39,0,0,0-.83,2.25h0a7.57,7.57,0,0,0-.13,1.57h-1a7.19,7.19,0,1,0-11.9,5.22h0a7.2,7.2,0,0,0,1.31.89l-.49.84a7.83,7.83,0,0,0-1.43-.68h0a7.35,7.35,0,0,0-2.36-.39,7.2,7.2,0,0,0,0,14.39,12.89,12.89,0,0,0,2.36-.4l5.32-3.47.62-.3a7.81,7.81,0,0,1-.62-3A7.65,7.65,0,0,1,195,68.27l.28-.14,4.15-3.07a7.19,7.19,0,0,0,.19-12.57"/><path class="cls-9" d="M199.6,52.49a7.2,7.2,0,0,0-9.83,2.63,7.39,7.39,0,0,0-.83,2.25h0c-.1.52-.38,1.31-.37,1.57h-.49a10,10,0,0,0-1.2-3.83,7.2,7.2,0,1,0-10.94,9.05h0c.41.34.95,1,1.18,1.1l-.24.42c-.22-.14-1-.29-1.55-.47h0a7.35,7.35,0,0,0-2.36-.39,7.2,7.2,0,0,0,0,14.39,12.89,12.89,0,0,0,2.36-.4l5.32-3.47.62-.3a7.81,7.81,0,0,1-.62-3A7.65,7.65,0,0,1,195,68.27l.28-.14,4.15-3.07a7.19,7.19,0,0,0,.19-12.57Z"/></svg>