<svg xmlns="http://www.w3.org/2000/svg" id="Layer_1" data-name="Layer 1" viewBox="15.15 15.15 256 256"><defs><style>.cls-1{fill:#bebbbb;}.cls-2,.cls-5{fill:none;stroke:#9e9b9a;}.cls-2{stroke-linecap:round;stroke-miterlimit:10;stroke-width:5px;}.cls-3{fill:#535352;}.cls-4{fill:#9e9b9a;}.cls-5{stroke-linejoin:round;stroke-width:2.14px;}</style></defs><path class="cls-1" d="M271.15,143.15a128,128,0,1,1-128-128,128,128,0,0,1,128,128"/><line class="cls-2" x1="94.6" y1="120.06" x2="126.6" y2="152.06"/><line class="cls-2" x1="126.6" y1="120.06" x2="94.6" y2="152.06"/><line class="cls-2" x1="158.6" y1="120.06" x2="190.6" y2="152.06"/><line class="cls-2" x1="190.6" y1="120.06" x2="158.6" y2="152.06"/><path class="cls-3" d="M71.23,240.64a15.76,15.76,0,0,1-15.7-15.75,14.94,14.94,0,0,1,.11-1.86l1.21-19.74a7.81,7.81,0,0,0,.06-.78c0-1.32,1.54-2.1,5.33-2.67a76,76,0,0,1,10.82-.68,76.11,76.11,0,0,1,10.83.68c3.78.57,5.33,1.35,5.33,2.67a3,3,0,0,0,.11.56,1.16,1.16,0,0,1,0,.18l1.53,15.39c5.87-2,10.3-5.68,15-9.59,8.1-6.78,17.26-14.45,36.28-15.2a3.26,3.26,0,0,1,3.06-2.13A3.29,3.29,0,0,1,148.5,195v3.87a3.29,3.29,0,0,1-3.29,3.28,3.26,3.26,0,0,1-3-1.92c-11.67,1.16-18.8,9.24-26.33,17.77-9.43,10.68-20.11,22.78-41.6,22.78l-3.08-.14"/><path class="cls-4" d="M145.21,190.65a4.32,4.32,0,0,0-3.75,2.16c-18.94.91-28.14,8.61-36.28,15.42-4.24,3.55-8.28,6.93-13.35,8.93l-1.4-14a2.2,2.2,0,0,0-.07-.37c0-.11-.06-.26-.08-.33,0-2.52-3.24-3.22-6.23-3.67a78.39,78.39,0,0,0-11-.69,78.24,78.24,0,0,0-11,.69c-3,.46-6.24,1.16-6.24,3.73,0,.11,0,.42-.05.63v.09l-1.22,19.71a16.28,16.28,0,0,0-.11,1.95,16.84,16.84,0,0,0,16.77,16.82l3,.14h.1c22,0,32.82-12.29,42.4-23.14,7.55-8.55,14.12-16,25-17.34a4.32,4.32,0,0,0,3.55,1.85,4.36,4.36,0,0,0,4.36-4.35V195a4.36,4.36,0,0,0-4.36-4.35m0,2.14a2.21,2.21,0,0,1,2.22,2.21v3.87a2.21,2.21,0,0,1-4.41.22c-27.88,1.93-30.35,40.62-68.71,40.62l-3-.14A14.68,14.68,0,0,1,56.6,224.89a17,17,0,0,1,.1-1.76l1.22-19.77s.06-.55.06-.85c0-1.26,6.75-2.28,15.08-2.28s15.09,1,15.09,2.28a4.46,4.46,0,0,0,.15.85L90,220.05c17.52-5,21.92-24.28,53.05-25.15a2.21,2.21,0,0,1,2.2-2.11"/><path class="cls-4" d="M89.13,201.13c0,1.25-6.75,2.27-15.08,2.27S59,202.38,59,201.13s6.76-2.28,15.09-2.28,15.08,1,15.08,2.28"/><path class="cls-5" d="M89.13,201.13c0,1.25-6.75,2.27-15.08,2.27S59,202.38,59,201.13s6.76-2.28,15.09-2.28S89.13,199.87,89.13,201.13Z"/><line class="cls-5" x1="89.04" y1="202.23" x2="91.25" y2="224.42"/></svg>