<svg xmlns="http://www.w3.org/2000/svg" id="Layer_1" data-name="Layer 1" viewBox="15.86 15.15 256 256"><defs><style>.cls-1{fill:#f0f0f1;}.cls-2{fill:#fff;}.cls-3,.cls-4,.cls-6,.cls-7{fill:none;stroke-miterlimit:10;}.cls-3{stroke:#fff;}.cls-3,.cls-4{stroke-width:2px;}.cls-4,.cls-6{stroke:#d6d3d2;}.cls-5{fill:#d6d3d2;}.cls-6{stroke-width:2.14px;}.cls-7{stroke:#9e9b9a;stroke-linecap:round;stroke-width:5px;}</style></defs><path class="cls-1" d="M271.86,143.15a128,128,0,1,1-128-128,128,128,0,0,1,128,128"/><path class="cls-2" d="M197.87,41.17c-5-12.58-38.49-14.23-77.23-4.49V31.73c0-.15.06-4.54,0-4.66-.34-.86-2.79-.91-5.47-.11s-4.59,2.15-4.25,3c0,0,0,4.27,0,4.29v5.06l-.71.21c-43,12.8-73.44,34.28-68,48,1.57,4,6,6.85,12.51,8.63v17.31c15.27,5.49,45.52,3.53,77.91-6.11,24.45-7.27,44.81-17.36,56.85-27.23V59.55c7.24-6.65,10.49-13.09,8.39-18.38"/><path class="cls-3" d="M197.87,41.17c-5-12.58-38.49-14.23-77.23-4.49V31.73c0-.15.06-4.54,0-4.66-.34-.86-2.79-.91-5.47-.11s-4.59,2.15-4.25,3c0,0,0,4.27,0,4.29v5.06l-.71.21c-43,12.8-73.44,34.28-68,48,1.57,4,6,6.85,12.51,8.63v17.31c15.27,5.49,45.52,3.53,77.91-6.11,24.45-7.27,44.81-17.36,56.85-27.23V59.55C196.72,52.9,200,46.46,197.87,41.17Z"/><path class="cls-4" d="M198.17,47.08a9.56,9.56,0,0,0-.3-5.91c-5.42-13.7-44.67-14.44-87.64-1.64s-73.44,34.28-68,48S86.89,102,129.87,89.16a226.34,226.34,0,0,0,30.81-11.57m-106,18.55v17.31c15.27,5.49,45.52,3.53,77.91-6.11a211.22,211.22,0,0,0,39.78-16.07"/><path class="cls-5" d="M204.2,64.4a6.88,6.88,0,0,0-2.29.39,7.08,7.08,0,0,0-1.39.66l-.47-.82A6.86,6.86,0,0,0,202.79,62a7,7,0,0,0-12.08-7,7.15,7.15,0,0,0-.81,2.17h0a7.73,7.73,0,0,0-.12,1.52h-.94a6.89,6.89,0,0,0-.93-3.7,7,7,0,1,0-10.6,8.76h0a6.74,6.74,0,0,0,1.26.87l-.47.82a7,7,0,0,0-1.38-.66h0a7,7,0,1,0,0,13.17h0a7.27,7.27,0,0,0,1.38-.65l.47.81a6.74,6.74,0,0,0-1.26.87,6.84,6.84,0,0,0-1.48,1.79,7,7,0,0,0,12.08,7,13.38,13.38,0,0,0,.93-3.7h.94a7,7,0,1,0,13-3.27A6.8,6.8,0,0,0,201.32,79h0a6.74,6.74,0,0,0-1.26-.87l.47-.82a7,7,0,1,0,3.68-12.9"/><path class="cls-2" d="M196.75,71.37a7.44,7.44,0,1,1-7.44-7.43,7.44,7.44,0,0,1,7.44,7.43"/><path class="cls-6" d="M196.75,71.37a7.44,7.44,0,1,1-7.44-7.43A7.44,7.44,0,0,1,196.75,71.37Z"/><path class="cls-4" d="M198.39,46a9.27,9.27,0,0,0-.52-4.83c-5.42-13.7-44.67-14.44-87.64-1.64s-73.44,34.28-68,48S86.89,102,129.87,89.16a222,222,0,0,0,33.59-12.89"/><path class="cls-7" d="M71.7,141.72a38.11,38.11,0,0,0,51.25,0"/><line class="cls-7" x1="83.15" y1="151.16" x2="72.9" y2="163.13"/><line class="cls-7" x1="94.8" y1="151.87" x2="84.94" y2="163.13"/><line class="cls-7" x1="107.22" y1="151.16" x2="96.97" y2="163.13"/><path class="cls-7" d="M164.72,141.72a38.11,38.11,0,0,0,51.25,0"/><line class="cls-7" x1="176.17" y1="151.16" x2="165.92" y2="163.13"/><line class="cls-7" x1="187.82" y1="151.87" x2="177.96" y2="163.13"/><line class="cls-7" x1="200.24" y1="151.16" x2="189.99" y2="163.13"/><path class="cls-2" d="M120.64,53.66V31.73c0-.15.06-4.54,0-4.66-.34-.86-2.79-.91-5.47-.11s-4.59,2.15-4.25,3c0,0,0,4.27,0,4.29V56.58"/><path class="cls-4" d="M120.64,53.66V31.73c0-.15.06-4.54,0-4.66-.34-.86-2.79-.91-5.47-.11s-4.59,2.15-4.25,3c0,0,0,4.27,0,4.29V56.58"/></svg>