<?xml version="1.0" standalone="no"?>
<!DOCTYPE svg PUBLIC "-//W3C//DTD SVG 1.1//EN" "http://www.w3.org/Graphics/SVG/1.1/DTD/svg11.dtd" >
<svg xmlns="http://www.w3.org/2000/svg">
<metadata></metadata>
<defs>
<font id="dederon_s_d_otbold" horiz-adv-x="663" >
<font-face units-per-em="2048" ascent="1638" descent="-410" />
<missing-glyph horiz-adv-x="593" />
<glyph horiz-adv-x="2048" />
<glyph horiz-adv-x="2048" />
<glyph unicode="&#xd;" horiz-adv-x="2048" />
<glyph unicode=" "  horiz-adv-x="593" />
<glyph unicode="&#x09;" horiz-adv-x="593" />
<glyph unicode="&#xa0;" horiz-adv-x="593" />
<glyph unicode="!" horiz-adv-x="778" d="M195 150q0 87 55.5 141.5t138.5 54.5q189 0 189 -170q0 -80 -56.5 -142.5t-142.5 -62.5q-81 0 -132.5 52.5t-51.5 126.5zM199 1423l342 58l43 -37l-62 -926l-225 -37l-43 37z" />
<glyph unicode="&#x22;" horiz-adv-x="1118" d="M174 1442l256 39l43 -37l-41 -664l-174 -24l-43 37zM645 1442l256 39l43 -37l-41 -664l-174 -24l-43 37z" />
<glyph unicode="#" horiz-adv-x="1480" d="M72 272l22 142h219l97 254h-187l-37 43l23 141h270l119 322l53 20l142 -80l-99 -262h326l119 322l53 20l141 -80l-98 -262h137l37 -43l-23 -141h-219l-96 -254h186l37 -43l-22 -142h-271l-120 -321l-54 -21l-141 80l100 262h-325l-121 -321l-53 -21l-142 80l101 262h-137 zM530 414h324l96 254h-323z" />
<glyph unicode="$" horiz-adv-x="1165" d="M72 90l92 221q219 -78 371 -78q97 0 160 39.5t63 106.5q0 25 -9 47.5t-32 43.5t-44.5 37t-65 37t-74 35t-89.5 39q-181 77 -266.5 180t-85.5 267q0 149 105 261.5t272 141.5v246l209 35l43 -37v-231q157 -7 299 -54l22 -45l-92 -235q-202 65 -342 65q-85 0 -131.5 -36.5 t-46.5 -98.5q0 -63 69.5 -110t225.5 -111q191 -78 280 -179t89 -263q0 -79 -23 -145.5t-59.5 -112t-87 -80.5t-100 -55t-103.5 -31v-226l-209 -34l-43 37v206h-10q-63 0 -166 18t-197 54z" />
<glyph unicode="%" horiz-adv-x="2168" d="M113 1085q0 178 121.5 288t310.5 110q97 0 174 -21.5t136.5 -67t91.5 -124t32 -185.5q0 -179 -121 -289t-313 -110q-96 0 -172.5 21.5t-136 67.5t-91.5 124.5t-32 185.5zM393 1083q0 -95 42.5 -155t109.5 -60q70 0 111.5 59.5t41.5 155.5q0 98 -41.5 157.5t-111.5 59.5 q-68 0 -110 -60t-42 -157zM500 0l993 1573l164 -68l16 -53l-991 -1575l-164 70zM1190 371q0 178 121.5 287.5t310.5 109.5q201 0 317.5 -94.5t116.5 -302.5q0 -179 -121 -289.5t-313 -110.5q-96 0 -172.5 22t-136 68t-91.5 124.5t-32 185.5zM1470 369q0 -95 42.5 -155 t109.5 -60q70 0 112 59.5t42 155.5q0 97 -42 157t-112 60q-68 0 -110 -60t-42 -157z" />
<glyph unicode="&#x26;" horiz-adv-x="1470" d="M133 360q0 138 77.5 242t201.5 148l-2 16q-230 103 -230 330q0 76 35.5 146t100 123.5t162.5 85.5t214 32q222 0 416 -56l22 -45l-92 -235q-206 65 -333 65q-86 0 -136.5 -45t-50.5 -123t77.5 -132t217.5 -54h635l33 -39l-35 -211h-248v-833l-276 -45l-43 37v251 q-188 -32 -289 -32q-93 0 -171.5 19.5t-144.5 61.5t-103.5 117t-37.5 176zM473 391q0 -62 53.5 -107.5t145.5 -45.5q96 0 207 30v340h-82q-160 0 -242 -63.5t-82 -153.5z" />
<glyph unicode="'" horiz-adv-x="647" d="M174 1442l256 39l43 -37l-41 -664l-174 -24l-43 37z" />
<glyph unicode="(" horiz-adv-x="839" d="M72 727q0 397 170 702t477 490l51 -14l80 -166q-209 -164 -316.5 -424t-107.5 -588t107.5 -588t316.5 -424l-80 -166l-51 -14q-307 185 -477 490t-170 702z" />
<glyph unicode=")" horiz-adv-x="839" d="M-10 -285q209 164 316.5 424t107.5 588t-107.5 588t-316.5 424l80 166l51 14q307 -185 477 -490t170 -702t-170 -702t-477 -490l-51 14z" />
<glyph unicode="*" horiz-adv-x="1107" d="M92 1266l31 217l47 28l266 -104l-16 272l215 39l43 -37l-19 -290l254 100l103 -193l-21 -51l-272 -69l168 -205l-152 -158l-55 4l-154 244l-147 -234l-197 97l-12 53l182 219z" />
<glyph unicode="+" horiz-adv-x="1081" d="M92 479l33 195h295v301l194 33l41 -35v-299h299l35 -41l-33 -195h-301v-295l-194 -32l-41 34v293h-293z" />
<glyph unicode="," horiz-adv-x="575" d="M123 -311l49 612h281l30 -47l-196 -606h-125z" />
<glyph unicode="-" horiz-adv-x="600" d="M31 416l32 194h472l34 -41l-32 -194h-471z" />
<glyph unicode="." horiz-adv-x="669" d="M143 150q0 86 56 141t139 55q188 0 188 -170q0 -80 -56 -142.5t-142 -62.5q-81 0 -133 52.5t-52 126.5z" />
<glyph unicode="/" horiz-adv-x="669" d="M-72 -29l641 1704l207 -41l27 -49l-639 -1704l-207 41z" />
<glyph unicode="0" horiz-adv-x="1370" d="M72 557q0 262 171 423t443 161q136 0 244.5 -32t192.5 -99.5t129.5 -182t45.5 -270.5q0 -263 -171.5 -424.5t-440.5 -161.5q-109 0 -200 19.5t-168.5 63.5t-131.5 111.5t-84 166.5t-30 225zM401 557q0 -168 81.5 -274.5t209.5 -106.5q127 0 202 100t75 281 q0 168 -81.5 273.5t-209.5 105.5t-202.5 -98t-74.5 -281z" />
<glyph unicode="1" horiz-adv-x="870" d="M31 1092l628 47l37 -41v-1098h-311v883h-336z" />
<glyph unicode="2" horiz-adv-x="1148" d="M51 180q198 110 329 195.5t199.5 150t94.5 111.5t26 94q0 73 -54 110.5t-144 37.5q-158 0 -338 -66l-84 197l24 51q106 45 203 62.5t250 17.5q227 0 346 -99.5t119 -250.5q0 -145 -116 -276.5t-384 -264.5l6 -14l533 26l37 -41l-35 -221h-952z" />
<glyph unicode="3" horiz-adv-x="1161" d="M51 -233l101 190q186 -76 342 -76q116 0 182.5 48t66.5 137q0 111 -101.5 169t-326.5 58v221q192 0 281.5 60.5t89.5 156.5q0 74 -53.5 116t-153.5 42q-140 0 -336 -88l-88 190l23 51q187 99 452 99q240 0 360 -95.5t120 -261.5q0 -109 -72.5 -208.5t-202.5 -137.5l2 -16 q167 -39 249.5 -146t82.5 -237q0 -195 -149 -306.5t-412 -111.5q-139 0 -235.5 22.5t-200.5 71.5z" />
<glyph unicode="4" horiz-adv-x="1232" d="M51 176l451 973l237 -121l19 -53l-398 -719l293 10v248l271 45l41 -37v-243l180 6l37 -41l-37 -244h-180v-362h-312v362h-544z" />
<glyph unicode="5" horiz-adv-x="1165" d="M72 -195l102 189q187 -84 342 -84q134 0 196 58t62 153q0 109 -73.5 166t-192.5 57q-157 0 -307 -53l-62 43v778h885l37 -45l-31 -215h-624v-301q125 27 239 27q226 0 347.5 -124t121.5 -327q0 -213 -151.5 -345t-430.5 -132q-147 0 -243.5 24t-194.5 76z" />
<glyph unicode="6" horiz-adv-x="1280" d="M92 684q0 169 32 303.5t90 226.5t142 153t184 88.5t220 27.5q226 0 379 -62l20 -51l-117 -215q-115 53 -284 53q-158 0 -252 -107t-94 -274q149 58 346 58q94 0 174.5 -28t142.5 -82.5t97.5 -142t35.5 -198.5q0 -222 -148 -342.5t-388 -120.5q-115 0 -202.5 20.5 t-160.5 70t-119.5 130t-72 203.5t-25.5 289zM418 606q5 -215 65.5 -313t198.5 -98q88 0 146.5 57.5t58.5 169.5q0 116 -56.5 178t-168.5 62q-122 0 -244 -56z" />
<glyph unicode="7" horiz-adv-x="1179" d="M72 868l39 244h983l55 -178l-676 -1376l-240 123l-16 51l623 1122l-731 -29z" />
<glyph unicode="8" horiz-adv-x="1323" d="M92 358q0 130 75.5 228.5t221.5 148.5l2 17q-123 44 -186.5 139.5t-63.5 214.5q0 177 130.5 277t390.5 100q520 0 520 -377q0 -122 -64 -215.5t-186 -138.5l2 -17q146 -49 221.5 -146.5t75.5 -217.5q0 -89 -31.5 -160t-97 -125.5t-177.5 -84.5t-263 -30q-154 0 -267 29.5 t-178 84t-95 122t-30 151.5zM414 410q0 -222 248 -222q245 0 245 222q0 95 -72.5 162t-172.5 67q-101 0 -174.5 -67t-73.5 -162zM463 1063q0 -96 59.5 -156.5t139.5 -60.5t138 60.5t58 156.5q0 101 -51.5 152t-144.5 51t-146 -51.5t-53 -151.5z" />
<glyph unicode="9" horiz-adv-x="1280" d="M92 655q0 159 70.5 270.5t190 164.5t276.5 53q115 0 202.5 -20t160.5 -69t119 -128.5t71.5 -201t25.5 -284.5q0 -177 -34 -317.5t-94 -235.5t-146.5 -158.5t-188 -91.5t-221.5 -28q-224 0 -352 61l-20 51l96 222q160 -54 295 -54q152 0 249 100t97 281q-153 -57 -316 -57 q-99 0 -185 27.5t-152.5 81t-105 139t-38.5 194.5zM414 674q0 -112 57.5 -176t169.5 -64q107 0 242 55q-1 213 -66.5 315.5t-195.5 102.5q-88 0 -147.5 -62t-59.5 -171z" />
<glyph unicode=":" horiz-adv-x="669" d="M143 150q0 86 56 141t139 55q188 0 188 -170q0 -80 -56 -142.5t-142 -62.5q-81 0 -133 52.5t-52 126.5zM143 825q0 87 56 142t139 55q188 0 188 -170q0 -80 -56 -142.5t-142 -62.5q-81 0 -133 52t-52 126z" />
<glyph unicode=";" horiz-adv-x="606" d="M123 -311l49 612h281l30 -47l-196 -606h-125zM131 825q0 87 56 142t139 55q188 0 188 -170q0 -80 -56.5 -142.5t-142.5 -62.5q-81 0 -132.5 52t-51.5 126z" />
<glyph unicode="&#x3c;" horiz-adv-x="1071" d="M92 455l37 217l760 303l47 -25l43 -192l-557 -203l532 -199l19 -51l-105 -168z" />
<glyph unicode="=" horiz-adv-x="1081" d="M92 231l33 195h829l35 -41l-33 -195h-829zM92 727l33 195h829l35 -41l-33 -195h-829z" />
<glyph unicode="&#x3e;" horiz-adv-x="1071" d="M92 356l557 203l-532 199l-19 51l105 168l776 -318l-37 -217l-760 -303l-47 25z" />
<glyph unicode="?" horiz-adv-x="1044" d="M51 1352l25 51q182 80 381 80q254 0 395 -89t141 -253q0 -145 -94 -243t-270 -161l-15 -219l-223 -37l-45 37l-18 324q344 64 344 231q0 68 -50.5 108t-148.5 40q-161 0 -338 -66zM287 150q0 86 56.5 141t139.5 55q92 0 139.5 -45.5t47.5 -122.5q0 -82 -56.5 -144.5 t-142.5 -62.5q-82 0 -133 52t-51 127z" />
<glyph unicode="@" horiz-adv-x="2168" d="M72 332q0 233 82.5 432.5t232 343t369.5 224.5t485 81q248 0 440 -78.5t304 -234t112 -367.5q0 -156 -39 -285.5t-103 -216t-148.5 -146.5t-174 -87t-180.5 -27q-122 0 -170.5 93t4.5 219l-26 6q-112 -188 -199 -253t-242 -65q-129 0 -202.5 88t-73.5 260q0 157 49.5 290 t134.5 222.5t200 140t244 50.5q237 0 431 -84l-76 -621q-6 -50 5 -71t44 -21q87 0 168.5 122.5t81.5 287.5q0 264 -157 392t-484 128q-387 0 -607.5 -213t-220.5 -580q0 -276 175.5 -438t459.5 -162q266 0 484 58l51 -172l-23 -60q-125 -36 -228 -52.5t-263 -16.5 q-446 0 -693 207t-247 606zM860 381q0 -83 23.5 -120.5t74.5 -37.5q61 0 129 72t121.5 199.5t69.5 271.5q-70 39 -137 39q-74 0 -130.5 -40t-88 -105t-47 -136t-15.5 -143z" />
<glyph unicode="A" horiz-adv-x="1398" d="M20 43l506 1401l320 22l532 -1423l-24 -43h-322l-112 346h-474l-106 -346h-295zM512 567h340l-166 508l-16 2z" />
<glyph unicode="B" horiz-adv-x="1372" d="M174 0v1454q240 16 467 16q103 0 184.5 -10.5t151.5 -36.5t116.5 -67t72.5 -103.5t26 -144.5q0 -116 -74 -208t-211 -134l2 -16q158 -30 244 -130t86 -229q0 -180 -156.5 -293.5t-416.5 -113.5q-218 0 -492 16zM494 223q87 -6 118 -6q76 0 139 20.5t105.5 67.5t42.5 113 q0 213 -405 213v-408zM494 844q174 0 266 57.5t92 157.5q0 180 -242 180h-8q-73 0 -108 -4v-391z" />
<glyph unicode="C" horiz-adv-x="1288" d="M72 698q0 178 56 326.5t154 248.5t231.5 155t287.5 55q268 0 444 -78l19 -49l-129 -226q-148 64 -295 64q-186 0 -305 -132.5t-119 -354.5q0 -208 119 -333.5t301 -125.5q156 0 350 90l112 -205l-18 -45q-126 -61 -235 -89t-254 -28q-158 0 -287.5 44t-227 131.5 t-151 228t-53.5 323.5z" />
<glyph unicode="D" horiz-adv-x="1550" d="M174 0v1454q298 16 500 16q805 0 805 -743q0 -145 -41 -266t-114.5 -208.5t-175 -148.5t-223.5 -90.5t-259 -29.5q-116 0 -492 16zM494 236q73 -11 184 -11q209 0 334 137t125 365q0 230 -125.5 366t-331.5 136q-120 0 -186 -12v-981z" />
<glyph unicode="E" horiz-adv-x="1167" d="M174 0v1454h926l33 -39l-35 -209h-604v-348h442l33 -39l-35 -211h-440v-360h630l33 -37l-35 -211h-948z" />
<glyph unicode="F" horiz-adv-x="1060" d="M174 0v1454h885l33 -39l-35 -209h-563v-364h401l33 -39l-35 -209h-399v-594h-320z" />
<glyph unicode="G" horiz-adv-x="1462" d="M72 698q0 179 58.5 328t160 248.5t236.5 154t288 54.5q266 0 453 -78l18 -49l-129 -226q-165 64 -307 64q-187 0 -310.5 -133t-123.5 -354q0 -115 34 -206t92.5 -147.5t133.5 -86t162 -29.5q125 0 204 24v256h-251l-46 39l43 182h551v-655q-112 -58 -237.5 -85.5 t-300.5 -27.5q-126 0 -235 27t-200.5 85t-156.5 142.5t-101 205t-36 267.5z" />
<glyph unicode="H" horiz-adv-x="1576" d="M174 0v1454h320v-598h591v598h318v-1454h-318v608h-591v-608h-320z" />
<glyph unicode="I" horiz-adv-x="667" d="M174 0v1454h320v-1454h-320z" />
<glyph unicode="J" horiz-adv-x="718" d="M-143 -397l37 207h157q174 0 174 202v1442h320v-1456q0 -198 -103.5 -317t-306.5 -119h-244z" />
<glyph unicode="K" horiz-adv-x="1443" d="M174 0v1454h320v-719l553 719h327l25 -41l-545 -647l-2 -16l582 -709l-25 -41h-362l-553 735v-735h-320z" />
<glyph unicode="L" horiz-adv-x="1167" d="M174 0v1454h320v-1206h630l33 -37l-35 -211h-948z" />
<glyph unicode="M" horiz-adv-x="2156" d="M143 37l254 1407l326 22l346 -1099h16l340 1077l332 20l256 -1427l-28 -37h-299l-130 985l-16 2l-311 -975l-303 -24l-314 997l-16 2l-129 -987h-291z" />
<glyph unicode="N" horiz-adv-x="1581" d="M174 0v1440l295 26l627 -958l16 2l-10 944h305v-1438l-303 -32l-619 985l-16 -2l10 -967h-305z" />
<glyph unicode="O" horiz-adv-x="1660" d="M72 727q0 163 56 303.5t155.5 240t240.5 156t305 56.5q169 0 305.5 -44t239.5 -133.5t159 -236.5t56 -342q0 -218 -95.5 -390t-269.5 -269t-395 -97q-133 0 -247 27.5t-208.5 86.5t-161 146.5t-103.5 213.5t-37 282zM414 727q0 -221 118 -365.5t302 -144.5 q183 0 299 144.5t116 365.5t-117.5 365.5t-302.5 144.5q-182 0 -298.5 -144.5t-116.5 -365.5z" />
<glyph unicode="P" horiz-adv-x="1271" d="M174 0v1454q270 16 481 16q266 0 405.5 -108t139.5 -305q0 -53 -7.5 -100.5t-28 -100.5t-53.5 -97t-88 -85t-127 -69t-175 -45t-227 -17v-543h-320zM494 793q109 0 185 17t116.5 49.5t57.5 71.5t17 91q0 102 -67 153.5t-182 51.5q-81 0 -127 -10v-424z" />
<glyph unicode="Q" horiz-adv-x="1658" d="M72 727q0 163 56.5 303.5t156 240t241.5 156t308 56.5q168 0 303.5 -44.5t237.5 -134t158 -236.5t56 -341q0 -210 -89 -375t-247 -264l-4 -16l416 -308l-160 -223l-51 -4l-496 443q-83 -9 -124 -9q-169 0 -306 44t-240 133.5t-159.5 236.5t-56.5 342zM416 727 q0 -221 117.5 -365.5t302.5 -144.5q182 0 297.5 144.5t115.5 365.5t-117.5 365.5t-300.5 144.5t-299 -144.5t-116 -365.5z" />
<glyph unicode="R" horiz-adv-x="1400" d="M174 0v1454q218 16 469 16q277 0 413 -104t136 -295q0 -129 -73 -228t-222 -153l2 -16q128 -67 219 -217l252 -414l-24 -43h-338l-209 381q-109 196 -270 196q-17 0 -35 -2v-575h-320zM494 819q21 -1 40 -1q155 0 232 56q86 64 86 168q0 106 -57 150.5t-170 44.5 q-75 0 -131 -6v-412z" />
<glyph unicode="S" horiz-adv-x="1165" d="M72 90l92 221q219 -78 371 -78q97 0 160 39.5t63 106.5q0 30 -15.5 57.5t-39 48.5t-68 45.5t-84.5 42.5t-107 45q-182 78 -267 180.5t-85 266.5q0 83 35.5 158.5t100 133.5t162.5 92t214 34q131 0 221 -11t195 -45l22 -45l-92 -235q-202 65 -342 65q-85 0 -131.5 -36.5 t-46.5 -98.5q0 -63 69.5 -110t225.5 -111q192 -80 280.5 -180.5t88.5 -261.5q0 -206 -149.5 -324.5t-414.5 -118.5q-240 0 -434 74z" />
<glyph unicode="T" horiz-adv-x="1230" d="M10 1243l37 211h1143l31 -39l-35 -209h-410v-1206h-319v1206h-412z" />
<glyph unicode="U" horiz-adv-x="1576" d="M174 508v946h320v-911q0 -168 71.5 -244t222.5 -76q150 0 223.5 80.5t73.5 253.5v897h318v-944q0 -539 -623 -539q-301 0 -453.5 129t-152.5 408z" />
<glyph unicode="V" horiz-adv-x="1386" d="M20 1411l25 43h322l342 -1102l16 -2l319 1104h297l25 -43l-498 -1401l-321 -22z" />
<glyph unicode="W" horiz-adv-x="2048" d="M20 1411l25 43h324l256 -1087l16 -2l246 1077l295 24l284 -1099l19 -2l219 1089h299l25 -43l-398 -1399l-321 -24l-273 977h-16l-236 -953l-321 -24z" />
<glyph unicode="X" horiz-adv-x="1507" d="M72 43l499 680l-497 688l26 43h334l318 -477h16l319 477h299l25 -43l-485 -661l510 -707l-23 -43h-338l-327 496h-17l-332 -496h-301z" />
<glyph unicode="Y" horiz-adv-x="1339" d="M20 1411l27 43h307l330 -637l16 -2l324 639h270l25 -43l-481 -850v-561h-318v555z" />
<glyph unicode="Z" horiz-adv-x="1236" d="M41 176l754 1030h-686l-33 43l20 205h1059l41 -182l-743 -1024l702 16l35 -43l-23 -221h-1087z" />
<glyph unicode="[" horiz-adv-x="843" d="M174 -375v2202h668l32 -37l-34 -211h-348v-1706h350l32 -37l-34 -211h-666z" />
<glyph unicode="\" horiz-adv-x="669" d="M-133 1585l27 49l206 41l641 -1704l-28 -49l-207 -41z" />
<glyph unicode="]" horiz-adv-x="843" d="M-31 -336l35 211h348v1706h-350l-33 37l35 211h666v-2202h-668z" />
<glyph unicode="^" horiz-adv-x="1089" d="M92 852l336 645l217 37l352 -662l-168 -104l-51 18l-233 457l-236 -481l-192 43z" />
<glyph unicode="_" horiz-adv-x="1001" d="M-31 -266l23 139h1007l35 -41l-22 -139h-1008z" />
<glyph unicode="`" horiz-adv-x="690" d="M92 1532l19 41h260l227 -397l-20 -37h-160z" />
<glyph unicode="a" horiz-adv-x="1173" d="M72 209q0 156 107.5 240t377.5 126l96 15v19q-1 103 -41 145q-44 46 -149 47q-124 0 -285 -45l-55 168l33 49q184 49 409 49q96 0 167.5 -16.5t126 -53t82.5 -100.5t28 -154v-452q-1 -53 35 -68q15 -6 33 -6q24 0 53 12q24 -22 33 -50q4 -14 4 -28q-1 -15 -5 -29 q-10 -28 -36 -52t-80 -39t-127 -15q-87 0 -133.5 27.5t-63.5 87.5q-133 -115 -326 -115q-127 0 -205.5 60t-78.5 178zM399 254q0 -35 28 -57.5t77 -22.5q64 0 149 47v187q-254 -25 -254 -154z" />
<glyph unicode="b" horiz-adv-x="1318" d="M174 49v1479l272 45l43 -37v-586q134 72 279 72q215 0 337 -119t122 -358q0 -268 -154 -421t-436 -153q-304 0 -463 78zM489 215q72 -37 175 -37q102 0 169.5 85.5t67.5 236.5q0 146 -64.5 223.5t-156.5 77.5q-91 0 -191 -47v-539z" />
<glyph unicode="c" horiz-adv-x="1007" d="M92 479q0 251 156.5 397t410.5 146q135 0 279 -33l23 -51l-97 -205q-100 27 -174 27q-133 0 -193.5 -73t-60.5 -200q0 -131 63 -196.5t171 -65.5q104 0 233 60l74 -170l-14 -62q-96 -45 -179.5 -63.5t-189.5 -18.5q-113 0 -202 27t-157.5 85.5t-105.5 158.5t-37 237z" />
<glyph unicode="d" horiz-adv-x="1345" d="M92 451q0 264 139.5 417.5t372.5 153.5q107 0 225 -27v533l273 45l43 -37v-1290q-1 -53 35 -68q15 -6 33 -6q24 0 53 12q21 -22 29 -50q3 -12 3 -25q0 -16 -6 -32q-10 -29 -36.5 -52.5t-80 -38.5t-126.5 -15q-89 0 -139 28.5t-60 96.5q-125 -125 -350 -125 q-83 0 -155.5 29.5t-129.5 87t-90 151t-33 212.5zM418 504q0 -147 57 -225t162 -78q85 0 192 49v520q-82 35 -165 35q-114 0 -180 -80t-66 -221z" />
<glyph unicode="e" horiz-adv-x="1153" d="M92 479q0 132 41.5 237t114.5 171t168.5 100.5t206.5 34.5q237 0 337.5 -134.5t100.5 -400.5l-37 -43h-610q6 -221 233 -221q157 0 287 62l74 -170l-13 -62q-96 -45 -183.5 -63.5t-201.5 -18.5q-116 0 -207.5 27t-163 85t-109.5 158t-38 238zM414 610l350 13 q-5 84 -44 136t-112 52q-70 0 -122.5 -46t-71.5 -155z" />
<glyph unicode="f" horiz-adv-x="765" d="M51 825l31 168h127v105q0 212 103.5 329t283.5 117h223l39 -43l-39 -203h-110q-90 0 -137.5 -51t-47.5 -172v-82l211 13l39 -43l-31 -181h-219v-782h-315v782h-119z" />
<glyph unicode="g" horiz-adv-x="1153" d="M72 -287q0 83 42.5 152t143.5 129q-36 14 -64.5 50t-42.5 89q-5 20 -5 44q0 38 14 84q22 75 84 153q-133 81 -133 268q0 162 121 251t329 89q133 0 238 -31l327 66l37 -49l-18 -158h-170q37 -66 37 -168q0 -160 -121 -248t-330 -88q-95 0 -141 10q-23 -30 -28 -66 q-1 -8 -1 -16q0 -27 15 -47q18 -26 55 -26h235q220 0 324 -81t104 -218q0 -201 -155.5 -323t-460.5 -122q-220 0 -328 71t-108 185zM379 -205q0 -64 45 -105.5t131 -41.5q113 0 184.5 52.5t71.5 131.5q0 127 -193 127h-159q-80 -74 -80 -164zM410 682q0 -73 45 -121.5 t110 -48.5q68 0 108 40.5t40 129.5q0 75 -44.5 123.5t-109.5 48.5q-149 0 -149 -172z" />
<glyph unicode="h" horiz-adv-x="1327" d="M174 0v1528l272 45l43 -37v-633q142 119 349 119q315 0 315 -363v-659h-315v596q0 87 -43.5 133.5t-108.5 46.5q-55 0 -98.5 -15.5t-98.5 -58.5v-702h-315z" />
<glyph unicode="i" d="M141 1315q0 78 57.5 132t139.5 54q89 0 136.5 -44t47.5 -116q0 -76 -54.5 -133t-141.5 -57q-82 0 -133.5 48t-51.5 116zM174 0v977l272 45l43 -37v-985h-315z" />
<glyph unicode="j" d="M-143 -471l39 203h112q166 0 166 190v1055l272 45l43 -37v-1065q0 -96 -21.5 -173t-66.5 -136.5t-121.5 -92t-179.5 -32.5h-204zM141 1315q0 78 57.5 132t139.5 54q89 0 136.5 -44t47.5 -116q0 -76 -54.5 -133t-141.5 -57q-82 0 -133.5 48t-51.5 116z" />
<glyph unicode="k" horiz-adv-x="1228" d="M174 0v1528l272 45l43 -37v-1016l369 473h305l25 -47l-373 -399l-2 -17l426 -483l-27 -47h-335l-388 520v-520h-315z" />
<glyph unicode="l" d="M174 0v1528l272 45l43 -37v-1536h-315z" />
<glyph unicode="m" horiz-adv-x="1923" d="M51 860q-4 14 -4 27q1 15 5 29q10 28 36 52t80 39t127 15q97 0 141.5 -31t67.5 -102q139 133 332 133q192 0 256 -141q75 68 168 104.5t190 36.5q155 0 227 -91t72 -272v-659h-315v596q0 180 -119 180q-50 0 -89 -15.5t-98 -60.5q7 -35 7 -67v-633h-316v596 q0 180 -119 180q-50 0 -87.5 -15t-92.5 -59v-702h-315v748q1 52 -35 67q-15 6 -33 6q-24 0 -53 -12q-24 23 -33 51z" />
<glyph unicode="n" horiz-adv-x="1357" d="M51 860q-4 14 -4 27q1 15 5 29q10 28 36 52t80 39t127 15q97 0 141.5 -31t67.5 -102q139 133 364 133q316 0 316 -363v-659h-316v596q0 88 -43.5 134t-107.5 46q-55 0 -99.5 -15.5t-97.5 -58.5v-702h-315v748q1 52 -35 67q-15 6 -33 6q-24 0 -53 -12q-24 23 -33 51z" />
<glyph unicode="o" horiz-adv-x="1290" d="M92 496q0 251 148.5 388.5t404.5 137.5q104 0 186.5 -16t152 -54t116 -98t72.5 -150t26 -208q0 -250 -148 -387.5t-405 -137.5q-103 0 -185.5 16.5t-152.5 54.5t-116.5 97.5t-72.5 149.5t-26 207zM422 496q0 -139 66 -229.5t163 -90.5q219 0 219 320q0 139 -67 230 t-164 91q-217 0 -217 -321z" />
<glyph unicode="p" horiz-adv-x="1343" d="M50 860q-3 11 -3 22q0 17 6 34q10 29 37 52.5t80.5 38.5t126.5 15q89 0 139 -28.5t60 -96.5q125 125 350 125q83 0 155 -29.5t128.5 -86.5t89 -150.5t32.5 -212.5q0 -264 -138.5 -418t-371.5 -154q-105 0 -227 27v-490l-270 -43l-43 37v1246q0 52 -36 67q-15 6 -33 6 q-24 0 -54 -12q-21 23 -28 51zM514 223q86 -35 168 -35q114 0 180 80t66 221q0 147 -57 225.5t-162 78.5q-82 0 -195 -50v-520z" />
<glyph unicode="q" horiz-adv-x="1318" d="M92 449q0 268 154.5 420.5t437.5 152.5q302 0 461 -78v-1433l-273 -48l-43 39v541q-134 -72 -278 -72q-214 0 -336.5 119.5t-122.5 358.5zM418 494q0 -147 65 -225.5t158 -78.5q82 0 188 50v538q-72 37 -174 37q-101 0 -169 -85t-68 -236z" />
<glyph unicode="r" horiz-adv-x="1030" d="M51 860q-4 14 -4 27q1 15 5 29q10 28 36 52t80 39t127 15q106 0 158.5 -46.5t58.5 -164.5q53 99 143.5 155t190.5 56q99 0 176 -47l18 -53l-104 -240l-57 -12q-65 59 -146 59q-55 0 -111.5 -26t-101.5 -80v-623h-315v748q1 52 -35 67q-15 6 -33 6q-24 0 -53 -12 q-24 23 -33 51z" />
<glyph unicode="s" horiz-adv-x="954" d="M72 78l71 174q7 -2 33.5 -11t36 -12t33.5 -10.5t35.5 -11t32 -9.5t33 -8.5t29 -6t29 -4.5t23.5 -1q53 0 82 23.5t29 64.5q0 19 -12.5 37t-44 39t-60.5 36.5t-84 43.5q-57 30 -92.5 53t-71 56.5t-52 75.5t-16.5 95q0 157 107 238.5t311 81.5q144 0 301 -41l29 -49 l-66 -187q-149 56 -235 56q-98 0 -98 -76q0 -32 46 -63t154 -82q52 -26 89 -51.5t71 -62t51 -84.5t17 -108q0 -150 -109 -226.5t-289 -76.5q-227 0 -385 58z" />
<glyph unicode="t" horiz-adv-x="927" d="M51 825l31 168h127v314l272 45l43 -37v-322l254 13l39 -43l-31 -181h-262v-415q0 -140 125 -140q57 0 162 31l66 -188l-29 -50q-163 -49 -316 -49q-146 0 -234.5 70.5t-88.5 222.5v518h-119z" />
<glyph unicode="u" horiz-adv-x="1355" d="M174 334v643l272 45l43 -37v-588q0 -87 43.5 -133.5t108.5 -46.5q55 0 98.5 15.5t98.5 58.5v686l272 45l43 -37v-739q0 -53 35 -68q15 -6 32 -6q24 0 54 12q23 -22 32 -50q4 -14 4 -28q0 -16 -5 -30q-10 -28 -36.5 -51.5t-80.5 -38.5t-127 -15q-96 0 -141 31t-68 102 q-139 -133 -363 -133q-315 0 -315 363z" />
<glyph unicode="v" horiz-adv-x="1128" d="M20 946l29 47h313l207 -743l17 -2l215 745h278l29 -47l-352 -934l-373 -24z" />
<glyph unicode="w" horiz-adv-x="1683" d="M20 946l29 47h313l158 -723l17 -2l165 713l310 23l170 -734l16 -2l160 725h278l27 -47l-295 -934l-356 -24l-168 604h-17l-139 -580l-356 -24z" />
<glyph unicode="x" horiz-adv-x="1132" d="M20 946l29 47h332l190 -295h17l190 295h291l27 -47l-363 -440l379 -459l-29 -47h-333l-185 289h-14l-182 -289h-295l-29 47l358 434z" />
<glyph unicode="y" horiz-adv-x="1128" d="M20 946l29 47h313l207 -743l17 -2l215 745h278l29 -47l-559 -1495l-248 51l-20 54l208 434l-106 -2z" />
<glyph unicode="z" horiz-adv-x="1067" d="M82 143l522 633h-448l-39 49l18 168h807l43 -149l-508 -629l465 14l37 -49l-21 -180h-837z" />
<glyph unicode="{" horiz-adv-x="874" d="M51 655v187q108 0 168 56t60 136v346q0 212 103.5 329.5t283.5 117.5h206l33 -37l-35 -211h-34q-121 0 -180.5 -69.5t-59.5 -225.5v-260q0 -101 -52.5 -171.5t-150.5 -96.5l2 -17q97 -26 149 -96.5t52 -171.5v-303q0 -156 59.5 -225.5t180.5 -69.5h36l33 -37l-35 -211 h-204q-180 0 -283.5 117.5t-103.5 329.5v391q0 80 -60 136t-168 56z" />
<glyph unicode="|" horiz-adv-x="641" d="M195 -346v2130l208 35l43 -37v-2130l-208 -35z" />
<glyph unicode="}" horiz-adv-x="874" d="M-31 -336l35 211h35q121 0 180.5 69.5t59.5 225.5v301q0 101 52 171.5t150 96.5l-2 17q-97 26 -148.5 96.5t-51.5 171.5v262q0 156 -59.5 225.5t-180.5 69.5h-37l-33 37l35 211h205q180 0 283.5 -117.5t103.5 -329.5v-350q0 -80 59.5 -136t167.5 -56v-187 q-108 0 -167.5 -56t-59.5 -136v-387q0 -212 -103.5 -329.5t-283.5 -117.5h-207z" />
<glyph unicode="~" horiz-adv-x="1292" d="M92 309q0 222 81.5 323t217.5 101q89 0 155 -24t144 -74l117 -74q32 -20 66 -23t63.5 12t50.5 56.5t25 104.5h157l31 -25q0 -222 -81.5 -323t-217.5 -101q-88 0 -154.5 24.5t-144.5 73.5l-117 74q-32 20 -65 22.5t-63 -11.5t-51 -55.5t-25 -104.5h-158z" />
<glyph unicode="&#xa2;" horiz-adv-x="1069" d="M92 479q0 110 31.5 202t86 154.5t121 103t142.5 58.5v220l209 34l43 -37v-192q98 -8 213 -33l23 -51l-97 -205q-100 27 -174 27q-133 0 -193.5 -73t-60.5 -200q0 -131 63 -196.5t171 -65.5q104 0 233 60l74 -170l-14 -62q-124 -59 -238 -73v-216l-209 -34l-43 37v213 q-381 63 -381 499z" />
<glyph unicode="&#xa3;" horiz-adv-x="1206" d="M92 616l33 195h205q-2 2 -17 19.5t-23 28t-24 32.5t-26 39t-23 42.5t-20.5 48.5t-13 51.5t-5.5 55.5q0 163 137 259t373 96q132 0 223.5 -11t194.5 -45l22 -45l-92 -235q-202 65 -342 65q-85 0 -131.5 -36.5t-46.5 -98.5q0 -39 24 -86.5t59.5 -100t47.5 -79.5h361l34 -41 l-32 -195h-305q-5 -73 -69.5 -160.5t-182.5 -172.5l677 22l35 -43l-22 -221h-991l-41 205q236 203 262 370h-246z" />
<glyph unicode="&#xa5;" horiz-adv-x="1390" d="M0 1411l27 43h307l330 -637l16 -2l324 639h270l24 -43l-299 -526h193l25 -31l-29 -158h-295l-76 -135v-14h375l25 -31l-29 -158h-371v-358h-317v358h-396l-24 31l29 158h391v8l-82 141h-314l-24 31l29 158h198z" />
<glyph unicode="&#xa8;" horiz-adv-x="983" d="M92 1327q0 70 47.5 117t118.5 47q80 0 121 -38t41 -103q0 -68 -48 -120t-122 -52q-71 0 -114.5 43.5t-43.5 105.5zM563 1327q0 70 47.5 117t118.5 47q80 0 121 -38t41 -103q0 -68 -47.5 -120t-122.5 -52q-70 0 -114 43.5t-44 105.5z" />
<glyph unicode="&#xa9;" horiz-adv-x="1695" d="M92 711q0 160 62 303.5t167.5 246t250.5 162.5t305 60q214 0 380 -94.5t256.5 -263.5t90.5 -384q0 -159 -62.5 -302t-168.5 -245.5t-252 -162.5t-306 -60q-213 0 -378 94.5t-255 263t-90 382.5zM322 717q0 -236 139 -383.5t364 -147.5q148 0 274 72.5t200.5 200 t74.5 278.5q0 236 -140 383.5t-366 147.5q-148 0 -273.5 -72.5t-199 -199.5t-73.5 -279zM487 715q0 181 113.5 286t296.5 105q93 0 201 -25l16 -37l-70 -147q-75 21 -124 21q-96 0 -140.5 -53t-44.5 -144q0 -95 46 -142t124 -47t168 43l53 -122l-10 -45q-128 -60 -266 -60 q-168 0 -265.5 87.5t-97.5 279.5z" />
<glyph unicode="&#xab;" horiz-adv-x="1280" d="M31 440l37 217l475 304l47 -25l43 -193l-344 -202l319 -199l19 -51l-105 -168zM586 440l37 217l475 304l47 -25l43 -193l-344 -202l319 -199l19 -51l-105 -168z" />
<glyph unicode="&#xad;" horiz-adv-x="600" d="M31 416l32 194h472l34 -41l-32 -194h-471z" />
<glyph unicode="&#xae;" horiz-adv-x="976" d="M92 1077q0 170 120.5 288t291.5 118q169 0 275 -109t106 -280q0 -170 -121 -287t-293 -117q-169 0 -274 108t-105 279zM215 1079q0 -122 72.5 -200t187.5 -78q119 0 204 84.5t85 206.5q0 124 -73 202t-191 78q-119 0 -202 -85t-83 -208zM319 895v383q184 19 258 -2.5 t74 -91.5q0 -69 -78 -103l2 -4q7 -3 12.5 -7.5t11.5 -11.5t8.5 -10.5t9.5 -13.5t8 -12l59 -90l-22 -37h-109l-49 106q-25 56 -58 46v-152h-127zM446 1116q34 -1 52 15.5t18 42.5q0 31 -19.5 42t-50.5 5v-105z" />
<glyph unicode="&#xb4;" horiz-adv-x="690" d="M92 1176l227 397h261l18 -41l-326 -393h-159z" />
<glyph unicode="&#xb8;" horiz-adv-x="585" d="M92 -399l31 77q77 -24 139 -24q37 0 55.5 11.5t18.5 29.5q0 28 -22 50.5t-49.5 35.5t-52.5 32t-31.5 39.5t14.5 57.5l59 90h125l-27 -39q-16 -22 -11.5 -41.5t20.5 -31t38.5 -28.5t43.5 -34t36 -47t15 -68q0 -69 -67.5 -117.5t-166.5 -48.5q-77 0 -154 31z" />
<glyph unicode="&#xbb;" horiz-adv-x="1280" d="M92 342l344 203l-319 198l-19 52l105 168l491 -318l-37 -217l-475 -303l-47 25zM647 342l344 203l-319 198l-19 52l105 168l491 -318l-37 -217l-475 -303l-47 25z" />
<glyph unicode="&#xc1;" horiz-adv-x="1398" d="M20 43l506 1401l320 22l532 -1423l-24 -43h-322l-112 346h-474l-106 -346h-295zM512 567h340l-166 508l-16 2zM516 1610l328 356h291l18 -41l-426 -352h-190z" />
<glyph unicode="&#xc4;" horiz-adv-x="1398" d="M20 43l506 1401l320 22l532 -1423l-24 -43h-322l-112 346h-474l-106 -346h-295zM256 1710q0 70 47.5 117t118.5 47q80 0 121 -38t41 -103q0 -68 -48 -120t-122 -52q-71 0 -114.5 43.5t-43.5 105.5zM512 567h340l-166 508l-16 2zM793 1710q0 70 47 117t118 47 q80 0 121 -38t41 -103q0 -68 -47.5 -120t-122.5 -52q-70 0 -113.5 43.5t-43.5 105.5z" />
<glyph unicode="&#xc9;" horiz-adv-x="1167" d="M174 0v1454h926l33 -39l-35 -209h-604v-348h442l33 -39l-35 -211h-440v-360h630l33 -37l-35 -211h-948zM412 1610l327 356h291l19 -41l-426 -352h-191z" />
<glyph unicode="&#xcd;" horiz-adv-x="667" d="M174 0v1454h320v-1454h-320zM180 1610l328 356h291l18 -41l-426 -352h-190z" />
<glyph unicode="&#xd3;" horiz-adv-x="1660" d="M72 727q0 163 56 303.5t155.5 240t240.5 156t305 56.5q169 0 305.5 -44t239.5 -133.5t159 -236.5t56 -342q0 -218 -95.5 -390t-269.5 -269t-395 -97q-133 0 -247 27.5t-208.5 86.5t-161 146.5t-103.5 213.5t-37 282zM414 727q0 -221 118 -365.5t302 -144.5 q183 0 299 144.5t116 365.5t-117.5 365.5t-302.5 144.5q-182 0 -298.5 -144.5t-116.5 -365.5zM610 1610l328 356h291l18 -41l-426 -352h-190z" />
<glyph unicode="&#xd4;" horiz-adv-x="1660" d="M72 727q0 163 56 303.5t155.5 240t240.5 156t305 56.5q169 0 305.5 -44t239.5 -133.5t159 -236.5t56 -342q0 -218 -95.5 -390t-269.5 -269t-395 -97q-133 0 -247 27.5t-208.5 86.5t-161 146.5t-103.5 213.5t-37 282zM410 1610l299 356h266l299 -356l-21 -37h-159 l-252 188l-252 -188h-160zM414 727q0 -221 118 -365.5t302 -144.5q183 0 299 144.5t116 365.5t-117.5 365.5t-302.5 144.5q-182 0 -298.5 -144.5t-116.5 -365.5z" />
<glyph unicode="&#xda;" horiz-adv-x="1576" d="M174 508v946h320v-911q0 -168 71.5 -244t222.5 -76q150 0 223.5 80.5t73.5 253.5v897h318v-944q0 -539 -623 -539q-301 0 -453.5 129t-152.5 408zM578 1610l327 356h291l18 -41l-426 -352h-190z" />
<glyph unicode="&#xdd;" horiz-adv-x="1339" d="M20 1411l27 43h307l330 -637l16 -2l324 639h270l25 -43l-481 -850v-561h-318v555zM545 1610l327 356h291l19 -41l-426 -352h-191z" />
<glyph unicode="&#xe1;" horiz-adv-x="1173" d="M72 209q0 156 107.5 240t377.5 126l96 15q4 118 -40.5 164.5t-149.5 46.5q-124 0 -285 -45l-55 168l33 49q184 49 409 49q96 0 167.5 -16.5t126 -53t82.5 -100.5t28 -154v-452q0 -53 35.5 -68t85.5 6q24 -22 33 -50.5t-0.5 -56.5t-36 -52t-80.5 -39t-127 -15 q-87 0 -133.5 27.5t-63.5 87.5q-133 -115 -326 -115q-127 0 -205.5 60t-78.5 178zM399 254q0 -35 28 -57.5t77 -22.5q64 0 149 47v187q-254 -25 -254 -154zM410 1176l227 397h260l18 -41l-325 -393h-160z" />
<glyph unicode="&#xe4;" horiz-adv-x="1173" d="M72 209q0 156 107.5 240t377.5 126l96 15q4 118 -40.5 164.5t-149.5 46.5q-124 0 -285 -45l-55 168l33 49q184 49 409 49q96 0 167.5 -16.5t126 -53t82.5 -100.5t28 -154v-452q0 -53 35.5 -68t85.5 6q24 -22 33 -50.5t-0.5 -56.5t-36 -52t-80.5 -39t-127 -15 q-87 0 -133.5 27.5t-63.5 87.5q-133 -115 -326 -115q-127 0 -205.5 60t-78.5 178zM162 1327q0 70 47.5 117t118.5 47q79 0 120 -38t41 -103q0 -68 -48 -120t-122 -52q-71 0 -114 43.5t-43 105.5zM399 254q0 -35 28 -57.5t77 -22.5q64 0 149 47v187q-254 -25 -254 -154z M633 1327q0 70 47.5 117t118.5 47q80 0 121 -38t41 -103q0 -68 -47.5 -120t-122.5 -52q-70 0 -114 43.5t-44 105.5z" />
<glyph unicode="&#xe9;" horiz-adv-x="1153" d="M92 479q0 132 41.5 237t114.5 171t168.5 100.5t206.5 34.5q237 0 337.5 -134.5t100.5 -400.5l-37 -43h-610q6 -221 233 -221q157 0 287 62l74 -170l-13 -62q-96 -45 -183.5 -63.5t-201.5 -18.5q-116 0 -207.5 27t-163 85t-109.5 158t-38 238zM414 610l350 13 q-5 84 -44 136t-112 52q-70 0 -122.5 -46t-71.5 -155zM424 1176l227 397h260l19 -41l-326 -393h-160z" />
<glyph unicode="&#xed;" d="M174 0v977l272 45l43 -37v-985h-315zM238 1176l227 397h260l18 -41l-325 -393h-160z" />
<glyph unicode="&#xf3;" horiz-adv-x="1290" d="M92 496q0 251 148.5 388.5t404.5 137.5q104 0 186.5 -16t152 -54t116 -98t72.5 -150t26 -208q0 -250 -148 -387.5t-405 -137.5q-103 0 -185.5 16.5t-152.5 54.5t-116.5 97.5t-72.5 149.5t-26 207zM422 496q0 -139 66 -229.5t163 -90.5q219 0 219 320q0 139 -67 230 t-164 91q-217 0 -217 -321zM473 1176l227 397h261l18 -41l-326 -393h-159z" />
<glyph unicode="&#xf4;" horiz-adv-x="1290" d="M92 496q0 251 148.5 388.5t404.5 137.5q104 0 186.5 -16t152 -54t116 -98t72.5 -150t26 -208q0 -250 -148 -387.5t-405 -137.5q-103 0 -185.5 16.5t-152.5 54.5t-116.5 97.5t-72.5 149.5t-26 207zM281 1176l227 397h266l227 -397l-20 -37h-160l-180 229l-180 -229h-160z M422 496q0 -139 66 -229.5t163 -90.5q219 0 219 320q0 139 -67 230t-164 91q-217 0 -217 -321z" />
<glyph unicode="&#xfa;" horiz-adv-x="1355" d="M174 334v643l272 45l43 -37v-588q0 -87 43.5 -133.5t108.5 -46.5q55 0 98.5 15.5t98.5 58.5v686l272 45l43 -37v-739q0 -53 35 -68t86 6q23 -22 32 -50.5t-1 -57t-36.5 -52t-80.5 -38.5t-127 -15q-96 0 -141 31t-68 102q-139 -133 -363 -133q-315 0 -315 363zM512 1176 l227 397h260l19 -41l-326 -393h-160z" />
<glyph unicode="&#xfd;" horiz-adv-x="1128" d="M20 946l29 47h313l207 -743l17 -2l215 745h278l29 -47l-559 -1495l-248 51l-20 54l208 434l-106 -2zM442 1176l228 397h260l18 -41l-325 -393h-160z" />
<glyph unicode="&#x10c;" horiz-adv-x="1288" d="M72 698q0 178 56 326.5t154 248.5t231.5 155t287.5 55q268 0 444 -78l19 -49l-129 -226q-148 64 -295 64q-186 0 -305 -132.5t-119 -354.5q0 -208 119 -333.5t301 -125.5q156 0 350 90l112 -205l-18 -45q-126 -61 -235 -89t-254 -28q-158 0 -287.5 44t-227 131.5 t-151 228t-53.5 323.5zM369 1929l20 37h160l252 -188l252 188h159l21 -37l-299 -356h-266z" />
<glyph unicode="&#x10d;" horiz-adv-x="1007" d="M92 479q0 251 156.5 397t410.5 146q135 0 279 -33l23 -51l-97 -205q-100 27 -174 27q-133 0 -193.5 -73t-60.5 -200q0 -131 63 -196.5t171 -65.5q104 0 233 60l74 -170l-14 -62q-96 -45 -179.5 -63.5t-189.5 -18.5q-113 0 -202 27t-157.5 85.5t-105.5 158.5t-37 237z M242 1536l20 37h160l180 -230l180 230h160l21 -37l-228 -397h-266z" />
<glyph unicode="&#x10e;" horiz-adv-x="1550" d="M174 0v1454q298 16 500 16q805 0 805 -743q0 -145 -41 -266t-114.5 -208.5t-175 -148.5t-223.5 -90.5t-259 -29.5q-116 0 -492 16zM248 1929l20 37h160l252 -188l252 188h160l20 -37l-299 -356h-266zM494 236q73 -11 184 -11q209 0 334 137t125 365q0 230 -125.5 366 t-331.5 136q-120 0 -186 -12v-981z" />
<glyph unicode="&#x10f;" horiz-adv-x="1454" d="M92 451q0 264 139.5 417.5t372.5 153.5q107 0 225 -27v533l273 45l43 -37v-1290q0 -53 35.5 -68t85.5 6q21 -23 29 -50.5t-2.5 -56.5t-37 -52.5t-80 -38.5t-126.5 -15q-89 0 -139 28.5t-60 96.5q-125 -125 -350 -125q-83 0 -155.5 29.5t-129.5 87t-90 151t-33 212.5z M418 504q0 -147 57 -225t162 -78q85 0 192 49v520q-82 35 -165 35q-114 0 -180 -80t-66 -221zM1268 1169l37 430h213l22 -34l-147 -426h-97z" />
<glyph unicode="&#x139;" horiz-adv-x="1167" d="M174 0v1454h320v-1206h630l33 -37l-35 -211h-948zM207 1610l328 356h290l19 -41l-426 -352h-191z" />
<glyph unicode="&#x13a;" d="M174 0v1528l272 45l43 -37v-1536h-315zM180 1640l328 357h291l18 -41l-426 -352h-190z" />
<glyph unicode="&#x13d;" horiz-adv-x="1167" d="M174 0v1454h320v-1206h630l33 -37l-35 -211h-948zM649 1169l37 430h213l23 -34l-148 -426h-96z" />
<glyph unicode="&#x13e;" horiz-adv-x="749" d="M174 0v1528l272 45l43 -37v-1536h-315zM612 1169l37 430h213l23 -34l-148 -426h-96z" />
<glyph unicode="&#x147;" horiz-adv-x="1581" d="M174 0v1440l295 26l627 -958l16 2l-10 944h305v-1438l-303 -32l-619 985l-16 -2l10 -967h-305zM373 1929l20 37h160l252 -188l252 188h160l20 -37l-299 -356h-266z" />
<glyph unicode="&#x148;" horiz-adv-x="1357" d="M51 859.5q-9 28.5 0.5 56.5t36 52t80.5 39t127 15q97 0 141.5 -31t67.5 -102q139 133 364 133q316 0 316 -363v-659h-316v596q0 88 -43.5 134t-107.5 46q-55 0 -99.5 -15.5t-97.5 -58.5v-702h-315v748q0 52 -35.5 67t-85.5 -6q-24 22 -33 50.5zM336 1536l20 37h160 l180 -230l181 230h159l21 -37l-228 -397h-266z" />
<glyph unicode="&#x154;" horiz-adv-x="1400" d="M174 0v1454q218 16 469 16q277 0 413 -104t136 -295q0 -129 -73 -228t-222 -153l2 -16q128 -67 219 -217l252 -414l-24 -43h-338l-209 381q-121 217 -305 194v-575h-320zM426 1610l328 356h290l19 -41l-426 -352h-191zM494 819q186 -8 272 55.5t86 167.5q0 106 -57 150.5 t-170 44.5q-75 0 -131 -6v-412z" />
<glyph unicode="&#x155;" horiz-adv-x="1030" d="M51 859.5q-9 28.5 0.5 56.5t36 52t80.5 39t127 15q106 0 158.5 -46.5t58.5 -164.5q53 99 143.5 155t190.5 56q99 0 176 -47l18 -53l-104 -240l-57 -12q-65 59 -146 59q-55 0 -111.5 -26t-101.5 -80v-623h-315v748q0 52 -35.5 67t-85.5 -6q-24 22 -33 50.5zM307 1176 l228 397h260l18 -41l-326 -393h-159z" />
<glyph unicode="&#x160;" horiz-adv-x="1165" d="M72 90l92 221q219 -78 371 -78q97 0 160 39.5t63 106.5q0 30 -15.5 57.5t-39 48.5t-68 45.5t-84.5 42.5t-107 45q-182 78 -267 180.5t-85 266.5q0 83 35.5 158.5t100 133.5t162.5 92t214 34q131 0 221 -11t195 -45l22 -45l-92 -235q-202 65 -342 65q-85 0 -131.5 -36.5 t-46.5 -98.5q0 -63 69.5 -110t225.5 -111q192 -80 280.5 -180.5t88.5 -261.5q0 -206 -149.5 -324.5t-414.5 -118.5q-240 0 -434 74zM170 1929l20 37h160l252 -188l252 188h160l20 -37l-299 -356h-266z" />
<glyph unicode="&#x161;" horiz-adv-x="954" d="M72 78l71 174q7 -2 33.5 -11t36 -12t33.5 -10.5t35.5 -11t32 -9.5t33 -8.5t29 -6t29 -4.5t23.5 -1q53 0 82 23.5t29 64.5q0 19 -12.5 37t-44 39t-60.5 36.5t-84 43.5q-57 30 -92.5 53t-71 56.5t-52 75.5t-16.5 95q0 157 107 238.5t311 81.5q144 0 301 -41l29 -49 l-66 -187q-149 56 -235 56q-98 0 -98 -76q0 -32 46 -63t154 -82q52 -26 89 -51.5t71 -62t51 -84.5t17 -108q0 -150 -109 -226.5t-289 -76.5q-227 0 -385 58zM133 1536l21 37h159l181 -230l180 230h160l20 -37l-227 -397h-267z" />
<glyph unicode="&#x164;" horiz-adv-x="1230" d="M10 1243l37 211h1143l31 -39l-35 -209h-410v-1206h-319v1206h-412zM178 1929l21 37h159l252 -188l252 188h160l20 -37l-299 -356h-266z" />
<glyph unicode="&#x165;" horiz-adv-x="927" d="M51 825l31 168h127v314l272 45l43 -37v-322l254 13l39 -43l-31 -181h-262v-415q0 -140 125 -140q57 0 162 31l66 -188l-29 -50q-163 -49 -316 -49q-146 0 -234.5 70.5t-88.5 222.5v518h-119zM647 1169l37 430h213l23 -34l-148 -426h-96z" />
<glyph unicode="&#x17d;" horiz-adv-x="1236" d="M41 176l754 1030h-686l-33 43l20 205h1059l41 -182l-743 -1024l702 16l35 -43l-23 -221h-1087zM190 1929l21 37h160l252 -188l251 188h160l21 -37l-299 -356h-267z" />
<glyph unicode="&#x17e;" horiz-adv-x="1067" d="M82 143l522 633h-448l-39 49l18 168h807l43 -149l-508 -629l465 14l37 -49l-21 -180h-837zM199 1536l20 37h160l180 -230l180 230h160l21 -37l-228 -397h-266z" />
<glyph unicode="&#x2c6;" horiz-adv-x="905" d="M92 1176l227 397h267l227 -397l-20 -37h-160l-180 229l-181 -229h-159z" />
<glyph unicode="&#x2da;" horiz-adv-x="606" d="M92 1327q0 90 64 152.5t155 62.5q90 0 146.5 -58t56.5 -149q0 -90 -64 -152.5t-155 -62.5q-90 0 -146.5 58t-56.5 149zM215 1329q0 -40 23.5 -66t60.5 -26q39 0 65.5 27.5t26.5 68.5q0 40 -24 66t-62 26t-64 -28t-26 -68z" />
<glyph unicode="&#x2dc;" horiz-adv-x="966" d="M92 1204v60q0 110 59 174.5t152 64.5q64 0 121 -20t90.5 -43.5t71.5 -43.5t69 -20q78 0 86 113l111 18l22 -16v-55q0 -32 -7 -64t-23 -64.5t-39.5 -56.5t-60 -39.5t-80.5 -15.5q-61 0 -119 20t-93 43.5t-72 43.5t-61 20q-37 0 -65.5 -27t-28.5 -86l-110 -22z" />
<glyph unicode="&#x2000;" horiz-adv-x="998" />
<glyph unicode="&#x2001;" horiz-adv-x="1997" />
<glyph unicode="&#x2002;" horiz-adv-x="998" />
<glyph unicode="&#x2003;" horiz-adv-x="1997" />
<glyph unicode="&#x2004;" horiz-adv-x="665" />
<glyph unicode="&#x2005;" horiz-adv-x="499" />
<glyph unicode="&#x2006;" horiz-adv-x="332" />
<glyph unicode="&#x2007;" horiz-adv-x="332" />
<glyph unicode="&#x2008;" horiz-adv-x="249" />
<glyph unicode="&#x2009;" horiz-adv-x="399" />
<glyph unicode="&#x200a;" horiz-adv-x="110" />
<glyph unicode="&#x2010;" horiz-adv-x="600" d="M31 416l32 194h472l34 -41l-32 -194h-471z" />
<glyph unicode="&#x2011;" horiz-adv-x="600" d="M31 416l32 194h472l34 -41l-32 -194h-471z" />
<glyph unicode="&#x2012;" horiz-adv-x="600" d="M31 416l32 194h472l34 -41l-32 -194h-471z" />
<glyph unicode="&#x2013;" horiz-adv-x="1116" d="M31 416l32 194h988l34 -41l-32 -194h-987z" />
<glyph unicode="&#x2014;" horiz-adv-x="2131" d="M31 416l32 194h2003l35 -41l-33 -194h-2002z" />
<glyph unicode="&#x2018;" horiz-adv-x="524" d="M82 1085l197 607h124l39 -41l-49 -613h-280z" />
<glyph unicode="&#x2019;" horiz-adv-x="524" d="M82 1079l49 613h281l30 -47l-196 -607h-125z" />
<glyph unicode="&#x201a;" horiz-adv-x="524" d="M82 -311l49 612h281l30 -47l-196 -606h-125z" />
<glyph unicode="&#x201c;" horiz-adv-x="1024" d="M82 1085l197 607h124l39 -41l-49 -613h-280zM582 1085l196 607h125l39 -41l-49 -613h-281z" />
<glyph unicode="&#x201d;" horiz-adv-x="1024" d="M82 1079l49 613h281l30 -47l-196 -607h-125zM582 1079l49 613h280l31 -47l-197 -607h-124z" />
<glyph unicode="&#x201e;" horiz-adv-x="1024" d="M82 -311l49 612h281l30 -47l-196 -606h-125zM582 -311l49 612h280l31 -47l-197 -606h-124z" />
<glyph unicode="&#x2026;" horiz-adv-x="2258" d="M143 147q0 88 57 143.5t140 55.5q92 0 139 -45.5t47 -124.5q0 -81 -56 -143t-142 -62q-81 0 -133 51.5t-52 124.5zM938 147q0 88 57 143.5t140 55.5q95 0 140.5 -44.5t45.5 -123.5q0 -82 -56 -144.5t-143 -62.5q-81 0 -132.5 51.5t-51.5 124.5zM1733 147q0 88 55.5 143.5 t138.5 55.5q94 0 141.5 -45.5t47.5 -124.5q0 -81 -56.5 -143t-142.5 -62q-81 0 -132.5 51.5t-51.5 124.5z" />
<glyph unicode="&#x202f;" horiz-adv-x="399" />
<glyph unicode="&#x2039;" horiz-adv-x="829" d="M31 440l37 217l579 304l47 -25l43 -193l-415 -202l391 -199l18 -51l-104 -168z" />
<glyph unicode="&#x203a;" horiz-adv-x="829" d="M31 342l415 203l-391 198l-18 52l104 168l596 -318l-37 -217l-579 -303l-47 25z" />
<glyph unicode="&#x205f;" horiz-adv-x="499" />
<glyph unicode="&#x20ac;" horiz-adv-x="1533" d="M92 483l29 158h137q-7 69 2 150h-143l-25 28l29 160h174q74 233 256 368.5t434 135.5q269 0 445 -78l18 -49l-129 -226q-151 64 -295 64q-237 0 -362 -215h536l25 -31l-29 -157h-590q-10 -78 0 -150h520l25 -31l-29 -157h-458q59 -106 156 -155.5t202 -49.5q156 0 350 90 l113 -205l-19 -45q-126 -61 -235 -89t-254 -28q-126 0 -234.5 28t-199.5 85t-157 150.5t-99 218.5h-168z" />
<glyph unicode="&#x2122;" horiz-adv-x="1808" d="M92 1327l21 127h583l21 -24l-21 -127h-192v-576h-197v576h-192zM731 750l137 698l201 14l152 -520h8l145 506l207 12l135 -710l-18 -23h-185l-57 449l-8 2l-129 -445l-191 -14l-129 457l-8 2l-57 -451h-184z" />
<glyph unicode="&#x2190;" horiz-adv-x="1525" d="M96 479v51l598 390l64 -95l-352 -241h1017v-158h-1017l352 -242l-64 -94z" />
<glyph unicode="&#x2192;" horiz-adv-x="1525" d="M102 426v158h1018l-352 241l63 95l599 -390v-51l-599 -389l-63 94l352 242h-1018z" />
<glyph unicode="&#x25fc;" horiz-adv-x="993" d="M0 0v993h993v-993h-993z" />
</font>
</defs>
</svg>
