<svg xmlns="http://www.w3.org/2000/svg">
<defs>
<font id="a446fee07fbed8ac14093a7c6c2b2c68" horiz-adv-x='1024' >
  <font-face 
    font-family="GTWalsheimRegular-Oblique"
    font-weight="400"
    font-style="oblique"
    font-stretch="normal"
    units-per-em="1000"
    panose-1="2 0 5 3 4 0 0 9 0 3"
    ascent="750"
    descent="-250"
    x-height="454"
    cap-height="700"
    bbox="-145 -328 1219.86 976"
    underline-thickness="50"
    underline-position="-50"
    slope="-6"
    unicode-range="U+000D-FB04"
  />
<missing-glyph horiz-adv-x="800" 
d="M473 717q80 0 141 -27.5t102.5 -73t63 -105.5t21.5 -125q0 -77 -29 -150t-81.5 -129t-126 -90t-162.5 -34q-80 0 -141.5 27.5t-103 73t-63 105.5t-21.5 125q0 77 29 149.5t82 129t126.5 90.5t162.5 34zM473 695q-42 0 -79 -8t-67 -21t-59 -32t-55 -44
q-25 -24 -44.5 -52.5t-33.5 -57.5q-17 -35 -25.5 -66.5t-12.5 -63.5q-7 -66 11 -129q8 -32 22 -59.5t33 -50.5q20 -24 43.5 -43t54.5 -33q64 -29 140 -29t145 29q34 14 61 32.5t53 43.5q49 48 79 110q15 31 27 67.5t12 92.5q0 26 -3 51t-9 48q-8 29 -22 57t-34 53
q-40 48 -98 76q-63 29 -139 29zM192 228q12 -8 31 -20t42.5 -23.5t51 -19.5t56.5 -8q42 4 82 8q34 4 70 8t62 7q-18 -23 -41.5 -44.5t-61.5 -39.5q-30 -14 -60 -22t-53 -8q-47 0 -91.5 37.5t-87.5 124.5zM247 259l207 268l-136 -243h178l-2 -25h-247zM248 169q12 -21 29 -36
t36 -24t36.5 -13t31.5 -4q22 0 49 9t51 20t41.5 21t21.5 13q-35 -7 -78.5 -15t-87.5 -8q-15 0 -33.5 1.5t-36 5.5t-33.5 11.5t-27 18.5zM254 496q0 20 14 33.5t32 13.5q17 0 28 -11t11 -28q0 -19 -14 -33t-33 -14q-17 0 -27.5 11.5t-10.5 27.5zM551 496q0 20 14 33.5
t32 13.5q17 0 28 -11t11 -28q0 -19 -14 -33t-33 -14q-17 0 -27.5 11.5t-10.5 27.5zM617 161q4 9 4 18q0 7 -2 13q-2 5 -3 5q-2 2 -1.5 1.5t-1.5 0.5q-3 1 -2.5 1t-1.5 1l-13 5q-7 4 -15 8t-16 11q-11 9 -16 20l-2 11q-2 7 -2.5 8t0.5 6q-1 8 -1.5 15.5t0.5 15.5q2 5 2.5 10
t2.5 9l14 -5q0 -2 -1 -4.5t-1 -5.5l-1 -13q0 -7 -0.5 -14t1.5 -13q1 -2 1.5 -6t2.5 -6q2 -6 7.5 -12t9.5 -8q8 -5 15.5 -8t9.5 -5l14 -6q2 -1 3 -2l3 -3q6 -5 5.5 -5.5t1.5 -3.5q3 -9 3 -19q0 -13 -4 -24zM248 331q-1 -5 -0.5 -10t0.5 -10v-12q0 -8 -2.5 -16t-6.5 -13

<glyph glyph-name="IJ" unicode="IJ" horiz-adv-x="786" 
d="M739 222q-5 -51 -25 -95t-52.5 -75.5t-76 -49.5t-95.5 -18q-53 0 -93 18t-66.5 50t-37.5 75.5t-6 94.5h92q-7 -72 25 -114t95 -42q33 0 58.5 12t44.5 33t30.5 49.5t14.5 61.5l50 478h92zM152 700h94l-74 -700h-94z" />
    <glyph glyph-name="ij" unicode="ij" horiz-adv-x="481" 
d="M126 454h87l-48 -454h-87zM117 620q0 32 23 54.5t54 22.5q28 0 46 -19t18 -46q0 -31 -23.5 -53t-54.5 -22q-27 0 -45 18.5t-18 44.5zM390 -122q-8 -74 -40.5 -103.5t-78.5 -29.5q-17 0 -37.5 3.5t-33.5 8.5l8 73q16 -5 24.5 -6.5t16.5 -1.5q49 0 55 61l60 571h87z
M355 620q0 32 23.5 54.5t54.5 22.5q28 0 45.5 -19t17.5 -46q0 -31 -23 -53t-54 -22q-28 0 -46 18.5t-18 44.5z" />
    <glyph glyph-name="uniFB00" unicode="ff" horiz-adv-x="694" 
d="M401 620q-11 4 -23 6t-32 2q-12 0 -25 -2t-25 -10.5t-21 -25.5t-12 -48l-9 -88h130l-8 -73h-130l-40 -381h-87l40 381h-98l8 73h98l8 79q6 62 26.5 96.5t46 51.5t51.5 21t43 4q27 0 42.5 -3.5t24.5 -8.5zM748 620q-11 4 -23 6t-32 2q-12 0 -25 -2t-25 -10.5t-21 -25.5
t-12 -48l-9 -88h130l-8 -73h-130l-40 -381h-87l40 381h-98l8 73h98l8 79q6 62 26.5 96.5t45.5 51.5t50.5 21t43.5 4q28 0 43.5 -3.5t24.5 -8.5z" />
    <glyph glyph-name="fi" unicode="fi" horiz-adv-x="623" 
d="M401 620q-11 4 -23 6t-32 2q-12 0 -25 -2t-25 -10.5t-21 -25.5t-12 -48l-9 -88h130l-8 -73h-130l-40 -381h-87l40 381h-98l8 73h98l8 79q6 62 26.5 96.5t46 51.5t51.5 21t43 4q27 0 42.5 -3.5t24.5 -8.5zM489 454h87l-48 -454h-87zM483 619q0 31 22 52.5t52 21.5
q26 0 43.5 -18t17.5 -44q0 -30 -22.5 -51t-52.5 -21q-26 0 -43 17t-17 43z" />
    <glyph glyph-name="fl" unicode="fl" horiz-adv-x="590" 
d="M401 620q-11 4 -23 6t-32 2q-12 0 -25 -2t-25 -10.5t-21 -25.5t-12 -48l-9 -88h130l-8 -73h-130l-40 -381h-87l40 381h-98l8 73h98l8 79q6 62 26.5 96.5t46 51.5t51.5 21t43 4q27 0 42.5 -3.5t24.5 -8.5zM499 700h87l-74 -700h-87z" />
    <glyph glyph-name="uniFB03" unicode="ffi" horiz-adv-x="969" 
d="M401 620q-11 4 -23 6t-32 2q-12 0 -25 -2t-25 -10.5t-21 -25.5t-12 -48l-9 -88h130l-8 -73h-130l-40 -381h-87l40 381h-98l8 73h98l8 79q6 62 26.5 96.5t46 51.5t51.5 21t43 4q27 0 42.5 -3.5t24.5 -8.5zM748 620q-11 4 -23 6t-32 2q-12 0 -25 -2t-25 -10.5t-21 -25.5
t-12 -48l-9 -88h130l-8 -73h-130l-40 -381h-87l40 381h-98l8 73h98l8 79q6 62 26.5 96.5t45.5 51.5t50.5 21t43.5 4q28 0 43.5 -3.5t24.5 -8.5zM836 454h87l-48 -454h-87zM827 620q0 32 23 54.5t54 22.5q28 0 46 -19t18 -45q0 -32 -23.5 -54t-54.5 -22q-28 0 -45.5 18.5
t-17.5 44.5z" />
    <glyph glyph-name="uniFB04" unicode="ffl" horiz-adv-x="933" 
d="M401 620q-11 4 -23 6t-32 2q-12 0 -25 -2t-25 -10.5t-21 -25.5t-12 -48l-9 -88h130l-8 -73h-130l-40 -381h-87l40 381h-98l8 73h98l8 79q6 62 26.5 96.5t46 51.5t51.5 21t43 4q27 0 42.5 -3.5t24.5 -8.5zM748 620q-11 4 -23 6t-32 2q-12 0 -25 -2t-25 -10.5t-21 -25.5
t-12 -48l-9 -88h130l-8 -73h-130l-40 -381h-87l40 381h-98l8 73h98l8 79q6 62 26.5 96.5t45.5 51.5t50.5 21t43.5 4q28 0 43.5 -3.5t24.5 -8.5zM846 700h86l-74 -700h-86z" />
    <glyph glyph-name=".notdef" horiz-adv-x="800" 
d="M473 717q80 0 141 -27.5t102.5 -73t63 -105.5t21.5 -125q0 -77 -29 -150t-81.5 -129t-126 -90t-162.5 -34q-80 0 -141.5 27.5t-103 73t-63 105.5t-21.5 125q0 77 29 149.5t82 129t126.5 90.5t162.5 34zM473 695q-42 0 -79 -8t-67 -21t-59 -32t-55 -44
q-25 -24 -44.5 -52.5t-33.5 -57.5q-17 -35 -25.5 -66.5t-12.5 -63.5q-7 -66 11 -129q8 -32 22 -59.5t33 -50.5q20 -24 43.5 -43t54.5 -33q64 -29 140 -29t145 29q34 14 61 32.5t53 43.5q49 48 79 110q15 31 27 67.5t12 92.5q0 26 -3 51t-9 48q-8 29 -22 57t-34 53
q-40 48 -98 76q-63 29 -139 29zM192 228q12 -8 31 -20t42.5 -23.5t51 -19.5t56.5 -8q42 4 82 8q34 4 70 8t62 7q-18 -23 -41.5 -44.5t-61.5 -39.5q-30 -14 -60 -22t-53 -8q-47 0 -91.5 37.5t-87.5 124.5zM247 259l207 268l-136 -243h178l-2 -25h-247zM248 169q12 -21 29 -36
t36 -24t36.5 -13t31.5 -4q22 0 49 9t51 20t41.5 21t21.5 13q-35 -7 -78.5 -15t-87.5 -8q-15 0 -33.5 1.5t-36 5.5t-33.5 11.5t-27 18.5zM254 496q0 20 14 33.5t32 13.5q17 0 28 -11t11 -28q0 -19 -14 -33t-33 -14q-17 0 -27.5 11.5t-10.5 27.5zM551 496q0 20 14 33.5
t32 13.5q17 0 28 -11t11 -28q0 -19 -14 -33t-33 -14q-17 0 -27.5 11.5t-10.5 27.5zM617 161q4 9 4 18q0 7 -2 13q-2 5 -3 5q-2 2 -1.5 1.5t-1.5 0.5q-3 1 -2.5 1t-1.5 1l-13 5q-7 4 -15 8t-16 11q-11 9 -16 20l-2 11q-2 7 -2.5 8t0.5 6q-1 8 -1.5 15.5t0.5 15.5q2 5 2.5 10
t2.5 9l14 -5q0 -2 -1 -4.5t-1 -5.5l-1 -13q0 -7 -0.5 -14t1.5 -13q1 -2 1.5 -6t2.5 -6q2 -6 7.5 -12t9.5 -8q8 -5 15.5 -8t9.5 -5l14 -6q2 -1 3 -2l3 -3q6 -5 5.5 -5.5t1.5 -3.5q3 -9 3 -19q0 -13 -4 -24zM248 331q-1 -5 -0.5 -10t0.5 -10v-12q0 -8 -2.5 -16t-6.5 -13
q-2 -5 -15 -11q-4 -2 -5 -2q-5 -2 -11 -4.5t-11 -5.5q-4 -1 -10 -5q-2 -1 -3 -2t-4 -3q-4 -7 -6 -13l-4 -17h-16q1 5 1.5 10t2.5 10q4 13 11 20q4 4 6 5t5 3l11 7q4 2 11.5 5t13.5 5l1 1q5 2 10 8q5 5 5 16v12l-1 20zM600 196q1 1 -0.5 -7t-2.5 -8q-3 -1 -10 -1q7 7 13 16z
" />
    <glyph glyph-name=".null" horiz-adv-x="0" 
 />
    <glyph glyph-name=".null" horiz-adv-x="0" 
 />
    <glyph glyph-name="nonmarkingreturn" unicode="&#xd;" horiz-adv-x="250" 
 />
    <glyph glyph-name="space" unicode=" " horiz-adv-x="253" 
 />
    <glyph glyph-name="exclam" unicode="!" horiz-adv-x="296" 
d="M175 704h94l-52 -491h-94zM81 54q0 16 6.5 30.5t17.5 25t25.5 16.5t30.5 6q29 0 48 -19t19 -47q0 -16 -6.5 -30.5t-18 -25.5t-26 -17.5t-30.5 -6.5q-29 0 -47.5 20t-18.5 48z" />
    <glyph glyph-name="quotedbl" unicode="&#x22;" horiz-adv-x="354" 
d="M127 642l8 75h82l-8 -75l-37 -176h-43zM279 642l8 75h82l-8 -75l-37 -176h-44z" />
    <glyph glyph-name="numbersign" unicode="#" horiz-adv-x="550" 
d="M345 209h-127l-51 -209h-71l51 209h-96l7 68h105l35 146h-95l8 68h105l51 209h72l-51 -209h126l51 209h72l-51 -209h87l-8 -68h-97l-35 -146h87l-7 -68h-97l-51 -209h-71zM235 277h126l35 146h-126z" />
    <glyph glyph-name="dollar" unicode="$" horiz-adv-x="571" 
d="M425 713q82 -10 127.5 -66.5t37.5 -144.5h-91q5 63 -26 97.5t-91 34.5q-58 0 -97.5 -30.5t-39.5 -84.5q0 -26 10 -44t26.5 -30.5t37.5 -21t44 -15.5q42 -14 80.5 -30t68 -38.5t46.5 -54.5t17 -78q0 -47 -18 -86t-49 -67.5t-72.5 -46t-87.5 -21.5l-11 -104h-67l11 104
q-44 5 -80.5 23.5t-61 49t-36 72t-6.5 92.5h91q-4 -34 4 -63t26 -50t46 -32.5t65 -11.5q32 0 60 9t48.5 26t32.5 41t12 54q0 29 -11 48.5t-28.5 32t-38.5 21t-42 14.5q-42 14 -80 29t-66.5 36t-45.5 52t-17 76q0 42 15 78t42 63t64.5 44.5t83.5 23.5l11 104h67z" />
    <glyph glyph-name="percent" unicode="%" horiz-adv-x="916" 
d="M855 124q-3 -28 -16 -52t-33.5 -42t-47.5 -28t-58 -10q-33 0 -58 10.5t-41.5 29t-23.5 43t-4 51.5l14 135q3 27 15.5 51t32.5 42t47.5 28.5t59.5 10.5t57 -11t41.5 -29t24 -42.5t4.5 -51.5zM645 126q-3 -30 13 -52t48 -22t53.5 22t24.5 52l14 133q3 30 -13.5 51.5
t-48.5 21.5t-53 -21.5t-24 -51.5zM119 440l15 136q3 27 15.5 50.5t32.5 41.5t47 28.5t59 10.5t57 -10.5t41.5 -29t24 -42.5t4.5 -51l-14 -136q-3 -27 -15.5 -50.5t-33 -41.5t-47.5 -28.5t-59 -10.5q-33 0 -57.5 10.5t-41 29t-24 42.5t-4.5 51zM344 574q3 29 -13.5 51
t-48.5 22t-53 -22t-24 -51l-14 -134q-3 -29 13.5 -51t48.5 -22t53 22t24 51zM718 752l65 -40l-516 -753l-65 40z" />
    <glyph glyph-name="ampersand" unicode="&#x26;" horiz-adv-x="599" 
d="M378 315h233l-8 -81h-60q-6 -56 -29 -101.5t-58 -77.5t-79.5 -49t-94.5 -17q-44 0 -83 13.5t-68.5 38.5t-46.5 61t-17 82q0 69 38.5 112t103.5 69q-44 18 -68.5 50.5t-24.5 86.5q0 48 19.5 86.5t52 65.5t75.5 42t91 15t86.5 -15t64.5 -43t38 -66.5t7 -84.5h-91
q6 57 -22 92t-93 35q-60 0 -98 -31.5t-38 -90.5q0 -22 6.5 -40.5t21 -32t37.5 -21t57 -7.5h15l-9 -81h-15q-43 0 -73.5 -11.5t-50.5 -30.5t-29.5 -43.5t-9.5 -50.5q0 -57 37.5 -87.5t91.5 -30.5q68 0 112 44.5t53 118.5h-82z" />
    <glyph glyph-name="quotesingle" unicode="'" horiz-adv-x="202" 
d="M127 642l8 75h82l-8 -75l-37 -176h-43z" />
    <glyph glyph-name="parenleft" unicode="(" horiz-adv-x="368" 
d="M415 712q-33 0 -61.5 -12.5t-50.5 -33.5t-35.5 -49.5t-16.5 -60.5l-58 -560q-3 -32 4 -60.5t24 -49.5t43 -33.5t59 -12.5l-8 -82q-54 0 -96 19t-70 51.5t-40 76t-7 91.5l58 560q5 48 26.5 91.5t56 76t80.5 51.5t100 19z" />
    <glyph glyph-name="parenright" unicode=")" horiz-adv-x="368" 
d="M112 794q54 0 96 -19t69.5 -51.5t40 -76t7.5 -91.5l-59 -560q-5 -48 -26.5 -91.5t-56 -76t-80.5 -51.5t-100 -19l9 82q33 0 61.5 12.5t50 33.5t35 49.5t16.5 60.5l59 560q3 32 -4.5 60.5t-24.5 49.5t-43 33.5t-59 12.5z" />
    <glyph glyph-name="asterisk" unicode="*" horiz-adv-x="458" 
d="M134 399l120 128l-144 39l24 55l135 -57l5 153h61l-27 -153l146 57l12 -55l-152 -39l92 -128l-53 -36l-72 138l-100 -138z" />
    <glyph glyph-name="plus" unicode="+" 
d="M253 86l17 160h-156l8 77h156l17 162h87l-17 -162h156l-8 -77h-156l-17 -160h-87z" />
    <glyph glyph-name="comma" unicode="," horiz-adv-x="270" 
d="M64 58q0 32 23 54.5t58 22.5q33 0 53 -24.5t20 -74.5q0 -75 -45 -113.5t-122 -38.5l5 43q32 0 48.5 9.5t26.5 21.5q17 22 19 44q-3 -3 -9.5 -5.5t-16.5 -2.5q-26 0 -43 18.5t-17 45.5z" />
    <glyph glyph-name="hyphen" unicode="-" horiz-adv-x="294" 
d="M290 246h-234l8 78h234z" />
    <glyph glyph-name="period" unicode="." horiz-adv-x="255" 
d="M64 58q0 16 6.5 30t17 24.5t24.5 16.5t29 6q28 0 46 -19t18 -45q0 -32 -24 -54t-55 -22q-27 0 -44.5 18.5t-17.5 44.5z" />
    <glyph glyph-name="slash" unicode="/" horiz-adv-x="436" 
d="M454 809l75 -34l-453 -846l-75 34z" />
    <glyph glyph-name="zero" unicode="0" horiz-adv-x="579" 
d="M100 474q5 48 26.5 91.5t56 76t80.5 51.5t101 19q54 0 96.5 -19t70 -51.5t40 -76t7.5 -91.5l-26 -248q-5 -48 -26.5 -91t-56.5 -76t-81.5 -52t-101.5 -19t-97 19.5t-69.5 52.5t-39.5 76t-7 90zM488 474q3 33 -5 61.5t-25.5 49.5t-43.5 33t-59 12q-34 0 -62.5 -12.5
t-50.5 -33.5t-35.5 -49.5t-16.5 -60.5l-26 -248q-3 -31 4 -59.5t24.5 -50t43.5 -34t60 -12.5t62.5 12.5t50.5 34t35.5 49.5t16.5 60z" />
    <glyph glyph-name="one" unicode="1" horiz-adv-x="345" 
d="M93 584q47 0 76.5 6.5t47.5 20t26 35.5t11 54h87l-74 -700h-94l54 511h-142z" />
    <glyph glyph-name="two" unicode="2" horiz-adv-x="527" 
d="M47 0q9 83 28.5 139t49 94.5t69 65t87.5 50.5q27 13 56.5 28t54 35.5t40.5 48t16 65.5q0 51 -29.5 77t-80.5 26q-60 0 -100.5 -35t-47.5 -102h-91q5 51 27 92t56 69t76.5 43t89.5 15q42 0 77.5 -12t60.5 -35t39 -56t14 -75q0 -56 -23.5 -97.5t-56.5 -71t-70 -49.5
t-64 -34q-47 -25 -77 -45.5t-48.5 -43t-27 -48.5t-12.5 -62h333l-9 -82h-437v0z" />
    <glyph glyph-name="three" unicode="3" horiz-adv-x="559" 
d="M147 221q-3 -37 6 -65t28 -47t45 -28.5t57 -9.5q34 0 62 11t47.5 30.5t30.5 45t11 55.5q0 48 -30.5 80t-99.5 32h-50l9 81h50q38 0 64.5 10t43.5 27t24.5 39t7.5 46q0 52 -30.5 76.5t-82.5 24.5q-66 0 -101 -34.5t-41 -92.5h-92q5 48 25.5 86.5t52.5 66t73 42t88 14.5
q42 0 78.5 -12t63 -34.5t42 -55.5t15.5 -74q0 -65 -36 -109.5t-90 -60.5q51 -17 79.5 -54.5t28.5 -96.5q0 -50 -20.5 -91.5t-56 -71t-81.5 -46t-97 -16.5q-49 0 -91 15.5t-71.5 45.5t-44 73t-8.5 98h91z" />
    <glyph glyph-name="four" unicode="4" horiz-adv-x="552" 
d="M352 225h-260l50 475h91l-41 -393h169l22 216h91l-22 -216h105l-9 -82h-105l-24 -225h-91z" />
    <glyph glyph-name="five" unicode="5" horiz-adv-x="598" 
d="M154 700h412l-8 -82h-330l-25 -234q27 41 74.5 60.5t95.5 19.5q47 0 84 -16.5t62.5 -45t38.5 -67t13 -81.5q0 -54 -20 -102t-55 -84t-84 -57.5t-107 -21.5q-55 0 -97.5 19t-70 52t-40 76t-7.5 91h91q-3 -32 4.5 -60t24.5 -49.5t43 -34t60 -12.5q36 0 66.5 14t52.5 38
t34 55t12 65q0 29 -9 54.5t-26 44t-42 29.5t-57 11q-44 0 -79.5 -21t-59.5 -63h-93z" />
    <glyph glyph-name="six" unicode="6" horiz-adv-x="556" 
d="M276 -11q-52 0 -92.5 17.5t-68 46.5t-42 68t-14.5 83q0 48 15.5 87.5t41.5 74.5l244 334h105l-186 -246q12 8 25.5 10t23.5 2q48 0 87.5 -17t67.5 -46.5t43 -69t15 -84.5q0 -52 -20 -99t-55 -83t-84 -57t-106 -21zM284 71q36 0 66 14t52 37.5t34.5 54.5t12.5 66
q0 29 -9 54.5t-26.5 44.5t-42.5 30t-57 11q-36 0 -66 -14t-51.5 -37.5t-34 -54.5t-12.5 -65q0 -29 9 -54.5t26 -45t42 -30.5t57 -11z" />
    <glyph glyph-name="seven" unicode="7" horiz-adv-x="467" 
d="M546 700l-385 -700h-97l343 618h-304l9 82h434z" />
    <glyph glyph-name="eight" unicode="8" horiz-adv-x="580" 
d="M289 -11q-52 0 -92 15t-67.5 40.5t-41.5 60t-14 73.5q0 30 8.5 59.5t25.5 55t42 45t59 28.5q-46 17 -66 54t-20 81q0 43 17 81t48.5 66.5t76 45.5t98.5 17q49 0 86.5 -14t63 -38t39 -56t13.5 -69q0 -26 -7 -51.5t-21.5 -48t-36.5 -40.5t-53 -28q26 -8 44.5 -23.5
t30.5 -35.5t18 -44t6 -48q0 -45 -18.5 -86t-52 -72t-81 -49.5t-105.5 -18.5zM332 397q32 0 58 10t44 27.5t28 40t10 48.5q0 45 -30 75.5t-87 30.5q-32 0 -57.5 -10t-44 -27.5t-28.5 -40.5t-10 -49q0 -45 30 -75t87 -30zM298 71q35 0 64 11t49.5 29.5t32 43.5t11.5 53
q0 24 -8.5 44.5t-25 36.5t-41.5 25t-58 9q-36 0 -65 -11t-49.5 -29.5t-31.5 -43.5t-11 -52q0 -49 34.5 -82.5t98.5 -33.5z" />
    <glyph glyph-name="nine" unicode="9" horiz-adv-x="556" 
d="M353 711q51 0 91.5 -17t68.5 -46.5t42.5 -68.5t14.5 -83q0 -48 -16 -87.5t-42 -74.5l-243 -334h-105l184 244q-9 -9 -39 -9q-50 0 -90.5 16t-69.5 45t-45 68t-16 86q0 52 20 99.5t55 83.5t84 57t106 21zM345 629q-36 0 -66 -14t-52 -37.5t-34.5 -55t-12.5 -65.5
q0 -29 9 -54.5t26.5 -44.5t42 -30t56.5 -11q36 0 66.5 14t52 37.5t34 54.5t12.5 66q0 29 -9 54.5t-26 44.5t-42 30t-57 11z" />
    <glyph glyph-name="colon" unicode=":" horiz-adv-x="255" 
d="M99 392q0 16 6.5 30t17 24.5t24.5 16.5t29 6q28 0 46 -19t18 -45q0 -32 -23.5 -54t-54.5 -22q-27 0 -45 18t-18 45zM64 58q0 32 23 54.5t54 22.5q28 0 46 -19t18 -45q0 -32 -23.5 -54.5t-54.5 -22.5q-28 0 -45.5 19t-17.5 45z" />
    <glyph glyph-name="semicolon" unicode=";" horiz-adv-x="263" 
d="M64 58q0 32 23 54.5t58 22.5q33 0 53 -24.5t20 -74.5q0 -75 -45 -113.5t-122 -38.5l5 43q32 0 48.5 9.5t26.5 21.5q17 22 19 44q-3 -3 -9.5 -5.5t-16.5 -2.5q-26 0 -43 18.5t-17 45.5zM100 393q0 32 23 54t53 22q28 0 46.5 -18.5t18.5 -45.5q0 -32 -24 -54t-55 -22
q-27 0 -44.5 18.5t-17.5 45.5z" />
    <glyph glyph-name="less" unicode="&#x3c;" 
d="M60 252l7 63l526 181l-9 -83l-393 -129l366 -130l-9 -82z" />
    <glyph glyph-name="equal" unicode="=" 
d="M120 326l8 77h404l-8 -77h-404zM103 164l8 78h404l-8 -78h-404z" />
    <glyph glyph-name="greater" unicode="&#x3e;" 
d="M42 72l9 82l392 130l-365 129l9 83l488 -181l-7 -63z" />
    <glyph glyph-name="question" unicode="?" horiz-adv-x="504" 
d="M202 188q4 36 11.5 63.5t20 50t31 41t45.5 35.5q15 10 35 23.5t37.5 32t30 42.5t12.5 55q0 49 -30.5 74t-81.5 25q-62 0 -101 -36t-46 -101h-91q5 51 26.5 92t55 69t76 43t89.5 15q42 0 78 -12t61.5 -35t40 -55.5t14.5 -72.5q0 -42 -14 -73.5t-34.5 -54.5t-42.5 -39.5
t-38 -27.5q-26 -18 -43 -31.5t-28 -30t-17 -38t-9 -54.5h-88zM160 53q0 33 23.5 56t55.5 23q29 0 48.5 -19t19.5 -47q0 -16 -7 -30.5t-18 -25.5t-26 -17.5t-31 -6.5q-29 0 -47 20t-18 47z" />
    <glyph glyph-name="at" unicode="@" horiz-adv-x="854" 
d="M559 80q-23 -35 -62 -57t-88 -22q-40 0 -72.5 15t-56 40.5t-36.5 59t-13 71.5q0 45 17.5 85.5t47.5 71.5t70 49.5t86 18.5q51 0 85 -22t49 -57l7 70h73l-30 -283q-5 -44 8.5 -68.5t42.5 -24.5q25 0 45 18t34 49.5t21.5 73.5t7.5 89q0 77 -20 132t-56.5 90.5t-88 52
t-114.5 16.5q-84 0 -157 -27.5t-126 -76t-83.5 -116t-30.5 -147.5q0 -62 20 -119t60 -100t101 -68.5t144 -25.5q45 0 99 10.5t111 39.5l21 -58q-66 -35 -126.5 -46.5t-112.5 -11.5q-99 0 -172.5 30.5t-122 82.5t-72.5 119.5t-24 141.5q0 96 37 176.5t102 138.5t152.5 90.5
t188.5 32.5q78 0 142 -21t109 -63.5t69.5 -108t24.5 -154.5q0 -61 -12 -116.5t-36.5 -98t-61.5 -67.5t-87 -25q-29 0 -50 8.5t-34.5 22.5t-21 32.5t-10.5 38.5zM425 67q32 0 59 12.5t47 33.5t31 49t11 58q0 26 -8 49t-24 40t-38.5 27t-50.5 10q-32 0 -59 -12.5t-46.5 -33.5
t-30.5 -49t-11 -59q0 -26 8 -48.5t23.5 -39.5t37.5 -27t51 -10z" />
    <glyph glyph-name="A" unicode="A" horiz-adv-x="559" 
d="M458 0l-26 107h-284l-47 -107h-96l315 700h66l168 -700h-96zM338 551l-153 -361h228z" />
    <glyph glyph-name="B" unicode="B" horiz-adv-x="591" 
d="M152 700h239q57 0 94.5 -15.5t59.5 -40t31 -54t9 -57.5q0 -38 -13 -69t-33.5 -53.5t-46 -36.5t-50.5 -19q19 -2 39 -12t36.5 -28.5t27.5 -45t11 -59.5q0 -30 -11.5 -67t-39 -68.5t-73 -53t-114.5 -21.5h-240zM202 312l-24 -230h153q37 0 63 12t41.5 30t22.5 39.5t7 41.5
q0 18 -5.5 36.5t-18.5 34.5t-33.5 26t-50.5 10h-155zM361 395q37 0 62.5 12t41 30t22 39.5t6.5 40.5q0 17 -5.5 35t-18 32.5t-34 24t-53.5 9.5h-148l-23 -223h150z" />
    <glyph glyph-name="C" unicode="C" horiz-adv-x="775" 
d="M759 216q-18 -49 -52 -91.5t-79.5 -73.5t-102 -49t-120.5 -18q-78 0 -139.5 26.5t-103.5 72t-64 106t-22 127.5q0 77 28 149t80.5 128t127 89.5t166.5 33.5q70 0 125.5 -20t94.5 -55t61 -82.5t25 -103.5h-96q-4 38 -19.5 71t-43 57t-65.5 37.5t-87 13.5
q-69 0 -125.5 -26.5t-96 -70t-61 -99.5t-21.5 -115q0 -53 17 -99.5t49.5 -81.5t78.5 -55.5t103 -20.5q42 0 80 11.5t69 31.5t54.5 47.5t38.5 59.5h100z" />
    <glyph glyph-name="D" unicode="D" horiz-adv-x="697" 
d="M368 700q81 0 142 -27t102.5 -71t62.5 -101.5t21 -118.5q0 -71 -28 -139.5t-80 -122.5t-126.5 -87t-167.5 -33h-216l74 700h216zM234 618l-56 -536h125q69 0 124 25.5t94 66.5t59.5 94t20.5 107q0 47 -15.5 91t-46 77.5t-75.5 54t-105 20.5h-125z" />
    <glyph glyph-name="E" unicode="E" horiz-adv-x="544" 
d="M234 618l-24 -229h302l-9 -82h-302l-23 -225h302l-9 -82h-393l74 700h393l-9 -82h-302z" />
    <glyph glyph-name="F" unicode="F" horiz-adv-x="538" 
d="M234 618l-26 -250h302l-9 -82h-302l-30 -286h-91l74 700h393l-9 -82h-302z" />
    <glyph glyph-name="G" unicode="G" horiz-adv-x="836" 
d="M509 337h337l-9 -82h-75q-15 -58 -46 -107.5t-76.5 -86t-104.5 -57t-130 -20.5q-83 0 -144.5 27t-102.5 72.5t-61.5 104.5t-20.5 123q0 78 29 151.5t81.5 129.5t125.5 90t161 34q61 0 110.5 -16.5t85 -45t56 -67t22.5 -82.5h-92q-4 27 -19 50.5t-40 41t-58 27.5t-73 10
q-66 0 -120.5 -26.5t-93.5 -70.5t-60.5 -101t-21.5 -117q0 -50 15 -95.5t46 -80.5t77.5 -56t108.5 -21q52 0 94 15t73.5 40.5t52 60t29.5 73.5h-165z" />
    <glyph glyph-name="H" unicode="H" horiz-adv-x="664" 
d="M527 307h-326l-32 -307h-91l74 700h91l-33 -311h326l33 311h91l-74 -700h-91z" />
    <glyph glyph-name="I" unicode="I" horiz-adv-x="250" 
d="M152 700h94l-74 -700h-94z" />
    <glyph glyph-name="J" unicode="J" horiz-adv-x="536" 
d="M488 222q-5 -51 -25 -95t-52 -75.5t-75.5 -49.5t-95.5 -18t-92 17.5t-66.5 49t-38 75.5t-6.5 96h91q-7 -70 25.5 -113t95.5 -43t101.5 42.5t46.5 113.5l50 478h91z" />
    <glyph glyph-name="K" unicode="K" horiz-adv-x="590" 
d="M202 318l-33 -318h-91l74 700h91l-34 -318l328 318h115l-357 -350l283 -350h-115z" />
    <glyph glyph-name="L" unicode="L" horiz-adv-x="425" 
d="M407 82l-9 -82h-320l74 700h91l-65 -618h229z" />
    <glyph glyph-name="M" unicode="M" horiz-adv-x="812" 
d="M734 0h-92l51 488l-252 -488h-70l-151 488l-51 -488h-91l74 700h88l181 -560l299 560h88z" />
    <glyph glyph-name="N" unicode="N" horiz-adv-x="663" 
d="M511 159l57 541h91l-74 -700h-101l-258 541l-57 -541h-91l74 700h101z" />
    <glyph glyph-name="O" unicode="O" horiz-adv-x="803" 
d="M404 -16q-80 0 -141 27.5t-102.5 73t-63 105.5t-21.5 125q0 77 29 149t81.5 128t126 90t162.5 34q79 0 140.5 -27t102.5 -73t62.5 -105.5t21.5 -124.5q0 -77 -29 -149.5t-81.5 -128.5t-125.5 -90t-162 -34zM411 66q65 0 119.5 26.5t93.5 70.5t60.5 100t21.5 116
q0 50 -15.5 96t-46 81.5t-75.5 56.5t-103 21q-65 0 -119 -26.5t-93 -70t-61 -99.5t-22 -116q0 -50 15.5 -96t46 -81.5t75.5 -57t103 -21.5z" />
    <glyph glyph-name="P" unicode="P" horiz-adv-x="596" 
d="M152 700h246q51 0 91 -17.5t68 -47t42.5 -68.5t14.5 -83q0 -52 -19.5 -99t-55 -83t-84.5 -57.5t-108 -21.5h-155l-23 -223h-91zM356 306q37 0 67.5 14t52.5 37.5t34.5 54.5t12.5 65q0 29 -9 54.5t-26.5 45t-42.5 30.5t-56 11h-155l-33 -312h155z" />
    <glyph glyph-name="Q" unicode="Q" horiz-adv-x="803" 
d="M802 384q0 -68 -22.5 -130.5t-62.5 -113.5t-95.5 -88t-121.5 -53l53 -87l-85 -40l-68 112q-78 0 -138.5 27.5t-102 73.5t-62.5 105.5t-21 124.5q0 77 29 149t81.5 128t126 90t162.5 34q79 0 140.5 -27.5t102.5 -73t62.5 -105.5t21.5 -126zM411 66q65 0 119.5 26.5
t93.5 70.5t60.5 100t21.5 116q0 50 -15.5 96t-46 81.5t-75 56.5t-102.5 21q-65 0 -119.5 -26.5t-93.5 -70t-61 -99.5t-22 -116q0 -50 15.5 -96t46 -81.5t75.5 -57t103 -21.5z" />
    <glyph glyph-name="R" unicode="R" horiz-adv-x="606" 
d="M152 700h246q51 0 91 -17.5t68 -47t42.5 -68.5t14.5 -83q0 -42 -13 -80.5t-36.5 -70.5t-56.5 -57t-74 -38l122 -238h-104l-116 223h-144l-23 -223h-91zM356 306q37 0 67.5 14t52.5 37.5t34.5 54.5t12.5 65q0 29 -9 54.5t-26.5 45t-42.5 30.5t-56 11h-155l-33 -312h155z
" />
    <glyph glyph-name="S" unicode="S" horiz-adv-x="571" 
d="M160 223q-8 -72 31 -114.5t110 -42.5q33 0 60.5 9.5t48 26.5t32 41t11.5 53t-11 48.5t-28 32t-38.5 21t-42.5 14.5q-43 14 -81 29t-66.5 36t-45 52t-16.5 76q0 48 18.5 86.5t50.5 66.5t75 43t92 15t88.5 -15.5t66 -43.5t39 -67.5t7.5 -87.5h-91q2 28 -3.5 52t-19.5 42
t-37 28t-56 10q-29 0 -54 -8t-44 -23t-29.5 -36t-10.5 -48q0 -25 9.5 -42.5t25.5 -30.5t37.5 -22t45.5 -16q42 -14 80.5 -29.5t68 -38t46.5 -54.5t17 -79q0 -51 -20.5 -92t-56 -70.5t-82 -45t-98.5 -15.5q-54 0 -97 16.5t-72.5 47.5t-43 75.5t-7.5 99.5h91z" />
    <glyph glyph-name="T" unicode="T" horiz-adv-x="478" 
d="M258 618h-181l9 82h454l-9 -82h-182l-65 -618h-91z" />
    <glyph glyph-name="U" unicode="U" horiz-adv-x="629" 
d="M145 700h91l-50 -473q-3 -33 4.5 -62.5t25.5 -51.5t44.5 -34.5t60.5 -12.5t64 13t52.5 35t36.5 51t17 62l50 473h91l-50 -473q-5 -50 -27 -94t-57.5 -77t-83 -52.5t-102.5 -19.5q-56 0 -98.5 19.5t-70.5 52.5t-40.5 77t-7.5 94z" />
    <glyph glyph-name="V" unicode="V" horiz-adv-x="563" 
d="M315 0h-66l-171 700h96l124 -550l239 550h96z" />
    <glyph glyph-name="W" unicode="W" horiz-adv-x="964" 
d="M539 542l-226 -542h-68l-165 700h96l119 -542l227 542h69l113 -542l233 542h96l-314 -700h-67z" />
    <glyph glyph-name="X" unicode="X" horiz-adv-x="548" 
d="M509 700h104l-250 -350l176 -350h-104l-133 271l-189 -271h-103l249 350l-175 350h103l132 -271z" />
    <glyph glyph-name="Y" unicode="Y" horiz-adv-x="591" 
d="M234 0h-100l170 278l-220 422h106l171 -327l199 327h100z" />
    <glyph glyph-name="Z" unicode="Z" horiz-adv-x="565" 
d="M109 700h521l-454 -618h392l-9 -82h-545l454 618h-368z" />
    <glyph glyph-name="bracketleft" unicode="[" horiz-adv-x="335" 
d="M53 -234l108 1029h197l-8 -78h-110l-92 -874h110l-8 -77h-197z" />
    <glyph glyph-name="backslash" unicode="\" horiz-adv-x="436" 
d="M434 -37l-83 -34l-275 846l83 34z" />
    <glyph glyph-name="bracketright" unicode="]" horiz-adv-x="335" 
d="M35 -234l8 77h110l92 873h-110l8 78h197l-108 -1028h-197z" />
    <glyph glyph-name="asciicircum" unicode="^" horiz-adv-x="638" 
d="M514 323l-129 318l-196 -318h-95l271 427h62l185 -427h-98z" />
    <glyph glyph-name="underscore" unicode="_" horiz-adv-x="560" 
d="M18 -111l6 61h500l-6 -61h-500z" />
    <glyph glyph-name="grave" unicode="`" horiz-adv-x="495" 
d="M159 664l49 68l235 -137l-49 -68z" />
    <glyph glyph-name="a" unicode="a" horiz-adv-x="597" 
d="M566 454l-47 -454h-86l8 79q-26 -40 -71 -65t-102 -25q-46 0 -84 17.5t-65 47t-41.5 68.5t-14.5 83q0 52 20 99.5t54.5 83.5t81 57t99.5 21q55 0 95 -23.5t59 -66.5l8 78h86zM288 67q37 0 68 14.5t53.5 38.5t35 56t12.5 67q0 30 -9.5 56t-27 46t-43 31.5t-58.5 11.5
q-37 0 -68.5 -14.5t-54 -39t-35 -56.5t-12.5 -67q0 -30 9.5 -56t27 -45.5t43.5 -31t59 -11.5z" />
    <glyph glyph-name="b" unicode="b" horiz-adv-x="599" 
d="M165 0h-87l74 700h87l-34 -324q28 44 73 67t98 23q46 0 84 -17t65 -46.5t42 -69t15 -84.5q0 -52 -20 -99t-54.5 -83t-80.5 -57t-99 -21q-56 0 -95.5 23.5t-59.5 66.5zM326 67q37 0 68 14.5t53.5 38.5t35 56t12.5 67q0 30 -9 56t-26.5 46t-43 31.5t-58.5 11.5
q-37 0 -68 -14.5t-53.5 -39t-35.5 -56.5t-13 -67q0 -30 9.5 -56t27 -45.5t43 -31t58.5 -11.5z" />
    <glyph glyph-name="c" unicode="c" horiz-adv-x="529" 
d="M427 289q0 19 -6 37t-19.5 32t-34.5 22t-51 8q-41 0 -72 -15t-51.5 -40.5t-30.5 -58t-10 -66.5q0 -29 7.5 -54.5t23.5 -45t41.5 -30.5t61.5 -11q54 0 83.5 24t44.5 65h87q-9 -36 -28.5 -67t-49 -53t-67 -34.5t-82.5 -12.5q-54 0 -93.5 17.5t-65 47t-38 68t-12.5 80.5
q0 50 17 97.5t49.5 84.5t80.5 59.5t111 22.5q51 0 87.5 -15t60 -40t34 -57t9.5 -65h-87z" />
    <glyph glyph-name="d" unicode="d" horiz-adv-x="597" 
d="M441 79q-26 -40 -71 -65t-102 -25q-46 0 -84 17.5t-65 47t-41.5 68.5t-14.5 83q0 52 20 99.5t54.5 83.5t81 57t99.5 21q55 0 95 -23.5t59 -66.5l34 324h86l-73 -700h-86zM288 67q37 0 68 14.5t53.5 38.5t35 56t12.5 67q0 30 -9.5 56t-27 46t-43 31.5t-58.5 11.5
q-37 0 -68.5 -14.5t-54 -39t-35 -56.5t-12.5 -67q0 -30 9.5 -56t27 -45.5t43.5 -31t59 -11.5z" />
    <glyph glyph-name="e" unicode="e" horiz-adv-x="525" 
d="M304 399q-28 0 -52.5 -8.5t-44 -25t-32.5 -40.5t-17 -55h263q7 60 -26 94.5t-91 34.5zM150 204q-2 -27 3.5 -52.5t20 -45.5t39.5 -32t63 -12q53 0 81 21.5t42 50.5h88q-9 -29 -28 -55t-47 -46t-65 -32t-81 -12q-51 0 -89 16.5t-63 45t-37 67t-12 83.5q0 55 17.5 103.5
t50 84.5t77.5 56.5t100 20.5q45 0 81 -14t61.5 -39.5t39.5 -60t14 -75.5q0 -21 -3.5 -37.5t-8.5 -35.5h-344z" />
    <glyph glyph-name="f" unicode="f" horiz-adv-x="347" 
d="M401 620q-11 4 -23 6t-32 2q-12 0 -25 -2t-25 -10.5t-21 -25.5t-12 -48l-9 -88h130l-8 -73h-130l-40 -381h-87l40 381h-98l8 73h98l8 79q6 62 26.5 96.5t46 51.5t51.5 21t43 4q27 0 42.5 -3.5t24.5 -8.5z" />
    <glyph glyph-name="g" unicode="g" horiz-adv-x="595" 
d="M320 388q-37 0 -68.5 -14.5t-54 -39t-35 -56.5t-12.5 -67q0 -30 9 -56t27 -45.5t43.5 -31t58.5 -11.5q37 0 68 14.5t53.5 38.5t35.5 56t13 67q0 30 -9.5 56t-27 46t-43 31.5t-58.5 11.5zM516 -29q-6 -61 -28 -104t-55.5 -70.5t-78 -40t-96.5 -12.5q-62 0 -104.5 16
t-68 43.5t-36 63.5t-8.5 75h88q0 -24 6 -46t22 -38.5t41.5 -26.5t64.5 -10q34 0 62.5 8.5t50.5 26.5t36 46.5t18 68.5l11 108q-29 -44 -74 -67t-98 -23q-46 0 -84 17.5t-65 47t-42 69t-15 83.5q0 52 20 99t54.5 83t81 57t99.5 21q57 0 96.5 -24t57.5 -66l9 78h86z" />
    <glyph glyph-name="h" unicode="h" horiz-adv-x="565" 
d="M152 700h87l-35 -326q25 42 68.5 67t103.5 25q42 0 75 -14t53 -46q17 -27 21 -60.5t-1 -77.5l-28 -268h-87l25 241q3 31 0 58.5t-14.5 47t-32 31t-51.5 11.5q-35 0 -61 -13.5t-44 -35t-28 -49.5t-13 -57l-25 -234h-87z" />
    <glyph glyph-name="i" unicode="i" horiz-adv-x="243" 
d="M126 454h87l-48 -454h-87zM117 620q0 32 23 54.5t54 22.5q28 0 46 -19t18 -46q0 -31 -23.5 -53t-54.5 -22q-27 0 -45 18.5t-18 44.5z" />
    <glyph glyph-name="j" unicode="j" horiz-adv-x="243" 
d="M152 -122q-8 -72 -42.5 -102.5t-82.5 -30.5q-17 0 -35.5 3.5t-29.5 8.5l8 77q16 -4 24.5 -5t14.5 -1q27 0 40.5 16.5t16.5 46.5l59 563h88zM117 620q0 32 23 54.5t54 22.5q28 0 46 -19t18 -46q0 -31 -23 -53t-55 -22q-29 0 -46 18.5t-17 44.5z" />
    <glyph glyph-name="k" unicode="k" horiz-adv-x="477" 
d="M282 227l183 -227h-110l-168 206l-22 -206h-87l74 700h87l-48 -453l212 207h110z" />
    <glyph glyph-name="l" unicode="l" horiz-adv-x="243" 
d="M152 700h87l-74 -700h-87z" />
    <glyph glyph-name="m" unicode="m" horiz-adv-x="824" 
d="M666 0l27 261q7 63 -14 95.5t-68 32.5q-51 0 -85.5 -39t-42.5 -119l-24 -231h-87l27 256q8 70 -13.5 101.5t-66.5 31.5q-51 0 -86.5 -39t-43.5 -119l-24 -231h-87l48 454h87l-9 -81q8 17 21 34t31.5 30t43 21t54.5 8q54 0 88 -26t42 -71q9 18 23 35.5t34.5 31t46.5 22
t59 8.5q40 0 68 -13t44.5 -37t22 -57t1.5 -72l-30 -287h-87z" />
    <glyph glyph-name="n" unicode="n" horiz-adv-x="565" 
d="M126 454h87l-9 -80q25 42 68.5 67t103.5 25q42 0 75 -14t53 -46q17 -27 21 -60.5t-1 -77.5l-28 -268h-87l25 241q3 31 0 58.5t-14.5 47t-32 31t-51.5 11.5q-35 0 -61 -13.5t-44 -35t-28 -49.5t-13 -57l-25 -234h-87z" />
    <glyph glyph-name="o" unicode="o" horiz-adv-x="560" 
d="M279 -11q-51 0 -91.5 17.5t-68 47t-42 68.5t-14.5 83q0 52 19.5 99t55 83t84 57.5t105.5 21.5q51 0 91.5 -17t68 -46.5t42.5 -69t15 -83.5q0 -52 -20 -99.5t-55 -83.5t-84 -57t-106 -21zM288 67q37 0 68 14.5t53.5 38.5t35 56t12.5 67q0 30 -9.5 56t-27 46t-43 31.5
t-58.5 11.5q-37 0 -68.5 -14.5t-54 -39t-35 -56.5t-12.5 -67q0 -30 9.5 -56t27 -45.5t43.5 -31t59 -11.5z" />
    <glyph glyph-name="p" unicode="p" horiz-adv-x="599" 
d="M204 376q29 44 74 67t98 23q46 0 84 -17t65 -46.5t42 -69t15 -84.5q0 -52 -20 -99t-54.5 -83t-80.5 -57t-99 -21q-56 0 -96 23.5t-59 66.5l-34 -325h-87l74 700h87zM358 388q-37 0 -68 -14.5t-53.5 -39t-35.5 -56.5t-13 -67q0 -30 9.5 -56t27 -45.5t43 -31t58.5 -11.5
q37 0 68 14.5t53.5 38.5t35 56t12.5 67q0 30 -9 56t-26.5 46t-43 31.5t-58.5 11.5z" />
    <glyph glyph-name="q" unicode="q" horiz-adv-x="599" 
d="M481 454h87l-73 -700h-87l34 325q-29 -44 -74 -67t-98 -23q-47 0 -85 17.5t-65 47t-41.5 69t-14.5 83.5q0 52 20 99t54.5 83t81 57t99.5 21q56 0 95.5 -23.5t58.5 -66.5zM320 388q-37 0 -68 -14.5t-53.5 -39t-35 -56.5t-12.5 -67q0 -30 9 -56t27 -45.5t43.5 -31
t58.5 -11.5q37 0 68 14.5t53.5 38.5t35 56t12.5 67q0 30 -9.5 56t-27 46t-43 31.5t-58.5 11.5z" />
    <glyph glyph-name="r" unicode="r" horiz-adv-x="365" 
d="M398 374q-13 3 -21.5 4t-17.5 1q-79 0 -122 -49t-51 -131l-21 -199h-87l48 454h87l-10 -89q22 41 66.5 68.5t95.5 27.5q25 0 42 -7z" />
    <glyph glyph-name="s" unicode="s" horiz-adv-x="452" 
d="M297 253q28 -9 51 -18.5t39 -22.5t24.5 -31t8.5 -45q0 -36 -15 -63.5t-41 -46t-60.5 -28t-72.5 -9.5q-40 0 -73.5 10t-57.5 30.5t-35.5 51t-7.5 72.5h85q-6 -52 22.5 -73.5t74.5 -21.5q43 0 70.5 17t27.5 52q0 18 -8.5 28.5t-25 18.5t-42.5 16t-60 20q-25 8 -45.5 16.5
t-35 21.5t-22.5 30.5t-8 43.5q0 35 15 62t39.5 45t57 27.5t68.5 9.5q39 0 70.5 -11t53 -31t31.5 -48.5t7 -62.5h-84q5 37 -15 60t-67 23q-39 0 -65.5 -17.5t-26.5 -49.5q0 -15 6.5 -24.5t21.5 -17.5t38.5 -15.5t56.5 -18.5z" />
    <glyph glyph-name="t" unicode="t" horiz-adv-x="340" 
d="M325 0q-13 -2 -35 -4t-45 -2q-21 0 -45 4t-44 19.5t-31 47.5t-5 88l24 228h-84l8 73h84l16 153h87l-16 -153h118l-8 -73h-118l-22 -209q-3 -33 0.5 -52.5t12.5 -30t22 -13.5t30 -3q14 0 31.5 1t27.5 3z" />
    <glyph glyph-name="u" unicode="u" horiz-adv-x="565" 
d="M535 454l-48 -454h-87l9 81q-25 -42 -68.5 -67t-103.5 -25q-43 0 -76 14.5t-53 44.5q-15 23 -19.5 56t0.5 82l28 268h87l-25 -240q-3 -32 0 -59t14.5 -47t31.5 -31t51 -11q34 0 60 13t44.5 34.5t29 49.5t13.5 58l24 233h88z" />
    <glyph glyph-name="v" unicode="v" horiz-adv-x="482" 
d="M146 454l107 -330l179 330h94l-256 -454h-60l-158 454h94z" />
    <glyph glyph-name="w" unicode="w" horiz-adv-x="734" 
d="M405 359l-165 -359h-60l-128 454h93l79 -320l148 320h86l79 -320l148 320h93l-224 -454h-60z" />
    <glyph glyph-name="x" unicode="x" horiz-adv-x="440" 
d="M424 0h-100l-87 161l-121 -161h-100l178 229l-128 225h100l85 -158l119 158h100l-176 -225z" />
    <glyph glyph-name="y" unicode="y" horiz-adv-x="573" 
d="M259 -256q-106 0 -154.5 51t-40.5 146h88q-2 -60 25.5 -91.5t91.5 -31.5q27 0 50 6.5t41 22t30 41.5t16 65l13 128q-25 -42 -67.5 -67t-103.5 -25q-49 0 -80.5 16t-48.5 42t-20.5 59.5t1.5 82.5l28 265h87l-25 -238q-3 -33 -0.5 -60.5t13.5 -47.5t31.5 -31t52.5 -11
q35 0 61.5 13t44.5 35t28 50t13 57l24 233h88l-53 -501q-11 -109 -72 -159t-162 -50z" />
    <glyph glyph-name="z" unicode="z" horiz-adv-x="434" 
d="M462 454l-283 -376h244l-8 -78h-391l283 377h-235l8 77h382z" />
    <glyph glyph-name="braceleft" unicode="{" horiz-adv-x="420" 
d="M446 794l-7 -66h-46q-38 0 -56.5 -26t-22.5 -60l-27 -261q-3 -30 -15.5 -50t-28.5 -33t-33 -20t-29 -9q12 -3 27.5 -9.5t28.5 -20t21 -35.5t4 -56l-24 -230q-2 -17 0.5 -32.5t9.5 -27.5t19.5 -19t31.5 -7h46l-7 -66h-66q-24 0 -47.5 8.5t-41.5 25.5t-27.5 43.5t-5.5 61.5
l24 232q3 26 -5 44t-21 29.5t-28.5 16.5t-27.5 5l8 72q12 0 28.5 5t31.5 15.5t26.5 27t14.5 40.5l27 263q4 35 19 61t36.5 43.5t47 26t49.5 8.5h66z" />
    <glyph glyph-name="bar" unicode="|" horiz-adv-x="243" 
d="M60 -234l108 1028h75l-108 -1028h-75z" />
    <glyph glyph-name="braceright" unicode="}" horiz-adv-x="420" 
d="M207 794q24 0 47.5 -8.5t41.5 -26t27.5 -43.5t5.5 -61l-27 -263q-3 -24 5.5 -40.5t21.5 -27t28.5 -15.5t27.5 -5l-8 -72q-12 0 -28.5 -5t-32 -16.5t-27 -29.5t-14.5 -44l-24 -232q-4 -35 -19 -61.5t-36.5 -43.5t-47 -25.5t-49.5 -8.5h-66l7 66h45q38 0 56.5 26.5
t22.5 59.5l24 230q3 33 15.5 55t28.5 36t33 20.5t30 9.5q-12 2 -27.5 9t-28.5 20t-21 33t-5 50l27 261q4 34 -10 60t-51 26h-45l7 66h66z" />
    <glyph glyph-name="asciitilde" unicode="~" horiz-adv-x="518" 
d="M67 291q27 30 57.5 42t56.5 12t55 -9.5t58 -22.5q30 -13 56.5 -24.5t51.5 -11.5q29 0 59 17t53 38l-8 -76q-27 -30 -58 -43.5t-60 -13.5q-27 0 -51.5 10t-53.5 25q-25 13 -53.5 23t-56.5 10q-35 0 -62.5 -15.5t-51.5 -37.5z" />
    <glyph glyph-name="exclamdown" unicode="&#xa1;" horiz-adv-x="296" 
d="M127 242h95l-51 -488h-95zM120 391q0 16 6.5 30t17.5 24.5t25 16.5t29 6q27 0 45.5 -18.5t18.5 -45.5q0 -32 -24 -54.5t-55 -22.5q-27 0 -45 19t-18 45z" />
    <glyph glyph-name="cent" unicode="&#xa2;" horiz-adv-x="564" 
d="M449 376q0 42 -26 70.5t-84 28.5q-41 0 -72 -15t-51.5 -40.5t-30.5 -58t-10 -66.5q0 -29 7.5 -54.5t23.5 -44.5t41.5 -30.5t61.5 -11.5q54 0 83.5 24t44.5 65h87q-17 -65 -66.5 -111t-132.5 -55l-12 -107h-66l12 108q-43 5 -75 24.5t-53.5 48t-32 64t-10.5 74.5
q0 46 15 90.5t43.5 80.5t69 60.5t92.5 30.5l12 107h66l-12 -107q45 -5 76.5 -21.5t50.5 -40.5t27.5 -53.5t7.5 -59.5h-87z" />
    <glyph glyph-name="sterling" unicode="&#xa3;" horiz-adv-x="588" 
d="M254 525q-1 -4 -2.5 -17t-3 -30.5t-3.5 -37.5t-4 -36h166l-6 -66h-166q-8 -56 -13.5 -96.5t-8.5 -54.5q-9 -47 -18 -69.5t-21 -35.5h325l-9 -82h-428l7 69q17 17 28.5 43.5t19.5 68.5q3 12 7 32t7 42.5t6 44.5t5 36h-68l7 67h69l11 109q4 44 25.5 80.5t54 63t74 41
t86.5 14.5q48 0 87 -16.5t65 -45.5t38 -69t7 -88h-91q6 59 -22.5 97.5t-94.5 38.5q-54 0 -90 -27t-46 -76z" />
    <glyph glyph-name="currency" unicode="&#xa4;" horiz-adv-x="748" 
d="M519 175q-31 -20 -67.5 -31.5t-78.5 -11.5t-76 11.5t-60 31.5l-75 -67l-49 55l75 68q-15 24 -22.5 54.5t-7.5 62.5q0 45 15 85.5t44 75.5l-60 68l60 55l60 -68q31 21 67.5 33t78.5 12t76.5 -12t60.5 -32l74 67l50 -55l-75 -67q15 -25 23 -56t8 -63q0 -45 -15.5 -85.5
t-44.5 -75.5l59 -67l-60 -55zM383 210q37 0 68 14.5t53.5 38.5t35.5 56t13 67q0 30 -9.5 56t-27 46t-43 31.5t-58.5 11.5q-37 0 -68 -14.5t-53.5 -39t-35 -56.5t-12.5 -67q0 -30 9 -56t26.5 -45.5t43 -31t58.5 -11.5z" />
    <glyph glyph-name="yen" unicode="&#xa5;" horiz-adv-x="593" 
d="M158 700l179 -330l246 330h105l-302 -406h146l-7 -66h-162l-8 -78h162l-7 -66h-162l-9 -84h-83l9 84h-159l7 66h159l8 78h-159l7 66h143l-219 406h106z" />
    <glyph glyph-name="brokenbar" unicode="&#xa6;" horiz-adv-x="243" 
d="M118 328l49 466h76l-49 -466h-76zM184 231l-49 -465h-76l49 465h76z" />
    <glyph glyph-name="section" unicode="&#xa7;" horiz-adv-x="580" 
d="M285 80q-45 14 -84 29t-67.5 35.5t-45 48t-16.5 66.5q0 58 35.5 102t95.5 60q-62 42 -62 124q0 45 20 81t53 61t76 38.5t90 13.5q51 0 90.5 -15.5t65.5 -43t38 -64.5t8 -80h-92q5 55 -25.5 90.5t-94.5 35.5q-26 0 -50.5 -6.5t-43.5 -20t-30.5 -33.5t-11.5 -47
q0 -25 10 -42t26.5 -29t38.5 -20.5t45 -15.5q39 -12 77.5 -26.5t68.5 -34.5t48.5 -48t18.5 -67q0 -32 -11.5 -60t-30.5 -50t-42 -37t-46 -19q67 -42 67 -124q0 -46 -19.5 -81.5t-52.5 -60t-76 -37.5t-90 -13q-51 0 -92 15t-69 42t-41.5 65t-8.5 85h92q-5 -57 27 -94t101 -37
q26 0 50.5 6.5t43.5 19t30.5 32.5t11.5 47q0 44 -32.5 67.5t-93.5 41.5zM474 257q0 31 -18 48t-53 32q-8 5 -22 10.5t-31 11.5t-34.5 11t-32.5 10q-26 -1 -47.5 -10.5t-37 -24.5t-24 -34t-8.5 -40q0 -30 18.5 -49t56.5 -35q9 -5 24.5 -11t32.5 -11.5t33 -10.5t26 -8
q23 1 44 10t37.5 24t26 34.5t9.5 42.5z" />
    <glyph glyph-name="dieresis" unicode="&#xa8;" horiz-adv-x="556" 
d="M387 636q0 31 22 52.5t52 21.5q26 0 43.5 -18t17.5 -44q0 -30 -22.5 -51t-52.5 -21q-26 0 -43 17t-17 43zM157 636q0 15 6 28.5t16.5 23.5t24 16t28.5 6q26 0 43 -18t17 -44q0 -30 -22.5 -51t-51.5 -21q-26 0 -43.5 17t-17.5 43z" />
    <glyph glyph-name="copyright" unicode="&#xa9;" horiz-adv-x="806" 
d="M405 -17q-80 0 -141 27.5t-102.5 73t-63 105.5t-21.5 125q0 77 29 149.5t82 129t126 90.5t162 34q79 0 140.5 -27.5t102.5 -73t62.5 -105.5t21.5 -125q0 -77 -29 -150t-81.5 -129t-126 -90t-161.5 -34zM624 273q-11 -28 -30 -51.5t-45 -41t-58 -27.5t-68 -10
q-44 0 -78.5 15t-58 40.5t-36 59.5t-12.5 72q0 43 16 84.5t45.5 73t71.5 51t95 19.5q78 0 122.5 -41.5t49.5 -107.5h-61q-3 19 -11.5 36.5t-23.5 30.5t-36 21t-48 8q-37 0 -67 -14.5t-51 -38t-32 -54t-11 -62.5q0 -29 9 -54t26 -44.5t41.5 -30.5t56.5 -11q47 0 80.5 22.5
t50.5 54.5h63zM410 40q72 0 131 29t101.5 77t66 109.5t23.5 126.5q0 55 -17 105t-50 88.5t-82 61.5t-112 23q-72 0 -131 -29t-102 -76.5t-66.5 -109t-23.5 -126.5q0 -55 17 -105.5t50.5 -89t82.5 -61.5t112 -23z" />
    <glyph glyph-name="ordfeminine" unicode="&#xaa;" horiz-adv-x="597" 
d="M566 454l-47 -454h-86l8 79q-26 -40 -71 -65t-102 -25q-46 0 -84 17.5t-65 47t-41.5 68.5t-14.5 83q0 52 20 99.5t54.5 83.5t81 57t99.5 21q55 0 95 -23.5t59 -66.5l8 78h86zM288 67q37 0 68 14.5t53.5 38.5t35 56t12.5 67q0 30 -9.5 56t-27 46t-43 31.5t-58.5 11.5
q-37 0 -68.5 -14.5t-54 -39t-35 -56.5t-12.5 -67q0 -30 9.5 -56t27 -45.5t43.5 -31t59 -11.5z" />
    <glyph glyph-name="guillemotleft" unicode="&#xab;" horiz-adv-x="472" 
d="M442 98l-178 167l6 53l213 167l-9 -86l-137 -108l114 -108zM246 98l-178 167l6 53l213 167l-9 -86l-137 -108l114 -108z" />
    <glyph glyph-name="logicalnot" unicode="&#xac;" 
d="M435 304h-317l8 78h404l-24 -227h-87z" />
    <glyph glyph-name="uni00AD" unicode="&#xad;" horiz-adv-x="294" 
d="M293 275h-234l2 20h234z" />
    <glyph glyph-name="registered" unicode="&#xae;" horiz-adv-x="808" 
d="M406 -17q-80 0 -141.5 27.5t-103 73t-63 105.5t-21.5 125q0 77 29 149.5t82 129t126.5 90.5t162.5 34q80 0 141 -27.5t102.5 -73t63 -105.5t21.5 -125q0 -77 -29 -150t-81.5 -129t-126 -90t-162.5 -34zM411 40q72 0 131.5 29t102 77t66 109.5t23.5 126.5q0 55 -17 105
t-50 88.5t-82 61.5t-113 23q-72 0 -131.5 -29t-102.5 -76.5t-66.5 -109t-23.5 -126.5q0 -55 17 -105.5t50.5 -89t82.5 -61.5t113 -23zM291 158l43 407h158q29 0 52.5 -10t39.5 -27t24.5 -40t8.5 -49q0 -49 -28.5 -87.5t-76.5 -54.5l72 -139h-71l-67 130h-78l-14 -130h-63z
M462 343q39 0 63.5 27.5t24.5 63.5q0 31 -18.5 53.5t-51.5 22.5h-89l-18 -167h89z" />
    <glyph glyph-name="macron" unicode="&#xaf;" horiz-adv-x="542" 
d="M526 723h-358l8 78h358z" />
    <glyph glyph-name="degree" unicode="&#xb0;" horiz-adv-x="329" 
d="M368 587q0 -32 -13 -60.5t-34.5 -49.5t-50.5 -33.5t-60 -12.5q-29 0 -52.5 10t-41 27.5t-27 41.5t-9.5 51q0 32 13 60.5t34.5 49.5t50 33.5t60.5 12.5q28 0 52 -10t41.5 -27.5t27 -41.5t9.5 -51zM305 581q0 31 -20 53t-52 22q-18 0 -34 -7.5t-28.5 -19.5t-20 -28
t-7.5 -34q0 -31 20.5 -52.5t52.5 -21.5q18 0 34 7t28 19t19.5 28t7.5 34z" />
    <glyph glyph-name="plusminus" unicode="&#xb1;" 
d="M267 219l17 160h-156l9 78h156l16 161h87l-16 -161h156l-9 -78h-156l-17 -160h-87zM91 24l8 78h399l-8 -78h-399z" />
    <glyph glyph-name="twosuperior" unicode="&#xb2;" horiz-adv-x="370" 
d="M88 315q5 49 16.5 80.5t28 53t37.5 35.5t46 27q18 9 34.5 18t29.5 19.5t21 24t8 31.5q0 24 -14 36t-37 12q-27 0 -46.5 -16.5t-23.5 -50.5h-71q6 53 44.5 87.5t101.5 34.5q49 0 82.5 -24.5t33.5 -75.5q0 -29 -11 -50t-28 -37t-37 -28t-39 -22q-24 -13 -40.5 -23
t-26 -20.5t-14.5 -23t-7 -29.5h179l-6 -59h-261v0z" />
    <glyph glyph-name="threesuperior" unicode="&#xb3;" horiz-adv-x="382" 
d="M165 438q-4 -34 14 -53t49 -19q33 0 51.5 19.5t18.5 48.5q0 24 -15 39t-47 15h-33l6 56h33q38 0 53.5 18t15.5 42q0 26 -15 37t-38 11q-32 0 -48 -17t-19 -46h-71q5 49 40.5 83.5t100.5 34.5q52 0 86.5 -24.5t34.5 -71.5q0 -37 -20.5 -62.5t-51.5 -33.5q26 -8 42.5 -29.5
t16.5 -55.5q0 -29 -12 -51.5t-32.5 -38t-48 -24t-57.5 -8.5q-65 0 -98 36t-27 94h71z" />
    <glyph glyph-name="acute" unicode="&#xb4;" horiz-adv-x="495" 
d="M158 527l-35 68l263 137l35 -68z" />
    <glyph glyph-name="uni00B5" unicode="&#xb5;" 
d="M126 454h86l-25 -240q-3 -32 0 -59t15 -46.5t32.5 -31t51.5 -11.5q33 0 58.5 12.5t44 33.5t29.5 49t14 60l24 233h88l-48 -454h-87l8 81q-23 -41 -67 -66.5t-101 -25.5q-54 0 -82 28l-28 -263h-87z" />
    <glyph glyph-name="paragraph" unicode="&#xb6;" horiz-adv-x="653" 
d="M265 329q-43 0 -79 10t-62.5 31.5t-41 55t-14.5 80.5q0 46 13.5 79.5t36 57t51.5 38t59 22.5t59 11t52 3h319l-7 -72h-53l-84 -793h-83l83 792h-134l-83 -792h-82z" />
    <glyph glyph-name="periodcentered" unicode="&#xb7;" horiz-adv-x="255" 
d="M90 306q0 32 23 54.5t54 22.5q28 0 46 -19t18 -46q0 -31 -23.5 -53t-54.5 -22q-27 0 -45 18.5t-18 44.5z" />
    <glyph glyph-name="cedilla" unicode="&#xb8;" horiz-adv-x="478" 
d="M159 0h58l-7 -71q8 10 19.5 15t25.5 5q29 0 52 -21t23 -57q0 -19 -7.5 -38t-21.5 -34t-33.5 -24t-43.5 -9q-11 0 -26.5 3t-30.5 12t-25.5 26t-11.5 46h53q1 -18 11.5 -29t29.5 -11q23 0 37.5 15t14.5 38q0 19 -11 30t-31 11q-11 0 -21.5 -5t-19.5 -20h-46z" />
    <glyph glyph-name="onesuperior" unicode="&#xb9;" horiz-adv-x="268" 
d="M113 634q54 0 72.5 15.5t21.5 50.5h64l-40 -385h-73l28 267h-78z" />
    <glyph glyph-name="ordmasculine" unicode="&#xba;" horiz-adv-x="560" 
d="M279 -11q-51 0 -91.5 17.5t-68 47t-42 68.5t-14.5 83q0 52 19.5 99t55 83t84 57.5t105.5 21.5q51 0 91.5 -17t68 -46.5t42.5 -69t15 -83.5q0 -52 -20 -99.5t-55 -83.5t-84 -57t-106 -21zM288 67q37 0 68 14.5t53.5 38.5t35 56t12.5 67q0 30 -9.5 56t-27 46t-43 31.5
t-58.5 11.5q-37 0 -68.5 -14.5t-54 -39t-35 -56.5t-12.5 -67q0 -30 9.5 -56t27 -45.5t43.5 -31t59 -11.5z" />
    <glyph glyph-name="guillemotright" unicode="&#xbb;" horiz-adv-x="472" 
d="M59 183l137 108l-114 108l9 86l178 -167l-5 -53l-214 -167zM255 183l137 108l-114 108l9 86l178 -167l-5 -53l-214 -167z" />
    <glyph glyph-name="onequarter" unicode="&#xbc;" horiz-adv-x="916" 
d="M133 634q53 0 72 15.5t22 50.5h63l-40 -385h-72l28 267h-78zM719 116h-152l28 269h71l-22 -209h81l12 112h71l-12 -112h53l-6 -60h-53l-12 -116h-71zM652 758l65 -39l-499 -776l-66 39z" />
    <glyph glyph-name="onehalf" unicode="&#xbd;" horiz-adv-x="916" 
d="M133 634q53 0 72 15.5t22 50.5h63l-40 -385h-72l28 267h-78zM553 0q5 46 15.5 78t26.5 53.5t37 36.5t48 28q39 19 66 38.5t27 54.5q0 24 -13.5 36t-37.5 12q-28 0 -46.5 -16.5t-22.5 -50.5h-71q6 53 44 87.5t101 34.5q51 0 84 -24.5t33 -75.5q0 -29 -11 -50t-28 -37
t-37.5 -28t-39.5 -22q-24 -12 -40 -22t-26 -20.5t-15 -23t-7 -30.5h179l-6 -59h-260zM652 758l65 -39l-499 -776l-66 39z" />
    <glyph glyph-name="threequarters" unicode="&#xbe;" horiz-adv-x="916" 
d="M164 438q-4 -34 13.5 -53t48.5 -19q33 0 51.5 19.5t18.5 48.5q0 24 -14.5 39t-46.5 15h-34l6 56h34q37 0 52.5 18t15.5 42q0 25 -14 36.5t-39 11.5q-32 0 -48 -17t-19 -46h-71q5 51 41.5 84.5t99.5 33.5q52 0 86.5 -24.5t34.5 -71.5q0 -37 -20.5 -62.5t-51.5 -33.5
q29 -8 44 -30t15 -54q0 -29 -12 -52t-32.5 -38.5t-47.5 -24t-57 -8.5q-65 0 -98.5 36t-27.5 94h72zM719 116h-152l29 269h71l-22 -209h81l11 112h71l-11 -112h53l-7 -60h-53l-12 -116h-71zM661 758l66 -39l-501 -776l-66 39z" />
    <glyph glyph-name="questiondown" unicode="&#xbf;" horiz-adv-x="504" 
d="M350 266q-5 -37 -12 -64.5t-19.5 -49.5t-31 -40t-45.5 -36q-14 -10 -34 -23t-38 -31.5t-30.5 -42.5t-12.5 -56q0 -49 30.5 -74t81.5 -25q62 0 101 36.5t46 100.5h91q-5 -51 -26.5 -92t-55 -69t-76 -43t-89.5 -15q-42 0 -78 12t-61.5 35t-40 55t-14.5 73q0 42 14 73.5
t34.5 55t42.5 39.5t38 27q26 18 43 32.5t28 30.5t17 37t9 54h88zM392 402q0 -16 -6.5 -30.5t-17 -25.5t-25 -17.5t-30.5 -6.5q-29 0 -48.5 19.5t-19.5 47.5q0 16 6.5 30.5t18 25t26 17t30.5 6.5q30 0 48 -19.5t18 -46.5z" />
    <glyph glyph-name="Agrave" unicode="&#xc0;" horiz-adv-x="559" 
d="M554 0h-96l-26 107h-284l-47 -107h-96l315 700h66zM185 190h228l-75 361zM244 886l49 69l235 -137l-49 -69z" />
    <glyph glyph-name="Aacute" unicode="&#xc1;" horiz-adv-x="559" 
d="M554 0h-96l-26 107h-284l-47 -107h-96l315 700h66zM185 190h228l-75 361zM253 735l-34 68l264 137l34 -68z" />
    <glyph glyph-name="Acircumflex" unicode="&#xc2;" horiz-adv-x="559" 
d="M554 0h-96l-26 107h-284l-47 -107h-96l315 700h66zM185 190h228l-75 361zM380 957l162 -153l-56 -56l-115 114l-139 -114l-45 56z" />
    <glyph glyph-name="Atilde" unicode="&#xc3;" horiz-adv-x="559" 
d="M554 0h-96l-26 107h-284l-47 -107h-96l315 700h66zM185 190h228l-75 361zM440 862q23 0 39 15.5t27 33.5l60 -33q-29 -45 -65 -65t-71 -20q-24 0 -42 7.5t-32.5 17t-28 17t-29.5 7.5q-20 0 -35.5 -14t-28.5 -35l-55 40q27 42 61.5 60t68.5 18q25 0 42.5 -7.5t32 -17
t27.5 -17t29 -7.5z" />
    <glyph glyph-name="Adieresis" unicode="&#xc4;" horiz-adv-x="559" 
d="M554 0h-96l-26 107h-284l-47 -107h-96l315 700h66zM185 190h228l-75 361zM413 837q0 16 6.5 30t17 24.5t24.5 16.5t29 6q28 0 46 -19t18 -46q0 -31 -23 -53t-54 -22q-29 0 -46.5 18.5t-17.5 44.5zM184 837q0 32 23 54.5t54 22.5q28 0 46 -19t18 -45q0 -32 -23.5 -54
t-54.5 -22q-28 0 -45.5 18.5t-17.5 44.5z" />
    <glyph glyph-name="Aring" unicode="&#xc5;" horiz-adv-x="559" 
d="M554 0h-96l-26 107h-284l-47 -107h-96l315 700h66zM185 190h228l-75 361zM382 976q24 0 44.5 -9t35.5 -24t23 -35.5t8 -43.5q0 -27 -11 -51.5t-30 -42.5t-43 -29t-51 -11q-24 0 -44.5 9t-35.5 24.5t-23.5 36t-8.5 43.5q0 27 11.5 51t30 42.5t43 29t51.5 10.5zM376 920
q-29 0 -51 -21.5t-22 -50.5q0 -26 17 -43t43 -17q29 0 51 21t22 51q0 25 -16.5 42.5t-43.5 17.5z" />
    <glyph glyph-name="AE" unicode="&#xc6;" horiz-adv-x="865" 
d="M552 618l-24 -229h301l-9 -82h-301l-23 -225h301l-9 -82h-393l11 108h-241l-63 -108h-100l419 700h441l-9 -82h-301zM415 190l44 418l-246 -418h202z" />
    <glyph glyph-name="Ccedilla" unicode="&#xc7;" horiz-adv-x="775" 
d="M688 455q-4 38 -19.5 71t-43 57t-65.5 37.5t-87 13.5q-69 0 -125.5 -26.5t-96 -70t-61 -99.5t-21.5 -115q0 -53 17 -99.5t49.5 -81.5t78.5 -55.5t103 -20.5q42 0 80 11.5t69 31.5t54.5 47.5t38.5 59.5h100q-17 -47 -50.5 -85.5t-78.5 -68.5t-98.5 -49.5t-110.5 -26.5
l-8 -1l-6 -51q20 18 49 18t49.5 -19t20.5 -52q0 -20 -7.5 -38t-21 -31.5t-33 -22t-42.5 -8.5q-11 0 -26.5 2.5t-29.5 11t-25 24t-12 41.5h53q5 -32 40 -32q22 0 36.5 13.5t14.5 33.5q0 17 -10.5 28t-29.5 11q-12 0 -23 -5t-19 -18h-45l10 96q-68 8 -120 37t-87.5 73.5
t-54 100t-18.5 117.5q0 77 28 149.5t80.5 128.5t127 89.5t166.5 33.5q70 0 125.5 -20t94.5 -55t61 -82.5t25 -103.5h-96z" />
    <glyph glyph-name="Egrave" unicode="&#xc8;" horiz-adv-x="544" 
d="M234 618l-24 -229h302l-9 -82h-302l-23 -225h302l-9 -82h-393l74 700h393l-9 -82h-302zM237 873l48 68l235 -137l-49 -68z" />
    <glyph glyph-name="Eacute" unicode="&#xc9;" horiz-adv-x="544" 
d="M234 618l-24 -229h302l-9 -82h-302l-23 -225h302l-9 -82h-393l74 700h393l-9 -82h-302zM253 749l-35 69l263 137l35 -69z" />
    <glyph glyph-name="Ecircumflex" unicode="&#xca;" horiz-adv-x="544" 
d="M234 618l-24 -229h302l-9 -82h-302l-23 -225h302l-9 -82h-393l74 700h393l-9 -82h-302zM380 957l162 -153l-56 -56l-115 114l-138 -114l-46 56z" />
    <glyph glyph-name="Edieresis" unicode="&#xcb;" horiz-adv-x="544" 
d="M234 618l-24 -229h302l-9 -82h-302l-23 -225h302l-9 -82h-393l74 700h393l-9 -82h-302zM419 837q0 32 23 54.5t54 22.5q28 0 46 -19t18 -45q0 -32 -23.5 -54t-54.5 -22q-28 0 -45.5 18.5t-17.5 44.5zM189 837q0 16 6.5 30t17 24.5t24.5 16.5t29 6q28 0 46 -19t18 -46
q0 -31 -23 -53t-54 -22q-29 0 -46.5 18.5t-17.5 44.5z" />
    <glyph glyph-name="Igrave" unicode="&#xcc;" horiz-adv-x="250" 
d="M152 700h94l-74 -700h-94zM72 872l49 68l235 -137l-49 -68z" />
    <glyph glyph-name="Iacute" unicode="&#xcd;" horiz-adv-x="250" 
d="M151 700h94l-73 -700h-94zM99 735l-35 68l263 137l35 -68z" />
    <glyph glyph-name="Icircumflex" unicode="&#xce;" horiz-adv-x="250" 
d="M152 700h94l-74 -700h-94zM226 957l162 -153l-56 -56l-115 114l-139 -114l-45 56z" />
    <glyph glyph-name="Idieresis" unicode="&#xcf;" horiz-adv-x="250" 
d="M152 700h94l-74 -700h-94zM261 837q0 16 6.5 30t17 24.5t24.5 16.5t29 6q28 0 46 -19t18 -46q0 -31 -23 -53t-54 -22q-29 0 -46.5 18.5t-17.5 44.5zM32 837q0 16 6.5 30t17 24.5t24.5 16.5t29 6q28 0 46 -19t18 -46q0 -31 -23 -53t-55 -22q-29 0 -46 18.5t-17 44.5z" />
    <glyph glyph-name="Eth" unicode="&#xd0;" horiz-adv-x="697" 
d="M367 700q80 0 141.5 -27t103 -71.5t62.5 -102t21 -118.5q0 -71 -28 -139.5t-80.5 -122t-126.5 -86.5t-166 -33h-216l33 318h-116l7 66h116l33 316h216zM322 318h-120l-25 -236h125q69 0 124.5 25.5t94.5 66.5t59.5 94t20.5 107q0 47 -15.5 91t-46 77.5t-75.5 54
t-105 20.5h-125l-25 -234h120z" />
    <glyph glyph-name="Ntilde" unicode="&#xd1;" horiz-adv-x="663" 
d="M511 159l57 541h91l-74 -700h-101l-258 541l-57 -541h-91l74 700h101zM485 862q23 0 39 15.5t27 33.5l60 -33q-29 -45 -65 -65t-71 -20q-24 0 -42 7.5t-32.5 17t-28 17t-29.5 7.5q-20 0 -35.5 -14t-28.5 -35l-55 40q27 42 61.5 60t68.5 18q25 0 42.5 -7.5t32 -17
t27.5 -17t29 -7.5z" />
    <glyph glyph-name="Ograve" unicode="&#xd2;" horiz-adv-x="803" 
d="M404 -16q-80 0 -141 27.5t-102.5 73t-63 105.5t-21.5 125q0 77 29 149t81.5 128t126 90t162.5 34q79 0 140.5 -27t102.5 -73t62.5 -105.5t21.5 -124.5q0 -77 -29 -149.5t-81.5 -128.5t-125.5 -90t-162 -34zM411 66q65 0 119.5 26.5t93.5 70.5t60.5 100t21.5 116
q0 50 -15.5 96t-46 81.5t-75.5 56.5t-103 21q-65 0 -119 -26.5t-93 -70t-61 -99.5t-22 -116q0 -50 15.5 -96t46 -81.5t75.5 -57t103 -21.5zM336 886l49 69l234 -137l-49 -69z" />
    <glyph glyph-name="Oacute" unicode="&#xd3;" horiz-adv-x="803" 
d="M404 -16q-80 0 -141 27.5t-102.5 73t-63 105.5t-21.5 125q0 77 29 149t81.5 128t126 90t162.5 34q79 0 140.5 -27t102.5 -73t62.5 -105.5t21.5 -124.5q0 -77 -29 -149.5t-81.5 -128.5t-125.5 -90t-162 -34zM411 66q65 0 119.5 26.5t93.5 70.5t60.5 100t21.5 116
q0 50 -15.5 96t-46 81.5t-75.5 56.5t-103 21q-65 0 -119 -26.5t-93 -70t-61 -99.5t-22 -116q0 -50 15.5 -96t46 -81.5t75.5 -57t103 -21.5zM388 749l-35 69l264 137l35 -69z" />
    <glyph glyph-name="Ocircumflex" unicode="&#xd4;" horiz-adv-x="803" 
d="M404 -16q-80 0 -141 27.5t-102.5 73t-63 105.5t-21.5 125q0 77 29 149t81.5 128t126 90t162.5 34q79 0 140.5 -27t102.5 -73t62.5 -105.5t21.5 -124.5q0 -77 -29 -149.5t-81.5 -128.5t-125.5 -90t-162 -34zM411 66q65 0 119.5 26.5t93.5 70.5t60.5 100t21.5 116
q0 50 -15.5 96t-46 81.5t-75.5 56.5t-103 21q-65 0 -119 -26.5t-93 -70t-61 -99.5t-22 -116q0 -50 15.5 -96t46 -81.5t75.5 -57t103 -21.5zM503 957l162 -153l-56 -56l-116 114l-138 -114l-45 56z" />
    <glyph glyph-name="Otilde" unicode="&#xd5;" horiz-adv-x="803" 
d="M404 -16q-80 0 -141 27.5t-102.5 73t-63 105.5t-21.5 125q0 77 29 149t81.5 128t126 90t162.5 34q79 0 140.5 -27t102.5 -73t62.5 -105.5t21.5 -124.5q0 -77 -29 -149.5t-81.5 -128.5t-125.5 -90t-162 -34zM411 66q65 0 119.5 26.5t93.5 70.5t60.5 100t21.5 116
q0 50 -15.5 96t-46 81.5t-75.5 56.5t-103 21q-65 0 -119 -26.5t-93 -70t-61 -99.5t-22 -116q0 -50 15.5 -96t46 -81.5t75.5 -57t103 -21.5zM564 862q20 0 37 13.5t30 35.5l60 -33q-29 -45 -64.5 -65t-70.5 -20q-24 0 -42 7.5t-32.5 17t-28 17t-29.5 7.5q-20 0 -35.5 -14
t-28.5 -35l-56 40q28 42 61.5 60t68.5 18q25 0 42.5 -7.5t32 -17t27.5 -17t28 -7.5z" />
    <glyph glyph-name="Odieresis" unicode="&#xd6;" horiz-adv-x="803" 
d="M404 -16q-80 0 -141 27.5t-102.5 73t-63 105.5t-21.5 125q0 77 29 149t81.5 128t126 90t162.5 34q79 0 140.5 -27t102.5 -73t62.5 -105.5t21.5 -124.5q0 -77 -29 -149.5t-81.5 -128.5t-125.5 -90t-162 -34zM171 322q0 -50 15.5 -96t46 -81.5t75.5 -57t103 -21.5
q65 0 119.5 26.5t93.5 70.5t60.5 100t21.5 116q0 50 -15.5 96t-46 81.5t-75.5 56.5t-103 21q-65 0 -119 -26.5t-93 -70t-61 -99.5t-22 -116zM369 774q-29 0 -46 18.5t-17 44.5q0 32 22.5 54.5t53.5 22.5q28 0 46 -19t18 -46q0 -31 -23 -53t-54 -22zM535 837q0 32 23 54.5
t54 22.5q28 0 45.5 -19t17.5 -46q0 -31 -23 -53t-54 -22q-28 0 -45.5 18.5t-17.5 44.5z" />
    <glyph glyph-name="multiply" unicode="&#xd7;" 
d="M447 459l56 -61l-129 -116l102 -113l-62 -54l-100 112l-127 -115l-55 61l126 115l-99 112l61 55l100 -112z" />
    <glyph glyph-name="Oslash" unicode="&#xd8;" horiz-adv-x="803" 
d="M400 -16q-32 0 -61 4.5t-54 13.5l-46 -86l-60 27l46 86q-36 21 -64 52t-47 68.5t-28.5 79.5t-9.5 86q0 77 29 149t81.5 128t127 90t164.5 34q29 0 55.5 -4t49.5 -12l43 80l59 -27l-42 -78q39 -21 68.5 -52t49.5 -69.5t30.5 -81.5t10.5 -88q0 -77 -29 -149t-81.5 -127.5
t-127 -89.5t-164.5 -34zM409 66q66 0 120.5 26.5t94 70t61 99t21.5 114.5q0 66 -27.5 125.5t-78.5 93.5l-274 -515q37 -14 83 -14zM171 323q0 -64 25 -121t73 -92l274 513q-35 11 -75 11q-66 0 -120.5 -26.5t-93.5 -70t-61 -99.5t-22 -115z" />
    <glyph glyph-name="Ugrave" unicode="&#xd9;" horiz-adv-x="629" 
d="M145 700h91l-50 -473q-3 -33 4.5 -62.5t25.5 -51.5t44.5 -34.5t60.5 -12.5t64 13t52.5 35t36.5 51t17 62l50 473h91l-50 -473q-5 -50 -27 -94t-57.5 -77t-83 -52.5t-102.5 -19.5q-56 0 -98.5 19.5t-70.5 52.5t-40.5 77t-7.5 94zM273 886l49 69l235 -137l-49 -69z" />
    <glyph glyph-name="Uacute" unicode="&#xda;" horiz-adv-x="629" 
d="M145 700h91l-50 -473q-3 -33 4.5 -62.5t25.5 -51.5t44.5 -34.5t60.5 -12.5t64 13t52.5 35t36.5 51t17 62l50 473h91l-50 -473q-5 -50 -27 -94t-57.5 -77t-83 -52.5t-102.5 -19.5q-56 0 -98.5 19.5t-70.5 52.5t-40.5 77t-7.5 94zM271 749l-34 69l263 137l34 -69z" />
    <glyph glyph-name="Ucircumflex" unicode="&#xdb;" horiz-adv-x="629" 
d="M145 700h91l-50 -473q-3 -33 4.5 -62.5t25.5 -51.5t44.5 -34.5t60.5 -12.5t64 13t52.5 35t36.5 51t17 62l50 473h91l-50 -473q-5 -50 -27 -94t-57.5 -77t-83 -52.5t-102.5 -19.5q-56 0 -98.5 19.5t-70.5 52.5t-40.5 77t-7.5 94zM412 958l162 -154l-56 -56l-115 115
l-139 -114l-45 55z" />
    <glyph glyph-name="Udieresis" unicode="&#xdc;" horiz-adv-x="629" 
d="M145 700h91l-50 -473q-3 -33 4.5 -62.5t25.5 -51.5t44.5 -34.5t60.5 -12.5t64 13t52.5 35t36.5 51t17 62l50 473h91l-50 -473q-5 -50 -27 -94t-57.5 -77t-83 -52.5t-102.5 -19.5q-56 0 -98.5 19.5t-70.5 52.5t-40.5 77t-7.5 94zM446 837q0 16 6.5 30t17 24.5t24.5 16.5
t29 6q28 0 46 -19t18 -46q0 -31 -23 -53t-54 -22q-29 0 -46.5 18.5t-17.5 44.5zM217 837q0 32 23 54.5t54 22.5q28 0 46 -19t18 -46q0 -31 -23.5 -53t-54.5 -22q-28 0 -45.5 18.5t-17.5 44.5z" />
    <glyph glyph-name="Yacute" unicode="&#xdd;" horiz-adv-x="591" 
d="M234 0h-100l170 278l-220 422h106l171 -327l199 327h100zM305 751l-33 69l263 137l34 -69z" />
    <glyph glyph-name="Thorn" unicode="&#xde;" horiz-adv-x="500" 
d="M152 700h82l-14 -132h78q51 0 90 -17t65.5 -45t40 -64.5t13.5 -76.5q0 -46 -18 -89.5t-51 -77.5t-80.5 -54.5t-106.5 -20.5h-78l-13 -123h-82zM212 495l-31 -299h78q38 0 68.5 14t52 36.5t33 52t11.5 60.5q0 27 -8.5 51.5t-25.5 43t-42 30t-58 11.5h-78z" />
    <glyph glyph-name="germandbls" unicode="&#xdf;" horiz-adv-x="562" 
d="M217 76q18 -5 40 -7.5t39 -2.5q30 0 58 9.5t49.5 27t35 43t13.5 57.5q0 22 -7.5 44.5t-23.5 39.5t-41 28t-60 11h-43l8 78h40q37 0 64.5 11t45.5 29t26.5 40.5t8.5 45.5q0 49 -33.5 77t-84.5 28q-59 0 -97.5 -36.5t-44.5 -95.5l-53 -503h-86l53 503q5 46 24.5 84.5
t50.5 66.5t71.5 43t88.5 15q42 0 78.5 -12t63 -34.5t41.5 -55t15 -73.5q0 -66 -37 -110.5t-98 -61.5q54 -17 86 -57t32 -103q0 -52 -22 -92.5t-57.5 -68t-81 -42t-91.5 -14.5q-26 0 -47 3.5t-32 8.5z" />
    <glyph glyph-name="agrave" unicode="&#xe0;" horiz-adv-x="597" 
d="M566 454l-47 -454h-86l8 79q-26 -40 -71 -65t-102 -25q-46 0 -84 17.5t-65 47t-41.5 68.5t-14.5 83q0 52 20 99.5t54.5 83.5t81 57t99.5 21q55 0 95 -23.5t59 -66.5l8 78h86zM288 67q37 0 68 14.5t53.5 38.5t35 56t12.5 67q0 30 -9.5 56t-27 46t-43 31.5t-58.5 11.5
q-37 0 -68.5 -14.5t-54 -39t-35 -56.5t-12.5 -67q0 -30 9.5 -56t27 -45.5t43.5 -31t59 -11.5zM199 640l49 68l235 -137l-50 -68z" />
    <glyph glyph-name="aacute" unicode="&#xe1;" horiz-adv-x="597" 
d="M566 454l-47 -454h-86l8 79q-26 -40 -71 -65t-102 -25q-46 0 -84 17.5t-65 47t-41.5 68.5t-14.5 83q0 52 20 99.5t54.5 83.5t81 57t99.5 21q55 0 95 -23.5t59 -66.5l8 78h86zM288 67q37 0 68 14.5t53.5 38.5t35 56t12.5 67q0 30 -9.5 56t-27 46t-43 31.5t-58.5 11.5
q-37 0 -68.5 -14.5t-54 -39t-35 -56.5t-12.5 -67q0 -30 9.5 -56t27 -45.5t43.5 -31t59 -11.5zM231 503l-34 68l263 137l35 -68z" />
    <glyph glyph-name="acircumflex" unicode="&#xe2;" horiz-adv-x="597" 
d="M566 454l-47 -454h-86l8 79q-26 -40 -71 -65t-102 -25q-46 0 -84 17.5t-65 47t-41.5 68.5t-14.5 83q0 52 20 99.5t54.5 83.5t81 57t99.5 21q55 0 95 -23.5t59 -66.5l8 78h86zM288 67q37 0 68 14.5t53.5 38.5t35 56t12.5 67q0 30 -9.5 56t-27 46t-43 31.5t-58.5 11.5
q-37 0 -68.5 -14.5t-54 -39t-35 -56.5t-12.5 -67q0 -30 9.5 -56t27 -45.5t43.5 -31t59 -11.5zM359 739l162 -154l-56 -56l-115 115l-139 -114l-45 55z" />
    <glyph glyph-name="atilde" unicode="&#xe3;" horiz-adv-x="597" 
d="M566 454l-47 -454h-86l8 79q-26 -40 -71 -65t-102 -25q-46 0 -84 17.5t-65 47t-41.5 68.5t-14.5 83q0 52 20 99.5t54.5 83.5t81 57t99.5 21q55 0 95 -23.5t59 -66.5l8 78h86zM288 67q37 0 68 14.5t53.5 38.5t35 56t12.5 67q0 30 -9.5 56t-27 46t-43 31.5t-58.5 11.5
q-37 0 -68.5 -14.5t-54 -39t-35 -56.5t-12.5 -67q0 -30 9.5 -56t27 -45.5t43.5 -31t59 -11.5zM434 640q20 0 36.5 14t29.5 35l61 -33q-30 -46 -65.5 -65t-69.5 -19q-25 0 -43 7.5t-32.5 17t-28 17t-28.5 7.5q-21 0 -36.5 -14.5t-28.5 -34.5l-56 40q28 42 62 59.5t68 17.5
q25 0 43 -7.5t32 -17t27 -17t29 -7.5z" />
    <glyph glyph-name="adieresis" unicode="&#xe4;" horiz-adv-x="597" 
d="M433 0l8 79q-26 -40 -71 -65t-102 -25q-46 0 -84 17.5t-65 47t-41.5 68.5t-14.5 83q0 52 20 99.5t54.5 83.5t81 57t99.5 21q55 0 95 -23.5t59 -66.5l8 78h86l-47 -454h-86zM288 67q37 0 68 14.5t53.5 38.5t35 56t12.5 67q0 30 -9.5 56t-27 46t-43 31.5t-58.5 11.5
q-37 0 -68.5 -14.5t-54 -39t-35 -56.5t-12.5 -67q0 -30 9.5 -56t27 -45.5t43.5 -31t59 -11.5zM449 540q-28 0 -45.5 18.5t-17.5 45.5q0 16 6.5 29.5t17 24t24.5 16.5t29 6q28 0 46 -18.5t18 -45.5q0 -32 -23.5 -54t-54.5 -22zM156 604q0 32 23 54t54 22q28 0 46 -18.5
t18 -45.5q0 -32 -23 -54t-54 -22q-28 0 -46 18.5t-18 45.5z" />
    <glyph glyph-name="aring" unicode="&#xe5;" horiz-adv-x="597" 
d="M566 454l-47 -454h-86l8 79q-26 -40 -71 -65t-102 -25q-46 0 -84 17.5t-65 47t-41.5 68.5t-14.5 83q0 52 20 99.5t54.5 83.5t81 57t99.5 21q55 0 95 -23.5t59 -66.5l8 78h86zM288 67q37 0 68 14.5t53.5 38.5t35 56t12.5 67q0 30 -9.5 56t-27 46t-43 31.5t-58.5 11.5
q-37 0 -68.5 -14.5t-54 -39t-35 -56.5t-12.5 -67q0 -30 9.5 -56t27 -45.5t43.5 -31t59 -11.5zM356 758q25 0 46.5 -9.5t37.5 -25t24.5 -36.5t8.5 -45q0 -28 -11.5 -53t-31 -44t-45 -30t-53.5 -11q-25 0 -46.5 9t-37 25t-24 37.5t-8.5 45.5q0 28 11.5 53t31 43.5t45 29.5
t52.5 11zM352 705q-16 0 -30.5 -6.5t-25.5 -17.5t-17.5 -25.5t-6.5 -30.5q0 -27 18 -46.5t47 -19.5q16 0 30 6.5t25 17.5t17.5 25.5t6.5 30.5q0 27 -17.5 46.5t-46.5 19.5z" />
    <glyph glyph-name="ae" unicode="&#xe6;" horiz-adv-x="914" 
d="M566 454l-4 -40q27 24 63.5 38t78.5 14t77 -14t60.5 -39t39.5 -60.5t14 -77.5q0 -19 -3 -35.5t-8 -35.5h-342q-3 -29 2.5 -55t20 -45.5t39 -30.5t60.5 -11q52 0 81 21.5t43 50.5h88q-8 -27 -27 -53.5t-47 -46.5t-64.5 -32.5t-79.5 -12.5q-47 0 -80 14.5t-55 37.5l-4 -41
h-86l8 79q-26 -40 -71 -65t-102 -25q-46 0 -84 17.5t-65 47t-41.5 68.5t-14.5 83q0 52 20 99.5t54.5 83.5t81 57t99.5 21q55 0 95 -23.5t59 -66.5l8 78h86zM694 392q-27 0 -51.5 -8t-44 -23.5t-32 -38.5t-16.5 -52h260q6 55 -26.5 88.5t-89.5 33.5zM288 67q37 0 68 14.5
t53.5 38.5t35 56t12.5 67q0 30 -9.5 56.5t-27.5 46t-43.5 31t-57.5 11.5q-37 0 -68.5 -14.5t-54 -39t-35 -56.5t-12.5 -67q0 -30 9.5 -56t27 -45.5t43.5 -31t59 -11.5z" />
    <glyph glyph-name="ccedilla" unicode="&#xe7;" horiz-adv-x="529" 
d="M220 -7q-39 8 -68 28t-48.5 48t-29 62.5t-9.5 71.5q0 49 17 96.5t49.5 84.5t80.5 59.5t111 22.5q51 0 87.5 -15t59.5 -40t34 -56.5t10 -65.5h-87q0 19 -6 37t-19.5 32t-34.5 22t-51 8q-41 0 -72 -15t-51.5 -40.5t-30.5 -58t-10 -66.5q0 -29 7.5 -54.5t23.5 -45
t41.5 -30.5t61.5 -11q54 0 83.5 24t44.5 65h87q-14 -44 -33.5 -73.5t-41.5 -47.5t-44.5 -26.5t-42 -12t-34.5 -4t-21 -1.5q-4 -1 -4 -1.5t-2 0.5l-6 -56q8 8 21 13t28 5q29 0 49 -19t20 -53q0 -20 -7.5 -37.5t-21.5 -31.5t-33 -22t-42 -8q-11 0 -26.5 3t-30 11t-25.5 23.5
t-12 41.5h53q6 -32 41 -32q23 0 36.5 13.5t13.5 33.5q0 17 -10.5 28t-28.5 11q-11 0 -22.5 -5t-19.5 -18h-46z" />
    <glyph glyph-name="egrave" unicode="&#xe8;" horiz-adv-x="525" 
d="M150 204q-2 -27 3.5 -52.5t20 -45.5t39.5 -32t63 -12q53 0 81 21.5t42 50.5h88q-9 -29 -28 -55t-47 -46t-65 -32t-81 -12q-51 0 -89 16.5t-63 45t-37 67t-12 83.5q0 55 17.5 103.5t50 84.5t77.5 56.5t100 20.5q45 0 81 -14t61.5 -39.5t39.5 -60t14 -75.5
q0 -21 -3.5 -37.5t-8.5 -35.5h-344zM304 399q-28 0 -52.5 -8.5t-44 -25t-32.5 -40.5t-17 -55h263q7 60 -26 94.5t-91 34.5zM207 640l48 68l235 -137l-48 -68z" />
    <glyph glyph-name="eacute" unicode="&#xe9;" horiz-adv-x="525" 
d="M150 204q-2 -27 3.5 -52.5t20 -45.5t39.5 -32t63 -12q53 0 81 21.5t42 50.5h88q-9 -29 -28 -55t-47 -46t-65 -32t-81 -12q-51 0 -89 16.5t-63 45t-37 67t-12 83.5q0 55 17.5 103.5t50 84.5t77.5 56.5t100 20.5q45 0 81 -14t61.5 -39.5t39.5 -60t14 -75.5
q0 -21 -3.5 -37.5t-8.5 -35.5h-344zM304 399q-28 0 -52.5 -8.5t-44 -25t-32.5 -40.5t-17 -55h263q7 60 -26 94.5t-91 34.5zM207 503l-34 68l263 137l34 -68z" />
    <glyph glyph-name="ecircumflex" unicode="&#xea;" horiz-adv-x="525" 
d="M150 204q-2 -27 3.5 -52.5t20 -45.5t39.5 -32t63 -12q53 0 81 21.5t42 50.5h88q-9 -29 -28 -55t-47 -46t-65 -32t-81 -12q-51 0 -89 16.5t-63 45t-37 67t-12 83.5q0 55 17.5 103.5t50 84.5t77.5 56.5t100 20.5q45 0 81 -14t61.5 -39.5t39.5 -60t14 -75.5
q0 -21 -3.5 -37.5t-8.5 -35.5h-344zM304 399q-28 0 -52.5 -8.5t-44 -25t-32.5 -40.5t-17 -55h263q7 60 -26 94.5t-91 34.5zM344 739l161 -154l-55 -56l-115 115l-139 -114l-46 55z" />
    <glyph glyph-name="edieresis" unicode="&#xeb;" horiz-adv-x="525" 
d="M150 204q-2 -27 3.5 -52.5t20 -45.5t39.5 -32t63 -12q53 0 81 21.5t42 50.5h88q-9 -29 -28 -55t-47 -46t-65 -32t-81 -12q-51 0 -89 16.5t-63 45t-37 67t-12 83.5q0 55 17.5 103.5t50 84.5t77.5 56.5t100 20.5q45 0 81 -14t61.5 -39.5t39.5 -60t14 -75.5
q0 -21 -3.5 -37.5t-8.5 -35.5h-344zM304 399q-28 0 -52.5 -8.5t-44 -25t-32.5 -40.5t-17 -55h263q7 60 -26 94.5t-91 34.5zM374 604q0 32 23 54t54 22q28 0 45.5 -18.5t17.5 -45.5q0 -32 -23 -54t-54 -22q-28 0 -45.5 18.5t-17.5 45.5zM145 603q0 32 23 54.5t53 22.5
q28 0 46 -19t18 -45q0 -32 -23.5 -54t-54.5 -22q-27 0 -44.5 18t-17.5 45z" />
    <glyph glyph-name="igrave" unicode="&#xec;" horiz-adv-x="243" 
d="M126 454h87l-48 -454h-87zM45 655l49 68l235 -137l-49 -68z" />
    <glyph glyph-name="iacute" unicode="&#xed;" horiz-adv-x="243" 
d="M126 454h87l-48 -454h-87zM73 518l-35 68l264 137l34 -68z" />
    <glyph glyph-name="icircumflex" unicode="&#xee;" horiz-adv-x="243" 
d="M125 454h87l-47 -454h-87zM198 739l162 -154l-56 -56l-115 115l-139 -114l-45 55z" />
    <glyph glyph-name="idieresis" unicode="&#xef;" horiz-adv-x="243" 
d="M126 454h87l-48 -454h-87zM224 604q0 32 23 54t54 22q28 0 46 -18.5t18 -45.5q0 -32 -23.5 -54t-54.5 -22q-28 0 -45.5 18.5t-17.5 45.5zM24 604q0 32 22.5 54t53.5 22q28 0 46.5 -18.5t18.5 -45.5q0 -32 -23 -54t-54 -22q-28 0 -46 18.5t-18 45.5z" />
    <glyph glyph-name="eth" unicode="&#xf0;" horiz-adv-x="565" 
d="M283 -11q-51 0 -91.5 17.5t-68.5 46.5t-42.5 68t-14.5 83q0 52 20 99.5t55 83.5t82 57.5t101 21.5q35 0 44 -12l-44 87l-116 -61l-24 53l113 58l-56 109h105l32 -66l90 47l24 -52l-87 -46l108 -208q15 -29 24.5 -61t9.5 -68q0 -51 -20 -97.5t-55 -82t-83.5 -56.5
t-105.5 -21zM291 67q37 0 68 14.5t53.5 38.5t35 56t12.5 67q0 30 -9 56t-27 46t-43.5 31.5t-58.5 11.5q-37 0 -68 -14.5t-53.5 -39t-35.5 -56.5t-13 -67q0 -30 9.5 -56t27 -45.5t43.5 -31t59 -11.5z" />
    <glyph glyph-name="ntilde" unicode="&#xf1;" horiz-adv-x="565" 
d="M126 454h87l-9 -80q25 42 68.5 67t103.5 25q42 0 75 -14t53 -46q17 -27 21 -60.5t-1 -77.5l-28 -268h-87l25 241q3 31 0 58.5t-14.5 47t-32 31t-51.5 11.5q-35 0 -61 -13.5t-44 -35t-28 -49.5t-13 -57l-25 -234h-87zM425 640q20 0 37 14t29 35l61 -33q-29 -46 -65 -65
t-70 -19q-25 0 -43 7.5t-32.5 17t-28 17t-28.5 7.5q-21 0 -36.5 -14.5t-28.5 -34.5l-56 40q28 42 62 59.5t68 17.5q25 0 43 -7.5t32 -17t27 -17t29 -7.5z" />
    <glyph glyph-name="ograve" unicode="&#xf2;" horiz-adv-x="560" 
d="M279 -11q-51 0 -91.5 17.5t-68 47t-42 68.5t-14.5 83q0 52 19.5 99t55 83t84 57.5t105.5 21.5q51 0 91.5 -17t68 -46.5t42.5 -69t15 -83.5q0 -52 -20 -99.5t-55 -83.5t-84 -57t-106 -21zM288 67q37 0 68 14.5t53.5 38.5t35 56t12.5 67q0 30 -9.5 56t-27 46t-43 31.5
t-58.5 11.5q-37 0 -68.5 -14.5t-54 -39t-35 -56.5t-12.5 -67q0 -30 9.5 -56t27 -45.5t43.5 -31t59 -11.5zM209 640l48 68l235 -137l-49 -68z" />
    <glyph glyph-name="oacute" unicode="&#xf3;" horiz-adv-x="560" 
d="M279 -11q-51 0 -91.5 17.5t-68 47t-42 68.5t-14.5 83q0 52 19.5 99t55 83t84 57.5t105.5 21.5q51 0 91.5 -17t68 -46.5t42.5 -69t15 -83.5q0 -52 -20 -99.5t-55 -83.5t-84 -57t-106 -21zM288 67q37 0 68 14.5t53.5 38.5t35 56t12.5 67q0 30 -9.5 56t-27 46t-43 31.5
t-58.5 11.5q-37 0 -68.5 -14.5t-54 -39t-35 -56.5t-12.5 -67q0 -30 9.5 -56t27 -45.5t43.5 -31t59 -11.5zM206 503l-33 68l263 137l34 -68z" />
    <glyph glyph-name="ocircumflex" unicode="&#xf4;" horiz-adv-x="560" 
d="M279 -11q-51 0 -91.5 17.5t-68 47t-42 68.5t-14.5 83q0 52 19.5 99t55 83t84 57.5t105.5 21.5q51 0 91.5 -17t68 -46.5t42.5 -69t15 -83.5q0 -52 -20 -99.5t-55 -83.5t-84 -57t-106 -21zM288 67q37 0 68 14.5t53.5 38.5t35 56t12.5 67q0 30 -9.5 56t-27 46t-43 31.5
t-58.5 11.5q-37 0 -68.5 -14.5t-54 -39t-35 -56.5t-12.5 -67q0 -30 9.5 -56t27 -45.5t43.5 -31t59 -11.5zM355 739l163 -153l-57 -57l-115 115l-138 -114l-45 56z" />
    <glyph glyph-name="otilde" unicode="&#xf5;" horiz-adv-x="560" 
d="M279 -11q-51 0 -91.5 17.5t-68 47t-42 68.5t-14.5 83q0 52 19.5 99t55 83t84 57.5t105.5 21.5q51 0 91.5 -17t68 -46.5t42.5 -69t15 -83.5q0 -52 -20 -99.5t-55 -83.5t-84 -57t-106 -21zM288 67q37 0 68 14.5t53.5 38.5t35 56t12.5 67q0 30 -9.5 56t-27 46t-43 31.5
t-58.5 11.5q-37 0 -68.5 -14.5t-54 -39t-35 -56.5t-12.5 -67q0 -30 9.5 -56t27 -45.5t43.5 -31t59 -11.5zM413 640q20 0 36.5 14t29.5 35l61 -33q-30 -46 -65.5 -65t-69.5 -19q-25 0 -43 7.5t-32.5 17t-28 17t-28.5 7.5q-21 0 -36.5 -14.5t-28.5 -34.5l-56 40q28 42 62 59.5
t68 17.5q25 0 43 -7.5t32 -17t27 -17t29 -7.5z" />
    <glyph glyph-name="odieresis" unicode="&#xf6;" horiz-adv-x="560" 
d="M222 540q-28 0 -46 18.5t-18 45.5q0 32 23 54t54 22q28 0 46 -18.5t18 -45.5q0 -32 -23 -54t-54 -22zM388 604q0 16 6.5 29.5t17 24t24.5 16.5t29 6q28 0 46 -18.5t18 -45.5q0 -16 -6.5 -29.5t-17.5 -24t-25 -16.5t-29 -6q-28 0 -45.5 19t-17.5 45zM279 -11
q-51 0 -91.5 17.5t-68 47t-42 68.5t-14.5 83q0 52 19.5 99t55 83t84 57.5t105.5 21.5q51 0 91.5 -17t68 -46.5t42.5 -69t15 -83.5q0 -52 -20 -99.5t-55 -83.5t-84 -57t-106 -21zM288 67q37 0 68 14.5t53.5 38.5t35 56t12.5 67q0 30 -9.5 56t-27 46t-43 31.5t-58.5 11.5
q-37 0 -68.5 -14.5t-54 -39t-35 -56.5t-12.5 -67q0 -30 9.5 -56t27 -45.5t43.5 -31t59 -11.5z" />
    <glyph glyph-name="divide" unicode="&#xf7;" 
d="M107 196l8 77h404l-8 -77h-404zM259 387q0 32 23 54t54 22q28 0 46 -18.5t18 -45.5q0 -32 -23 -54t-54 -22q-28 0 -46 18.5t-18 45.5zM227 77q0 15 6.5 29t17 25t24.5 17.5t29 6.5q28 0 46 -20.5t18 -45.5q0 -15 -6.5 -28t-17 -23.5t-24.5 -16.5t-29 -6q-28 0 -46 18.5
t-18 43.5z" />
    <glyph glyph-name="oslash" unicode="&#xf8;" horiz-adv-x="560" 
d="M442 438q49 -28 75.5 -78.5t26.5 -110.5q0 -52 -19.5 -99t-55 -83t-85 -57t-108.5 -21q-19 0 -36.5 2.5t-33.5 8.5l-40 -75l-52 22l40 76q-44 28 -67.5 76.5t-23.5 105.5q0 52 19.5 99t54.5 83t83 57.5t104 21.5q20 0 35 -2.5t30 -5.5l38 71l52 -22zM284 67q39 0 71 14.5
t54.5 38.5t35 55.5t12.5 66.5q0 37 -14.5 68.5t-41.5 51.5l-156 -290q10 -3 20 -4t19 -1zM149 212q0 -34 12 -63.5t34 -49.5l154 285q-11 2 -17.5 3t-14.5 1q-36 0 -67 -14.5t-53.5 -38.5t-35 -56t-12.5 -67z" />
    <glyph glyph-name="ugrave" unicode="&#xf9;" horiz-adv-x="565" 
d="M487 0h-87l9 81q-25 -42 -68.5 -67t-103.5 -25q-43 0 -76 14.5t-53 44.5q-15 23 -19.5 56t0.5 82l28 268h87l-25 -240q-3 -32 0 -59t14.5 -47t31.5 -31t51 -11q34 0 60 13t44.5 34.5t29 49.5t13.5 58l24 233h88zM205 640l49 68l235 -137l-49 -68z" />
    <glyph glyph-name="uacute" unicode="&#xfa;" horiz-adv-x="565" 
d="M487 0h-87l9 81q-25 -42 -68.5 -67t-103.5 -25q-43 0 -76 14.5t-53 44.5q-15 23 -19.5 56t0.5 82l28 268h87l-25 -240q-3 -32 0 -59t14.5 -47t31.5 -31t51 -11q34 0 60 13t44.5 34.5t29 49.5t13.5 58l24 233h88zM228 503l-34 68l263 137l34 -68z" />
    <glyph glyph-name="ucircumflex" unicode="&#xfb;" horiz-adv-x="565" 
d="M487 0h-87l9 81q-25 -42 -68.5 -67t-103.5 -25q-43 0 -76 14.5t-53 44.5q-15 23 -19.5 56t0.5 82l28 268h87l-25 -240q-3 -32 0 -59t14.5 -47t31.5 -31t51 -11q34 0 60 13t44.5 34.5t29 49.5t13.5 58l24 233h88zM362 739l162 -154l-56 -56l-115 115l-139 -114l-45 55z
" />
    <glyph glyph-name="udieresis" unicode="&#xfc;" horiz-adv-x="565" 
d="M487 0h-87l9 81q-25 -42 -68.5 -67t-103.5 -25q-43 0 -76 14.5t-53 44.5q-15 23 -19.5 56t0.5 82l28 268h87l-25 -240q-3 -32 0 -59t14.5 -47t31.5 -31t51 -11q34 0 60 13t44.5 34.5t29 49.5t13.5 58l24 233h88zM388 604q0 32 23 54t54 22q27 0 45.5 -18.5t18.5 -45.5
q0 -32 -24 -54t-55 -22q-27 0 -44.5 18.5t-17.5 45.5zM158 604q0 32 23 54t54 22q28 0 46 -18.5t18 -45.5q0 -32 -23 -54t-54 -22q-28 0 -46 18.5t-18 45.5z" />
    <glyph glyph-name="yacute" unicode="&#xfd;" horiz-adv-x="573" 
d="M259 -256q-106 0 -154.5 51t-40.5 146h88q-2 -60 25.5 -91.5t91.5 -31.5q27 0 50 6.5t41 22t30 41.5t16 65l13 128q-25 -42 -67.5 -67t-103.5 -25q-49 0 -80.5 16t-48.5 42t-20.5 59.5t1.5 82.5l28 265h87l-25 -238q-3 -33 -0.5 -60.5t13.5 -47.5t31.5 -31t52.5 -11
q35 0 61.5 13t44.5 35t28 50t13 57l24 233h88l-53 -501q-11 -109 -72 -159t-162 -50zM239 503l-35 68l263 137l35 -68z" />
    <glyph glyph-name="thorn" unicode="&#xfe;" horiz-adv-x="594" 
d="M52 -246l99 946h87l-34 -324q29 44 74 67t98 23q46 0 84 -17t65 -46.5t42 -69t15 -84.5q0 -52 -20 -99t-54.5 -83t-80.5 -57t-99 -21q-56 0 -96 23.5t-59 66.5l-34 -325h-87zM326 67q37 0 68 14.5t53.5 38.5t35 56t12.5 67q0 30 -9 56t-26.5 46t-43 31.5t-58.5 11.5
q-37 0 -68 -14.5t-53.5 -39t-35.5 -56.5t-13 -67q0 -30 9.5 -56t27 -45.5t43 -31t58.5 -11.5z" />
    <glyph glyph-name="ydieresis" unicode="&#xff;" horiz-adv-x="573" 
d="M259 -256q-106 0 -154.5 51t-40.5 146h88q-2 -60 25.5 -91.5t91.5 -31.5q27 0 50 6.5t41 22t30 41.5t16 65l13 128q-25 -42 -67.5 -67t-103.5 -25q-49 0 -80.5 16t-48.5 42t-20.5 59.5t1.5 82.5l28 265h87l-25 -238q-3 -33 -0.5 -60.5t13.5 -47.5t31.5 -31t52.5 -11
q35 0 61.5 13t44.5 35t28 50t13 57l24 233h88l-53 -501q-11 -109 -72 -159t-162 -50zM408 603q0 31 22 52.5t51 21.5q27 0 44 -18t17 -44q0 -30 -22 -51t-52 -21q-27 0 -43.5 17t-16.5 43zM178 603q0 15 6 28.5t16.5 23.5t23.5 16t28 6q26 0 43 -18t17 -44q0 -30 -22.5 -51
t-51.5 -21q-26 0 -43 17t-17 43z" />
    <glyph glyph-name="Amacron" unicode="&#x100;" horiz-adv-x="559" 
d="M554 0h-96l-26 107h-284l-47 -107h-96l315 700h66zM185 190h228l-75 361zM542 802h-358l8 77h358z" />
    <glyph glyph-name="amacron" unicode="&#x101;" horiz-adv-x="597" 
d="M566 454l-47 -454h-86l8 79q-26 -40 -71 -65t-102 -25q-46 0 -84 17.5t-65 47t-41.5 68.5t-14.5 83q0 52 20 99.5t54.5 83.5t81 57t99.5 21q55 0 95 -23.5t59 -66.5l8 78h86zM288 67q37 0 68 14.5t53.5 38.5t35 56t12.5 67q0 30 -9.5 56t-27 46t-43 31.5t-58.5 11.5
q-37 0 -68.5 -14.5t-54 -39t-35 -56.5t-12.5 -67q0 -30 9.5 -56t27 -45.5t43.5 -31t59 -11.5zM513 571h-358l8 78h358z" />
    <glyph glyph-name="Abreve" unicode="&#x102;" horiz-adv-x="559" 
d="M554 0h-96l-26 107h-284l-47 -107h-96l315 700h66zM185 190h228l-75 361zM369 843q44 0 75 22t45 61h81q-9 -33 -29 -60.5t-48 -47.5t-62 -31.5t-71 -11.5t-68.5 11.5t-55 31.5t-37.5 47.5t-16 60.5h82q7 -39 33.5 -61t70.5 -22z" />
    <glyph glyph-name="abreve" unicode="&#x103;" horiz-adv-x="597" 
d="M566 454l-47 -454h-86l8 79q-26 -40 -71 -65t-102 -25q-46 0 -84 17.5t-65 47t-41.5 68.5t-14.5 83q0 52 20 99.5t54.5 83.5t81 57t99.5 21q55 0 95 -23.5t59 -66.5l8 78h86zM288 67q37 0 68 14.5t53.5 38.5t35 56t12.5 67q0 30 -9.5 56t-27 46t-43 31.5t-58.5 11.5
q-37 0 -68.5 -14.5t-54 -39t-35 -56.5t-12.5 -67q0 -30 9.5 -56t27 -45.5t43.5 -31t59 -11.5zM342 617q42 0 73 22.5t45 60.5h82q-9 -33 -29.5 -61t-48 -48t-61 -31t-69.5 -11q-37 0 -68 11.5t-53.5 31.5t-36.5 47.5t-16 60.5h81q7 -38 32.5 -60.5t68.5 -22.5z" />
    <glyph glyph-name="Aogonek" unicode="&#x104;" horiz-adv-x="559" 
d="M185 190h228l-75 361zM543 -198q-16 -5 -39 -9.5t-46 -4.5q-54 0 -79.5 24.5t-25.5 61.5q0 38 27 68.5t78 57.5l-26 107h-284l-47 -107h-96l315 700h66l168 -700h-34q-33 -17 -57 -39t-24 -55q0 -22 13 -37t40 -15q11 0 27.5 3t31.5 8z" />
    <glyph glyph-name="aogonek" unicode="&#x105;" horiz-adv-x="597" 
d="M519 0h-21q-36 -18 -62.5 -42t-26.5 -57q0 -20 12 -33.5t37 -13.5q11 0 28 3t31 8l-7 -63q-16 -5 -39.5 -9.5t-46.5 -4.5q-54 0 -81 25t-27 62t28 67t89 62l8 75q-26 -40 -71 -65t-102 -25q-46 0 -84 17.5t-65 47t-41.5 68.5t-14.5 83q0 52 20 99.5t54.5 83.5t81 57
t99.5 21q55 0 95 -23.5t59 -66.5l8 78h86zM288 67q37 0 68 14.5t53.5 38.5t35 56t12.5 67q0 30 -9.5 56t-27 46t-43 31.5t-58.5 11.5q-37 0 -68.5 -14.5t-54 -39t-35 -56.5t-12.5 -67q0 -30 9.5 -56t27 -45.5t43.5 -31t59 -11.5z" />
    <glyph glyph-name="Cacute" unicode="&#x106;" horiz-adv-x="775" 
d="M759 216q-18 -49 -52 -91.5t-79.5 -73.5t-102 -49t-120.5 -18q-78 0 -139.5 26.5t-103.5 72t-64 106t-22 127.5q0 77 28 149t80.5 128t127 89.5t166.5 33.5q70 0 125.5 -20t94.5 -55t61 -82.5t25 -103.5h-96q-4 38 -19.5 71t-43 57t-65.5 37.5t-87 13.5
q-69 0 -125.5 -26.5t-96 -70t-61 -99.5t-21.5 -115q0 -53 17 -99.5t49.5 -81.5t78.5 -55.5t103 -20.5q42 0 80 11.5t69 31.5t54.5 47.5t38.5 59.5h100zM368 749l-35 69l264 137l35 -69z" />
    <glyph glyph-name="cacute" unicode="&#x107;" horiz-adv-x="529" 
d="M427 289q0 19 -6 37t-19.5 32t-34.5 22t-51 8q-41 0 -72 -15t-51.5 -40.5t-30.5 -58t-10 -66.5q0 -29 7.5 -54.5t23.5 -45t41.5 -30.5t61.5 -11q54 0 83.5 24t44.5 65h87q-9 -36 -28.5 -67t-49 -53t-67 -34.5t-82.5 -12.5q-54 0 -93.5 17.5t-65 47t-38 68t-12.5 80.5
q0 50 17 97.5t49.5 84.5t80.5 59.5t111 22.5q51 0 87.5 -15t60 -40t34 -57t9.5 -65h-87zM216 503l-35 68l263 137l35 -68z" />
    <glyph glyph-name="Ccircumflex" unicode="&#x108;" horiz-adv-x="775" 
d="M759 216q-18 -49 -52 -91.5t-79.5 -73.5t-102 -49t-120.5 -18q-78 0 -139.5 26.5t-103.5 72t-64 106t-22 127.5q0 77 28 149t80.5 128t127 89.5t166.5 33.5q70 0 125.5 -20t94.5 -55t61 -82.5t25 -103.5h-96q-4 38 -19.5 71t-43 57t-65.5 37.5t-87 13.5
q-69 0 -125.5 -26.5t-96 -70t-61 -99.5t-21.5 -115q0 -53 17 -99.5t49.5 -81.5t78.5 -55.5t103 -20.5q42 0 80 11.5t69 31.5t54.5 47.5t38.5 59.5h100zM498 957l162 -153l-56 -56l-116 114l-138 -114l-45 56z" />
    <glyph glyph-name="ccircumflex" unicode="&#x109;" horiz-adv-x="529" 
d="M427 289q0 19 -6 37t-19.5 32t-34.5 22t-51 8q-41 0 -72 -15t-51.5 -40.5t-30.5 -58t-10 -66.5q0 -29 7.5 -54.5t23.5 -45t41.5 -30.5t61.5 -11q54 0 83.5 24t44.5 65h87q-9 -36 -28.5 -67t-49 -53t-67 -34.5t-82.5 -12.5q-54 0 -93.5 17.5t-65 47t-38 68t-12.5 80.5
q0 50 17 97.5t49.5 84.5t80.5 59.5t111 22.5q51 0 87.5 -15t60 -40t34 -57t9.5 -65h-87zM351 739l162 -154l-56 -56l-115 115l-138 -114l-46 55z" />
    <glyph glyph-name="Cdotaccent" unicode="&#x10a;" horiz-adv-x="775" 
d="M759 216q-18 -49 -52 -91.5t-79.5 -73.5t-102 -49t-120.5 -18q-78 0 -139.5 26.5t-103.5 72t-64 106t-22 127.5q0 77 28 149t80.5 128t127 89.5t166.5 33.5q70 0 125.5 -20t94.5 -55t61 -82.5t25 -103.5h-96q-4 38 -19.5 71t-43 57t-65.5 37.5t-87 13.5
q-69 0 -125.5 -26.5t-96 -70t-61 -99.5t-21.5 -115q0 -53 17 -99.5t49.5 -81.5t78.5 -55.5t103 -20.5q42 0 80 11.5t69 31.5t54.5 47.5t38.5 59.5h100zM415 844q0 32 23 54.5t54 22.5q27 0 45.5 -18.5t18.5 -45.5q0 -32 -23.5 -54t-54.5 -22q-28 0 -45.5 18.5t-17.5 44.5z
" />
    <glyph glyph-name="cdotaccent" unicode="&#x10b;" horiz-adv-x="529" 
d="M427 289q0 19 -6 37t-19.5 32t-34.5 22t-51 8q-41 0 -72 -15t-51.5 -40.5t-30.5 -58t-10 -66.5q0 -29 7.5 -54.5t23.5 -45t41.5 -30.5t61.5 -11q54 0 83.5 24t44.5 65h87q-9 -36 -28.5 -67t-49 -53t-67 -34.5t-82.5 -12.5q-54 0 -93.5 17.5t-65 47t-38 68t-12.5 80.5
q0 50 17 97.5t49.5 84.5t80.5 59.5t111 22.5q51 0 87.5 -15t60 -40t34 -57t9.5 -65h-87zM264 603q0 32 23 54t55 22q28 0 45.5 -18.5t17.5 -45.5q0 -32 -23 -54t-54 -22q-28 0 -46 18.5t-18 45.5z" />
    <glyph glyph-name="Ccaron" unicode="&#x10c;" horiz-adv-x="775" 
d="M759 216q-18 -49 -52 -91.5t-79.5 -73.5t-102 -49t-120.5 -18q-78 0 -139.5 26.5t-103.5 72t-64 106t-22 127.5q0 77 28 149t80.5 128t127 89.5t166.5 33.5q70 0 125.5 -20t94.5 -55t61 -82.5t25 -103.5h-96q-4 38 -19.5 71t-43 57t-65.5 37.5t-87 13.5
q-69 0 -125.5 -26.5t-96 -70t-61 -99.5t-21.5 -115q0 -53 17 -99.5t49.5 -81.5t78.5 -55.5t103 -20.5q42 0 80 11.5t69 31.5t54.5 47.5t38.5 59.5h100zM309 901l58 56l111 -114l137 114l44 -56l-192 -153z" />
    <glyph glyph-name="ccaron" unicode="&#x10d;" horiz-adv-x="529" 
d="M427 289q0 19 -6 37t-19.5 32t-34.5 22t-51 8q-41 0 -72 -15t-51.5 -40.5t-30.5 -58t-10 -66.5q0 -29 7.5 -54.5t23.5 -45t41.5 -30.5t61.5 -11q54 0 83.5 24t44.5 65h87q-9 -36 -28.5 -67t-49 -53t-67 -34.5t-82.5 -12.5q-54 0 -93.5 17.5t-65 47t-38 68t-12.5 80.5
q0 50 17 97.5t49.5 84.5t80.5 59.5t111 22.5q51 0 87.5 -15t60 -40t34 -57t9.5 -65h-87zM168 679l57 55l112 -113l136 114l45 -56l-192 -154z" />
    <glyph glyph-name="Dcaron" unicode="&#x10e;" horiz-adv-x="697" 
d="M368 700q81 0 142 -27t102.5 -71t62.5 -101.5t21 -118.5q0 -71 -28 -139.5t-80 -122.5t-126.5 -87t-167.5 -33h-216l74 700h216zM234 618l-56 -536h125q69 0 124 25.5t94 66.5t59.5 94t20.5 107q0 47 -15.5 91t-46 77.5t-75.5 54t-105 20.5h-125zM250 901l58 56l111 -114
l137 114l44 -56l-192 -153z" />
    <glyph glyph-name="dcaron" unicode="&#x10f;" horiz-adv-x="722" 
d="M288 67q37 0 68 14.5t53.5 38.5t35 56t12.5 67q0 30 -9.5 56t-27 46t-43 31.5t-58.5 11.5q-37 0 -68.5 -14.5t-54 -39t-35 -56.5t-12.5 -67q0 -30 9.5 -56t27 -45.5t43.5 -31t59 -11.5zM506 700h86l-73 -700h-86l8 79q-26 -40 -71 -65t-102 -25q-46 0 -84 17.5t-65 47
t-41.5 68.5t-14.5 83q0 52 20 99.5t54.5 83.5t81 57t99.5 21q55 0 95 -23.5t59 -66.5zM642 654q0 31 22 52.5t55 21.5q32 0 51 -23t19 -71q0 -73 -43.5 -110t-116.5 -37l4 42q53 0 72 30q11 12 14.5 22.5t5.5 19.5q-7 -7 -26 -7q-25 0 -41 17t-16 43z" />
    <glyph glyph-name="Dcroat" unicode="&#x110;" horiz-adv-x="697" 
d="M368 700q81 0 142 -27t102.5 -71t62.5 -101.5t21 -118.5q0 -71 -28 -139.5t-80 -122.5t-126.5 -87t-167.5 -33h-216l33 313h-132l8 78h132l33 309h216zM338 313h-136l-24 -231h125q69 0 124 25.5t94 66.5t59.5 94t20.5 107q0 47 -15.5 91t-46 77.5t-75.5 54t-105 20.5
h-125l-24 -227h136z" />
    <glyph glyph-name="dcroat" unicode="&#x111;" horiz-adv-x="597" 
d="M627 536h-52l-56 -536h-86l8 79q-26 -40 -71 -65t-102 -25q-46 0 -84 17.5t-65 47t-41.5 68.5t-14.5 83q0 52 20 99.5t54.5 83.5t81 57t99.5 21q55 0 95 -23.5t59 -66.5l17 160h-114l6 59h114l11 105h86l-11 -105h52zM288 67q37 0 68 14.5t53.5 38.5t35 56t12.5 67
q0 30 -9.5 56t-27 46t-43 31.5t-58.5 11.5q-37 0 -68.5 -14.5t-54 -39t-35 -56.5t-12.5 -67q0 -30 9.5 -56t27 -45.5t43.5 -31t59 -11.5z" />
    <glyph glyph-name="Emacron" unicode="&#x112;" horiz-adv-x="544" 
d="M234 618l-24 -229h302l-9 -82h-302l-23 -225h302l-9 -82h-393l74 700h393l-9 -82h-302zM535 802h-358l8 77h358z" />
    <glyph glyph-name="emacron" unicode="&#x113;" horiz-adv-x="525" 
d="M150 204q-2 -27 3.5 -52.5t20 -45.5t39.5 -32t63 -12q53 0 81 21.5t42 50.5h88q-9 -29 -28 -55t-47 -46t-65 -32t-81 -12q-51 0 -89 16.5t-63 45t-37 67t-12 83.5q0 55 17.5 103.5t50 84.5t77.5 56.5t100 20.5q45 0 81 -14t61.5 -39.5t39.5 -60t14 -75.5
q0 -21 -3.5 -37.5t-8.5 -35.5h-344zM304 399q-28 0 -52.5 -8.5t-44 -25t-32.5 -40.5t-17 -55h263q7 60 -26 94.5t-91 34.5zM509 571h-358l8 78h358z" />
    <glyph glyph-name="Ebreve" unicode="&#x114;" horiz-adv-x="544" 
d="M234 618l-24 -229h302l-9 -82h-302l-23 -225h302l-9 -82h-393l74 700h393l-9 -82h-302zM365 843q44 0 75 22t45 61h81q-9 -33 -29 -60.5t-48 -47.5t-62 -31.5t-71 -11.5t-68.5 11.5t-55 31.5t-37.5 47.5t-16 60.5h82q7 -39 33.5 -61t70.5 -22z" />
    <glyph glyph-name="ebreve" unicode="&#x115;" horiz-adv-x="525" 
d="M150 204q-2 -27 3.5 -52.5t20 -45.5t39.5 -32t63 -12q53 0 81 21.5t42 50.5h88q-9 -29 -28 -55t-47 -46t-65 -32t-81 -12q-51 0 -89 16.5t-63 45t-37 67t-12 83.5q0 55 17.5 103.5t50 84.5t77.5 56.5t100 20.5q45 0 81 -14t61.5 -39.5t39.5 -60t14 -75.5
q0 -21 -3.5 -37.5t-8.5 -35.5h-344zM304 399q-28 0 -52.5 -8.5t-44 -25t-32.5 -40.5t-17 -55h263q7 60 -26 94.5t-91 34.5zM331 617q43 0 73.5 22.5t45.5 60.5h81q-9 -33 -29 -60.5t-47.5 -47.5t-61 -31.5t-70.5 -11.5t-68 11.5t-54 31.5t-36.5 47.5t-15.5 60.5h82
q5 -38 31.5 -60.5t68.5 -22.5z" />
    <glyph glyph-name="Edotaccent" unicode="&#x116;" horiz-adv-x="544" 
d="M234 618l-24 -229h302l-9 -82h-302l-23 -225h302l-9 -82h-393l74 700h393l-9 -82h-302zM291 845q0 32 23 54t54 22q28 0 46 -18.5t18 -45.5q0 -32 -23.5 -54t-54.5 -22q-28 0 -45.5 18.5t-17.5 45.5z" />
    <glyph glyph-name="edotaccent" unicode="&#x117;" horiz-adv-x="525" 
d="M150 204q-2 -27 3.5 -52.5t20 -45.5t39.5 -32t63 -12q53 0 81 21.5t42 50.5h88q-9 -29 -28 -55t-47 -46t-65 -32t-81 -12q-51 0 -89 16.5t-63 45t-37 67t-12 83.5q0 55 17.5 103.5t50 84.5t77.5 56.5t100 20.5q45 0 81 -14t61.5 -39.5t39.5 -60t14 -75.5
q0 -21 -3.5 -37.5t-8.5 -35.5h-344zM304 399q-28 0 -52.5 -8.5t-44 -25t-32.5 -40.5t-17 -55h263q7 60 -26 94.5t-91 34.5zM258 603q0 32 22.5 54t53.5 22q28 0 46 -18.5t18 -45.5q0 -32 -23 -54t-54 -22q-28 0 -45.5 18.5t-17.5 45.5z" />
    <glyph glyph-name="Eogonek" unicode="&#x118;" horiz-adv-x="544" 
d="M78 0l74 700h393l-9 -82h-302l-24 -229h302l-9 -82h-302l-23 -225h302l-9 -82h-63q-28 -19 -49 -40.5t-21 -52.5q0 -22 13.5 -37.5t41.5 -15.5q13 0 30.5 3.5t32.5 9.5l-7 -64q-16 -5 -40.5 -10t-49.5 -5q-55 0 -81 26t-26 63q0 35 22.5 63.5t70.5 59.5h-267z" />
    <glyph glyph-name="eogonek" unicode="&#x119;" horiz-adv-x="525" 
d="M351 -197q-17 -5 -40.5 -10t-48.5 -5q-55 0 -81 26t-26 63q0 34 20.5 61.5t58.5 53.5q-43 5 -74.5 23.5t-52.5 46.5t-31.5 64t-10.5 77q0 55 17.5 103t50 83.5t77.5 56t100 20.5q45 0 81.5 -14t61.5 -39.5t38.5 -60.5t13.5 -76q0 -20 -3 -36.5t-8 -35.5h-341
q-3 -28 2 -54t19.5 -45.5t39 -31t61.5 -11.5q52 0 81 21.5t43 50.5h88q-17 -53 -66 -94.5t-124 -49.5q-24 -17 -40 -37t-16 -46q0 -22 13 -37.5t41 -15.5q13 0 31 3.5t33 9.5zM304 399q-28 0 -52.5 -8.5t-44 -25t-32.5 -40.5t-17 -55h263q6 60 -26.5 94.5t-90.5 34.5z" />
    <glyph glyph-name="Ecaron" unicode="&#x11a;" horiz-adv-x="544" 
d="M234 618l-24 -229h302l-9 -82h-302l-23 -225h302l-9 -82h-393l74 700h393l-9 -82h-302zM191 901l57 56l112 -114l136 114l45 -56l-192 -153z" />
    <glyph glyph-name="ecaron" unicode="&#x11b;" horiz-adv-x="525" 
d="M150 204q-2 -27 3.5 -52.5t20 -45.5t39.5 -32t63 -12q53 0 81 21.5t42 50.5h88q-9 -29 -28 -55t-47 -46t-65 -32t-81 -12q-51 0 -89 16.5t-63 45t-37 67t-12 83.5q0 55 17.5 103.5t50 84.5t77.5 56.5t100 20.5q45 0 81 -14t61.5 -39.5t39.5 -60t14 -75.5
q0 -21 -3.5 -37.5t-8.5 -35.5h-344zM304 399q-28 0 -52.5 -8.5t-44 -25t-32.5 -40.5t-17 -55h263q7 60 -26 94.5t-91 34.5zM160 679l57 55l112 -113l137 114l44 -56l-192 -154z" />
    <glyph glyph-name="Gcircumflex" unicode="&#x11c;" horiz-adv-x="836" 
d="M509 337h337l-9 -82h-75q-15 -58 -46 -107.5t-76.5 -86t-104.5 -57t-130 -20.5q-83 0 -144.5 27t-102.5 72.5t-61.5 104.5t-20.5 123q0 78 29 151.5t81.5 129.5t125.5 90t161 34q61 0 110.5 -16.5t85 -45t56 -67t22.5 -82.5h-92q-4 27 -19 50.5t-40 41t-58 27.5t-73 10
q-66 0 -120.5 -26.5t-93.5 -70.5t-60.5 -101t-21.5 -117q0 -50 15 -95.5t46 -80.5t77.5 -56t108.5 -21q52 0 94 15t73.5 40.5t52 60t29.5 73.5h-165zM501 957l163 -153l-57 -56l-115 114l-138 -114l-45 56z" />
    <glyph glyph-name="gcircumflex" unicode="&#x11d;" horiz-adv-x="595" 
d="M320 388q-37 0 -68.5 -14.5t-54 -39t-35 -56.5t-12.5 -67q0 -30 9 -56t27 -45.5t43.5 -31t58.5 -11.5q37 0 68 14.5t53.5 38.5t35.5 56t13 67q0 30 -9.5 56t-27 46t-43 31.5t-58.5 11.5zM516 -29q-6 -61 -28 -104t-55.5 -70.5t-78 -40t-96.5 -12.5q-62 0 -104.5 16
t-68 43.5t-36 63.5t-8.5 75h88q0 -24 6 -46t22 -38.5t41.5 -26.5t64.5 -10q34 0 62.5 8.5t50.5 26.5t36 46.5t18 68.5l11 108q-29 -44 -74 -67t-98 -23q-46 0 -84 17.5t-65 47t-42 69t-15 83.5q0 52 20 99t54.5 83t81 57t99.5 21q57 0 96.5 -24t57.5 -66l9 78h86zM351 739
l163 -154l-57 -56l-114 115l-138 -114l-46 55z" />
    <glyph glyph-name="Gbreve" unicode="&#x11e;" horiz-adv-x="836" 
d="M509 337h337l-9 -82h-75q-15 -58 -46 -107.5t-76.5 -86t-104.5 -57t-130 -20.5q-83 0 -144.5 27t-102.5 72.5t-61.5 104.5t-20.5 123q0 78 29 151.5t81.5 129.5t125.5 90t161 34q61 0 110.5 -16.5t85 -45t56 -67t22.5 -82.5h-92q-4 27 -19 50.5t-40 41t-58 27.5t-73 10
q-66 0 -120.5 -26.5t-93.5 -70.5t-60.5 -101t-21.5 -117q0 -50 15 -95.5t46 -80.5t77.5 -56t108.5 -21q52 0 94 15t73.5 40.5t52 60t29.5 73.5h-165zM486 843q43 0 74.5 22t45.5 61h82q-9 -33 -29.5 -61t-48 -48t-61.5 -31t-71 -11q-38 0 -69.5 11.5t-54.5 31.5t-37 47.5
t-16 60.5h82q5 -39 32 -61t71 -22z" />
    <glyph glyph-name="gbreve" unicode="&#x11f;" horiz-adv-x="595" 
d="M320 388q-37 0 -68.5 -14.5t-54 -39t-35 -56.5t-12.5 -67q0 -30 9 -56t27 -45.5t43.5 -31t58.5 -11.5q37 0 68 14.5t53.5 38.5t35.5 56t13 67q0 30 -9.5 56t-27 46t-43 31.5t-58.5 11.5zM516 -29q-6 -61 -28 -104t-55.5 -70.5t-78 -40t-96.5 -12.5q-62 0 -104.5 16
t-68 43.5t-36 63.5t-8.5 75h88q0 -24 6 -46t22 -38.5t41.5 -26.5t64.5 -10q34 0 62.5 8.5t50.5 26.5t36 46.5t18 68.5l11 108q-29 -44 -74 -67t-98 -23q-46 0 -84 17.5t-65 47t-42 69t-15 83.5q0 52 20 99t54.5 83t81 57t99.5 21q57 0 96.5 -24t57.5 -66l9 78h86zM344 617
q42 0 72.5 22.5t44.5 60.5h82q-9 -33 -28.5 -60.5t-47 -47.5t-61 -31.5t-70.5 -11.5t-68 11.5t-54 31.5t-37 47.5t-16 60.5h81q7 -38 33 -60.5t69 -22.5z" />
    <glyph glyph-name="Gdotaccent" unicode="&#x120;" horiz-adv-x="836" 
d="M509 337h337l-9 -82h-75q-15 -58 -46 -107.5t-76.5 -86t-104.5 -57t-130 -20.5q-83 0 -144.5 27t-102.5 72.5t-61.5 104.5t-20.5 123q0 78 29 151.5t81.5 129.5t125.5 90t161 34q61 0 110.5 -16.5t85 -45t56 -67t22.5 -82.5h-92q-4 27 -19 50.5t-40 41t-58 27.5t-73 10
q-66 0 -120.5 -26.5t-93.5 -70.5t-60.5 -101t-21.5 -117q0 -50 15 -95.5t46 -80.5t77.5 -56t108.5 -21q52 0 94 15t73.5 40.5t52 60t29.5 73.5h-165zM420 845q0 32 23 54t54 22q28 0 45.5 -18.5t17.5 -45.5q0 -32 -23 -54t-54 -22q-28 0 -45.5 18.5t-17.5 45.5z" />
    <glyph glyph-name="gdotaccent" unicode="&#x121;" horiz-adv-x="595" 
d="M320 388q-37 0 -68.5 -14.5t-54 -39t-35 -56.5t-12.5 -67q0 -30 9 -56t27 -45.5t43.5 -31t58.5 -11.5q37 0 68 14.5t53.5 38.5t35.5 56t13 67q0 30 -9.5 56t-27 46t-43 31.5t-58.5 11.5zM516 -29q-6 -61 -28 -104t-55.5 -70.5t-78 -40t-96.5 -12.5q-62 0 -104.5 16
t-68 43.5t-36 63.5t-8.5 75h88q0 -24 6 -46t22 -38.5t41.5 -26.5t64.5 -10q34 0 62.5 8.5t50.5 26.5t36 46.5t18 68.5l11 108q-29 -44 -74 -67t-98 -23q-46 0 -84 17.5t-65 47t-42 69t-15 83.5q0 52 20 99t54.5 83t81 57t99.5 21q57 0 96.5 -24t57.5 -66l9 78h86zM262 603
q0 32 23 54t54 22q28 0 46 -18.5t18 -45.5q0 -32 -23.5 -54t-54.5 -22q-28 0 -45.5 18.5t-17.5 45.5z" />
    <glyph glyph-name="Gcommaaccent" unicode="&#x122;" horiz-adv-x="836" 
d="M509 337h337l-9 -82h-75q-15 -58 -46 -107.5t-76.5 -86t-104.5 -57t-130 -20.5q-83 0 -144.5 27t-102.5 72.5t-61.5 104.5t-20.5 123q0 78 29 151.5t81.5 129.5t125.5 90t161 34q61 0 110.5 -16.5t85 -45t56 -67t22.5 -82.5h-92q-4 27 -19 50.5t-40 41t-58 27.5t-73 10
q-66 0 -120.5 -26.5t-93.5 -70.5t-60.5 -101t-21.5 -117q0 -50 15 -95.5t46 -80.5t77.5 -56t108.5 -21q52 0 94 15t73.5 40.5t52 60t29.5 73.5h-165zM334 -91q0 26 18.5 44t45.5 18t43 -20t16 -59q0 -60 -37 -90.5t-97 -30.5l4 36q43 0 61 23q7 8 10 17.5t5 17.5
q-6 -6 -21 -6q-21 0 -34.5 14.5t-13.5 35.5z" />
    <glyph glyph-name="gcommaaccent" unicode="&#x123;" horiz-adv-x="595" 
d="M516 -29q-6 -61 -28 -104t-55.5 -70.5t-78 -40t-96.5 -12.5q-62 0 -104.5 16t-68 43.5t-36 63.5t-8.5 75h88q0 -24 6 -46t22 -38.5t41.5 -26.5t64.5 -10q34 0 62.5 8.5t50.5 26.5t36 46.5t18 68.5l11 108q-29 -44 -74 -67t-98 -23q-46 0 -84 17.5t-65 47t-42 69t-15 83.5
q0 52 20 99t54.5 83t81 57t99.5 21q57 0 96.5 -24t57.5 -66l9 78h86zM288 67q37 0 68 14.5t53.5 38.5t35.5 56t13 67q0 30 -9.5 56t-27 46t-43 31.5t-58.5 11.5q-37 0 -68.5 -14.5t-54 -39t-35 -56.5t-12.5 -67q0 -30 9 -56t27 -45.5t43.5 -31t58.5 -11.5zM408 603
q0 -30 -22.5 -52t-55.5 -22q-32 0 -51 24t-19 72q0 74 44 110t116 36l-5 -42q-26 0 -44 -8.5t-28 -22.5q-9 -11 -13 -21.5t-6 -19.5q8 6 26 6q26 0 42 -17t16 -43z" />
    <glyph glyph-name="Hcircumflex" unicode="&#x124;" horiz-adv-x="664" 
d="M527 307h-326l-32 -307h-91l74 700h91l-33 -311h326l33 311h91l-74 -700h-91zM433 957l162 -153l-56 -56l-116 114l-138 -114l-45 56z" />
    <glyph glyph-name="hcircumflex" unicode="&#x125;" horiz-adv-x="565" 
d="M152 700h87l-35 -326q25 42 68.5 67t103.5 25q42 0 75 -14t53 -46q17 -27 21 -60.5t-1 -77.5l-28 -268h-87l25 241q3 31 0 58.5t-14.5 47t-32 31t-51.5 11.5q-35 0 -61 -13.5t-44 -35t-28 -49.5t-13 -57l-25 -234h-87zM389 957l162 -153l-56 -56l-115 114l-138 -114
l-46 56z" />
    <glyph glyph-name="Hbar" unicode="&#x126;" horiz-adv-x="664" 
d="M548 501h-326l-12 -112h326zM243 700l-14 -132h326l14 132h91l-74 -700h-91l32 307h-326l-32 -307h-91l74 700h91z" />
    <glyph glyph-name="hbar" unicode="&#x127;" horiz-adv-x="565" 
d="M387 536h-166l-17 -162q25 42 68.5 67t103.5 25q42 0 74.5 -14t52.5 -46q17 -27 21.5 -60t-0.5 -78l-28 -268h-87l25 241q3 31 0 58.5t-14.5 47t-32 31t-51.5 11.5q-33 0 -59 -13t-44.5 -34.5t-29.5 -49.5t-14 -58l-25 -234h-86l56 536h-78l6 59h78l11 105h87l-11 -105
h166z" />
    <glyph glyph-name="Itilde" unicode="&#x128;" horiz-adv-x="250" 
d="M152 700h94l-74 -700h-94zM282 862q23 0 39 15.5t27 33.5l61 -33q-29 -45 -65 -65t-71 -20q-24 0 -42 7.5t-32.5 17t-28 17t-29.5 7.5q-20 0 -35.5 -14t-28.5 -35l-56 40q28 42 62 60t68 18q25 0 42.5 -7.5t32 -17t27.5 -17t29 -7.5z" />
    <glyph glyph-name="itilde" unicode="&#x129;" horiz-adv-x="243" 
d="M125 454h87l-47 -454h-87zM260 640q20 0 36.5 14t29.5 35l61 -33q-30 -46 -65.5 -65t-69.5 -19q-25 0 -43 7.5t-32.5 17t-28 17t-28.5 7.5q-21 0 -36.5 -14.5t-28.5 -34.5l-56 40q28 42 62 59.5t68 17.5q25 0 43 -7.5t32 -17t27 -17t29 -7.5z" />
    <glyph glyph-name="Imacron" unicode="&#x12a;" horiz-adv-x="250" 
d="M151 700h94l-73 -700h-94zM389 802h-359l8 77h359z" />
    <glyph glyph-name="imacron" unicode="&#x12b;" horiz-adv-x="243" 
d="M126 454h87l-48 -454h-87zM358 570h-358l8 78h358z" />
    <glyph glyph-name="Ibreve" unicode="&#x12c;" horiz-adv-x="250" 
d="M151 700h94l-73 -700h-94zM214 843q44 0 75.5 22t45.5 61h81q-9 -33 -29 -60.5t-48 -47.5t-62 -31.5t-71 -11.5t-68.5 11.5t-55 31.5t-37.5 47.5t-16 60.5h82q7 -39 33 -61t70 -22z" />
    <glyph glyph-name="ibreve" unicode="&#x12d;" horiz-adv-x="243" 
d="M126 454h87l-48 -454h-87zM187 617q43 0 74 22.5t45 60.5h81q-9 -33 -29 -60.5t-47.5 -47.5t-61 -31.5t-69.5 -11.5q-37 0 -68 11.5t-54 31.5t-37 47.5t-16 60.5h82q6 -38 32 -60.5t68 -22.5z" />
    <glyph glyph-name="Iogonek" unicode="&#x12e;" horiz-adv-x="250" 
d="M172 0h-14q-28 -19 -49 -40.5t-21 -52.5q0 -22 13 -37.5t41 -15.5q13 0 31 3.5t33 9.5l-7 -64q-17 -5 -41.5 -10t-48.5 -5q-55 0 -81 26t-26 63t24 65.5t69 57.5h-17l73 700h94z" />
    <glyph glyph-name="iogonek" unicode="&#x12f;" horiz-adv-x="243" 
d="M193 -197q-17 -5 -41 -10t-48 -5q-55 0 -81 26t-26 63q0 35 22.5 63.5t69.5 59.5h-11l47 454h87l-47 -454h-12q-28 -19 -49 -40.5t-21 -52.5q0 -22 13 -37.5t41 -15.5q13 0 31 3.5t33 9.5zM117 620q0 32 23 54.5t54 22.5q28 0 46 -19t18 -45q0 -32 -23.5 -54t-54.5 -22
q-28 0 -45.5 18.5t-17.5 44.5z" />
    <glyph glyph-name="Idotaccent" unicode="&#x130;" horiz-adv-x="250" 
d="M152 700h94l-74 -700h-94zM144 845q0 32 23 54t54 22q28 0 46 -18.5t18 -45.5q0 -32 -23 -54t-54 -22q-28 0 -46 18.5t-18 45.5z" />
    <glyph glyph-name="dotlessi" unicode="&#x131;" horiz-adv-x="230" 
d="M120 454h87l-48 -454h-87z" />
    <glyph glyph-name="Jcircumflex" unicode="&#x134;" horiz-adv-x="536" 
d="M488 222q-5 -51 -25 -95t-52 -75.5t-75.5 -49.5t-95.5 -18t-92 17.5t-66.5 49t-38 75.5t-6.5 96h91q-7 -70 25.5 -113t95.5 -43t101.5 42.5t46.5 113.5l50 478h91zM521 957l161 -153l-55 -56l-116 114l-138 -114l-46 56z" />
    <glyph glyph-name="jcircumflex" unicode="&#x135;" horiz-adv-x="243" 
d="M152 -122q-8 -74 -40.5 -103.5t-78.5 -29.5q-17 0 -38 3.5t-33 8.5l8 73q15 -5 24 -6.5t17 -1.5q48 0 54 61l60 571h88zM201 739l162 -154l-56 -56l-115 115l-139 -114l-45 55z" />
    <glyph glyph-name="Kcommaaccent" unicode="&#x136;" horiz-adv-x="590" 
d="M463 0l-261 318l-33 -318h-91l74 700h91l-34 -318l328 318h115l-357 -350l283 -350h-115zM235 -80q0 26 18.5 44t45.5 18q26 0 42 -19.5t16 -59.5q0 -60 -36 -90.5t-97 -30.5l4 36q23 0 36.5 5.5t23.5 17.5q7 8 11 17.5t5 17.5q-6 -6 -21 -6q-21 0 -34.5 14.5t-13.5 35.5
z" />
    <glyph glyph-name="kcommaaccent" unicode="&#x137;" horiz-adv-x="477" 
d="M513 454l-231 -227l183 -227h-110l-168 206l-22 -206h-87l74 700h87l-48 -453l212 207h110zM174 -80q0 26 18.5 44t45.5 18t42.5 -20t15.5 -59q0 -61 -36.5 -91t-96.5 -30l4 36q23 0 36.5 5.5t23.5 17.5q7 8 11 17.5t5 17.5q-6 -6 -21 -6q-21 0 -34.5 14.5t-13.5 35.5z
" />
    <glyph glyph-name="kgreenlandic" unicode="&#x138;" horiz-adv-x="477" 
d="M282 227l183 -227h-110l-168 206l-22 -206h-87l48 454h87l-22 -207l212 207h110z" />
    <glyph glyph-name="Lacute" unicode="&#x139;" horiz-adv-x="425" 
d="M407 82l-9 -82h-320l74 700h91l-65 -618h229zM127 749l-34 69l263 137l34 -69z" />
    <glyph glyph-name="lacute" unicode="&#x13a;" horiz-adv-x="243" 
d="M151 700h87l-73 -700h-87zM97 751l-35 68l263 137l35 -68z" />
    <glyph glyph-name="Lcommaaccent" unicode="&#x13b;" horiz-adv-x="425" 
d="M152 700h91l-65 -618h229l-9 -82h-320zM154 -80q0 26 18.5 44t45.5 18t42.5 -20t15.5 -59q0 -60 -35.5 -90.5t-97.5 -30.5l4 35q41 0 60 24q14 18 16 35q-6 -6 -22 -6q-20 0 -33.5 14.5t-13.5 35.5z" />
    <glyph glyph-name="lcommaaccent" unicode="&#x13c;" horiz-adv-x="243" 
d="M151 700h87l-73 -700h-87zM53 -80q0 26 18.5 44t45.5 18t43 -20t16 -59q0 -60 -36.5 -90.5t-96.5 -30.5l4 36q42 0 60 23q15 18 15 35q-6 -6 -21 -6q-21 0 -34.5 14.5t-13.5 35.5z" />
    <glyph glyph-name="Lcaron" unicode="&#x13d;" horiz-adv-x="425" 
d="M407 82l-9 -82h-320l74 700h91l-65 -618h229zM351 657q0 30 22.5 52t56.5 22q32 0 50 -23t18 -71q0 -70 -40.5 -109t-118.5 -39l5 42q26 0 44 8.5t28 22.5q10 11 13.5 21.5t4.5 19.5q-6 -6 -24 -6q-26 0 -42.5 17t-16.5 43z" />
    <glyph glyph-name="lcaron" unicode="&#x13e;" horiz-adv-x="368" 
d="M152 700h87l-74 -700h-87zM287 656q0 31 22.5 53t55.5 22q32 0 51 -24t19 -72q0 -74 -44 -110t-116 -36l5 42q26 0 44 8.5t28 22.5q10 11 13.5 21.5t5.5 19.5q-8 -6 -25 -6q-26 0 -42.5 16.5t-16.5 42.5z" />
    <glyph glyph-name="Ldot" unicode="&#x13f;" horiz-adv-x="425" 
d="M407 82l-9 -82h-320l74 700h91l-65 -618h229zM303 385q0 32 23 54.5t54 22.5q28 0 45.5 -19t17.5 -45q0 -32 -23.5 -54t-54.5 -22q-27 0 -44.5 18.5t-17.5 44.5z" />
    <glyph glyph-name="ldot" unicode="&#x140;" horiz-adv-x="341" 
d="M152 700h87l-74 -700h-87zM263 333q0 32 23.5 54.5t54.5 22.5q28 0 45.5 -19t17.5 -45q0 -32 -23 -54t-54 -22q-29 0 -46.5 18.5t-17.5 44.5z" />
    <glyph glyph-name="Lslash" unicode="&#x141;" horiz-adv-x="425" 
d="M407 82l-9 -82h-320l28 269l-52 -23l8 74l52 23l38 357h91l-34 -319l172 73l-8 -73l-172 -74l-23 -225h229z" />
    <glyph glyph-name="lslash" unicode="&#x142;" horiz-adv-x="243" 
d="M109 303l-80 -42l7 68l80 41l35 330h94l-29 -280l85 43l-7 -69l-86 -44l-36 -350h-94z" />
    <glyph glyph-name="Nacute" unicode="&#x143;" horiz-adv-x="663" 
d="M511 159l57 541h91l-74 -700h-101l-258 541l-57 -541h-91l74 700h101zM309 749l-35 69l263 137l35 -69z" />
    <glyph glyph-name="nacute" unicode="&#x144;" horiz-adv-x="565" 
d="M126 454h87l-9 -80q25 42 68.5 67t103.5 25q42 0 75 -14t53 -46q17 -27 21 -60.5t-1 -77.5l-28 -268h-87l25 241q3 31 0 58.5t-14.5 47t-32 31t-51.5 11.5q-35 0 -61 -13.5t-44 -35t-28 -49.5t-13 -57l-25 -234h-87zM237 503l-34 68l263 137l34 -68z" />
    <glyph glyph-name="Ncommaaccent" unicode="&#x145;" horiz-adv-x="663" 
d="M484 0l-258 541l-57 -541h-91l74 700h101l258 -541l57 541h91l-74 -700h-101zM266 -80q0 26 18.5 44t45.5 18q26 0 42 -19.5t16 -59.5q0 -60 -35.5 -90.5t-97.5 -30.5l4 35q41 0 60 24q14 18 16 35q-6 -6 -22 -6q-20 0 -33.5 14.5t-13.5 35.5z" />
    <glyph glyph-name="ncommaaccent" unicode="&#x146;" horiz-adv-x="565" 
d="M78 0l48 454h87l-9 -80q25 42 68.5 67t103.5 25q42 0 75 -14t53 -46q17 -27 21 -60.5t-1 -77.5l-28 -268h-87l25 241q3 31 0 58.5t-14.5 47t-32 31t-51.5 11.5q-35 0 -61 -13.5t-44 -35t-28 -49.5t-13 -57l-25 -234h-87zM229 -80q0 26 18.5 44t45.5 18q26 0 42 -20
t16 -59q0 -61 -37 -91t-96 -30l4 36q42 0 60 23q7 8 11 17.5t5 17.5q-6 -6 -22 -6q-20 0 -33.5 14.5t-13.5 35.5z" />
    <glyph glyph-name="Ncaron" unicode="&#x147;" horiz-adv-x="663" 
d="M511 159l57 541h91l-74 -700h-101l-258 541l-57 -541h-91l74 700h101zM254 901l58 56l111 -114l137 114l44 -56l-192 -153z" />
    <glyph glyph-name="ncaron" unicode="&#x148;" horiz-adv-x="565" 
d="M78 0l48 454h87l-9 -80q25 42 68.5 67t103.5 25q42 0 75 -14t53 -46q17 -27 21 -60.5t-1 -77.5l-28 -268h-87l25 241q3 31 0 58.5t-14.5 47t-32 31t-51.5 11.5q-35 0 -61 -13.5t-44 -35t-28 -49.5t-13 -57l-25 -234h-87zM195 679l57 55l111 -113l137 114l45 -56
l-192 -154z" />
    <glyph glyph-name="napostrophe" unicode="&#x149;" horiz-adv-x="565" 
d="M78 0l48 454h87l-9 -80q25 42 68.5 67t103.5 25q42 0 75 -14t53 -46q17 -27 21 -60.5t-1 -77.5l-28 -268h-87l25 241q3 31 0 58.5t-14.5 47t-32 31t-51.5 11.5q-35 0 -61 -13.5t-44 -35t-28 -49.5t-13 -57l-25 -234h-87zM32 668q0 25 18 43.5t46 18.5q27 0 43 -19.5
t16 -59.5q0 -61 -36.5 -91.5t-96.5 -30.5l3 36q43 0 61 23q7 8 10.5 17.5t4.5 17.5q-5 -5 -20 -5q-22 0 -35.5 14t-13.5 36z" />
    <glyph glyph-name="Eng" unicode="&#x14a;" horiz-adv-x="663" 
d="M511 162l57 538h90l-75 -718q-5 -51 -25.5 -95t-52.5 -75.5t-75 -49.5t-94 -18q-58 0 -98 22.5t-68 61.5l66 58q20 -27 44.5 -43t62.5 -16q60 0 100 40t49 115l2 17l-268 542l-57 -541h-91l74 700h92z" />
    <glyph glyph-name="eng" unicode="&#x14b;" horiz-adv-x="565" 
d="M163 -126q20 -24 42 -38t57 -14q61 0 99 40.5t45 108.5l28 270q3 31 0 58.5t-14.5 47t-32 31t-51.5 11.5q-35 0 -61 -13.5t-44 -35t-28 -49.5t-13 -57l-25 -234h-87l48 454h87l-9 -80q25 42 68.5 67t103.5 25q42 0 75 -14t53 -46q17 -27 21 -60.5t-1 -77.5l-31 -297
q-5 -49 -24 -90.5t-50 -72t-72 -47.5t-90 -17q-55 0 -93 20.5t-63 54.5z" />
    <glyph glyph-name="Omacron" unicode="&#x14c;" horiz-adv-x="803" 
d="M404 -16q-80 0 -141 27.5t-102.5 73t-63 105.5t-21.5 125q0 77 29 149t81.5 128t126 90t162.5 34q79 0 140.5 -27t102.5 -73t62.5 -105.5t21.5 -124.5q0 -77 -29 -149.5t-81.5 -128.5t-125.5 -90t-162 -34zM411 66q65 0 119.5 26.5t93.5 70.5t60.5 100t21.5 116
q0 50 -15.5 96t-46 81.5t-75.5 56.5t-103 21q-65 0 -119 -26.5t-93 -70t-61 -99.5t-22 -116q0 -50 15.5 -96t46 -81.5t75.5 -57t103 -21.5zM666 802h-358l8 77h358z" />
    <glyph glyph-name="omacron" unicode="&#x14d;" horiz-adv-x="560" 
d="M279 -11q-51 0 -91.5 17.5t-68 47t-42 68.5t-14.5 83q0 52 19.5 99t55 83t84 57.5t105.5 21.5q51 0 91.5 -17t68 -46.5t42.5 -69t15 -83.5q0 -52 -20 -99.5t-55 -83.5t-84 -57t-106 -21zM288 67q37 0 68 14.5t53.5 38.5t35 56t12.5 67q0 30 -9.5 56t-27 46t-43 31.5
t-58.5 11.5q-37 0 -68.5 -14.5t-54 -39t-35 -56.5t-12.5 -67q0 -30 9.5 -56t27 -45.5t43.5 -31t59 -11.5zM518 570h-358l9 78h358z" />
    <glyph glyph-name="Obreve" unicode="&#x14e;" horiz-adv-x="803" 
d="M404 -16q-80 0 -141 27.5t-102.5 73t-63 105.5t-21.5 125q0 77 29 149t81.5 128t126 90t162.5 34q79 0 140.5 -27t102.5 -73t62.5 -105.5t21.5 -124.5q0 -77 -29 -149.5t-81.5 -128.5t-125.5 -90t-162 -34zM411 66q65 0 119.5 26.5t93.5 70.5t60.5 100t21.5 116
q0 50 -15.5 96t-46 81.5t-75.5 56.5t-103 21q-65 0 -119 -26.5t-93 -70t-61 -99.5t-22 -116q0 -50 15.5 -96t46 -81.5t75.5 -57t103 -21.5zM491 843q43 0 74.5 22t45.5 61h82q-9 -33 -29.5 -61t-48 -48t-61.5 -31t-71 -11q-38 0 -69.5 11.5t-54.5 31.5t-37 47.5t-16 60.5h82
q5 -39 32 -61t71 -22z" />
    <glyph glyph-name="obreve" unicode="&#x14f;" horiz-adv-x="560" 
d="M279 -11q-51 0 -91.5 17.5t-68 47t-42 68.5t-14.5 83q0 52 19.5 99t55 83t84 57.5t105.5 21.5q51 0 91.5 -17t68 -46.5t42.5 -69t15 -83.5q0 -52 -20 -99.5t-55 -83.5t-84 -57t-106 -21zM288 67q37 0 68 14.5t53.5 38.5t35 56t12.5 67q0 30 -9.5 56t-27 46t-43 31.5
t-58.5 11.5q-37 0 -68.5 -14.5t-54 -39t-35 -56.5t-12.5 -67q0 -30 9.5 -56t27 -45.5t43.5 -31t59 -11.5zM343 617q42 0 73 22.5t45 60.5h82q-9 -33 -29 -60.5t-47.5 -47.5t-61 -31.5t-70.5 -11.5t-68 11.5t-53.5 31.5t-36.5 47.5t-16 60.5h81q7 -38 32.5 -60.5t68.5 -22.5z
" />
    <glyph glyph-name="Ohungarumlaut" unicode="&#x150;" horiz-adv-x="803" 
d="M404 -16q-80 0 -141 27.5t-102.5 73t-63 105.5t-21.5 125q0 77 29 149t81.5 128t126 90t162.5 34q79 0 140.5 -27t102.5 -73t62.5 -105.5t21.5 -124.5q0 -77 -29 -149.5t-81.5 -128.5t-125.5 -90t-162 -34zM411 66q65 0 119.5 26.5t93.5 70.5t60.5 100t21.5 116
q0 50 -15.5 96t-46 81.5t-75.5 56.5t-103 21q-65 0 -119 -26.5t-93 -70t-61 -99.5t-22 -116q0 -50 15.5 -96t46 -81.5t75.5 -57t103 -21.5zM655 958l72 -38l-174 -151l-40 23zM460 958l72 -38l-174 -151l-40 23z" />
    <glyph glyph-name="ohungarumlaut" unicode="&#x151;" horiz-adv-x="560" 
d="M279 -11q-51 0 -91.5 17.5t-68 47t-42 68.5t-14.5 83q0 52 19.5 99t55 83t84 57.5t105.5 21.5q51 0 91.5 -17t68 -46.5t42.5 -69t15 -83.5q0 -52 -20 -99.5t-55 -83.5t-84 -57t-106 -21zM288 67q37 0 68 14.5t53.5 38.5t35 56t12.5 67q0 30 -9.5 56t-27 46t-43 31.5
t-58.5 11.5q-37 0 -68.5 -14.5t-54 -39t-35 -56.5t-12.5 -67q0 -30 9.5 -56t27 -45.5t43.5 -31t59 -11.5zM320 721l73 -39l-174 -151l-41 24zM414 531l-41 24l142 166l73 -39z" />
    <glyph glyph-name="OE" unicode="&#x152;" horiz-adv-x="1133" 
d="M823 618l-24 -229h301l-8 -82h-301l-24 -225h301l-8 -82h-392l11 110q-49 -57 -119.5 -92.5t-160.5 -35.5q-78 0 -138.5 27.5t-101.5 73.5t-62.5 106t-21.5 125q0 76 29 148.5t81.5 128.5t126 90t162.5 34q91 0 154 -35t101 -93l12 113h392l-9 -82h-301zM411 65
q65 0 119 26.5t93 70t60.5 99.5t21.5 116q0 50 -15.5 96t-46 81.5t-75.5 56.5t-103 21q-65 0 -119 -26.5t-93 -70t-61 -99.5t-22 -116q0 -50 15.5 -96t46.5 -81t75.5 -56.5t103.5 -21.5z" />
    <glyph glyph-name="oe" unicode="&#x153;" horiz-adv-x="914" 
d="M542 204q-3 -30 2.5 -55.5t20 -45t39 -30.5t60.5 -11q52 0 81 21.5t43 50.5h88q-9 -29 -28.5 -55t-47.5 -46t-64 -32t-79 -12q-67 0 -110.5 27.5t-64.5 71.5q-34 -45 -86.5 -72t-117.5 -27q-51 0 -90.5 17.5t-67.5 47t-42.5 68.5t-14.5 83q0 52 19.5 99t55 83t84 57.5
t105.5 21.5q68 0 113 -28t70 -71q29 44 79 71.5t113 27.5q43 0 78.5 -14t61 -39t39.5 -60.5t14 -77.5q0 -19 -3 -35.5t-8 -35.5h-342zM694 392q-27 0 -51.5 -8t-44 -23.5t-32 -38.5t-16.5 -52h260q6 56 -26.5 89t-89.5 33zM288 67q36 0 67 14t53.5 38t35.5 56t13 68
q0 30 -9.5 56.5t-27.5 46t-43.5 31t-57.5 11.5q-37 0 -68.5 -14.5t-54 -39t-35 -56.5t-12.5 -67q0 -30 9.5 -56t27 -45.5t43.5 -31t59 -11.5z" />
    <glyph glyph-name="Racute" unicode="&#x154;" horiz-adv-x="606" 
d="M152 700h246q51 0 91 -17.5t68 -47t42.5 -68.5t14.5 -83q0 -42 -13 -80.5t-36.5 -70.5t-56.5 -57t-74 -38l122 -238h-104l-116 223h-144l-23 -223h-91zM356 306q37 0 67.5 14t52.5 37.5t34.5 54.5t12.5 65q0 29 -9 54.5t-26.5 45t-42.5 30.5t-56 11h-155l-33 -312h155z
M278 749l-34 69l263 137l34 -69z" />
    <glyph glyph-name="racute" unicode="&#x155;" horiz-adv-x="365" 
d="M398 374q-13 3 -21.5 4t-17.5 1q-79 0 -122 -49t-51 -131l-21 -199h-87l48 454h87l-10 -89q22 41 66.5 68.5t95.5 27.5q25 0 42 -7zM142 518l-34 68l263 137l35 -68z" />
    <glyph glyph-name="Rcommaaccent" unicode="&#x156;" horiz-adv-x="606" 
d="M152 700h246q51 0 91 -17.5t68 -47t42.5 -68.5t14.5 -83q0 -42 -13 -80.5t-36.5 -70.5t-56.5 -57t-74 -38l122 -238h-104l-116 223h-144l-23 -223h-91zM234 618l-33 -312h155q37 0 67.5 14t52.5 37.5t34.5 54.5t12.5 65q0 29 -9 54.5t-26.5 45t-42.5 30.5t-56 11h-155z
M235 -80q0 26 18.5 44t45.5 18q26 0 42 -19.5t16 -59.5q0 -60 -35.5 -90.5t-97.5 -30.5l4 35q21 0 36 5t24 13t13 17t4 18q0 5 -1 6q-6 -6 -22 -6q-20 0 -33.5 14.5t-13.5 35.5z" />
    <glyph glyph-name="rcommaaccent" unicode="&#x157;" horiz-adv-x="365" 
d="M398 374q-13 3 -21.5 4t-17.5 1q-79 0 -122 -49t-51 -131l-21 -199h-87l48 454h87l-10 -89q22 41 66.5 68.5t95.5 27.5q25 0 42 -7zM53 -80q0 26 18.5 44t45.5 18t43 -20t16 -59q0 -60 -36.5 -90.5t-96.5 -30.5l4 36q42 0 60 23q15 18 15 35q-6 -6 -21 -6
q-21 0 -34.5 14.5t-13.5 35.5z" />
    <glyph glyph-name="Rcaron" unicode="&#x158;" horiz-adv-x="606" 
d="M152 700h246q51 0 91 -17.5t68 -47t42.5 -68.5t14.5 -83q0 -42 -13 -80.5t-36.5 -70.5t-56.5 -57t-74 -38l122 -238h-104l-116 223h-144l-23 -223h-91zM356 306q37 0 67.5 14t52.5 37.5t34.5 54.5t12.5 65q0 29 -9 54.5t-26.5 45t-42.5 30.5t-56 11h-155l-33 -312h155z
M207 901l57 56l111 -114l137 114l45 -56l-192 -153z" />
    <glyph glyph-name="rcaron" unicode="&#x159;" horiz-adv-x="365" 
d="M398 374q-13 3 -21.5 4t-17.5 1q-79 0 -122 -49t-51 -131l-21 -199h-87l48 454h87l-10 -89q22 41 66.5 68.5t95.5 27.5q25 0 42 -7zM104 679l57 55l112 -113l136 114l45 -56l-192 -154z" />
    <glyph glyph-name="Sacute" unicode="&#x15a;" horiz-adv-x="571" 
d="M160 223q-8 -72 31 -114.5t110 -42.5q33 0 60.5 9.5t48 26.5t32 41t11.5 53t-11 48.5t-28 32t-38.5 21t-42.5 14.5q-43 14 -81 29t-66.5 36t-45 52t-16.5 76q0 48 18.5 86.5t50.5 66.5t75 43t92 15t88.5 -15.5t66 -43.5t39 -67.5t7.5 -87.5h-91q2 28 -3.5 52t-19.5 42
t-37 28t-56 10q-29 0 -54 -8t-44 -23t-29.5 -36t-10.5 -48q0 -25 9.5 -42.5t25.5 -30.5t37.5 -22t45.5 -16q42 -14 80.5 -29.5t68 -38t46.5 -54.5t17 -79q0 -51 -20.5 -92t-56 -70.5t-82 -45t-98.5 -15.5q-54 0 -97 16.5t-72.5 47.5t-43 75.5t-7.5 99.5h91zM263 749l-34 69
l264 137l33 -69z" />
    <glyph glyph-name="sacute" unicode="&#x15b;" horiz-adv-x="452" 
d="M297 253q28 -9 51 -18.5t39 -22.5t24.5 -31t8.5 -45q0 -36 -15 -63.5t-41 -46t-60.5 -28t-72.5 -9.5q-40 0 -73.5 10t-57.5 30.5t-35.5 51t-7.5 72.5h85q-6 -52 22.5 -73.5t74.5 -21.5q43 0 70.5 17t27.5 52q0 18 -8.5 28.5t-25 18.5t-42.5 16t-60 20q-25 8 -45.5 16.5
t-35 21.5t-22.5 30.5t-8 43.5q0 35 15 62t39.5 45t57 27.5t68.5 9.5q39 0 70.5 -11t53 -31t31.5 -48.5t7 -62.5h-84q5 37 -15 60t-67 23q-39 0 -65.5 -17.5t-26.5 -49.5q0 -15 6.5 -24.5t21.5 -17.5t38.5 -15.5t56.5 -18.5zM175 503l-34 68l264 137l34 -68z" />
    <glyph glyph-name="Scircumflex" unicode="&#x15c;" horiz-adv-x="571" 
d="M160 223q-8 -72 31 -114.5t110 -42.5q33 0 60.5 9.5t48 26.5t32 41t11.5 53t-11 48.5t-28 32t-38.5 21t-42.5 14.5q-43 14 -81 29t-66.5 36t-45 52t-16.5 76q0 48 18.5 86.5t50.5 66.5t75 43t92 15t88.5 -15.5t66 -43.5t39 -67.5t7.5 -87.5h-91q2 28 -3.5 52t-19.5 42
t-37 28t-56 10q-29 0 -54 -8t-44 -23t-29.5 -36t-10.5 -48q0 -25 9.5 -42.5t25.5 -30.5t37.5 -22t45.5 -16q42 -14 80.5 -29.5t68 -38t46.5 -54.5t17 -79q0 -51 -20.5 -92t-56 -70.5t-82 -45t-98.5 -15.5q-54 0 -97 16.5t-72.5 47.5t-43 75.5t-7.5 99.5h91zM389 957
l162 -153l-56 -56l-115 114l-139 -114l-45 56z" />
    <glyph glyph-name="scircumflex" unicode="&#x15d;" horiz-adv-x="452" 
d="M297 253q28 -9 51 -18.5t39 -22.5t24.5 -31t8.5 -45q0 -36 -15 -63.5t-41 -46t-60.5 -28t-72.5 -9.5q-40 0 -73.5 10t-57.5 30.5t-35.5 51t-7.5 72.5h85q-6 -52 22.5 -73.5t74.5 -21.5q43 0 70.5 17t27.5 52q0 18 -8.5 28.5t-25 18.5t-42.5 16t-60 20q-25 8 -45.5 16.5
t-35 21.5t-22.5 30.5t-8 43.5q0 35 15 62t39.5 45t57 27.5t68.5 9.5q39 0 70.5 -11t53 -31t31.5 -48.5t7 -62.5h-84q5 37 -15 60t-67 23q-39 0 -65.5 -17.5t-26.5 -49.5q0 -15 6.5 -24.5t21.5 -17.5t38.5 -15.5t56.5 -18.5zM303 739l163 -154l-57 -56l-115 115l-138 -114
l-45 55z" />
    <glyph glyph-name="Scedilla" unicode="&#x15e;" horiz-adv-x="571" 
d="M251 -14q-44 5 -80 23.5t-60.5 49t-36 72t-6.5 92.5h91q-4 -36 4.5 -65t27 -49.5t46.5 -31.5t64 -11q32 0 60 9t48.5 26t32 41t11.5 54q0 27 -10 46t-26.5 32t-39.5 22t-48 17q-41 13 -78.5 28t-65.5 36.5t-44.5 52t-16.5 75.5q0 48 18.5 86.5t50.5 66.5t75 43t92 15
t88.5 -15.5t66 -43.5t38.5 -67.5t8 -87.5h-91q2 28 -3.5 52t-20 42t-37.5 28t-56 10q-58 0 -97.5 -30.5t-39.5 -84.5q0 -26 10 -44t26.5 -30.5t37.5 -21t44 -15.5q42 -15 80.5 -30.5t68 -38t46.5 -54.5t17 -78q0 -48 -18 -87t-50 -68t-75.5 -46t-93.5 -21l-6 -56
q17 20 45 20q29 0 52 -21t23 -56q0 -20 -7.5 -39t-21.5 -34t-33.5 -24t-43.5 -9q-11 0 -26.5 3t-30 12t-25.5 26t-12 46h53q2 -18 12 -29t29 -11q23 0 38 15t15 37q0 20 -12 31t-31 11q-11 0 -21 -5t-20 -20h-46z" />
    <glyph glyph-name="scedilla" unicode="&#x15f;" horiz-adv-x="452" 
d="M189 -8q-31 4 -57 16.5t-44 32.5t-27 48t-5 64h85q-5 -52 23 -73.5t75 -21.5q44 0 70.5 17t26.5 52q0 18 -8 28.5t-25 18.5t-42.5 16t-61.5 20q-22 7 -42 15.5t-35 21t-24 30.5t-9 45q0 35 15 62t40 45t57.5 27.5t68.5 9.5q39 0 70.5 -11t52.5 -31t31.5 -48.5t7.5 -62.5
h-84q4 37 -15.5 60t-65.5 23q-39 0 -66 -17.5t-27 -49.5q0 -15 7.5 -25t22.5 -17.5t39 -15t57 -18.5q24 -8 45.5 -16.5t38 -22t26.5 -32.5t10 -48q0 -33 -13.5 -59.5t-37 -44.5t-55.5 -28.5t-68 -11.5l-6 -61q8 10 19.5 15t25.5 5q29 0 51.5 -21t22.5 -57q0 -19 -7.5 -38
t-21.5 -34t-33.5 -24t-43.5 -9q-11 0 -26.5 3t-30 12t-25 26t-11.5 46h53q2 -18 12 -29t29 -11q23 0 37.5 15.5t14.5 37.5q0 19 -11.5 30t-31.5 11q-11 0 -21 -5t-19 -20h-45z" />
    <glyph glyph-name="Scaron" unicode="&#x160;" horiz-adv-x="571" 
d="M160 223q-8 -72 31 -114.5t110 -42.5q33 0 60.5 9.5t48 26.5t32 41t11.5 53t-11 48.5t-28 32t-38.5 21t-42.5 14.5q-44 14 -82 29t-66 36.5t-44.5 52t-16.5 75.5q0 48 19 87t51.5 66.5t75.5 42.5t92 15t88 -15.5t65.5 -43.5t38.5 -67.5t7 -87.5h-91q2 28 -3.5 52
t-19.5 42t-37 28t-56 10q-29 0 -54 -8t-44 -23t-29.5 -36t-10.5 -48q0 -25 9.5 -42.5t25.5 -30.5t37.5 -22t45.5 -16q42 -14 80.5 -29.5t68 -38t46.5 -54.5t17 -79q0 -51 -20.5 -92t-56 -70.5t-82 -45t-98.5 -15.5q-54 0 -97 16.5t-72.5 47.5t-43 75.5t-7.5 99.5h91z
M212 904l57 55l112 -113l136 114l45 -56l-192 -153z" />
    <glyph glyph-name="scaron" unicode="&#x161;" horiz-adv-x="452" 
d="M297 253q28 -9 51 -18.5t39 -22.5t24.5 -31t8.5 -45q0 -36 -15 -63.5t-41 -46t-60.5 -28t-72.5 -9.5q-40 0 -73.5 10t-57.5 30.5t-35.5 51t-7.5 72.5h85q-6 -52 22.5 -73.5t74.5 -21.5q43 0 70.5 17t27.5 52q0 18 -8.5 28.5t-25 18.5t-42.5 16t-60 20q-25 8 -45.5 16.5
t-35 21.5t-22.5 30.5t-8 43.5q0 35 15 62t39.5 45t57 27.5t68.5 9.5q39 0 70.5 -11t53 -31t31.5 -48.5t7 -62.5h-84q5 37 -15 60t-67 23q-39 0 -65.5 -17.5t-26.5 -49.5q0 -15 6.5 -24.5t21.5 -17.5t38.5 -15.5t56.5 -18.5zM123 677l56 55l113 -113l137 114l44 -56
l-192 -153z" />
    <glyph glyph-name="Tcommaaccent" unicode="&#x162;" horiz-adv-x="478" 
d="M258 618h-181l9 82h454l-9 -82h-182l-65 -618h-91zM174 -79q0 25 18 43t46 18q27 0 42.5 -20t15.5 -59q0 -60 -35.5 -90.5t-97.5 -30.5l4 35q42 0 59.5 17.5t17.5 35.5q0 5 -1 6q-8 -6 -22 -6q-20 0 -33.5 14.5t-13.5 36.5z" />
    <glyph glyph-name="tcommaaccent" unicode="&#x163;" horiz-adv-x="340" 
d="M68 454h84l16 153h87l-16 -153h118l-8 -73h-118l-22 -209q-3 -33 0.5 -52.5t12.5 -30t22 -13.5t30 -3q14 0 31.5 1t27.5 3l-8 -77q-13 -2 -35 -4t-45 -2q-21 0 -45 4t-44 19.5t-31 47.5t-5 88l24 228h-84zM136 -80q0 26 18.5 44t45.5 18t42.5 -20t15.5 -58q0 -58 -35 -90
t-98 -32l4 36q42 0 60 23q7 8 11 17.5t5 17.5q-6 -6 -22 -6q-20 0 -33.5 14.5t-13.5 35.5z" />
    <glyph glyph-name="Tcaron" unicode="&#x164;" horiz-adv-x="478" 
d="M258 618h-181l9 82h454l-9 -82h-182l-65 -618h-91zM160 901l57 56l111 -114l137 114l45 -56l-192 -153z" />
    <glyph glyph-name="tcaron" unicode="&#x165;" horiz-adv-x="500" 
d="M68 454h84l16 153h87l-16 -153h118l-8 -73h-118l-22 -209q-3 -33 0.5 -52.5t12.5 -30t22 -13.5t30 -3q14 0 31.5 1t27.5 3l-8 -77q-13 -2 -35 -4t-45 -2q-21 0 -45 4t-44 19.5t-31 47.5t-5 88l24 228h-84zM364 640q0 30 22.5 51.5t55.5 21.5q32 0 51 -23t19 -71
q0 -74 -43.5 -110.5t-115.5 -36.5l4 42q51 0 72 30q10 12 13.5 22.5t5.5 19.5q-7 -7 -25 -7q-26 0 -42.5 17.5t-16.5 43.5z" />
    <glyph glyph-name="Tbar" unicode="&#x166;" horiz-adv-x="478" 
d="M464 423h-135l-45 -423h-91l45 423h-132l6 66h132l14 129h-181l9 82h454l-9 -82h-182l-14 -129h135z" />
    <glyph glyph-name="tbar" unicode="&#x167;" horiz-adv-x="340" 
d="M325 0q-13 -2 -34.5 -4t-44.5 -2q-21 0 -45.5 4t-44.5 19.5t-31 47.5t-5 88l7 64h-84l6 59h84l11 105h-84l8 73h84l16 153h87l-16 -153h118l-8 -73h-118l-11 -105h97l-6 -59h-97l-5 -45q-4 -33 -0.5 -52.5t12.5 -30t22.5 -13.5t30.5 -3q14 0 31.5 1t27.5 3z" />
    <glyph glyph-name="Utilde" unicode="&#x168;" horiz-adv-x="629" 
d="M145 700h91l-50 -473q-3 -33 4.5 -62.5t25.5 -51.5t44.5 -34.5t60.5 -12.5t64 13t52.5 35t36.5 51t17 62l50 473h91l-50 -473q-5 -50 -27 -94t-57.5 -77t-83 -52.5t-102.5 -19.5q-56 0 -98.5 19.5t-70.5 52.5t-40.5 77t-7.5 94zM474 862q20 0 37 13.5t30 35.5l59 -33
q-28 -45 -64 -65t-71 -20q-24 0 -42 7.5t-32.5 17t-27.5 17t-29 7.5q-20 0 -36 -14t-29 -35l-55 40q27 42 61 60t69 18q25 0 42.5 -7.5t32 -17t27.5 -17t28 -7.5z" />
    <glyph glyph-name="utilde" unicode="&#x169;" horiz-adv-x="565" 
d="M487 0h-87l9 81q-25 -42 -68.5 -67t-103.5 -25q-43 0 -76 14.5t-53 44.5q-15 23 -19.5 56t0.5 82l28 268h87l-25 -240q-3 -32 0 -59t14.5 -47t31.5 -31t51 -11q34 0 60 13t44.5 34.5t29 49.5t13.5 58l24 233h88zM414 640q20 0 37 14t29 35l61 -33q-29 -46 -65 -65
t-70 -19q-25 0 -43 7.5t-32.5 17t-28 17t-28.5 7.5q-21 0 -36.5 -14.5t-28.5 -34.5l-56 40q28 42 62 59.5t68 17.5q25 0 43 -7.5t32 -17t27 -17t29 -7.5z" />
    <glyph glyph-name="Umacron" unicode="&#x16a;" horiz-adv-x="629" 
d="M145 700h91l-50 -473q-3 -33 4.5 -62.5t25.5 -51.5t44.5 -34.5t60.5 -12.5t64 13t52.5 35t36.5 51t17 62l50 473h91l-50 -473q-5 -50 -27 -94t-57.5 -77t-83 -52.5t-102.5 -19.5q-56 0 -98.5 19.5t-70.5 52.5t-40.5 77t-7.5 94zM577 802h-358l8 77h358z" />
    <glyph glyph-name="umacron" unicode="&#x16b;" horiz-adv-x="565" 
d="M487 0h-87l9 81q-25 -42 -68.5 -67t-103.5 -25q-43 0 -76 14.5t-53 44.5q-15 23 -19.5 56t0.5 82l28 268h87l-25 -240q-3 -32 0 -59t14.5 -47t31.5 -31t51 -11q34 0 60 13t44.5 34.5t29 49.5t13.5 58l24 233h88zM521 570h-358l8 78h358z" />
    <glyph glyph-name="Ubreve" unicode="&#x16c;" horiz-adv-x="629" 
d="M145 700h91l-50 -473q-3 -33 4.5 -62.5t25.5 -51.5t44.5 -34.5t60.5 -12.5t64 13t52.5 35t36.5 51t17 62l50 473h91l-50 -473q-5 -50 -27 -94t-57.5 -77t-83 -52.5t-102.5 -19.5q-56 0 -98.5 19.5t-70.5 52.5t-40.5 77t-7.5 94zM400 843q44 0 75 22t45 61h81
q-9 -33 -29 -60.5t-48 -47.5t-62 -31.5t-71 -11.5t-68.5 11.5t-55 31.5t-37.5 47.5t-16 60.5h82q7 -39 33.5 -61t70.5 -22z" />
    <glyph glyph-name="ubreve" unicode="&#x16d;" horiz-adv-x="565" 
d="M487 0h-87l9 81q-25 -42 -68.5 -67t-103.5 -25q-43 0 -76 14.5t-53 44.5q-15 23 -19.5 56t0.5 82l28 268h87l-25 -240q-3 -32 0 -59t14.5 -47t31.5 -31t51 -11q34 0 60 13t44.5 34.5t29 49.5t13.5 58l24 233h88zM344 617q42 0 73 22.5t45 60.5h82q-9 -33 -29.5 -61
t-48 -48t-61 -31t-69.5 -11q-37 0 -68 11.5t-53.5 31.5t-36.5 47.5t-16 60.5h81q6 -38 32 -60.5t69 -22.5z" />
    <glyph glyph-name="Uring" unicode="&#x16e;" horiz-adv-x="629" 
d="M145 700h91l-50 -473q-3 -33 4.5 -62.5t25.5 -51.5t44.5 -34.5t60.5 -12.5t64 13t52.5 35t36.5 51t17 62l50 473h91l-50 -473q-5 -50 -27 -94t-57.5 -77t-83 -52.5t-102.5 -19.5q-56 0 -98.5 19.5t-70.5 52.5t-40.5 77t-7.5 94zM416 976q24 0 44.5 -9t35.5 -24t23 -35.5
t8 -43.5q0 -27 -11 -51.5t-30 -42.5t-43 -29t-51 -11q-24 0 -44.5 9t-35.5 24.5t-23.5 36t-8.5 43.5q0 27 11.5 51t30 42.5t43 29t51.5 10.5zM411 920q-29 0 -51.5 -21.5t-22.5 -50.5q0 -26 17 -43t43 -17q29 0 51.5 21t22.5 51q0 25 -16.5 42.5t-43.5 17.5z" />
    <glyph glyph-name="uring" unicode="&#x16f;" horiz-adv-x="565" 
d="M487 0h-87l9 81q-25 -42 -68.5 -67t-103.5 -25q-43 0 -76 14.5t-53 44.5q-15 23 -19.5 56t0.5 82l28 268h87l-25 -240q-3 -32 0 -59t14.5 -47t31.5 -31t51 -11q34 0 60 13t44.5 34.5t29 49.5t13.5 58l24 233h88zM357 758q25 0 46.5 -9.5t37 -25t24 -36.5t8.5 -45
q0 -28 -11.5 -53t-31 -44t-45 -30t-53.5 -11q-26 0 -47 9.5t-36 25t-23.5 36.5t-8.5 45q0 28 11.5 53.5t31 44t45 29.5t52.5 11zM352 705q-16 0 -30.5 -6.5t-25 -17.5t-17 -25.5t-6.5 -30.5q0 -27 18 -46.5t47 -19.5q16 0 30.5 6.5t25 17.5t17 25.5t6.5 30.5q0 27 -18 46.5
t-47 19.5z" />
    <glyph glyph-name="Uhungarumlaut" unicode="&#x170;" horiz-adv-x="629" 
d="M145 700h91l-50 -473q-3 -33 4.5 -62.5t25.5 -51.5t44.5 -34.5t60.5 -12.5t64 13t52.5 35t36.5 51t17 62l50 473h91l-50 -473q-5 -50 -27 -94t-57.5 -77t-83 -52.5t-102.5 -19.5q-56 0 -98.5 19.5t-70.5 52.5t-40.5 77t-7.5 94zM576 958l73 -38l-174 -151l-42 23z
M381 958l73 -38l-174 -151l-42 23z" />
    <glyph glyph-name="uhungarumlaut" unicode="&#x171;" horiz-adv-x="565" 
d="M535 454l-48 -454h-87l9 81q-25 -42 -68.5 -67t-103.5 -25q-43 0 -76 14.5t-53 44.5q-15 23 -19.5 56t0.5 82l28 268h87l-25 -240q-3 -32 0 -59t14.5 -47t31.5 -31t51 -11q34 0 60 13t44.5 34.5t29 49.5t13.5 58l24 233h88zM212 514l-41 23l142 166l73 -38zM407 514
l-41 23l142 166l73 -38z" />
    <glyph glyph-name="Uogonek" unicode="&#x172;" horiz-adv-x="629" 
d="M397 -197q-17 -5 -41 -10t-48 -5q-55 0 -81 26t-26 63q0 31 18 57.5t55 52.5q-46 6 -81.5 27.5t-59 54t-33.5 73t-5 85.5l50 473h91l-50 -473q-3 -33 4.5 -62.5t25.5 -51.5t44.5 -34.5t60.5 -12.5t64 13t52.5 35t36.5 51t17 62l50 473h91l-50 -473q-5 -47 -25 -89
t-52.5 -74.5t-75.5 -53.5t-94 -25q-21 -16 -34.5 -35.5t-13.5 -42.5q0 -22 13 -37.5t41 -15.5q13 0 30.5 3.5t33.5 9.5z" />
    <glyph glyph-name="uogonek" unicode="&#x173;" horiz-adv-x="565" 
d="M237 -11q-43 0 -76 14.5t-53 44.5q-15 23 -19.5 56t0.5 82l28 268h87l-25 -240q-3 -32 0 -59t14.5 -47t31.5 -31t51 -11q34 0 60 13t44.5 34.5t29 49.5t13.5 58l24 233h88l-48 -454h-21q-36 -18 -62.5 -42t-26.5 -58q0 -20 12 -33t38 -13q11 0 27.5 3t30.5 8l-7 -63
q-16 -5 -39.5 -9.5t-46.5 -4.5q-55 0 -81.5 25t-26.5 62q0 36 27 66t89 63l9 77q-25 -42 -68.5 -67t-103.5 -25z" />
    <glyph glyph-name="Wcircumflex" unicode="&#x174;" horiz-adv-x="964" 
d="M539 542l-226 -542h-68l-165 700h96l119 -542l227 542h69l113 -542l233 542h96l-314 -700h-67zM584 957l162 -153l-56 -56l-115 114l-139 -114l-45 56z" />
    <glyph glyph-name="wcircumflex" unicode="&#x175;" horiz-adv-x="734" 
d="M405 359l-165 -359h-60l-128 454h93l79 -320l148 320h86l79 -320l148 320h93l-224 -454h-60zM447 739l162 -154l-56 -56l-116 115l-138 -114l-45 55z" />
    <glyph glyph-name="Ycircumflex" unicode="&#x176;" horiz-adv-x="591" 
d="M234 0h-100l170 278l-220 422h106l171 -327l199 327h100zM411 957l163 -153l-57 -56l-115 114l-138 -114l-45 56z" />
    <glyph glyph-name="ycircumflex" unicode="&#x177;" horiz-adv-x="573" 
d="M259 -256q-106 0 -154.5 51t-40.5 146h88q-2 -60 25.5 -91.5t91.5 -31.5q27 0 50 6.5t41 22t30 41.5t16 65l13 128q-25 -42 -67.5 -67t-103.5 -25q-49 0 -80.5 16t-48.5 42t-20.5 59.5t1.5 82.5l28 265h87l-25 -238q-3 -33 -0.5 -60.5t13.5 -47.5t31.5 -31t52.5 -11
q35 0 61.5 13t44.5 35t28 50t13 57l24 233h88l-53 -501q-11 -109 -72 -159t-162 -50zM366 739l161 -154l-55 -56l-115 115l-139 -114l-46 55z" />
    <glyph glyph-name="Ydieresis" unicode="&#x178;" horiz-adv-x="591" 
d="M234 0h-100l170 278l-220 422h106l171 -327l199 327h100zM453 837q0 15 6 28.5t16.5 23.5t23.5 16t28 6q27 0 43.5 -18t16.5 -44q0 -30 -21.5 -51t-51.5 -21q-27 0 -44 17t-17 43zM224 837q0 31 21.5 52.5t51.5 21.5q26 0 43.5 -18t17.5 -44q0 -30 -22 -51t-52 -21
q-27 0 -43.5 17t-16.5 43z" />
    <glyph glyph-name="Zacute" unicode="&#x179;" horiz-adv-x="565" 
d="M109 700h521l-454 -618h392l-9 -82h-545l454 618h-368zM264 751l-35 69l264 137l34 -69z" />
    <glyph glyph-name="zacute" unicode="&#x17a;" horiz-adv-x="434" 
d="M462 454l-283 -376h244l-8 -78h-391l283 377h-235l8 77h382zM167 502l-35 68l263 137l35 -68z" />
    <glyph glyph-name="Zdotaccent" unicode="&#x17b;" horiz-adv-x="565" 
d="M109 700h521l-454 -618h392l-9 -82h-545l454 618h-368zM303 845q0 32 23 54t54 22q27 0 45.5 -18.5t18.5 -45.5q0 -16 -6.5 -29.5t-17.5 -24t-25 -16.5t-29 -6q-27 0 -45 18.5t-18 45.5z" />
    <glyph glyph-name="zdotaccent" unicode="&#x17c;" horiz-adv-x="434" 
d="M462 454l-283 -376h244l-8 -78h-391l283 377h-235l8 77h382zM212 603q0 32 23 54t53 22q28 0 46 -18.5t18 -45.5q0 -32 -23.5 -54t-54.5 -22q-27 0 -44.5 18.5t-17.5 45.5z" />
    <glyph glyph-name="Zcaron" unicode="&#x17d;" horiz-adv-x="565" 
d="M214 901l57 56l111 -114l137 114l45 -56l-192 -153zM109 700h521l-454 -618h392l-9 -82h-545l454 618h-368z" />
    <glyph glyph-name="zcaron" unicode="&#x17e;" horiz-adv-x="434" 
d="M121 673l57 56l112 -114l137 115l44 -57l-192 -153zM462 454l-283 -376h244l-8 -78h-391l283 377h-235l8 77h382z" />
    <glyph glyph-name="longs" unicode="&#x17f;" horiz-adv-x="347" 
d="M401 620q-11 4 -23 6t-32 2q-12 0 -25 -2t-25 -10.5t-21 -25.5t-12 -48l-57 -542h-87l40 381h-98l8 73h98l8 79q6 62 26.5 96.5t46 51.5t51.5 21t43 4q27 0 42.5 -3.5t24.5 -8.5z" />
    <glyph glyph-name="florin" unicode="&#x192;" horiz-adv-x="426" 
d="M-63 -123q11 -4 22.5 -6t30.5 -2q12 0 25 2t26 10.5t25.5 26t23.5 47.5l120 426h-98l20 73h98l22 79q17 62 43.5 96.5t54.5 51.5t54.5 21t44.5 4q28 0 42 -3.5t24 -8.5l-21 -74q-11 4 -22.5 6t-31.5 2q-12 0 -25.5 -2t-27 -10.5t-25.5 -25.5t-21 -48l-25 -88h131l-20 -73
h-131l-117 -417q-17 -62 -43.5 -96.5t-55 -51.5t-55 -21t-43.5 -4q-28 0 -42.5 3.5t-23.5 8.5z" />
    <glyph glyph-name="Aringacute" unicode="&#x1fa;" horiz-adv-x="559" 
d="M426 759q0 -21 -11 -38t-28 -25l167 -696h-96l-26 107h-284l-47 -107h-96l312 694q-29 16 -29 53q0 30 23 52t53 22q26 0 44 -18t18 -44zM185 190h228l-75 361zM360 784q-14 0 -24 -10t-10 -24q0 -11 7.5 -19t20.5 -8q14 0 23.5 9.5t9.5 23.5q0 11 -7.5 19.5t-19.5 8.5z
M240 785l-23 44l264 137l22 -44z" />
    <glyph glyph-name="aringacute" unicode="&#x1fb;" horiz-adv-x="597" 
d="M480 454h86l-47 -454h-86l8 79q-26 -40 -71 -65t-102 -25q-46 0 -84 17.5t-65 47t-41.5 68.5t-14.5 83q0 52 20 99.5t54.5 83.5t81 57t99.5 21q55 0 95 -23.5t59 -66.5zM318 388q-37 0 -68 -14.5t-53.5 -39t-35 -56.5t-12.5 -67q0 -30 9.5 -56t27 -45.5t43 -31
t58.5 -11.5q34 0 63.5 13t52 34.5t36.5 50.5t17 62q3 34 -5.5 63t-26.5 51t-45 34.5t-61 12.5zM393 614q0 22 -14 37t-37 15q-26 0 -44.5 -19t-18.5 -43q0 -21 14.5 -36.5t37.5 -15.5q25 0 43.5 18.5t18.5 43.5zM233 600q0 22 9.5 42.5t25 35.5t36 24t43.5 9q20 0 37 -7.5
t29.5 -20.5t19.5 -30t7 -36q0 -22 -9 -42t-25 -35.5t-36.5 -24.5t-42.5 -9q-21 0 -38 7.5t-29.5 20.5t-19.5 30t-7 36zM202 780l263 137l34 -69l-264 -137z" />
    <glyph glyph-name="AEacute" unicode="&#x1fc;" horiz-adv-x="865" 
d="M552 618l-24 -229h301l-9 -82h-301l-23 -225h301l-9 -82h-393l11 108h-241l-63 -108h-100l419 700h441l-9 -82h-301zM415 190l44 418l-246 -418h202zM481 749l-35 69l263 137l35 -69z" />
    <glyph glyph-name="aeacute" unicode="&#x1fd;" horiz-adv-x="914" 
d="M566 454l-4 -40q27 24 63.5 38t78.5 14t77 -14t60.5 -39t39.5 -60.5t14 -77.5q0 -19 -3 -35.5t-8 -35.5h-342q-3 -29 2.5 -55t20 -45.5t39 -30.5t60.5 -11q52 0 81 21.5t43 50.5h88q-8 -27 -27 -53.5t-47 -46.5t-64.5 -32.5t-79.5 -12.5q-47 0 -80 14.5t-55 37.5l-4 -41
h-86l8 79q-26 -40 -71 -65t-102 -25q-46 0 -84 17.5t-65 47t-41.5 68.5t-14.5 83q0 52 20 99.5t54.5 83.5t81 57t99.5 21q55 0 95 -23.5t59 -66.5l8 78h86zM694 392q-27 0 -51.5 -8t-44 -23.5t-32 -38.5t-16.5 -52h260q6 55 -26.5 88.5t-89.5 33.5zM288 67q37 0 68 14.5
t53.5 38.5t35 56t12.5 67q0 30 -9.5 56.5t-27.5 46t-43.5 31t-57.5 11.5q-37 0 -68.5 -14.5t-54 -39t-35 -56.5t-12.5 -67q0 -30 9.5 -56t27 -45.5t43.5 -31t59 -11.5zM404 490l-34 68l264 137l33 -68z" />
    <glyph glyph-name="Oslashacute" unicode="&#x1fe;" horiz-adv-x="803" 
d="M400 -16q-32 0 -61 4.5t-54 13.5l-46 -86l-60 27l46 86q-36 21 -64 52t-47 68.5t-28.5 79.5t-9.5 86q0 77 29 149t81.5 128t127 90t164.5 34q29 0 55.5 -4t49.5 -12l43 80l59 -27l-42 -78q39 -21 68.5 -52t49.5 -69.5t30.5 -81.5t10.5 -88q0 -77 -29 -149t-81.5 -127.5
t-127 -89.5t-164.5 -34zM171 323q0 -64 25 -121t73 -92l274 513q-35 11 -75 11q-66 0 -120.5 -26.5t-93.5 -70t-61 -99.5t-22 -115zM706 376q0 66 -27.5 125.5t-78.5 93.5l-274 -515q37 -14 83 -14q66 0 120.5 26.5t94 70t61 99t21.5 114.5zM376 749l-34 68l264 137l34 -68z
" />
    <glyph glyph-name="oslashacute" unicode="&#x1ff;" horiz-adv-x="560" 
d="M442 438q49 -28 75.5 -78.5t26.5 -110.5q0 -52 -19.5 -99t-55 -83t-85 -57t-108.5 -21q-19 0 -36.5 2.5t-33.5 8.5l-40 -75l-52 22l40 76q-44 28 -67.5 76.5t-23.5 105.5q0 52 19.5 99t54.5 83t83 57.5t104 21.5q20 0 35 -2.5t30 -5.5l38 71l52 -22zM284 67q39 0 71 14.5
t54.5 38.5t35 55.5t12.5 66.5q0 37 -14.5 68.5t-41.5 51.5l-156 -290q10 -3 20 -4t19 -1zM149 212q0 -34 12 -63.5t34 -49.5l154 285q-11 2 -17.5 3t-14.5 1q-36 0 -67 -14.5t-53.5 -38.5t-35 -56t-12.5 -67zM228 503l-34 68l263 137l35 -68z" />
    <glyph glyph-name="Scommaaccent" unicode="&#x218;" horiz-adv-x="571" 
d="M160 223q-8 -72 31 -114.5t110 -42.5q33 0 60.5 9.5t48 26.5t32 41t11.5 53t-11 48.5t-28 32t-38.5 21t-42.5 14.5q-43 14 -81 29t-66.5 36t-45 52t-16.5 76q0 48 18.5 86.5t50.5 66.5t75 43t92 15t88.5 -15.5t66 -43.5t39 -67.5t7.5 -87.5h-91q2 28 -3.5 52t-19.5 42
t-37 28t-56 10q-29 0 -54 -8t-44 -23t-29.5 -36t-10.5 -48q0 -25 9.5 -42.5t25.5 -30.5t37.5 -22t45.5 -16q42 -14 80.5 -29.5t68 -38t46.5 -54.5t17 -79q0 -51 -20.5 -92t-56 -70.5t-82 -45t-98.5 -15.5q-54 0 -97 16.5t-72.5 47.5t-43 75.5t-7.5 99.5h91zM222 -91
q0 26 18.5 44t45.5 18q26 0 42 -19.5t16 -59.5q0 -60 -36.5 -90.5t-96.5 -30.5l4 36q43 0 60 17t17 35q0 5 -1 6q-6 -6 -22 -6q-20 0 -33.5 14.5t-13.5 35.5z" />
    <glyph glyph-name="scommaaccent" unicode="&#x219;" horiz-adv-x="452" 
d="M164 -78q0 26 18.5 44t45.5 18t43 -20t16 -59q0 -60 -36.5 -91t-96.5 -31l3 36q43 0 61 24q14 17 16 35q-4 -2 -9 -4t-13 -2q-21 0 -34.5 14.5t-13.5 35.5zM142 153q-6 -52 22.5 -73.5t74.5 -21.5q43 0 70.5 17t27.5 52q0 18 -8.5 28.5t-25 18.5t-42.5 16t-60 20
q-25 8 -45.5 16.5t-35 21.5t-22.5 30.5t-8 43.5q0 35 15 62t39.5 45t57 27.5t68.5 9.5q39 0 70.5 -11t53 -31t31.5 -48.5t7 -62.5h-84q5 37 -15 60t-67 23q-39 0 -65.5 -17.5t-26.5 -49.5q0 -15 6.5 -24.5t21.5 -17.5t38.5 -15.5t56.5 -18.5q28 -9 51 -18.5t39 -22.5
t24.5 -31t8.5 -45q0 -36 -15 -63.5t-41 -46t-60.5 -28t-72.5 -9.5q-40 0 -73.5 10t-57.5 30.5t-35.5 51t-7.5 72.5h85z" />
    <glyph glyph-name="uni021A" unicode="&#x21a;" horiz-adv-x="478" 
d="M258 618h-181l9 82h454l-9 -82h-182l-65 -618h-91zM174 -79q0 25 18 43t46 18q27 0 42.5 -20t15.5 -59q0 -60 -35.5 -90.5t-97.5 -30.5l4 35q42 0 59.5 17.5t17.5 35.5q0 5 -1 6q-8 -6 -22 -6q-20 0 -33.5 14.5t-13.5 36.5z" />
    <glyph glyph-name="uni021B" unicode="&#x21b;" horiz-adv-x="340" 
d="M68 454h84l16 153h87l-16 -153h118l-8 -73h-118l-22 -209q-3 -33 0.5 -52.5t12.5 -30t22 -13.5t30 -3q14 0 31.5 1t27.5 3l-8 -77q-13 -2 -35 -4t-45 -2q-21 0 -45 4t-44 19.5t-31 47.5t-5 88l24 228h-84zM136 -80q0 26 18.5 44t45.5 18t42.5 -20t15.5 -58q0 -58 -35 -90
t-98 -32l4 36q42 0 60 23q7 8 11 17.5t5 17.5q-6 -6 -22 -6q-20 0 -33.5 14.5t-13.5 35.5z" />
    <glyph glyph-name="hsuperior" unicode="&#x2b0;" horiz-adv-x="383" 
d="M142 700h66l-18 -172q14 23 38 36.5t57 13.5q47 0 68 -29q20 -28 14 -83l-16 -151h-66l14 135q3 31 -7 51t-40 20q-32 0 -49.5 -23t-20.5 -53l-14 -130h-66z" />
    <glyph glyph-name="jsuperior" unicode="&#x2b2;" horiz-adv-x="223" 
d="M175 263q-3 -24 -10 -40t-17.5 -25t-24 -12.5t-28.5 -3.5q-11 0 -24.5 1.5t-21.5 5.5l5 51q13 -4 23 -4q28 0 31 32l32 305h68zM137 659q0 20 15 35t36 15q18 0 30 -12.5t12 -29.5q0 -20 -15.5 -35t-36.5 -15q-18 0 -29.5 12.5t-11.5 29.5z" />
    <glyph glyph-name="wsuperior" unicode="&#x2b7;" horiz-adv-x="485" 
d="M294 496l-79 -181h-54l-70 258h70l39 -171l71 171h63l35 -171l75 171h70l-124 -258h-54z" />
    <glyph glyph-name="ysuperior" unicode="&#x2b8;" horiz-adv-x="391" 
d="M213 181q-68 0 -94.5 28.5t-22.5 79.5h67q-5 -57 55 -57q28 0 46.5 15t23.5 58l6 58q-14 -23 -38.5 -37t-57.5 -14q-49 0 -70 29q-11 14 -13 35t1 49l16 148h67l-14 -134q-4 -34 6.5 -53.5t39.5 -19.5q33 0 50.5 22.5t20.5 54.5l14 130h68l-28 -265q-8 -69 -43.5 -98
t-99.5 -29z" />
    <glyph glyph-name="circumflex" unicode="&#x2c6;" horiz-adv-x="469" 
d="M320 842l165 -145l-60 -61l-116 101l-135 -100l-49 60z" />
    <glyph glyph-name="caron" unicode="&#x2c7;" horiz-adv-x="427" 
d="M132 749l53 61l101 -105l125 105l41 -61l-176 -145z" />
    <glyph glyph-name="breve" unicode="&#x2d8;" horiz-adv-x="537" 
d="M237 851q8 -42 36.5 -65t74.5 -23t80 23t50 65h74q-9 -33 -29 -60.5t-48.5 -47.5t-62.5 -31.5t-71 -11.5t-68.5 11.5t-55 31.5t-38 47.5t-16.5 60.5h74z" />
    <glyph glyph-name="dotaccent" unicode="&#x2d9;" horiz-adv-x="484" 
d="M239 633q0 16 6.5 30t17 24.5t24.5 16.5t29 6q28 0 46 -19t18 -46q0 -31 -23.5 -53t-54.5 -22q-28 0 -45.5 18.5t-17.5 44.5z" />
    <glyph glyph-name="ring" unicode="&#x2da;" horiz-adv-x="509" 
d="M341 835q24 0 44.5 -9t35.5 -24t23 -35.5t8 -43.5q0 -27 -11 -51.5t-30 -42.5t-43 -29t-51 -11q-24 0 -44.5 9t-35.5 24.5t-23.5 36t-8.5 43.5q0 27 11.5 51t30 42.5t43 29t51.5 10.5zM335 772q-13 0 -25 -5.5t-21 -14.5t-14.5 -20.5t-5.5 -24.5q0 -22 15.5 -37.5
t38.5 -15.5q26 0 45.5 19.5t19.5 45.5q0 22 -15 37.5t-38 15.5z" />
    <glyph glyph-name="ogonek" unicode="&#x2db;" horiz-adv-x="488" 
d="M330 -197q-17 -5 -41.5 -10t-48.5 -5q-55 0 -81 26t-26 63t24 65.5t69 57.5h63q-28 -19 -49 -40.5t-21 -52.5q0 -22 13 -37.5t40 -15.5q13 0 31.5 3.5t33.5 9.5z" />
    <glyph glyph-name="tilde" unicode="&#x2dc;" horiz-adv-x="498" 
d="M144 662q24 14 41 22t29.5 11.5t21 4t15.5 0.5q11 0 30 -4t39.5 -9.5t40.5 -9.5t34 -4q5 0 11 1t14.5 4t21 8t30.5 14l28 -56q-22 -14 -47.5 -27.5t-56.5 -13.5q-17 0 -36 4t-38.5 9t-37.5 9t-32 4q-16 0 -33.5 -6t-42.5 -18z" />
    <glyph glyph-name="hungarumlaut" unicode="&#x2dd;" horiz-adv-x="492" 
d="M470 734l72 -38l-173 -151l-41 23zM275 734l72 -38l-173 -151l-41 23z" />
    <glyph glyph-name="xsuperior" unicode="&#x2e3;" horiz-adv-x="330" 
d="M328 315h-78l-43 83l-61 -83h-78l104 130l-75 128h78l41 -82l60 82h78l-102 -128z" />
    <glyph glyph-name="Delta" unicode="&#x394;" horiz-adv-x="559" 
d="M140 82h297l-99 469zM554 0h-549l315 700h66z" />
    <glyph glyph-name="Omega" unicode="&#x3a9;" horiz-adv-x="718" 
d="M423 630q-58 0 -103.5 -20.5t-77 -55.5t-48 -81t-16.5 -97q0 -39 10 -74.5t29.5 -64t49.5 -49t71 -28.5l-17 -160h-255l9 82h183l3 28q-41 15 -73.5 40.5t-55 60t-34.5 75.5t-12 87q0 67 25 128t70.5 108t109.5 75t141 28q69 0 122 -22.5t89 -60.5t54.5 -89.5
t18.5 -108.5q0 -56 -17 -106.5t-47.5 -92.5t-74 -73.5t-96.5 -48.5l-3 -28h183l-9 -82h-255l17 160q51 10 90.5 35.5t66.5 61.5t40.5 79.5t13.5 88.5q0 42 -12.5 79.5t-37.5 65.5t-63 44t-89 16z" />
    <glyph glyph-name="mu" unicode="&#x3bc;" 
d="M126 454h86l-25 -240q-3 -32 0 -59t15 -46.5t32.5 -31t51.5 -11.5q33 0 58.5 12.5t44 33.5t29.5 49t14 60l24 233h88l-48 -454h-87l8 81q-23 -41 -67 -66.5t-101 -25.5q-54 0 -82 28l-28 -263h-87z" />
    <glyph glyph-name="pi" unicode="&#x3c0;" 
d="M567 377h-63l-40 -377h-86l40 377h-181l-40 -377h-86l40 377h-63l8 77h479z" />
    <glyph glyph-name="Wgrave" unicode="&#x1e80;" horiz-adv-x="964" 
d="M539 542l-226 -542h-68l-165 700h96l119 -542l227 542h69l113 -542l233 542h96l-314 -700h-67zM431 886l48 69l234 -137l-48 -69z" />
    <glyph glyph-name="wgrave" unicode="&#x1e81;" horiz-adv-x="734" 
d="M405 359l-165 -359h-60l-128 454h93l79 -320l148 320h86l79 -320l148 320h93l-224 -454h-60zM290 640l48 68l234 -137l-48 -68z" />
    <glyph glyph-name="Wacute" unicode="&#x1e82;" horiz-adv-x="964" 
d="M539 542l-226 -542h-68l-165 700h96l119 -542l227 542h69l113 -542l233 542h96l-314 -700h-67zM457 749l-34 69l264 137l34 -69z" />
    <glyph glyph-name="wacute" unicode="&#x1e83;" horiz-adv-x="734" 
d="M405 359l-165 -359h-60l-128 454h93l79 -320l148 320h86l79 -320l148 320h93l-224 -454h-60zM316 503l-34 68l264 137l34 -68z" />
    <glyph glyph-name="Wdieresis" unicode="&#x1e84;" horiz-adv-x="964" 
d="M539 542l-226 -542h-68l-165 700h96l119 -542l227 542h69l113 -542l233 542h96l-314 -700h-67zM619 848q0 30 22.5 51.5t51.5 21.5q27 0 44 -17.5t17 -43.5q0 -30 -22.5 -51.5t-51.5 -21.5q-27 0 -44 17.5t-17 43.5zM390 848q0 30 22 51.5t51 21.5q27 0 44.5 -17.5
t17.5 -43.5q0 -15 -6 -28.5t-16.5 -23t-24 -15.5t-28.5 -6q-27 0 -43.5 17.5t-16.5 43.5z" />
    <glyph glyph-name="wdieresis" unicode="&#x1e85;" horiz-adv-x="734" 
d="M405 359l-165 -359h-60l-128 454h93l79 -320l148 320h86l79 -320l148 320h93l-224 -454h-60zM478 604q0 30 22.5 51.5t51.5 21.5q26 0 43.5 -17.5t17.5 -43.5q0 -30 -22.5 -51.5t-51.5 -21.5q-26 0 -43.5 17.5t-17.5 43.5zM249 604q0 30 22 51.5t51 21.5q27 0 44.5 -17.5
t17.5 -43.5q0 -15 -6 -28.5t-16.5 -23t-24 -15.5t-28.5 -6q-27 0 -43.5 17.5t-16.5 43.5z" />
    <glyph glyph-name="Ygrave" unicode="&#x1ef2;" horiz-adv-x="591" 
d="M234 0h-100l170 278l-220 422h106l171 -327l199 327h100zM240 886l49 69l234 -137l-49 -69z" />
    <glyph glyph-name="ygrave" unicode="&#x1ef3;" horiz-adv-x="573" 
d="M259 -256q-106 0 -154.5 51t-40.5 146h88q-2 -60 25.5 -91.5t91.5 -31.5q27 0 50 6.5t41 22t30 41.5t16 65l13 128q-25 -42 -67.5 -67t-103.5 -25q-49 0 -80.5 16t-48.5 42t-20.5 59.5t1.5 82.5l28 265h87l-25 -238q-3 -33 -0.5 -60.5t13.5 -47.5t31.5 -31t52.5 -11
q35 0 61.5 13t44.5 35t28 50t13 57l24 233h88l-53 -501q-11 -109 -72 -159t-162 -50zM208 640l48 68l235 -137l-48 -68z" />
    <glyph glyph-name="thinspace" unicode="&#x2009;" horiz-adv-x="206" 
 />
    <glyph glyph-name="endash" unicode="&#x2013;" horiz-adv-x="503" 
d="M76 246l8 78h403l-8 -78h-403z" />
    <glyph glyph-name="emdash" unicode="&#x2014;" horiz-adv-x="1006" 
d="M76 246l8 78h906l-8 -78h-906z" />
    <glyph glyph-name="quoteleft" unicode="&#x2018;" horiz-adv-x="269" 
d="M269 573q0 -31 -22 -52.5t-55 -21.5q-32 0 -51 23.5t-19 71.5q0 74 44 110t116 36l-4 -42q-54 0 -73 -30q-17 -22 -19 -42q7 7 26 7q25 0 41 -17t16 -43z" />
    <glyph glyph-name="quoteright" unicode="&#x2019;" horiz-adv-x="269" 
d="M130 666q0 30 22 52t56 22q32 0 50.5 -23.5t18.5 -71.5q0 -72 -42 -109t-117 -37l5 41q26 0 44 8.5t28 22.5q10 12 13.5 22t4.5 20q-5 -7 -24 -7q-26 0 -42.5 17t-16.5 43z" />
    <glyph glyph-name="quotesinglbase" unicode="&#x201a;" horiz-adv-x="269" 
d="M66 49q0 31 22 53t56 22q32 0 50.5 -23.5t18.5 -71.5q0 -75 -44 -111t-115 -36l4 42q52 0 73 30q9 11 13 22t5 20q-5 -7 -25 -7q-26 0 -42 17t-16 43z" />
    <glyph glyph-name="quotedblleft" unicode="&#x201c;" horiz-adv-x="444" 
d="M444 573q0 -31 -22 -52.5t-55 -21.5q-32 0 -51 23t-19 71q0 74 43.5 110.5t115.5 36.5l-4 -42q-52 0 -73 -30q-9 -11 -13 -22t-5 -20q5 7 25 7q26 0 42 -17t16 -43zM269 573q0 -31 -22 -52.5t-55 -21.5q-32 0 -51 23.5t-19 71.5q0 74 44 110t116 36l-4 -42q-54 0 -73 -30
q-17 -22 -19 -42q7 7 26 7q25 0 41 -17t16 -43z" />
    <glyph glyph-name="quotedblright" unicode="&#x201d;" horiz-adv-x="444" 
d="M130 666q0 30 22 52t56 22q32 0 50.5 -23.5t18.5 -71.5q0 -72 -42 -109t-117 -37l5 41q26 0 44 8.5t28 22.5q10 12 13.5 22t4.5 20q-5 -7 -24 -7q-26 0 -42.5 17t-16.5 43zM305 666q0 30 22 52t56 22q32 0 50.5 -23.5t18.5 -72.5q0 -72 -42 -108.5t-118 -36.5l5 41
q26 0 44.5 8.5t27.5 22.5q10 12 14 22t5 20q-7 -7 -25 -7q-26 0 -42 17t-16 43z" />
    <glyph glyph-name="quotedblbase" unicode="&#x201e;" horiz-adv-x="444" 
d="M66 49q0 31 22 53t56 22q32 0 50.5 -23.5t18.5 -71.5q0 -75 -44 -111t-115 -36l4 42q52 0 73 30q9 11 13 22t5 20q-5 -7 -25 -7q-26 0 -42 17t-16 43zM241 49q0 31 22 53t55 22q32 0 51 -24t19 -72q0 -73 -43.5 -109.5t-116.5 -36.5l4 42q54 0 73 30q17 22 19 42
q-7 -7 -26 -7q-25 0 -41 17t-16 43z" />
    <glyph glyph-name="dagger" unicode="&#x2020;" horiz-adv-x="444" 
d="M160 -182l59 561h-124l8 77h124l28 261h87l-28 -261h123l-8 -77h-123l-59 -561h-87z" />
    <glyph glyph-name="daggerdbl" unicode="&#x2021;" horiz-adv-x="444" 
d="M341 717l-27 -261h123l-8 -75h-123l-31 -296h123l-8 -76h-123l-20 -191h-87l20 191h-124l8 76h124l31 296h-124l8 75h124l27 261h87z" />
    <glyph glyph-name="bullet" unicode="&#x2022;" horiz-adv-x="348" 
d="M90 302q0 26 10.5 49t28.5 40.5t41 27.5t49 10q46 0 75.5 -31t29.5 -76q0 -26 -10.5 -49t-28 -40t-41 -27t-48.5 -10q-47 0 -76.5 30.5t-29.5 75.5z" />
    <glyph glyph-name="ellipsis" unicode="&#x2026;" horiz-adv-x="939" 
d="M64 58q0 16 6.5 30t17 24.5t24.5 16.5t29 6q28 0 46 -19t18 -45q0 -32 -24 -54t-55 -22q-27 0 -44.5 18.5t-17.5 44.5zM406 58q0 16 6.5 29.5t17 24t24.5 16.5t29 6q28 0 46 -18.5t18 -45.5q0 -16 -6.5 -29.5t-17.5 -24t-25 -16.5t-29 -6q-28 0 -45.5 19t-17.5 45z
M748 57q0 32 23 54t54 22q27 0 45.5 -18.5t18.5 -45.5q0 -16 -6.5 -29.5t-17.5 -24t-25 -16.5t-29 -6q-28 0 -45.5 18.5t-17.5 45.5z" />
    <glyph glyph-name="perthousand" unicode="&#x2030;" horiz-adv-x="1265" 
d="M994 126q-4 -32 14 -52.5t48 -20.5q32 0 53 21.5t24 51.5l14 133q3 30 -13.5 52t-48.5 22t-53 -22t-24 -52zM1204 124q-3 -27 -15.5 -51t-33 -42t-48 -28.5t-59.5 -10.5t-57 11t-41 29t-23 42.5t-4 51.5l14 135q3 28 16 52t33 42t47 28t59 10q31 0 56 -10.5t42 -28.5
t24.5 -42.5t4.5 -52.5zM743 393q32 0 57 -10.5t41.5 -29t24 -43t4.5 -51.5l-15 -135q-3 -27 -15.5 -51t-33 -42t-48 -28.5t-59.5 -10.5t-57 11t-41 29t-23 42.5t-4 51.5l14 135q3 26 15 50t32 42t47.5 29t60.5 11zM736 333q-32 0 -53 -22t-24 -52l-13 -133q-3 -30 13 -51.5
t48 -21.5t53.5 21.5t24.5 51.5l14 133q3 30 -14 52t-49 22zM134 576q3 27 15.5 50.5t32.5 41.5t47.5 28.5t59.5 10.5t57 -10.5t41.5 -29t24 -42.5t4.5 -51l-15 -136q-3 -27 -15.5 -50.5t-33 -41.5t-47.5 -28.5t-59 -10.5t-57 10.5t-41.5 29t-23.5 42.5t-4 51zM345 574
q3 29 -14 51t-49 22t-52.5 -22t-23.5 -51l-14 -134q-3 -29 13 -51t48 -22t53.5 22t24.5 51zM718 752l65 -40l-516 -753l-65 40z" />
    <glyph glyph-name="guilsinglleft" unicode="&#x2039;" horiz-adv-x="276" 
d="M246 98l-178 167l6 53l213 167l-9 -86l-137 -108l114 -108z" />
    <glyph glyph-name="guilsinglright" unicode="&#x203a;" horiz-adv-x="276" 
d="M59 183l137 108l-114 108l9 86l178 -167l-5 -53l-214 -167z" />
    <glyph glyph-name="fraction" unicode="&#x2044;" horiz-adv-x="217" 
d="M371 752l66 -40l-517 -753l-65 40z" />
    <glyph glyph-name="zerosuperior" unicode="&#x2070;" horiz-adv-x="394" 
d="M117 576q3 27 15.5 51t33 42t47 28.5t58.5 10.5q33 0 58 -10.5t41.5 -29t24 -43t4.5 -51.5q-1 -6 -3 -22q-2 -14 -5 -40.5t-8 -72.5q-3 -28 -16 -52t-33 -42t-47 -28t-58 -10q-33 0 -57.5 11t-41 29t-23.5 42.5t-4 51.5zM327 574q3 30 -13.5 52t-48.5 22t-53 -22t-24 -52
l-14 -133q-3 -32 14.5 -52.5t47.5 -20.5q32 0 53 21.5t24 51.5z" />
    <glyph glyph-name="foursuperior" unicode="&#x2074;" horiz-adv-x="385" 
d="M261 431h-152l28 269h71l-22 -209h81l12 112h72l-12 -112h52l-6 -60h-52l-12 -116h-72z" />
    <glyph glyph-name="fivesuperior" unicode="&#x2075;" horiz-adv-x="401" 
d="M145 700h247l-6 -56h-181l-12 -110q14 20 38 29.5t50 9.5q27 0 48 -9.5t35 -25.5t21 -37t7 -44q0 -30 -11 -57t-31.5 -47.5t-49.5 -32.5t-65 -12q-34 0 -59 11t-41 30t-22.5 43t-3.5 51h70q-4 -31 13 -53.5t50 -22.5q35 0 57 25t22 59q0 28 -16 47.5t-48 19.5
q-44 0 -69 -40h-67z" />
    <glyph glyph-name="sixsuperior" unicode="&#x2076;" horiz-adv-x="380" 
d="M222 309q-31 0 -54.5 9.5t-40 26t-25 38.5t-8.5 47q0 49 31 91l132 179h82l-97 -128q8 2 16 2t16 -1q51 -6 77.5 -39.5t26.5 -78.5q0 -29 -11.5 -55.5t-32 -46.5t-49 -32t-63.5 -12zM228 368q35 0 57 25t22 58q0 29 -17 48.5t-47 19.5q-35 0 -57 -24.5t-22 -58.5
q0 -28 16.5 -48t47.5 -20z" />
    <glyph glyph-name="sevensuperior" unicode="&#x2077;" horiz-adv-x="339" 
d="M385 700l-209 -385h-77l179 325h-161l6 60h262z" />
    <glyph glyph-name="eightsuperior" unicode="&#x2078;" horiz-adv-x="391" 
d="M229 308q-62 0 -95.5 30t-33.5 75q0 36 21.5 65t55.5 38q-24 8 -36.5 29t-12.5 47q0 23 10 44t28 36.5t44 25t59 9.5q59 0 90 -28t31 -70q0 -31 -17.5 -56.5t-50.5 -36.5q28 -8 43 -32t15 -53q0 -24 -10.5 -46.5t-30 -39.5t-47.5 -27t-63 -10zM253 539q31 0 49.5 18.5
t18.5 43.5q0 21 -14.5 36t-42.5 15q-31 0 -49.5 -18t-18.5 -43q0 -22 14.5 -37t42.5 -15zM234 363q35 0 55.5 20t20.5 47q0 23 -16 39.5t-48 16.5q-35 0 -55.5 -20t-20.5 -47q0 -24 16.5 -40t47.5 -16z" />
    <glyph glyph-name="ninesuperior" unicode="&#x2079;" horiz-adv-x="380" 
d="M264 707q31 0 55 -10t40.5 -26.5t25 -38.5t8.5 -47q0 -26 -9 -48t-23 -42l-133 -180h-80l94 125q-2 -2 -6 -2h-7q-29 1 -51 11t-37.5 26t-23.5 37.5t-8 46.5q0 30 11.5 56.5t31.5 47t48.5 32.5t63.5 12zM259 647q-35 0 -57.5 -24.5t-22.5 -58.5q0 -28 17 -48t47 -20
q35 0 57 25t22 59q0 28 -16.5 47.5t-46.5 19.5z" />
    <glyph glyph-name="plussuperior" unicode="&#x207a;" horiz-adv-x="390" 
d="M204 357l9 87h-86l6 55h86l9 87h58l-9 -87h86l-6 -55h-86l-9 -87h-58z" />
    <glyph glyph-name="minussuperior" unicode="&#x207b;" horiz-adv-x="390" 
d="M126 445l6 54h232l-6 -54h-232z" />
    <glyph glyph-name="equalsuperior" unicode="&#x207c;" horiz-adv-x="390" 
d="M130 493l6 55h232l-6 -55h-232zM120 394l6 55h232l-6 -55h-232z" />
    <glyph glyph-name="parenleftsuperior" unicode="&#x207d;" horiz-adv-x="268" 
d="M295 683q-36 0 -60 -24.5t-28 -58.5l-28 -269q-4 -33 15.5 -57.5t55.5 -24.5l-7 -62q-34 0 -60 11.5t-43.5 31t-25 46t-4.5 55.5l28 269q3 29 16 55.5t34.5 46t50.5 31t63 11.5z" />
    <glyph glyph-name="parenrightsuperior" unicode="&#x207e;" horiz-adv-x="268" 
d="M124 744q34 0 60 -11.5t43.5 -31t25 -46t4.5 -55.5l-28 -269q-3 -29 -16 -55.5t-34.5 -46t-50.5 -31t-63 -11.5l7 62q37 0 60 24.5t27 57.5l28 269q4 34 -14.5 58.5t-55.5 24.5z" />
    <glyph glyph-name="nsuperior" unicode="&#x207f;" horiz-adv-x="386" 
d="M129 573h68l-5 -45q14 23 38 36.5t58 13.5q49 0 70 -29q11 -14 13 -34t-1 -48l-16 -152h-67l14 135q3 31 -7 51t-40 20q-32 0 -49.5 -22t-20.5 -54l-14 -130h-68z" />
    <glyph glyph-name="zeroinferior" unicode="&#x2080;" horiz-adv-x="394" 
d="M63 61q3 27 15.5 51t33 42t47 28.5t58.5 10.5q33 0 58 -10.5t41.5 -29t24 -43t4.5 -51.5q-1 -6 -3 -22q-2 -14 -5 -40.5t-8 -72.5q-3 -26 -15 -50t-32 -42t-47 -29t-60 -11q-32 0 -57 10.5t-41.5 29t-23.5 43t-4 51.5zM273 59q3 30 -13.5 52t-48.5 22t-53 -22t-24 -52
l-14 -133q-3 -32 14.5 -53t47.5 -21q32 0 53 22t24 52z" />
    <glyph glyph-name="oneinferior" unicode="&#x2081;" horiz-adv-x="268" 
d="M59 119q54 0 72.5 15.5t21.5 50.5h64l-40 -385h-73l28 267h-78z" />
    <glyph glyph-name="twoinferior" unicode="&#x2082;" horiz-adv-x="370" 
d="M34 -200q5 49 16.5 80.5t28 53t37.5 35.5t46 27q18 9 34.5 18t29.5 19.5t21 24t8 31.5q0 24 -14 36t-38 12q-27 0 -46 -16.5t-23 -50.5h-71q6 53 44.5 87.5t101.5 34.5q49 0 82.5 -24.5t33.5 -75.5q0 -29 -11 -50t-28 -37t-37 -28t-39 -22q-24 -13 -40.5 -23.5t-26 -21
t-14.5 -23t-7 -28.5h179l-6 -59h-261v0z" />
    <glyph glyph-name="threeinferior" unicode="&#x2083;" horiz-adv-x="382" 
d="M111 -77q-4 -34 14 -53t49 -19q33 0 51.5 19.5t18.5 48.5q0 24 -15 38.5t-47 14.5h-33l6 57h33q38 0 53.5 18t15.5 42q0 26 -15 37t-38 11q-32 0 -48 -17t-19 -46h-71q5 49 40.5 83.5t100.5 34.5q52 0 86.5 -24.5t34.5 -71.5q0 -37 -20.5 -62.5t-51.5 -33.5
q28 -9 43.5 -31t15.5 -54q0 -29 -12 -51.5t-32.5 -38t-48 -24t-57.5 -8.5q-65 0 -98 36t-27 94h71z" />
    <glyph glyph-name="fourinferior" unicode="&#x2084;" horiz-adv-x="385" 
d="M207 -84h-152l28 269h71l-22 -209h81l12 112h72l-12 -112h52l-6 -60h-52l-12 -116h-72z" />
    <glyph glyph-name="fiveinferior" unicode="&#x2085;" horiz-adv-x="401" 
d="M91 185h247l-6 -56h-181l-12 -110q14 20 38 29.5t50 9.5q27 0 48 -9.5t35 -25.5t21 -37t7 -44q0 -30 -11 -57t-31.5 -47.5t-49.5 -32.5t-65 -12q-34 0 -59 11t-41 29.5t-22.5 43t-3.5 50.5h70q-4 -30 13 -52.5t50 -22.5q35 0 57 25t22 59q0 28 -16 47.5t-48 19.5
q-45 0 -69 -41h-67z" />
    <glyph glyph-name="sixinferior" unicode="&#x2086;" horiz-adv-x="380" 
d="M169 -207q-31 0 -55 10t-40.5 26.5t-25 38.5t-8.5 47q0 49 31 91l132 179h82l-97 -128q8 2 16 2t16 -1q51 -6 77.5 -39.5t26.5 -78.5q0 -29 -11.5 -56t-31.5 -47t-49 -32t-63 -12zM174 -147q35 0 57 24.5t22 58.5q0 27 -16 47.5t-48 20.5q-35 0 -57 -25t-22 -59
q0 -28 16.5 -47.5t47.5 -19.5z" />
    <glyph glyph-name="seveninferior" unicode="&#x2087;" horiz-adv-x="339" 
d="M331 185l-209 -385h-77l179 325h-161l6 60h262z" />
    <glyph glyph-name="eightinferior" unicode="&#x2088;" horiz-adv-x="391" 
d="M175 -207q-63 0 -96 30t-33 74q0 36 21.5 65.5t55.5 38.5q-24 8 -36.5 29t-12.5 47q0 23 10 44t28 36.5t44 25t59 9.5q59 0 90 -28t31 -70q0 -31 -17.5 -56.5t-50.5 -36.5q28 -8 43 -32t15 -53q0 -25 -10.5 -47t-30.5 -39t-48 -27t-62 -10zM199 24q31 0 49.5 18.5
t18.5 43.5q0 21 -14.5 36t-42.5 15q-31 0 -49.5 -18t-18.5 -43q0 -22 14.5 -37t42.5 -15zM180 -152q35 0 55.5 20t20.5 47q0 23 -16 39.5t-48 16.5q-35 0 -55.5 -20t-20.5 -47q0 -24 16.5 -40t47.5 -16z" />
    <glyph glyph-name="nineinferior" unicode="&#x2089;" horiz-adv-x="380" 
d="M210 192q31 0 55 -10t40.5 -26.5t25 -38.5t8.5 -47q0 -26 -9 -48.5t-24 -42.5l-132 -179h-80l96 127q-6 -5 -16 -5q-26 0 -47.5 9.5t-37.5 26t-25 38.5t-9 49q0 29 11.5 55.5t31.5 47t48.5 32.5t63.5 12zM205 132q-35 0 -57.5 -24.5t-22.5 -58.5q0 -28 17 -48t47 -20
q35 0 57 25t22 59q0 28 -16.5 47.5t-46.5 19.5z" />
    <glyph glyph-name="parenleftinferior" unicode="&#x208d;" horiz-adv-x="268" 
d="M240 168q-36 0 -60 -24.5t-28 -58.5l-28 -269q-4 -34 15 -58.5t55 -24.5l-6 -61q-34 0 -60 11.5t-43.5 31t-25 46t-4.5 55.5l28 269q3 29 16 55.5t34.5 46t50.5 31t63 11.5z" />
    <glyph glyph-name="parenrightinferior" unicode="&#x208e;" horiz-adv-x="268" 
d="M70 229q34 0 60 -11.5t43.5 -31t25 -46t4.5 -55.5l-28 -269q-3 -29 -16 -55.5t-34.5 -46t-50.5 -31t-63 -11.5l6 61q37 0 60.5 24.5t27.5 58.5l28 269q4 34 -14.5 58.5t-55.5 24.5z" />
    <glyph glyph-name="Euro" unicode="&#x20ac;" horiz-adv-x="593" 
d="M578 228q-5 -48 -26.5 -91.5t-56.5 -76.5t-81 -52t-101 -19t-97 19.5t-70 52.5t-40 76t-7 91l1 10h-63l23 67h47l9 89h-62l24 66h45l1 11q4 48 25.5 91.5t56.5 76.5t81.5 52.5t101.5 19.5q51 0 92 -17.5t68.5 -47t42 -69.5t13.5 -85h-92q0 28 -9 53t-26 43.5t-42 29
t-56 10.5q-35 0 -64 -13t-50.5 -35t-34.5 -50t-16 -59l-1 -11h229l-24 -66h-212l-9 -89h227l-23 -67h-211l-1 -10q-3 -32 4 -60.5t24 -50t43 -34t60 -12.5t63 12.5t50.5 34t35.5 50t17 60.5h91z" />
    <glyph glyph-name="afii61289" unicode="&#x2113;" horiz-adv-x="405" 
d="M273 -11q-46 0 -79 19.5t-52 47t-23.5 58t5.5 53.5l2 4l-69 -50l-32 66l111 77l26 243q11 99 48.5 154.5t111.5 55.5q64 0 94.5 -40t30.5 -105q0 -52 -18 -97.5t-50.5 -87t-76 -80t-94.5 -77.5l-7 -69q-4 -35 3.5 -54.5t19.5 -29t26 -11.5t25 -2q38 0 56.5 6t32.5 13
l-3 -71q-14 -10 -37.5 -16.5t-50.5 -6.5zM320 648q-36 0 -55.5 -35t-25.5 -91l-21 -197q43 36 72.5 66.5t47.5 58.5t26 56t8 59q0 37 -11.5 60t-40.5 23z" />
    <glyph glyph-name="afii61352" unicode="&#x2116;" horiz-adv-x="1069" 
d="M511 159l57 541h91l-74 -700h-101l-258 541l-57 -541h-91l74 700h101zM873 319q-44 0 -78 14t-57 38.5t-35 56.5t-12 68q0 43 16 81.5t45.5 67.5t70 46.5t89.5 17.5q43 0 77 -14t57.5 -38t35.5 -56.5t12 -68.5q0 -42 -16 -81t-45.5 -68t-70 -46.5t-89.5 -17.5zM881 395
q27 0 50 10.5t40 28.5t26.5 41.5t9.5 50.5q0 45 -27 76t-76 31q-27 0 -50 -10.5t-40 -28.5t-26.5 -41.5t-9.5 -50.5q0 -45 27 -76t76 -31zM661 215l8 78h401l-8 -78h-401z" />
    <glyph glyph-name="trademark" unicode="&#x2122;" horiz-adv-x="811" 
d="M443 700h107l70 -294l132 294h107l-43 -407h-65l36 334l-150 -334h-58l-78 334l-36 -334h-65zM377 700l-6 -59h-100l-37 -348h-65l37 348h-99l6 59h264z" />
    <glyph glyph-name="uni2126" unicode="&#x2126;" horiz-adv-x="718" 
d="M423 630q-58 0 -103.5 -20.5t-77 -55.5t-48 -81t-16.5 -97q0 -39 10 -74.5t29.5 -64t49.5 -49t71 -28.5l-17 -160h-255l9 82h183l3 28q-41 15 -73.5 40.5t-55 60t-34.5 75.5t-12 87q0 67 25 128t70.5 108t109.5 75t141 28q69 0 122 -22.5t89 -60.5t54.5 -89.5
t18.5 -108.5q0 -56 -17 -106.5t-47.5 -92.5t-74 -73.5t-96.5 -48.5l-3 -28h183l-9 -82h-255l17 160q51 10 90.5 35.5t66.5 61.5t40.5 79.5t13.5 88.5q0 42 -12.5 79.5t-37.5 65.5t-63 44t-89 16z" />
    <glyph glyph-name="estimated" unicode="&#x212e;" horiz-adv-x="525" 
d="M168 233l-19 -181q22 -20 52.5 -30.5t68.5 -10.5q72 0 121 33.5t69 79.5h23q-11 -27 -30.5 -51.5t-47 -43t-62 -29.5t-75.5 -11q-52 0 -90.5 17.5t-63.5 47t-37 68.5t-12 83q0 54 18 101.5t50 83t77.5 56t99.5 20.5q45 0 81 -14.5t61.5 -40t39 -60.5t13.5 -77
q0 -14 -1.5 -22.5t-3.5 -18.5h-332zM311 444q-35 0 -67 -10t-58 -28l-15 -151h236l16 153q-47 36 -112 36z" />
    <glyph glyph-name="arrowleft" unicode="&#x2190;" horiz-adv-x="705" 
d="M40 350l259 216l43 -52l-157 -128h559l-8 -72h-558l130 -127l-55 -53z" />
    <glyph glyph-name="arrowup" unicode="&#x2191;" horiz-adv-x="487" 
d="M318 700l191 -236l-58 -49l-113 144l-59 -559h-72l59 557l-142 -142l-47 49z" />
    <glyph glyph-name="arrowright" unicode="&#x2192;" horiz-adv-x="705" 
d="M740 350l-260 -216l-42 52l156 128h-558l8 72h557l-129 127l53 53z" />
    <glyph glyph-name="arrowdown" unicode="&#x2193;" horiz-adv-x="487" 
d="M244 0l-191 237l57 48l113 -144l59 559h72l-59 -558l142 143l48 -48z" />
    <glyph glyph-name="uni2196" unicode="&#x2196;" horiz-adv-x="570" 
d="M88 597l318 -14l-10 -72l-191 11l353 -394l-56 -51l-353 394l-9 -190l-72 -4z" />
    <glyph glyph-name="uni2197" unicode="&#x2197;" horiz-adv-x="570" 
d="M607 597l-47 -320l-72 4l32 191l-436 -395l-46 51l435 394l-191 -11l4 72z" />
    <glyph glyph-name="uni2198" unicode="&#x2198;" horiz-adv-x="570" 
d="M556 103l-319 14l12 72l190 -11l-354 394l56 51l353 -394l9 191l72 3z" />
    <glyph glyph-name="uni2199" unicode="&#x2199;" horiz-adv-x="570" 
d="M36 103l48 320l71 -3l-31 -192l436 395l45 -51l-435 -394l192 11l-5 -72z" />
    <glyph glyph-name="partialdiff" unicode="&#x2202;" 
d="M323 442q50 0 90.5 -19t65.5 -56l1 8q10 81 3.5 132t-23.5 79.5t-43 39t-56 10.5q-37 0 -66 -12.5t-50 -34.5t-33.5 -52t-16.5 -66h-91q6 52 27 97t55.5 78t81 51.5t104.5 18.5q48 0 85 -15t62 -50.5t37.5 -94.5t12.5 -146q0 -116 -21.5 -197.5t-59 -132.5t-89 -74
t-112.5 -23q-54 0 -94 16t-67 44t-40.5 64.5t-13.5 78.5q0 51 19 97.5t53 81.5t79.5 56t99.5 21zM324 362q-38 0 -69 -13.5t-53 -36t-33.5 -53.5t-11.5 -65q0 -56 33.5 -93t101.5 -37q34 0 63.5 11.5t52.5 37t39 67t24 101.5q-25 46 -66 63.5t-81 17.5z" />
    <glyph glyph-name="uni2206" unicode="&#x2206;" horiz-adv-x="559" 
d="M140 82h297l-99 469zM554 0h-549l315 700h66z" />
    <glyph glyph-name="product" unicode="&#x220f;" horiz-adv-x="645" 
d="M708 713h-63l-101 -959h-91l101 959h-313l-101 -959h-91l101 959h-63l8 81h621z" />
    <glyph glyph-name="summation" unicode="&#x2211;" 
d="M-3 -246l9 85l403 439l-311 438l8 78h519l-8 -81h-404l311 -424l-403 -446h404l-9 -89h-519z" />
    <glyph glyph-name="minus" unicode="&#x2212;" 
d="M112 247l8 77h404l-8 -77h-404z" />
    <glyph glyph-name="radical" unicode="&#x221a;" horiz-adv-x="686" 
d="M27 232h182l73 -316l388 878h96l-467 -1028h-66l-96 388h-118z" />
    <glyph glyph-name="infinity" unicode="&#x221e;" horiz-adv-x="830" 
d="M657 491q43 0 76.5 -14.5t56 -39.5t34.5 -58t12 -70q0 -44 -15.5 -84t-44.5 -70.5t-69.5 -49t-90.5 -18.5q-59 0 -103 28.5t-76 90.5q-46 -62 -96.5 -90.5t-107.5 -28.5q-44 0 -77 15t-55.5 40.5t-34 58.5t-11.5 69q0 41 15 81t43.5 71t69 50t91.5 19q52 0 97.5 -25.5
t82.5 -93.5q43 59 93 89t110 30zM648 413q-43 0 -83 -30t-75 -94q22 -67 56.5 -95.5t76.5 -28.5q29 0 53 11.5t41 30t26.5 43t9.5 51.5q0 47 -28 79.5t-77 32.5zM267 413q-29 0 -52.5 -11.5t-41 -30.5t-27 -43.5t-9.5 -51.5q0 -46 28.5 -78.5t76.5 -32.5q42 0 82.5 29.5
t75.5 94.5q-42 124 -133 124z" />
    <glyph glyph-name="integral" unicode="&#x222b;" horiz-adv-x="286" 
d="M168 -123q-8 -74 -40.5 -103.5t-78.5 -29.5q-17 0 -38 3.5t-32 8.5l8 73q14 -5 23.5 -6.5t17.5 -1.5q48 0 54 61l82 780q8 74 40 103t80 29q16 0 36.5 -3t32.5 -8l-8 -74q-15 5 -24 7t-17 2q-48 0 -54 -62z" />
    <glyph glyph-name="approxequal" unicode="&#x2248;" 
d="M89 232l1 1l8 71q27 31 57 43t56 12t55.5 -9.5t58.5 -22.5q30 -13 56 -24.5t51 -11.5q15 0 31 5t31 13t28 17.5t23 18.5l-8 -76l-1 -1l-8 -71q-27 -29 -57 -42.5t-59 -13.5q-26 0 -51 9.5t-55 24.5q-26 13 -53 23.5t-56 10.5q-36 0 -64 -16.5t-52 -37.5z" />
    <glyph glyph-name="notequal" unicode="&#x2260;" 
d="M284 164l-63 -112h-73l63 112h-108l8 78h142l49 84h-182l8 77h216l63 112h73l-63 -112h115l-8 -77h-149l-49 -84h189l-8 -78h-223z" />
    <glyph glyph-name="lessequal" unicode="&#x2264;" 
d="M514 254l-384 144l7 63l414 145l-8 -81l-284 -95l264 -96zM91 24l8 78h399l-8 -78h-399z" />
    <glyph glyph-name="greaterequal" unicode="&#x2265;" 
d="M124 334l284 96l-264 95l8 81l384 -145l-7 -63l-414 -144zM91 24l8 78h399l-8 -78h-399z" />
    <glyph glyph-name="lozenge" unicode="&#x25ca;" horiz-adv-x="475" 
d="M47 396l236 398h78l151 -398l-235 -396h-78zM247 92l175 304q-3 8 -11.5 31.5t-20 54.5t-23.5 66t-23.5 66t-20 54.5t-11.5 31.5l-175 -304z" />
    <glyph glyph-name="commaaccent" unicode="&#xf6c3;" horiz-adv-x="234" 
d="M64 52q0 26 18.5 44t45.5 18t43 -20t16 -59q0 -61 -37 -91.5t-96 -30.5l4 36q43 0 60 24q15 16 15 35q-6 -6 -21 -6q-21 0 -34.5 14.5t-13.5 35.5z" />
    <glyph glyph-name="asuperior" unicode="&#xf6e9;" horiz-adv-x="402" 
d="M394 573l-28 -258h-68l5 44q-14 -23 -39 -36.5t-56 -13.5q-50 0 -80.5 34.5t-30.5 86.5q0 31 11 58t29.5 47t43.5 31.5t54 11.5q31 0 54 -13.5t32 -36.5l5 45h68zM231 367q35 0 58 25t23 59q0 29 -17 49.5t-49 20.5q-18 0 -33 -7t-26 -18.5t-17 -27t-6 -32.5
q0 -29 17.5 -49t49.5 -20z" />
    <glyph glyph-name="bsuperior" unicode="&#xf6ea;" horiz-adv-x="403" 
d="M170 315h-68l40 385h68l-18 -172q11 20 36 35t59 15q51 0 81.5 -34.5t30.5 -86.5q0 -31 -11 -58t-30 -47t-44.5 -31.5t-54.5 -11.5q-31 0 -53 13.5t-31 36.5zM250 367q35 0 58 25t23 59q0 29 -17 49.5t-49 20.5q-18 0 -33 -7t-26 -18.5t-17 -27t-6 -32.5q0 -29 17.5 -49
t49.5 -20z" />
    <glyph glyph-name="dsuperior" unicode="&#xf6eb;" horiz-adv-x="402" 
d="M303 359q-14 -23 -39 -36.5t-56 -13.5q-50 0 -80.5 34.5t-30.5 86.5q0 31 11 58t29.5 47t43.5 31.5t54 11.5q31 0 54 -13.5t32 -36.5l18 172h68l-41 -385h-68zM231 367q35 0 58 25t23 59q0 29 -17 49.5t-49 20.5q-18 0 -33 -7t-26 -18.5t-17 -27t-6 -32.5q0 -29 17.5 -49
t49.5 -20z" />
    <glyph glyph-name="esuperior" unicode="&#xf6ec;" horiz-adv-x="368" 
d="M164 428q-3 -28 10.5 -49t50.5 -21q26 0 40.5 11t21.5 25h66q-10 -35 -44.5 -60t-87.5 -25q-63 0 -93.5 35.5t-30.5 86.5q0 30 10.5 57t29.5 47.5t46.5 32t60.5 11.5q57 0 88.5 -31t31.5 -76q0 -10 -1.5 -20t-4.5 -24h-194zM240 530q-30 0 -48.5 -17.5t-21.5 -43.5h128
q2 25 -12.5 43t-45.5 18z" />
    <glyph glyph-name="isuperior" unicode="&#xf6ed;" horiz-adv-x="222" 
d="M134 659q0 20 15.5 35t36.5 15q19 0 30.5 -12.5t11.5 -29.5q0 -20 -15 -35t-36 -15q-19 0 -31 12.5t-12 29.5zM205 573l-27 -258h-68l27 258h68z" />
    <glyph glyph-name="lsuperior" unicode="&#xf6ee;" horiz-adv-x="206" 
d="M142 700h68l-40 -385h-68z" />
    <glyph glyph-name="msuperior" unicode="&#xf6ef;" horiz-adv-x="531" 
d="M433 315l15 143q3 30 -6.5 46.5t-33.5 16.5t-40.5 -19t-20.5 -57l-14 -130h-66l15 140q4 35 -6 50.5t-32 15.5t-39.5 -17t-22.5 -60l-14 -129h-66l27 258h66l-5 -45q11 21 32.5 35.5t53.5 14.5t49.5 -14.5t21.5 -37.5q12 23 35 37.5t57 14.5q25 0 40.5 -8.5t24.5 -22.5
t11 -33t0 -40l-17 -159h-65z" />
    <glyph glyph-name="osuperior" unicode="&#xf6f0;" horiz-adv-x="382" 
d="M225 309q-63 0 -96 36t-33 87q0 29 11 55.5t31.5 47t49 32.5t63.5 12q31 0 55 -10t40.5 -26.5t25 -39t8.5 -47.5q0 -29 -11.5 -56t-31.5 -47t-49 -32t-63 -12zM230 367q35 0 58 25t23 60q0 29 -17 49t-49 20q-18 0 -33 -7t-26 -18.5t-17 -27t-6 -32.5q0 -29 17.5 -49
t49.5 -20z" />
    <glyph glyph-name="rsuperior" unicode="&#xf6f1;" horiz-adv-x="278" 
d="M300 511q-16 4 -27 4q-38 0 -62.5 -23t-29.5 -72l-11 -105h-68l27 258h68l-5 -50q12 24 36.5 39t54.5 15q12 0 23 -4z" />
    <glyph glyph-name="ssuperior" unicode="&#xf6f2;" horiz-adv-x="331" 
d="M243 464q42 -13 59.5 -26.5t17.5 -42.5q0 -45 -33.5 -65.5t-83.5 -20.5q-56 0 -86 23.5t-25 69.5h67q-2 -26 11 -36.5t35 -10.5q21 0 35 8.5t14 24.5q0 17 -17 23.5t-53 17.5q-37 11 -56 23.5t-19 42.5q0 42 33.5 63t82.5 21q56 0 80.5 -24t20.5 -62h-66q2 20 -8.5 30.5
t-30.5 10.5q-19 0 -31.5 -8.5t-12.5 -23.5q0 -16 16 -22.5t50 -15.5z" />
    <glyph glyph-name="tsuperior" unicode="&#xf6f3;" horiz-adv-x="261" 
d="M256 315q-9 -2 -22 -3t-30 -1q-14 0 -29.5 2t-27.5 11t-18 27t-3 50l13 120h-44l5 52h44l9 83h68l-9 -83h64l-5 -52h-64l-11 -105q-4 -33 7 -41.5t28 -8.5q8 0 16.5 0.5t14.5 1.5z" />
    <glyph glyph-name="apple" unicode="&#xf8ff;" horiz-adv-x="800" 
d="M473 717q80 0 141 -27.5t102.5 -73t63 -105.5t21.5 -125q0 -77 -29 -150t-81.5 -129t-126 -90t-162.5 -34q-80 0 -141.5 27.5t-103 73t-63 105.5t-21.5 125q0 77 29 149.5t82 129t126.5 90.5t162.5 34zM473 695q-42 0 -79 -8t-67 -21t-59 -32t-55 -44
q-25 -24 -44.5 -52.5t-33.5 -57.5q-17 -35 -25.5 -66.5t-12.5 -63.5q-7 -66 11 -129q8 -32 22 -59.5t33 -50.5q20 -24 43.5 -43t54.5 -33q64 -29 140 -29t145 29q34 14 61 32.5t53 43.5q49 48 79 110q15 31 27 67.5t12 92.5q0 26 -3 51t-9 48q-8 29 -22 57t-34 53
q-40 48 -98 76q-63 29 -139 29zM192 228q12 -8 31 -20t42.5 -23.5t51 -19.5t56.5 -8q42 4 82 8q34 4 70 8t62 7q-18 -23 -41.5 -44.5t-61.5 -39.5q-30 -14 -60 -22t-53 -8q-47 0 -91.5 37.5t-87.5 124.5zM247 259l207 268l-136 -243h178l-2 -25h-247zM248 169q12 -21 29 -36
t36 -24t36.5 -13t31.5 -4q22 0 49 9t51 20t41.5 21t21.5 13q-35 -7 -78.5 -15t-87.5 -8q-15 0 -33.5 1.5t-36 5.5t-33.5 11.5t-27 18.5zM254 496q0 20 14 33.5t32 13.5q17 0 28 -11t11 -28q0 -19 -14 -33t-33 -14q-17 0 -27.5 11.5t-10.5 27.5zM551 496q0 20 14 33.5
t32 13.5q17 0 28 -11t11 -28q0 -19 -14 -33t-33 -14q-17 0 -27.5 11.5t-10.5 27.5zM617 161q4 9 4 18q0 7 -2 13q-2 5 -3 5q-2 2 -1.5 1.5t-1.5 0.5q-3 1 -2.5 1t-1.5 1l-13 5q-7 4 -15 8t-16 11q-11 9 -16 20l-2 11q-2 7 -2.5 8t0.5 6q-1 8 -1.5 15.5t0.5 15.5q2 5 2.5 10
t2.5 9l14 -5q0 -2 -1 -4.5t-1 -5.5l-1 -13q0 -7 -0.5 -14t1.5 -13q1 -2 1.5 -6t2.5 -6q2 -6 7.5 -12t9.5 -8q8 -5 15.5 -8t9.5 -5l14 -6q2 -1 3 -2l3 -3q6 -5 5.5 -5.5t1.5 -3.5q3 -9 3 -19q0 -13 -4 -24zM248 331q-1 -5 -0.5 -10t0.5 -10v-12q0 -8 -2.5 -16t-6.5 -13
q-2 -5 -15 -11q-4 -2 -5 -2q-5 -2 -11 -4.5t-11 -5.5q-4 -1 -10 -5q-2 -1 -3 -2t-4 -3q-4 -7 -6 -13l-4 -17h-16q1 5 1.5 10t2.5 10q4 13 11 20q4 4 6 5t5 3l11 7q4 2 11.5 5t13.5 5l1 1q5 2 10 8q5 5 5 16v12l-1 20zM600 196q1 1 -0.5 -7t-2.5 -8q-3 -1 -10 -1q7 7 13 16z
" />
    <glyph glyph-name="commaturn" horiz-adv-x="234" 
d="M251 655q0 -26 -18.5 -44t-45.5 -18q-26 0 -42.5 19.5t-16.5 59.5q0 60 36.5 91t96.5 31l-4 -36q-43 0 -59 -24q-8 -9 -11.5 -18t-4.5 -17q8 6 21 6q21 0 34.5 -14.5t13.5 -35.5z" />
    <glyph glyph-name="zero.slash" 
d="M285 -12q-55 0 -97 19t-69.5 52t-39.5 76t-7 91l26 248q5 48 26.5 91.5t56 76t80.5 51.5t101 19q54 0 96.5 -19t70 -51.5t40 -76t7.5 -91.5l-26 -248q-5 -48 -26.5 -91t-56.5 -76t-81.5 -52t-100.5 -19zM229 87q26 -17 65 -17q34 0 62.5 12.5t50.5 34t35.5 49.5t16.5 60
l27 248q2 15 -1.5 34t-12.5 34zM163 226q-4 -41 13 -74l246 460q-15 8 -32.5 13t-37.5 5q-33 0 -61.5 -12.5t-50 -33.5t-35 -49.5t-16.5 -60.5z" />
    <glyph glyph-name="zero.tlfslash" 
d="M98 474q5 48 26.5 91.5t56 76t80.5 51.5t101 19q54 0 96.5 -19t70 -51.5t40 -76t7.5 -91.5l-26 -248q-5 -48 -26.5 -91t-56.5 -76t-81.5 -52t-101.5 -19t-97 19.5t-69.5 52.5t-39.5 76t-7 90zM486 474q2 20 -2 37t-12 31l-243 -455q26 -17 65 -17q34 0 62.5 12.5t50.5 34
t35.5 49.5t16.5 60zM163 226q-4 -41 13 -74l246 460q-15 8 -32.5 13t-37.5 5q-33 0 -61.5 -12.5t-50 -33.5t-35 -49.5t-16.5 -60.5z" />
    <glyph glyph-name="zero.tlf" 
d="M98 474q5 48 26.5 91.5t56 76t80.5 51.5t101 19q54 0 96.5 -19t70 -51.5t40 -76t7.5 -91.5l-26 -248q-5 -48 -26.5 -91t-56.5 -76t-81.5 -52t-101.5 -19t-97 19.5t-69.5 52.5t-39.5 76t-7 90zM486 474q3 33 -5 61.5t-25.5 49.5t-43.5 33t-59 12q-34 0 -62.5 -12.5
t-50.5 -33.5t-35.5 -49.5t-16.5 -60.5l-26 -248q-3 -31 4 -59.5t24.5 -50t43.5 -34t60 -12.5t62.5 12.5t50.5 34t35.5 49.5t16.5 60z" />
    <glyph glyph-name="one.tlf" 
d="M166 584h49q133 0 156 116h87l-74 -700h-95l54 511h-185z" />
    <glyph glyph-name="two.tlf" 
d="M79 0q9 83 28.5 139t49 94.5t69 65t87.5 50.5q27 13 56.5 28t54 35.5t40.5 48t16 65.5q0 51 -29.5 77t-80.5 26q-60 0 -100.5 -35t-47.5 -102h-91q5 51 27 92t56 69t76.5 43t89.5 15q42 0 77.5 -12t60.5 -35t39 -56t14 -75q0 -56 -23.5 -97.5t-56.5 -71t-70 -49.5
t-64 -34q-47 -25 -77 -45.5t-48.5 -43t-27 -48.5t-12.5 -62h333l-9 -82h-437v0z" />
    <glyph glyph-name="three.tlf" 
d="M161 221q-3 -37 6 -65t28 -47t45 -28.5t57 -9.5q34 0 62 11t47.5 30.5t30.5 45t11 55.5q0 48 -30.5 80t-99.5 32h-50l9 81h50q37 0 63.5 10t43.5 27t25 39.5t8 46.5q0 51 -30.5 75.5t-82.5 24.5q-66 0 -101.5 -34.5t-41.5 -92.5h-91q5 48 25.5 86.5t52.5 66t73 42
t88 14.5q42 0 78.5 -12t63 -34.5t42 -55.5t15.5 -74q0 -65 -36 -109.5t-90 -60.5q50 -17 78.5 -54.5t28.5 -96.5q0 -50 -20.5 -91.5t-55.5 -71t-81 -46t-97 -16.5q-49 0 -91 15.5t-71.5 45.5t-44 73t-8.5 98h91z" />
    <glyph glyph-name="four.tlf" 
d="M355 225h-261l50 475h91l-41 -393h170l22 216h91l-22 -216h105l-9 -82h-105l-24 -225h-91z" />
    <glyph glyph-name="five.tlf" 
d="M136 700h412l-8 -82h-330l-25 -234q27 41 74.5 60.5t95.5 19.5q47 0 84 -16.5t62.5 -45t38.5 -67t13 -81.5q0 -54 -20 -102t-55 -84t-84 -57.5t-107 -21.5q-55 0 -97.5 19t-70 52t-40 76t-7.5 91h91q-3 -32 4.5 -60t24.5 -49.5t43 -34t60 -12.5q36 0 66.5 14t52.5 38
t34 55t12 65q0 29 -9 54.5t-26 44t-42 29.5t-57 11q-44 0 -79.5 -21t-59.5 -63h-93z" />
    <glyph glyph-name="six.tlf" 
d="M287 -11q-52 0 -92.5 17.5t-68 46.5t-42 68t-14.5 83q0 48 15.5 87.5t41.5 74.5l244 334h105l-186 -246q12 8 25.5 10t23.5 2q48 0 87.5 -17t67.5 -46.5t43 -69t15 -84.5q0 -52 -20 -99t-55 -83t-84 -57t-106 -21zM295 71q36 0 66 14t52 37.5t34.5 54.5t12.5 66
q0 29 -9 54.5t-26.5 44.5t-42.5 30t-57 11q-36 0 -66 -14t-51.5 -37.5t-34 -54.5t-12.5 -65q0 -29 9 -54.5t26 -45t42 -30.5t57 -11z" />
    <glyph glyph-name="seven.tlf" 
d="M599 700l-385 -700h-97l343 618h-304l9 82h434z" />
    <glyph glyph-name="eight.tlf" 
d="M279 -11q-52 0 -92 15t-67.5 40.5t-42 60t-14.5 73.5q0 30 8.5 59.5t25.5 55t42.5 45t59.5 28.5q-47 17 -66.5 54.5t-19.5 80.5t17 81t48.5 66.5t75.5 45.5t98 17q49 0 86.5 -14t63 -38t39 -56t13.5 -69q0 -26 -7 -51.5t-21.5 -48t-36.5 -40.5t-53 -28q26 -8 44.5 -23.5
t30.5 -36t18 -44.5t6 -48q0 -45 -18.5 -85.5t-52 -71.5t-80.5 -49.5t-105 -18.5zM322 397q32 0 58 10t44 27.5t28 40t10 48.5q0 45 -30 75.5t-87 30.5q-32 0 -57.5 -10t-44.5 -27.5t-29 -40.5t-10 -49q0 -45 30.5 -75t87.5 -30zM287 71q36 0 65 11t49.5 29.5t31.5 43.5
t11 53q0 24 -8.5 44.5t-25 36.5t-41.5 25t-58 9q-36 0 -65 -11t-49.5 -29.5t-31 -43.5t-10.5 -52q0 -50 34.5 -83t97.5 -33z" />
    <glyph glyph-name="nine.tlf" 
d="M361 711q51 0 91.5 -17t68.5 -46.5t42.5 -68.5t14.5 -83q0 -48 -16 -87.5t-42 -74.5l-243 -334h-105l186 246q-8 -7 -22.5 -9t-28.5 -2q-48 0 -86.5 17t-66.5 46.5t-43 69t-15 84.5q0 52 20 99t55 82.5t84 56.5t106 21zM353 629q-36 0 -66 -14t-52.5 -37.5t-35 -54.5
t-12.5 -65q0 -29 9.5 -55t26.5 -45t42 -30t57 -11q36 0 66 14t52 37.5t34 54.5t12 66q0 29 -9 54.5t-26 44.5t-41.5 30t-56.5 11z" />
    <glyph glyph-name="csuperior" horiz-adv-x="368" 
d="M298 473q0 21 -12.5 34.5t-40.5 13.5q-41 0 -61 -26t-20 -60q0 -29 15.5 -48.5t49.5 -19.5q26 0 41 11.5t22 31.5h68q-9 -41 -44 -71t-94 -30q-32 0 -55.5 10t-39 26.5t-23 39t-7.5 46.5q0 28 10 55t29.5 47.5t47.5 33t65 12.5q31 0 53.5 -9t36.5 -24t20.5 -34t6.5 -39
h-68z" />
    <glyph glyph-name="fsuperior" horiz-adv-x="261" 
d="M293 648q-10 5 -26 5q-15 0 -28.5 -7t-16.5 -35l-4 -38h67l-5 -52h-67l-22 -206h-68l22 206h-50l5 52h50l4 34q4 36 16 55.5t27 29t29.5 11.5t24.5 2q20 0 30 -2t18 -4z" />
    <glyph glyph-name="gsuperior" horiz-adv-x="401" 
d="M246 521q-18 0 -33 -7t-26 -18.5t-17 -27t-6 -32.5q0 -29 17.5 -49t49.5 -20q35 0 58 25t23 59q0 29 -17 49.5t-49 20.5zM366 310q-8 -70 -47 -99.5t-106 -29.5q-39 0 -64.5 8.5t-40.5 23.5t-20.5 35t-4.5 42h68q0 -23 14 -40.5t51 -17.5q32 0 54 17t27 57l6 54
q-13 -20 -36.5 -34t-56.5 -14q-51 0 -82 33.5t-31 85.5q0 30 10.5 57t29.5 47t44 31.5t54 11.5q32 0 54.5 -13t31.5 -36l4 44h69z" />
    <glyph glyph-name="ksuperior" horiz-adv-x="347" 
d="M248 443l97 -128h-82l-81 112l-12 -112h-68l40 385h68l-25 -240l105 113h82z" />
    <glyph glyph-name="psuperior" horiz-adv-x="403" 
d="M193 529q11 19 35.5 34t58.5 15q51 0 82 -35t31 -87q0 -30 -11 -57t-30 -47t-44.5 -31.5t-54.5 -11.5q-31 0 -53.5 13.5t-31.5 36.5l-18 -171h-68l40 385h68zM265 521q-18 0 -33 -7t-26 -18.5t-17 -27t-6 -32.5q0 -29 17.5 -49t49.5 -20q35 0 58 25t23 59q0 29 -17 49.5
t-49 20.5z" />
    <glyph glyph-name="qsuperior" horiz-adv-x="403" 
d="M326 573h68l-40 -385h-68l18 171q-14 -23 -39 -36.5t-56 -13.5q-50 0 -80.5 34.5t-30.5 86.5q0 31 11 58t29.5 47t43.5 31.5t54 11.5q33 0 55.5 -14.5t30.5 -34.5zM247 521q-18 0 -33 -7t-26 -18.5t-17 -27t-6 -32.5q0 -29 17.5 -49t49.5 -20q35 0 58 25t23 59
q0 29 -17 49.5t-49 20.5z" />
    <glyph glyph-name="usuperior" horiz-adv-x="386" 
d="M350 315h-68l4 45q-14 -25 -39 -38t-56 -13q-49 0 -70 29q-12 17 -13 39t1 44l16 152h67l-14 -135q-3 -32 7 -52t40 -20q32 0 49.5 22.5t20.5 54.5l14 130h68z" />
    <glyph glyph-name="vsuperior" horiz-adv-x="349" 
d="M162 573l53 -178l92 178h71l-144 -258h-54l-89 258h71z" />
    <glyph glyph-name="zsuperior" horiz-adv-x="317" 
d="M336 573l-149 -200h125l-6 -58h-231l149 200h-121l6 58h227z" />
    <glyph glyph-name="plusinferior" horiz-adv-x="390" 
d="M150 -158l9 87h-86l6 55h86l9 87h58l-9 -87h86l-6 -55h-86l-9 -87h-58z" />
    <glyph glyph-name="minusinferior" horiz-adv-x="390" 
d="M72 -71l6 55h232l-6 -55h-232z" />
    <glyph glyph-name="equalinferior" horiz-adv-x="390" 
d="M76 -22l6 55h232l-6 -55h-232zM66 -121l6 55h232l-6 -55h-232z" />
    <glyph glyph-name="multiply.case" 
d="M447 459l56 -61l-129 -116l102 -113l-62 -54l-100 112l-127 -115l-55 61l126 115l-99 112l61 55l100 -112z" />
    <glyph glyph-name="Iacute.smcp" horiz-adv-x="277" 
d="M152 560h91l-59 -560h-91zM112 587l-26 62l219 106l27 -62z" />
    <glyph glyph-name="parenleft.smcp" horiz-adv-x="363" 
d="M367 551q-27 0 -49.5 -10t-39 -26.5t-27 -39t-13.5 -47.5l-44 -416q-3 -25 3 -47.5t19.5 -39t34 -26.5t47.5 -10l-9 -79q-47 0 -83 16t-59.5 44t-34 64.5t-6.5 77.5l44 416q4 40 22 76.5t47.5 64.5t69 44t86.5 16z" />
    <glyph glyph-name="Ibreve.smcp" horiz-adv-x="277" 
d="M151 560h92l-58 -560h-92zM119 718q6 -27 29 -42.5t59 -15.5q37 0 64 16t38 42h74q-7 -29 -24.5 -52t-42 -39.5t-54.5 -25.5t-61 -9q-32 0 -59 9t-48 25.5t-34 40t-15 51.5h74z" />
    <glyph glyph-name="uni0438.002" horiz-adv-x="565" 
d="M535 454l-48 -454h-87l9 81q-25 -42 -68.5 -67t-102.5 -25q-46 0 -79 15.5t-51 43.5q-15 26 -19.5 58t0.5 80l28 268h87l-25 -240q-3 -32 0 -59t14.5 -47t31.5 -31t51 -11q34 0 60 13t44.5 34.5t29 49.5t13.5 58l24 233h88z" />
    <glyph glyph-name="Dcroat.smcp" horiz-adv-x="630" 
d="M335 560q65 0 114 -21.5t82 -56.5t50 -81.5t17 -95.5q0 -57 -22.5 -112t-64 -98t-101 -69t-134.5 -26h-183l26 246h-99l7 70h99l26 244h183zM310 246h-101l-18 -167h91q52 0 93.5 19t70.5 50t45 70.5t16 80.5q0 35 -12 68t-35 58.5t-57 40.5t-78 15h-91l-18 -165h101z
" />
    <glyph glyph-name="Scaron.smcp" horiz-adv-x="534" 
d="M176 180q-6 -54 22 -86t82 -32q48 0 80.5 26t32.5 69q0 21 -8 34.5t-21 23.5t-30 17t-36 13q-35 12 -66 24.5t-54 29.5t-36.5 42t-13.5 61q0 40 16 72t43.5 54t64 33.5t77.5 11.5q43 0 75.5 -12.5t54.5 -35t31.5 -54.5t6.5 -71h-90q4 49 -19 74.5t-68 25.5
q-43 0 -72 -22.5t-29 -62.5q0 -37 26 -54.5t65 -30.5q33 -11 64 -23t55 -30t39 -44.5t15 -65.5q0 -41 -16.5 -74t-45 -56.5t-67.5 -36.5t-84 -13q-47 0 -83.5 14t-60.5 39t-34.5 60.5t-5.5 79.5h90zM213 727l49 53l82 -84l102 84l38 -53l-150 -120z" />
    <glyph glyph-name="Nacute.smcp" horiz-adv-x="613" 
d="M446 143l44 417h89l-59 -560h-95l-198 415l-44 -415h-90l59 560h96zM284 596l-27 62l219 107l27 -62z" />
    <glyph glyph-name="Q.smcp" horiz-adv-x="710" 
d="M678 307q0 -53 -17 -101.5t-47.5 -88t-72.5 -68.5t-92 -44l43 -67l-84 -41l-55 90q-63 0 -112 22t-82.5 58.5t-50.5 84.5t-17 100q0 61 23.5 119t66 103t102 72t131.5 27q64 0 113.5 -22t83 -58.5t50.5 -85t17 -100.5zM364 68q49 0 89.5 20t70 52.5t45.5 74.5t16 87
q0 37 -11.5 71.5t-34.5 60.5t-56.5 42t-77.5 16q-49 0 -89.5 -19.5t-70 -52t-45.5 -74.5t-16 -87q0 -37 11.5 -71.5t34.5 -61t56.5 -42.5t77.5 -16z" />
    <glyph glyph-name="Eth.smcp" horiz-adv-x="630" 
d="M335 560q64 0 113 -21.5t82.5 -56.5t50.5 -81.5t17 -95.5q0 -57 -22.5 -112t-64.5 -98t-101.5 -69t-133.5 -26h-183l26 245h-89l7 71h89l26 244h183zM302 245h-93l-17 -166h90q52 0 93.5 19t70.5 50t44.5 70.5t15.5 80.5q0 35 -11.5 68t-34.5 58.5t-57 40.5t-79 15h-90
l-18 -165h93z" />
    <glyph glyph-name="Tbar.smcp" horiz-adv-x="456" 
d="M408 322h-101l-34 -322h-90l34 322h-99l8 69h99l9 90h-139l8 79h369l-8 -79h-140l-9 -90h101z" />
    <glyph glyph-name="Lcommaaccent.smcp" horiz-adv-x="414" 
d="M152 560h90l-51 -481h176l-8 -79h-266zM155 -68q0 23 16.5 38.5t40.5 15.5q23 0 36 -16.5t13 -51.5q0 -52 -30.5 -79t-85.5 -27l3 31q38 0 52.5 15t14.5 32v3q-7 -5 -18 -5q-19 0 -30.5 12.5t-11.5 31.5z" />
    <glyph glyph-name="Y.smcp" horiz-adv-x="546" 
d="M235 0h-99l133 218l-172 342h105l124 -252l151 252h99z" />
    <glyph glyph-name="Ncaron.smcp" horiz-adv-x="613" 
d="M446 143l44 417h89l-59 -560h-95l-198 415l-44 -415h-90l59 560h96zM249 717l49 53l83 -85l102 85l37 -53l-148 -121z" />
    <glyph glyph-name="Uogonek.smcp" horiz-adv-x="574" 
d="M356 -158q-14 -5 -33.5 -8.5t-39.5 -3.5q-47 0 -68 21t-21 51q0 24 14 44.5t44 42.5q-38 5 -67.5 22.5t-48.5 43.5t-27.5 59t-4.5 69l40 377h90l-40 -376q-3 -24 3 -45.5t19 -37.5t32.5 -25.5t45.5 -9.5q25 0 47 9.5t38.5 25.5t26.5 37.5t13 45.5l40 376h89l-40 -377
q-4 -38 -20 -72t-42 -60t-61 -43t-77 -20q-17 -12 -28 -27.5t-11 -34.5q0 -18 10.5 -30.5t32.5 -12.5q11 0 24.5 3t26.5 8z" />
    <glyph glyph-name="Rcaron.smcp" horiz-adv-x="565" 
d="M152 560h211q41 0 74 -14t56 -38t35 -56t12 -68q0 -33 -10 -63.5t-28.5 -56.5t-44.5 -45.5t-58 -31.5l97 -187h-103l-91 173h-101l-18 -173h-90zM234 484l-25 -235h114q27 0 50 10.5t39.5 28t26 41t9.5 49.5q0 44 -26 75t-73 31h-115zM212 717l48 54l84 -84l102 84
l37 -54l-148 -119z" />
    <glyph glyph-name="three.denominator" horiz-adv-x="382" 
d="M132 123q-4 -34 14 -53t49 -19q33 0 51.5 19.5t18.5 48.5q0 24 -15 39t-47 15h-33l6 56h33q38 0 53.5 18t15.5 42q0 26 -15 37t-38 11q-32 0 -48 -17t-19 -46h-71q5 49 40.5 83.5t100.5 34.5q52 0 86.5 -24.5t34.5 -71.5q0 -37 -20.5 -62.5t-51.5 -33.5q26 -8 42.5 -29.5
t16.5 -55.5q0 -29 -12 -51.5t-32.5 -38t-48 -24t-57.5 -8.5q-65 0 -98 36t-27 94h71z" />
    <glyph glyph-name="Obreve.smcp" horiz-adv-x="710" 
d="M356 -13q-65 0 -114 22t-83 58.5t-51 84.5t-17 100q0 61 23.5 119t66 103t102 72t131.5 27q64 0 113.5 -22t83 -58.5t50.5 -84t17 -99.5q0 -62 -23.5 -120t-65.5 -103t-101.5 -72t-131.5 -27zM364 68q49 0 89.5 20t70 52.5t45.5 74.5t16 87q0 37 -11.5 71.5t-34.5 60.5
t-56.5 42t-77.5 16q-49 0 -89.5 -19.5t-70 -52t-45.5 -74.5t-16 -87q0 -37 11.5 -71.5t34.5 -61t56.5 -42.5t77.5 -16zM335 717q7 -27 30 -42.5t59 -15.5q38 0 64.5 16t37.5 42h73q-6 -29 -24 -52t-42.5 -39.5t-54.5 -25.5t-61 -9q-32 0 -59 9t-48 25.5t-33.5 40t-13.5 51.5
h72z" />
    <glyph glyph-name="Lacute.smcp" horiz-adv-x="414" 
d="M367 79l-8 -79h-266l59 560h89l-51 -481h177zM133 596l-26 62l219 107l26 -62z" />
    <glyph glyph-name="two.plf.smcp" horiz-adv-x="520" 
d="M78 0q7 67 22.5 112.5t39 77t55 53t69.5 40.5q23 11 47 23.5t43.5 28t32 36.5t12.5 50q0 38 -21.5 56.5t-58.5 18.5q-44 0 -74 -25.5t-35 -76.5h-91q4 39 21 71.5t44 55.5t63.5 36t78.5 13q36 0 66 -9.5t51.5 -27.5t34 -45t12.5 -63q0 -39 -14.5 -69.5t-38.5 -54
t-54.5 -41.5t-62.5 -34q-36 -19 -59.5 -34.5t-38.5 -32t-22 -36t-10 -46.5h263l-8 -77h-367v0z" />
    <glyph glyph-name="C.smcp" horiz-adv-x="689" 
d="M647 181q-14 -41 -41 -76.5t-64.5 -61.5t-84 -41t-99.5 -15q-64 0 -114 21.5t-84 57.5t-51.5 84.5t-17.5 102.5q0 61 22.5 119t64.5 102.5t102 71.5t135 27q59 0 104.5 -17t77 -46t49 -68t20.5 -84h-94q-7 60 -49 97.5t-114 37.5q-52 0 -94 -20t-71.5 -52.5t-45.5 -74.5
t-16 -86q0 -40 13 -75t37 -61t58 -41t77 -15q63 0 111.5 31t71.5 82h97z" />
    <glyph glyph-name="ampersand.smcp" horiz-adv-x="555" 
d="M338 261h196l-8 -74h-46q-5 -44 -23 -80.5t-45.5 -62.5t-64.5 -40t-81 -14q-38 0 -71 10.5t-57.5 30.5t-39 48.5t-14.5 65.5q0 57 32.5 92.5t82.5 53.5q-37 14 -57 41.5t-20 70.5q0 39 16 70t43.5 52.5t64 33t76.5 11.5q44 0 76.5 -13.5t53.5 -36.5t29.5 -54t4.5 -65h-90
q5 43 -15.5 69.5t-68.5 26.5q-45 0 -73 -23.5t-28 -67.5q0 -34 20.5 -55.5t71.5 -21.5h11l-8 -74h-11q-32 0 -55 -8.5t-37.5 -22.5t-21.5 -32t-7 -38q0 -42 27 -65.5t69 -23.5q49 0 81.5 32t40.5 90h-62z" />
    <glyph glyph-name="J.smcp" horiz-adv-x="510" 
d="M442 182q-5 -44 -21 -79.5t-42.5 -61.5t-63 -40t-80.5 -14q-45 0 -79.5 14.5t-56.5 40.5t-31.5 62t-4.5 78h90q-6 -52 17.5 -84t71.5 -32q44 0 74.5 29.5t36.5 86.5l40 378h89z" />
    <glyph glyph-name="Amacron.smcp" horiz-adv-x="543" 
d="M506 0h-97l-18 83h-222l-37 -83h-95l255 560h76zM201 158h174l-58 278zM483 638h-290l7 69h290z" />
    <glyph glyph-name="nine.denominator" horiz-adv-x="380" 
d="M231 392q31 0 55 -10t40.5 -26.5t25 -38.5t8.5 -47q0 -26 -9 -48t-23 -42l-133 -180h-80l94 125q-2 -2 -6 -2h-7q-29 1 -51 11t-37.5 26t-23.5 37.5t-8 46.5q0 30 11.5 56.5t31.5 47t48.5 32.5t63.5 12zM226 332q-35 0 -57.5 -24.5t-22.5 -58.5q0 -28 17 -48t47 -20
q35 0 57 25t22 59q0 28 -16.5 47.5t-46.5 19.5z" />
    <glyph glyph-name="Aring.smcp" horiz-adv-x="543" 
d="M506 0h-97l-18 83h-222l-37 -83h-95l255 560h76zM201 158h174l-58 278zM354 787q20 0 37 -7.5t29 -20t19 -29.5t7 -36q0 -23 -9.5 -43t-25 -35t-36 -24t-42.5 -9q-20 0 -37 7.5t-29.5 20t-19.5 29.5t-7 36q0 22 9.5 42.5t25.5 35.5t36.5 24t42.5 9zM348 732
q-21 0 -36 -15.5t-15 -35.5q0 -18 12 -30t30 -12q20 0 35.5 15t15.5 35q0 17 -11.5 30t-30.5 13z" />
    <glyph glyph-name="Idotaccent.smcp" horiz-adv-x="277" 
d="M152 560h91l-59 -560h-91zM149 675q0 27 20 46.5t47 19.5q25 0 40.5 -16t15.5 -39q0 -27 -20.5 -47t-47.5 -20q-25 0 -40 16.5t-15 39.5z" />
    <glyph glyph-name="Hcircumflex.smcp" horiz-adv-x="608" 
d="M451 239h-243l-25 -239h-90l59 560h90l-26 -243h243l26 243h89l-59 -560h-89zM385 770l137 -120l-54 -53l-93 82l-109 -81l-44 52z" />
    <glyph glyph-name="three.numerator" horiz-adv-x="382" 
d="M165 438q-4 -34 14 -53t49 -19q33 0 51.5 19.5t18.5 48.5q0 24 -15 39t-47 15h-33l6 56h33q38 0 53.5 18t15.5 42q0 26 -15 37t-38 11q-32 0 -48 -17t-19 -46h-71q5 49 40.5 83.5t100.5 34.5q52 0 86.5 -24.5t34.5 -71.5q0 -37 -20.5 -62.5t-51.5 -33.5q26 -8 42.5 -29.5
t16.5 -55.5q0 -29 -12 -51.5t-32.5 -38t-48 -24t-57.5 -8.5q-65 0 -98 36t-27 94h71z" />
    <glyph glyph-name="uni0437.002" horiz-adv-x="465" 
d="M91 -64q-2 -28 6.5 -50t24.5 -37t38 -23t46 -8q27 0 51 10t42 29.5t28.5 49t10.5 69.5q0 27 -5.5 51t-18.5 42t-34 28.5t-52 10.5h-38l7 62h39q54 0 87 36.5t33 93.5q0 42 -19.5 67t-64.5 25q-48 0 -74.5 -27t-30.5 -65h-84q4 36 20.5 66t43.5 51.5t62 33t75 11.5
q75 0 115.5 -40t40.5 -110t-37 -113t-91 -54q52 -9 82 -54.5t30 -116.5q0 -54 -17.5 -96.5t-48 -72t-73 -45.5t-92.5 -16q-45 0 -81 12.5t-61 37t-37 60.5t-7 82h84z" />
    <glyph glyph-name="Racute.smcp" horiz-adv-x="565" 
d="M152 560h211q41 0 74 -14t56 -38t35 -56t12 -68q0 -33 -10 -63.5t-28.5 -56.5t-44.5 -45.5t-58 -31.5l97 -187h-103l-91 173h-101l-18 -173h-90zM234 484l-25 -235h114q27 0 50 10.5t39.5 28t26 41t9.5 49.5q0 44 -26 75t-73 31h-115zM258 596l-27 62l219 107l27 -62z
" />
    <glyph glyph-name="Scommaaccent.smcp" horiz-adv-x="534" 
d="M176 180q-6 -54 22 -86t82 -32q48 0 80.5 26t32.5 69q0 21 -8 34.5t-21 23.5t-30 17t-36 13q-35 12 -65.5 24t-54 29.5t-37 42.5t-13.5 62q0 40 16 71.5t43 53.5t63.5 33.5t77.5 11.5q44 0 77 -13t54.5 -36t31 -55t6.5 -69h-90q4 49 -19 74.5t-68 25.5q-43 0 -72 -22.5
t-29 -62.5q0 -37 26 -54.5t65 -30.5q33 -11 64 -23t55 -30t39 -44.5t15 -65.5q0 -41 -16.5 -74t-45 -56.5t-67.5 -36.5t-84 -13q-47 0 -83.5 14t-60.5 39t-34.5 60.5t-5.5 79.5h90zM212 -76q0 23 16 38t39 15t37.5 -16.5t14.5 -51.5q0 -51 -31.5 -78.5t-85.5 -27.5l3 31
q19 0 32.5 5t21 11.5t11 14.5t3.5 14q0 2 -0.5 2.5t-0.5 1.5v1q-6 -4 -18 -4q-19 0 -30.5 12t-11.5 32z" />
    <glyph glyph-name="Icircumflex.smcp" horiz-adv-x="277" 
d="M152 560h91l-59 -560h-91zM219 770l137 -121l-53 -53l-93 82l-109 -81l-43 52z" />
    <glyph glyph-name="A.smcp" horiz-adv-x="543" 
d="M506 0h-97l-18 83h-222l-37 -83h-95l255 560h76zM201 158h174l-58 278z" />
    <glyph glyph-name="E.smcp" horiz-adv-x="504" 
d="M234 485l-18 -170h233l-8 -74h-233l-17 -165h233l-8 -76h-323l59 560h323l-8 -75h-233z" />
    <glyph glyph-name="AEacute.smcp" horiz-adv-x="769" 
d="M497 485l-18 -170h232l-8 -74h-232l-17 -165h232l-8 -76h-322l9 84h-185l-48 -84h-98l333 560h370l-8 -75h-232zM373 159l33 315l-183 -315h150zM423 596l-26 62l219 107l26 -62z" />
    <glyph glyph-name="Adieresis.001.smcp" horiz-adv-x="543" 
d="M308 592h-59l81 104h58zM407 592h-59l81 104h58zM506 0h-97l-18 83h-222l-37 -83h-95l255 560h76zM201 158h174l-58 278z" />
    <glyph glyph-name="Abreve.smcp" horiz-adv-x="543" 
d="M506 0h-97l-18 83h-222l-37 -83h-95l255 560h76zM201 158h174l-58 278zM251 718q7 -27 29.5 -42.5t58.5 -15.5q37 0 64 16t38 42h74q-7 -29 -24.5 -52t-42 -39.5t-54.5 -25.5t-61 -9q-32 0 -59 9t-48 25.5t-33.5 40t-15.5 51.5h74z" />
    <glyph glyph-name="Udieresis.smcp" horiz-adv-x="574" 
d="M144 560h90l-40 -376q-3 -24 3 -45.5t19 -37.5t32.5 -25.5t45.5 -9.5q25 0 47 9.5t38.5 25.5t26.5 37.5t13 45.5l40 376h89l-40 -377q-4 -41 -22 -76.5t-47 -62t-68 -42t-85 -15.5q-47 0 -82.5 15.5t-59 42t-34 62t-6.5 76.5zM390 668q0 28 19.5 47.5t46.5 19.5
q25 0 40.5 -16t15.5 -40q0 -27 -20 -46t-48 -19q-24 0 -39 15.5t-15 38.5zM202 669q0 27 20 46.5t47 19.5q24 0 40 -16t16 -40q0 -27 -20.5 -46t-47.5 -19q-24 0 -39.5 15.5t-15.5 39.5z" />
    <glyph glyph-name="six.numerator" horiz-adv-x="380" 
d="M222 309q-31 0 -54.5 9.5t-40 26t-25 38.5t-8.5 47q0 49 31 91l132 179h82l-97 -128q8 2 16 2t16 -1q51 -6 77.5 -39.5t26.5 -78.5q0 -29 -11.5 -55.5t-32 -46.5t-49 -32t-63.5 -12zM228 368q35 0 57 25t22 58q0 29 -17 48.5t-47 19.5q-35 0 -57 -24.5t-22 -58.5
q0 -28 16.5 -48t47.5 -20z" />
    <glyph glyph-name="Cacute.smcp" horiz-adv-x="689" 
d="M647 181q-14 -41 -41 -76.5t-64.5 -61.5t-84 -41t-99.5 -15q-64 0 -114 21.5t-84 57.5t-51.5 84.5t-17.5 102.5q0 61 22.5 119t64.5 102.5t102 71.5t135 27q59 0 104.5 -17t77 -46t49 -68t20.5 -84h-94q-7 60 -49 97.5t-114 37.5q-52 0 -94 -20t-71.5 -52.5t-45.5 -74.5
t-16 -86q0 -40 13 -75t37 -61t58 -41t77 -15q63 0 111.5 31t71.5 82h97zM323 596l-26 62l221 107l25 -62z" />
    <glyph glyph-name="minus.numerator" horiz-adv-x="390" 
d="M126 445l6 54h232l-6 -54h-232z" />
    <glyph glyph-name="Uacute.smcp" horiz-adv-x="574" 
d="M144 560h90l-40 -376q-3 -24 3 -45.5t19 -37.5t32.5 -25.5t45.5 -9.5q25 0 47 9.5t38.5 25.5t26.5 37.5t13 45.5l40 376h89l-40 -377q-4 -41 -22 -76.5t-47 -62t-68 -42t-85 -15.5q-47 0 -82.5 15.5t-59 42t-34 62t-6.5 76.5zM250 596l-27 62l221 107l25 -62z" />
    <glyph glyph-name="Aacute.smcp" horiz-adv-x="543" 
d="M506 0h-97l-18 83h-222l-37 -83h-95l255 560h76zM201 158h174l-58 278zM246 587l-27 62l220 106l26 -62z" />
    <glyph glyph-name="Imacron.smcp" horiz-adv-x="277" 
d="M151 560h92l-59 -560h-92zM351 638h-290l7 69h290z" />
    <glyph glyph-name="equal.denominator" horiz-adv-x="390" 
d="M97 178l6 55h232l-6 -55h-232zM87 79l6 55h232l-6 -55h-232z" />
    <glyph glyph-name="F.smcp" horiz-adv-x="500" 
d="M234 482l-20 -187h233l-8 -77h-233l-23 -218h-90l59 560h323l-8 -78h-233z" />
    <glyph glyph-name="one.numerator" horiz-adv-x="268" 
d="M113 634q54 0 72.5 15.5t21.5 50.5h64l-40 -385h-73l28 267h-78z" />
    <glyph glyph-name="parenleft.denominator" horiz-adv-x="268" 
d="M261 368q-36 0 -59.5 -24.5t-27.5 -58.5l-29 -269q-4 -34 15 -58.5t55 -24.5l-6 -61q-34 0 -60 11.5t-43.5 31t-25 46t-4.5 55.5l28 269q3 29 16 55.5t34.5 46t50.5 31t63 11.5z" />
    <glyph glyph-name="exclamdown.smcp" horiz-adv-x="311" 
d="M151 380h92l-40 -384h-92zM146 499q0 28 21 48.5t49 20.5q26 0 41.5 -17.5t15.5 -40.5q0 -28 -20.5 -48.5t-49.5 -20.5q-25 0 -41 17t-16 41z" />
    <glyph glyph-name="brokenbar.smcp" horiz-adv-x="325" 
d="M122 276l37 353h85l-37 -353h-85zM198 191l-37 -355h-85l37 355h85z" />
    <glyph glyph-name="D.smcp" horiz-adv-x="630" 
d="M335 560q64 0 113.5 -21.5t82.5 -56.5t50 -81.5t17 -95.5q0 -57 -22.5 -112t-64 -98t-101 -69t-134.5 -26h-183l59 560h183zM234 481l-43 -402h90q52 0 93.5 19t71 50t45 70.5t15.5 80.5q0 35 -11.5 68t-34.5 58.5t-57 40.5t-79 15h-90z" />
    <glyph glyph-name="Gdotaccent.smcp" horiz-adv-x="732" 
d="M432 277h280l-8 -73h-59q-27 -101 -103 -159t-186 -58q-66 0 -116 21.5t-83 57.5t-49.5 83t-16.5 99q0 63 23.5 121.5t65.5 104t101 72.5t131 27q51 0 92 -14t70 -37.5t45.5 -55.5t17.5 -68h-93q-5 39 -42.5 67.5t-98.5 28.5q-50 0 -90.5 -20t-69.5 -53t-45 -76t-16 -89
q0 -38 11.5 -73t34.5 -61t57.5 -41.5t81.5 -15.5q75 0 122.5 39t62.5 100h-128zM364 675q0 27 20 46.5t46 19.5q25 0 40.5 -16.5t15.5 -39.5q0 -26 -20 -46t-47 -20q-25 0 -40 16.5t-15 39.5z" />
    <glyph glyph-name="three.plf.smcp" horiz-adv-x="540" 
d="M176 178q-5 -53 22.5 -82.5t75.5 -29.5q51 0 81 30.5t30 75.5q0 36 -22.5 59.5t-73.5 23.5h-46l8 75h46q56 0 80.5 27.5t24.5 64.5q0 38 -22.5 56t-60.5 18q-49 0 -74.5 -26t-30.5 -69h-91q4 36 19 66.5t40.5 53.5t61 36t79.5 13q36 0 67 -9t54 -27t36 -44t13 -60
q0 -54 -30 -90.5t-73 -48.5q38 -12 62 -43t24 -80q0 -41 -17 -73.5t-46 -56t-67.5 -36t-81.5 -12.5q-44 0 -79.5 13.5t-59 38t-34.5 59t-6 77.5h91z" />
    <glyph glyph-name="five.smcp" horiz-adv-x="553" 
d="M149 560h348l-8 -75h-265l-18 -172q22 32 59 46t74 14q39 0 68.5 -13.5t49.5 -36.5t30 -53.5t10 -64.5q0 -44 -16 -83t-45 -68.5t-69.5 -46.5t-89.5 -17q-47 0 -83 16t-59 42.5t-33 61.5t-6 74h90q-3 -24 2.5 -45t18.5 -36.5t32 -25t45 -9.5q27 0 50 10.5t39 28.5t25 41
t9 49q0 42 -25.5 72t-74.5 30q-32 0 -59 -15t-45 -47h-88z" />
    <glyph glyph-name="Edieresis.001" horiz-adv-x="544" 
d="M328 740h-67l100 130h67zM446 740h-67l100 130h67zM234 618l-24 -229h302l-9 -82h-302l-23 -225h302l-9 -82h-393l74 700h393l-9 -82h-302z" />
    <glyph glyph-name="Aringacute.smcp" horiz-adv-x="543" 
d="M409 0l-18 83h-222l-37 -83h-95l252 555q-4 2 -10.5 16t-6.5 29q0 25 20.5 44t46.5 19q24 0 39.5 -16.5t15.5 -37.5q0 -18 -10 -35t-16 -18l138 -556h-97zM317 436l-116 -278h174zM244 636l-18 40l206 102l17 -40zM336 629q-11 0 -19.5 -8.5t-8.5 -19.5q0 -9 6.5 -16
t16.5 -7q11 0 19.5 8t8.5 19q0 10 -6.5 17t-16.5 7z" />
    <glyph glyph-name="Gcircumflex.smcp" horiz-adv-x="732" 
d="M432 277h280l-8 -73h-59q-27 -101 -103 -159t-186 -58q-66 0 -116 21.5t-83 57.5t-49.5 83t-16.5 99q0 63 23.5 121.5t65.5 104t101 72.5t131 27q51 0 92 -14t70 -37.5t45.5 -55.5t17.5 -68h-93q-5 39 -42.5 67.5t-98.5 28.5q-50 0 -90.5 -20t-69.5 -53t-45 -76t-16 -89
q0 -38 11.5 -73t34.5 -61t57.5 -41.5t81.5 -15.5q75 0 122.5 39t62.5 100h-128zM434 771l138 -119l-54 -54l-93 82l-110 -81l-43 53z" />
    <glyph glyph-name="equal.numerator" horiz-adv-x="390" 
d="M130 493l6 55h232l-6 -55h-232zM120 394l6 55h232l-6 -55h-232z" />
    <glyph glyph-name="Egrave.smcp" horiz-adv-x="504" 
d="M234 485l-18 -170h233l-8 -74h-233l-17 -165h233l-8 -76h-323l59 560h323l-8 -75h-233zM217 694l39 62l197 -106l-39 -63z" />
    <glyph glyph-name="Edotaccent.smcp" horiz-adv-x="504" 
d="M234 485l-18 -170h233l-8 -74h-233l-17 -165h233l-8 -76h-323l59 560h323l-8 -75h-233zM262 675q0 27 20.5 46.5t47.5 19.5q24 0 39.5 -16t15.5 -39q0 -27 -20.5 -47t-47.5 -20q-24 0 -39.5 16.5t-15.5 39.5z" />
    <glyph glyph-name="R.smcp" horiz-adv-x="565" 
d="M152 560h211q41 0 74 -14t56 -38t35 -56t12 -68q0 -33 -10 -63.5t-28.5 -56.5t-44.5 -45.5t-58 -31.5l97 -187h-103l-91 173h-101l-18 -173h-90zM323 249q27 0 50 10.5t39.5 28t26 41t9.5 49.5q0 44 -26 75t-73 31h-115l-25 -235h114z" />
    <glyph glyph-name="P.smcp" horiz-adv-x="555" 
d="M152 560h211q41 0 74 -14t56 -38t35 -56t12 -68q0 -42 -16 -80t-45 -67.5t-69 -46.5t-88 -17h-121l-18 -173h-90zM323 249q27 0 50 10.5t39.5 28t26 41t9.5 49.5q0 44 -26 75t-73 31h-115l-25 -235h114z" />
    <glyph glyph-name="Ecaron.smcp" horiz-adv-x="504" 
d="M234 485l-18 -170h233l-8 -74h-233l-17 -165h233l-8 -76h-323l59 560h323l-8 -75h-233zM191 717l49 53l84 -85l101 85l37 -53l-147 -121z" />
    <glyph glyph-name="Uring.smcp" horiz-adv-x="574" 
d="M144 560h90l-40 -376q-3 -24 3 -45.5t19 -37.5t32.5 -25.5t45.5 -9.5q25 0 47 9.5t38.5 25.5t26.5 37.5t13 45.5l40 376h89l-40 -377q-4 -41 -22 -76.5t-47 -62t-68 -42t-85 -15.5q-47 0 -82.5 15.5t-59 42t-34 62t-6.5 76.5zM369 787q20 0 37 -7.5t29.5 -20t19.5 -29.5
t7 -36q0 -23 -9 -43t-25 -35t-36.5 -24t-42.5 -9q-41 0 -67 27.5t-26 65.5q0 22 9.5 42.5t25 35.5t36 24t42.5 9zM363 732q-20 0 -35.5 -15.5t-15.5 -35.5q0 -18 12 -30t30 -12q21 0 36 15t15 35q0 17 -11.5 30t-30.5 13z" />
    <glyph glyph-name="Thorn.smcp" horiz-adv-x="478" 
d="M222 459h55q43 0 76 -13.5t55 -36.5t33.5 -53t11.5 -63q0 -38 -14.5 -74t-42.5 -64t-67.5 -45t-89.5 -17h-55l-10 -93h-82l59 560h82zM191 164h55q28 0 51.5 10.5t39.5 27.5t25 39t9 46q0 20 -6.5 38.5t-19.5 32.5t-31.5 22.5t-43.5 8.5h-55z" />
    <glyph glyph-name="M.smcp" horiz-adv-x="737" 
d="M644 0h-89l41 389l-193 -389h-68l-113 389l-41 -389h-88l59 560h97l133 -435l225 435h96z" />
    <glyph glyph-name="Wcircumflex.smcp" horiz-adv-x="854" 
d="M471 412l-172 -412h-71l-134 560h94l91 -418l172 418h70l85 -418l178 418h95l-253 -560h-71zM508 770l136 -120l-52 -53l-93 82l-110 -81l-43 52z" />
    <glyph glyph-name="questiondown.smcp" horiz-adv-x="478" 
d="M342 401q-3 -30 -9.5 -52t-17 -39t-25.5 -31t-36 -27q-10 -6 -25 -16t-29 -23.5t-24 -32.5t-10 -43q0 -36 23 -54.5t60 -18.5q42 0 72 25t36 79h89q-5 -41 -21.5 -73.5t-43.5 -55.5t-62 -35.5t-76 -12.5q-36 0 -66.5 9.5t-52 27.5t-34 44.5t-12.5 60.5q0 33 11.5 58.5
t27.5 44t33.5 31t30.5 21.5q18 12 31 23t21.5 23t13.5 28t7 39h88zM374 513q0 -29 -21 -49.5t-50 -20.5q-26 0 -42.5 17t-16.5 41q0 15 6 28t16 22.5t23 15.5t27 6q26 0 42 -17.5t16 -42.5z" />
    <glyph glyph-name="Dcaron.smcp" horiz-adv-x="630" 
d="M335 560q64 0 113.5 -21.5t82.5 -56.5t50 -81.5t17 -95.5q0 -57 -22.5 -112t-64 -98t-101 -69t-134.5 -26h-183l59 560h183zM234 481l-43 -402h90q52 0 93.5 19t71 50t45 70.5t15.5 80.5q0 35 -11.5 68t-34.5 58.5t-57 40.5t-79 15h-90zM244 717l49 53l83 -85l102 85
l38 -53l-149 -121z" />
    <glyph glyph-name="two.denominator" horiz-adv-x="370" 
d="M55 0q5 49 16.5 80.5t28 53t37.5 35.5t46 27q18 9 34.5 17.5t29.5 19t21 24t8 31.5q0 25 -14.5 37t-37.5 12q-27 0 -46 -16.5t-23 -50.5h-71q6 53 44.5 87.5t101.5 34.5q49 0 82.5 -24.5t33.5 -75.5q0 -29 -11 -50t-28 -37t-37 -28t-39 -22q-24 -13 -40.5 -23t-26 -20.5
t-14.5 -23t-7 -29.5h179l-6 -59h-261v0z" />
    <glyph glyph-name="Kcommaaccent.smcp" horiz-adv-x="555" 
d="M405 0l-196 250l-26 -250h-90l59 560h90l-27 -251l249 251h110l-279 -280l220 -280h-110zM224 -68q0 23 16 38.5t41 15.5q23 0 36.5 -16.5t13.5 -51.5q0 -52 -31 -79t-86 -27l3 31q37 0 52.5 15.5t15.5 29.5q0 3 -0.5 3t-0.5 2q-2 -2 -7 -3.5t-12 -1.5q-17 0 -29 12
t-12 32z" />
    <glyph glyph-name="H.smcp" horiz-adv-x="608" 
d="M451 239h-243l-25 -239h-90l59 560h90l-26 -243h243l26 243h89l-59 -560h-89z" />
    <glyph glyph-name="uni021A.smcp" horiz-adv-x="456" 
d="M234 481h-139l8 79h369l-8 -79h-140l-51 -481h-90zM170 -68q0 23 17 38.5t41 15.5q23 0 36 -16.5t13 -51.5q0 -52 -30.5 -79t-84.5 -27l3 31q37 0 52.5 16t15.5 30q0 2 -2 4q-5 -5 -17 -5q-20 0 -32 13.5t-12 30.5z" />
    <glyph glyph-name="Otilde.smcp" horiz-adv-x="710" 
d="M356 -13q-65 0 -114 22t-83 58.5t-51 84.5t-17 100q0 61 23.5 119t66 103t102 72t131.5 27q64 0 113.5 -22t83 -58.5t50.5 -84t17 -99.5q0 -62 -23.5 -120t-65.5 -103t-101.5 -72t-131.5 -27zM364 68q49 0 89.5 20t70 52.5t45.5 74.5t16 87q0 37 -11.5 71.5t-34.5 60.5
t-56.5 42t-77.5 16q-49 0 -89.5 -19.5t-70 -52t-45.5 -74.5t-16 -87q0 -37 11.5 -71.5t34.5 -61t56.5 -42.5t77.5 -16zM279 684q38 22 57 26t30 4q10 0 25.5 -3.5t32.5 -7.5t33.5 -7.5t27.5 -3.5q10 0 21.5 4t41.5 18l24 -52q-33 -24 -58 -28.5t-30 -4.5q-12 0 -27.5 3.5
t-31.5 7t-31.5 7t-26.5 3.5q-13 0 -27 -5t-34 -14z" />
    <glyph glyph-name="braceleft.smcp" horiz-adv-x="408" 
d="M399 629l-7 -68h-36q-31 0 -47 -21t-19 -49l-20 -187q-3 -24 -13 -40t-22.5 -26.5t-26 -16t-23.5 -6.5q9 -2 22 -7.5t23.5 -16t17 -28t3.5 -44.5l-18 -165q-3 -27 9 -48.5t43 -21.5h36l-7 -67h-63q-23 0 -43.5 7.5t-35.5 22t-22.5 36.5t-4.5 51l18 170q2 20 -3.5 34
t-15.5 23t-22.5 13t-22.5 4l8 73q10 0 23 3.5t25 12t20.5 21.5t10.5 32l20 191q3 29 15 51t30 37t40 22.5t45 7.5h63z" />
    <glyph glyph-name="G.smcp" horiz-adv-x="732" 
d="M432 277h280l-8 -73h-59q-27 -101 -103 -159t-186 -58q-66 0 -116 21.5t-83 57.5t-49.5 83t-16.5 99q0 63 23.5 121.5t65.5 104t101 72.5t131 27q51 0 92 -14t70 -37.5t45.5 -55.5t17.5 -68h-93q-5 39 -42.5 67.5t-98.5 28.5q-50 0 -90.5 -20t-69.5 -53t-45 -76t-16 -89
q0 -38 11.5 -73t34.5 -61t57.5 -41.5t81.5 -15.5q75 0 122.5 39t62.5 100h-128z" />
    <glyph glyph-name="Ocircumflex.smcp" horiz-adv-x="710" 
d="M356 -13q-65 0 -114 22t-83 58.5t-51 84.5t-17 100q0 61 23.5 119t66 103t102 72t131.5 27q64 0 113.5 -22t83 -58.5t50.5 -84t17 -99.5q0 -62 -23.5 -120t-65.5 -103t-101.5 -72t-131.5 -27zM364 68q49 0 89.5 20t70 52.5t45.5 74.5t16 87q0 37 -11.5 71.5t-34.5 60.5
t-56.5 42t-77.5 16q-49 0 -89.5 -19.5t-70 -52t-45.5 -74.5t-16 -87q0 -37 11.5 -71.5t34.5 -61t56.5 -42.5t77.5 -16zM436 770l138 -121l-54 -53l-93 82l-110 -81l-42 52z" />
    <glyph glyph-name="Adieresis.smcp" horiz-adv-x="543" 
d="M506 0h-97l-18 83h-222l-37 -83h-95l255 560h76zM201 158h174l-58 278zM375 669q0 27 20 46.5t47 19.5q24 0 39.5 -16.5t15.5 -39.5q0 -26 -20 -45.5t-47 -19.5q-24 0 -39.5 16t-15.5 39zM187 669q0 27 20 46.5t47 19.5q25 0 40.5 -16t15.5 -39q0 -27 -20 -46.5
t-48 -19.5q-24 0 -39.5 16t-15.5 39z" />
    <glyph glyph-name="four.smcp" horiz-adv-x="553" 
d="M327 173h-217l41 387h91l-33 -307h126l18 165h91l-18 -165h80l-8 -80h-80l-18 -173h-91z" />
    <glyph glyph-name="Zcaron.smcp" horiz-adv-x="535" 
d="M216 707l49 53l83 -85l102 85l37 -53l-148 -121zM123 560h430l-354 -482h303l-8 -78h-449l354 482h-284z" />
    <glyph glyph-name="zero.denominator" horiz-adv-x="394" 
d="M84 261q3 27 15.5 51t33 42t47 28.5t58.5 10.5q33 0 58 -10.5t41.5 -29t24 -43t4.5 -51.5q-1 -6 -3 -22q-2 -14 -5 -40.5t-8 -72.5q-3 -28 -16 -52t-33 -42t-47 -28t-58 -10q-33 0 -57.5 11t-41 29t-23.5 42.5t-4 51.5zM294 259q3 30 -13.5 52t-48.5 22t-53 -22t-24 -52
l-14 -133q-3 -32 14.5 -52.5t47.5 -20.5q32 0 53 21.5t24 51.5z" />
    <glyph glyph-name="Aogonek.smcp" horiz-adv-x="543" 
d="M498 -158q-14 -5 -33.5 -8.5t-39.5 -3.5q-47 0 -68 21t-21 50q0 28 18 51t55 48l-18 83h-222l-37 -83h-95l255 560h76l138 -560h-39q-23 -14 -39.5 -31.5t-16.5 -42.5q0 -18 10.5 -30.5t32.5 -12.5q11 0 24.5 3t25.5 8zM201 158h174l-58 278z" />
    <glyph glyph-name="Ydieresis.smcp" horiz-adv-x="546" 
d="M235 0h-99l133 218l-172 342h105l124 -252l151 252h99zM396 669q0 26 19.5 45.5t45.5 19.5q23 0 38 -15.5t15 -38.5q0 -26 -19.5 -45t-45.5 -19q-23 0 -38 15.5t-15 37.5zM209 669q0 26 19.5 45.5t45.5 19.5q23 0 38 -16t15 -39q0 -26 -19.5 -44.5t-45.5 -18.5
q-24 0 -38.5 15.5t-14.5 37.5z" />
    <glyph glyph-name="bracketright.smcp" horiz-adv-x="344" 
d="M56 -183l8 74h91l69 663h-91l8 75h176l-85 -812h-176z" />
    <glyph glyph-name="Rcommaaccent.smcp" horiz-adv-x="565" 
d="M152 560h211q41 0 74 -14t56 -38t35 -56t12 -68q0 -33 -10 -63.5t-28.5 -56.5t-44.5 -45.5t-58 -31.5l97 -187h-103l-91 173h-101l-18 -173h-90zM234 484l-25 -235h114q27 0 50 10.5t39.5 28t26 41t9.5 49.5q0 44 -26 75t-73 31h-115zM223 -68q0 23 17 38.5t40 15.5
t36.5 -17t13.5 -52q0 -51 -30.5 -78t-85.5 -27l3 31q37 0 52 15t15 31v4q-7 -5 -18 -5q-20 0 -31.5 13t-11.5 31z" />
    <glyph glyph-name="ordfeminine.smcp" horiz-adv-x="554" 
d="M501 369l-39 -369h-85l7 64q-20 -31 -56 -52t-83 -21q-36 0 -66 13.5t-51.5 37.5t-33.5 56t-12 69q0 43 16 81.5t44 67t64.5 45.5t78.5 17q48 0 79.5 -20.5t44.5 -52.5l7 64h85zM270 65q27 0 50.5 11t40.5 29t26.5 42t9.5 50q0 44 -27 75.5t-76 31.5q-27 0 -50.5 -10.5
t-40.5 -28.5t-26.5 -42t-9.5 -50q0 -22 7 -41.5t20 -34.5t32.5 -23.5t43.5 -8.5z" />
    <glyph glyph-name="Ccaron.smcp" horiz-adv-x="689" 
d="M647 181q-14 -41 -41 -76.5t-64.5 -61.5t-84 -41t-99.5 -15q-64 0 -114 21.5t-84 57.5t-51.5 84.5t-17.5 102.5q0 61 22.5 119t64.5 102.5t102 71.5t135 27q59 0 104.5 -17t77 -46t49 -68t20.5 -84h-94q-7 60 -49 97.5t-114 37.5q-52 0 -94 -20t-71.5 -52.5t-45.5 -74.5
t-16 -86q0 -40 13 -75t37 -61t58 -41t77 -15q63 0 111.5 31t71.5 82h97zM288 718l47 53l83 -84l102 84l39 -53l-150 -120z" />
    <glyph glyph-name="Idieresis.smcp" horiz-adv-x="277" 
d="M152 560h91l-59 -560h-91zM249 669q0 27 20 46.5t47 19.5q24 0 40 -16t16 -39q0 -27 -20.5 -46.5t-47.5 -19.5q-24 0 -39.5 16t-15.5 39zM62 669q0 27 20 46.5t47 19.5q24 0 39.5 -16.5t15.5 -39.5q0 -26 -20 -45.5t-47 -19.5q-24 0 -39.5 16t-15.5 39z" />
    <glyph glyph-name="Eacute.smcp" horiz-adv-x="504" 
d="M234 485l-18 -170h233l-8 -74h-233l-17 -165h233l-8 -76h-323l59 560h323l-8 -75h-233zM232 596l-27 62l220 107l27 -62z" />
    <glyph glyph-name="eight.numerator" horiz-adv-x="391" 
d="M229 308q-62 0 -95.5 30t-33.5 75q0 36 21.5 65t55.5 38q-24 8 -36.5 29t-12.5 47q0 23 10 44t28 36.5t44 25t59 9.5q59 0 90 -28t31 -70q0 -31 -17.5 -56.5t-50.5 -36.5q28 -8 43 -32t15 -53q0 -24 -10.5 -46.5t-30 -39.5t-47.5 -27t-63 -10zM253 539q31 0 49.5 18.5
t18.5 43.5q0 21 -14.5 36t-42.5 15q-31 0 -49.5 -18t-18.5 -43q0 -22 14.5 -37t42.5 -15zM234 363q35 0 55.5 20t20.5 47q0 23 -16 39.5t-48 16.5q-35 0 -55.5 -20t-20.5 -47q0 -24 16.5 -40t47.5 -16z" />
    <glyph glyph-name="Udieresis.001" horiz-adv-x="629" 
d="M354 740h-67l100 130h67zM472 740h-67l100 130h67zM145 700h91l-50 -473q-3 -33 4.5 -62.5t25.5 -51.5t44.5 -34.5t60.5 -12.5t64 13t52.5 35t36.5 51t17 62l50 473h91l-50 -473q-5 -50 -27 -94t-57.5 -77t-83 -52.5t-102.5 -19.5q-56 0 -98.5 19.5t-70.5 52.5t-40.5 77
t-7.5 94z" />
    <glyph glyph-name="Tcommaaccent.smcp" horiz-adv-x="456" 
d="M234 481h-139l8 79h369l-8 -79h-140l-51 -481h-90zM170 -68q0 23 17 38.5t41 15.5q23 0 36 -16.5t13 -51.5q0 -52 -30.5 -79t-84.5 -27l3 31q37 0 52.5 16t15.5 30q0 2 -2 4q-5 -5 -17 -5q-20 0 -32 13.5t-12 30.5z" />
    <glyph glyph-name="plus.denominator" horiz-adv-x="390" 
d="M171 42l9 87h-86l6 55h86l9 87h58l-9 -87h86l-6 -55h-86l-9 -87h-58z" />
    <glyph glyph-name="six.smcp" horiz-adv-x="552" 
d="M275 -9q-44 0 -77.5 14t-56.5 37.5t-35 55.5t-12 68q0 38 12.5 69.5t33.5 60.5l194 264h104l-145 -191q12 9 34 9q36 0 66.5 -13.5t53 -37t35.5 -56t13 -70.5q0 -42 -16 -80t-45 -67t-69.5 -46t-89.5 -17zM283 69q27 0 49.5 10.5t39 27.5t25.5 40t9 49q0 44 -26 74
t-74 30q-27 0 -49 -10t-38.5 -27.5t-25.5 -40.5t-9 -49q0 -43 25.5 -73.5t73.5 -30.5z" />
    <glyph glyph-name="Z.smcp" horiz-adv-x="535" 
d="M123 560h430l-354 -482h303l-8 -78h-449l354 482h-284z" />
    <glyph glyph-name="four.denominator" horiz-adv-x="385" 
d="M228 116h-152l28 269h71l-22 -209h81l12 112h72l-12 -112h52l-6 -60h-52l-12 -116h-72z" />
    <glyph glyph-name="uni04F8.001" horiz-adv-x="833" 
 />
    <glyph glyph-name="five.plf.smcp" horiz-adv-x="570" 
d="M161 560h348l-8 -75h-265l-18 -172q22 32 59 46t73 14q39 0 69 -14t50 -37t30 -53.5t10 -64.5q0 -43 -16 -82t-45 -68t-69.5 -46.5t-89.5 -17.5q-48 0 -83.5 16t-58.5 43t-32.5 62t-5.5 73h89q-3 -24 2.5 -45t18.5 -36.5t32.5 -25t44.5 -9.5q27 0 50 10.5t39 28.5t25 41
t9 49q0 42 -25.5 72t-74.5 30q-32 0 -58.5 -15t-45.5 -47h-88z" />
    <glyph glyph-name="Ubreve.smcp" horiz-adv-x="574" 
d="M144 560h90l-40 -376q-3 -24 3 -45.5t19 -37.5t32.5 -25.5t45.5 -9.5q25 0 47 9.5t38.5 25.5t26.5 37.5t13 45.5l40 376h89l-40 -377q-4 -41 -22 -76.5t-47 -62t-68 -42t-85 -15.5q-47 0 -82.5 15.5t-59 42t-34 62t-6.5 76.5zM268 719q6 -28 29 -43.5t58 -15.5
q37 0 64.5 16.5t38.5 42.5h73q-6 -29 -24 -52t-42.5 -39.5t-54.5 -25.5t-61 -9q-32 0 -59 9t-47.5 25.5t-33 40t-14.5 51.5h73z" />
    <glyph glyph-name="Ccircumflex.smcp" horiz-adv-x="689" 
d="M647 181q-14 -41 -41 -76.5t-64.5 -61.5t-84 -41t-99.5 -15q-64 0 -114 21.5t-84 57.5t-51.5 84.5t-17.5 102.5q0 61 22.5 119t64.5 102.5t102 71.5t135 27q59 0 104.5 -17t77 -46t49 -68t20.5 -84h-94q-7 60 -49 97.5t-114 37.5q-52 0 -94 -20t-71.5 -52.5t-45.5 -74.5
t-16 -86q0 -40 13 -75t37 -61t58 -41t77 -15q63 0 111.5 31t71.5 82h97zM433 774l137 -119l-54 -54l-93 82l-109 -81l-43 53z" />
    <glyph glyph-name="Lcaron.smcp" horiz-adv-x="414" 
d="M367 79l-8 -79h-266l58 560h89l-50 -481h177zM76 717l49 53l83 -85l103 85l36 -53l-149 -121z" />
    <glyph glyph-name="parenleft.numerator" horiz-adv-x="268" 
d="M295 683q-36 0 -60 -24.5t-28 -58.5l-28 -269q-4 -33 15.5 -57.5t55.5 -24.5l-7 -62q-34 0 -60 11.5t-43.5 31t-25 46t-4.5 55.5l28 269q3 29 16 55.5t34.5 46t50.5 31t63 11.5z" />
    <glyph glyph-name="seven.smcp" horiz-adv-x="553" 
d="M536 560l-308 -560h-97l267 481h-239l8 79h369z" />
    <glyph glyph-name="Emacron.smcp" horiz-adv-x="504" 
d="M234 485l-18 -170h233l-8 -74h-233l-17 -165h233l-8 -76h-323l59 560h323l-8 -75h-233zM464 638h-290l7 69h290z" />
    <glyph glyph-name="IJ.smcp" horiz-adv-x="722" 
d="M655 182q-9 -90 -65 -142.5t-143 -52.5q-45 0 -79.5 15t-56.5 41t-31.5 61.5t-4.5 77.5h89q-5 -54 20 -85t71 -31q44 0 74 29.5t36 86.5l40 378h90zM152 560h91l-59 -560h-91z" />
    <glyph glyph-name="Cdotaccent.smcp" horiz-adv-x="689" 
d="M647 181q-14 -41 -41 -76.5t-64.5 -61.5t-84 -41t-99.5 -15q-64 0 -114 21.5t-84 57.5t-51.5 84.5t-17.5 102.5q0 61 22.5 119t64.5 102.5t102 71.5t135 27q59 0 104.5 -17t77 -46t49 -68t20.5 -84h-94q-7 60 -49 97.5t-114 37.5q-52 0 -94 -20t-71.5 -52.5t-45.5 -74.5
t-16 -86q0 -40 13 -75t37 -61t58 -41t77 -15q63 0 111.5 31t71.5 82h97zM360 674q0 27 21 47t48 20q24 0 39.5 -16.5t15.5 -39.5q0 -27 -20.5 -46.5t-47.5 -19.5q-24 0 -40 16t-16 39z" />
    <glyph glyph-name="Jcircumflex.smcp" horiz-adv-x="510" 
d="M442 182q-5 -44 -21 -79.5t-42.5 -61.5t-63 -40t-80.5 -14q-45 0 -79.5 14.5t-56.5 40.5t-31.5 62t-4.5 78h90q-6 -52 17.5 -84t71.5 -32q44 0 74.5 29.5t36.5 86.5l40 378h89zM459 770l137 -121l-54 -53l-92 82l-110 -81l-42 52z" />
    <glyph glyph-name="seven.numerator" horiz-adv-x="339" 
d="M385 700l-209 -385h-77l179 325h-161l6 60h262z" />
    <glyph glyph-name="Uhungarumlaut.smcp" horiz-adv-x="574" 
d="M144 560h90l-40 -376q-3 -24 3 -45.5t19 -37.5t32.5 -25.5t45.5 -9.5q25 0 47 9.5t38.5 25.5t26.5 37.5t13 45.5l40 376h89l-40 -377q-4 -41 -22 -76.5t-47 -62t-68 -42t-85 -15.5q-47 0 -82.5 15.5t-59 42t-34 62t-6.5 76.5zM490 766l62 -36l-141 -120l-36 19zM334 766
l62 -36l-141 -120l-36 19z" />
    <glyph glyph-name="Itilde.smcp" horiz-adv-x="277" 
d="M152 560h91l-59 -560h-91zM63 683q38 22 57.5 26t30.5 4q9 0 24.5 -3.5t32.5 -7.5t33.5 -7.5t27.5 -3.5q10 0 21.5 4t41.5 18l25 -52q-17 -11 -39 -22t-48 -11q-14 0 -30 3t-32 7t-31 7t-26 3q-23 0 -62 -19z" />
    <glyph glyph-name="I.smcp" horiz-adv-x="277" 
d="M152 560h91l-59 -560h-91z" />
    <glyph glyph-name="eight.plf.smcp" horiz-adv-x="555" 
d="M277 -10q-44 0 -77.5 12t-56.5 32t-35 47.5t-12 59.5q0 52 30.5 95t81.5 56q-37 12 -54.5 42.5t-17.5 67.5q0 34 14.5 64.5t40.5 53.5t63.5 36.5t82.5 13.5q41 0 72.5 -11t53.5 -30.5t33 -45.5t11 -56q0 -45 -25 -82.5t-73 -52.5q40 -11 61.5 -46t21.5 -76
q0 -36 -15 -68.5t-43 -57t-68 -39.5t-89 -15zM313 323q24 0 43.5 7.5t33 20.5t21 30t7.5 36q0 33 -22.5 56t-65.5 23q-47 0 -76 -27.5t-29 -66.5q0 -33 22.5 -56t65.5 -23zM285 64q26 0 48 8t37.5 22t24 32.5t8.5 39.5q0 35 -25 61t-75 26q-27 0 -48.5 -8t-36.5 -22.5
t-23.5 -33t-8.5 -39.5q0 -37 25.5 -61.5t73.5 -24.5z" />
    <glyph glyph-name="five.numerator" horiz-adv-x="401" 
d="M145 700h247l-6 -56h-181l-12 -110q14 20 38 29.5t50 9.5q27 0 48 -9.5t35 -25.5t21 -37t7 -44q0 -30 -11 -57t-31.5 -47.5t-49.5 -32.5t-65 -12q-34 0 -59 11t-41 30t-22.5 43t-3.5 51h70q-4 -31 13 -53.5t50 -22.5q35 0 57 25t22 59q0 28 -16 47.5t-48 19.5
q-44 0 -69 -40h-67z" />
    <glyph glyph-name="K.smcp" horiz-adv-x="555" 
d="M209 250l-26 -250h-90l59 560h90l-27 -251l249 251h110l-279 -280l220 -280h-110z" />
    <glyph glyph-name="Ccedilla.smcp" horiz-adv-x="689" 
d="M647 181q-14 -41 -42.5 -73t-66 -56t-80 -40t-84.5 -23l-6 -1l-3 -32q5 6 14 10.5t23 4.5q25 0 42 -17.5t17 -45.5q0 -16 -6 -31t-17 -27t-27 -19.5t-37 -7.5q-13 0 -26.5 3.5t-24.5 12t-18 21.5t-7 32h47q1 -13 9 -21t22 -8q17 0 28 11.5t11 28.5q0 14 -9 23t-23 9
q-20 0 -32 -19h-41l8 73q-55 6 -97 29.5t-71 59t-44 80.5t-15 95q0 61 22.5 119t65 102.5t102.5 71.5t135 27q59 0 104.5 -17t77 -46t48.5 -68t20 -84h-94q-7 60 -49 97.5t-114 37.5q-52 0 -94 -20t-71.5 -52.5t-45.5 -74.5t-16 -86q0 -40 13 -75t37 -61t58 -41t77 -15
q63 0 111.5 31t71.5 82h97v0z" />
    <glyph glyph-name="Umacron.smcp" horiz-adv-x="574" 
d="M144 560h90l-40 -376q-3 -24 3 -45.5t19 -37.5t32.5 -25.5t45.5 -9.5q25 0 47 9.5t38.5 25.5t26.5 37.5t13 45.5l40 376h89l-40 -377q-4 -41 -22 -76.5t-47 -62t-68 -42t-85 -15.5q-47 0 -82.5 15.5t-59 42t-34 62t-6.5 76.5zM500 644h-290l7 69h290z" />
    <glyph glyph-name="Wdieresis.smcp" horiz-adv-x="854" 
d="M471 412l-172 -412h-71l-134 560h94l91 -418l172 418h70l85 -418l178 418h95l-253 -560h-71zM532 677q0 26 20 45t46 19q23 0 38 -15.5t15 -38.5q0 -26 -19.5 -45t-45.5 -19q-23 0 -38.5 15.5t-15.5 38.5zM345 677q0 26 20 45t46 19q23 0 38 -15.5t15 -38.5
q0 -26 -19.5 -45t-45.5 -19q-23 0 -38.5 15.5t-15.5 38.5z" />
    <glyph glyph-name="seven.plf.smcp" horiz-adv-x="473" 
d="M497 560l-308 -560h-97l267 481h-239l8 79h369z" />
    <glyph glyph-name="Odieresis.001" horiz-adv-x="803" 
d="M464 870h68l-101 -130h-68zM549 740h-68l101 130h68zM404 -16q-80 0 -141 27.5t-102.5 73t-63 105.5t-21.5 125q0 77 29 149t81.5 128t126 90t162.5 34q79 0 140.5 -27t102.5 -73t62.5 -105.5t21.5 -124.5q0 -77 -29 -149.5t-81.5 -128.5t-125.5 -90t-162 -34zM411 66
q65 0 119.5 26.5t93.5 70.5t60.5 100t21.5 116q0 50 -15.5 96t-46 81.5t-75.5 56.5t-103 21q-65 0 -119 -26.5t-93 -70t-61 -99.5t-22 -116q0 -50 15.5 -96t46 -81.5t75.5 -57t103 -21.5z" />
    <glyph glyph-name="Ebreve.smcp" horiz-adv-x="504" 
d="M234 485l-18 -170h232l-8 -74h-232l-17 -165h232l-8 -76h-322l59 560h322l-8 -75h-232zM232 717q7 -27 30 -42.5t59 -15.5q38 0 64.5 16t36.5 42h74q-7 -29 -24.5 -52t-42 -39.5t-54 -25.5t-60.5 -9q-32 0 -59.5 9t-48.5 25.5t-33.5 40t-14.5 51.5h73z" />
    <glyph glyph-name="six.denominator" horiz-adv-x="380" 
d="M189 -7q-31 0 -54.5 10t-40 26.5t-25 38.5t-8.5 47q0 49 31 91l132 179h82l-97 -128q8 2 16 2t16 -1q51 -6 77.5 -39.5t26.5 -78.5q0 -29 -11.5 -55.5t-32 -47t-49 -32.5t-63.5 -12zM195 53q35 0 57 25t22 58q0 29 -17 48.5t-47 19.5q-35 0 -57 -24.5t-22 -58.5
q0 -28 16.5 -48t47.5 -20z" />
    <glyph glyph-name="Scedilla.smcp" horiz-adv-x="534" 
d="M176 180q-6 -54 22 -86t82 -32q48 0 80.5 26t32.5 70q0 21 -8.5 35.5t-22.5 24t-31.5 16t-36.5 12.5q-32 11 -62 23t-53 29.5t-37 42.5t-14 62q0 40 16 71.5t43 53.5t63.5 33.5t77.5 11.5q44 0 77 -13t54.5 -36t31 -55t6.5 -69h-90q4 49 -19 74.5t-68 25.5
q-43 0 -72 -22.5t-29 -62.5q0 -19 7.5 -32.5t20 -23t29 -16.5t35.5 -13q35 -12 66.5 -24.5t55 -30.5t37 -43.5t13.5 -63.5q0 -39 -14.5 -71t-41 -55.5t-62.5 -37t-78 -16.5l-4 -43q13 16 38 16t42.5 -17t17.5 -46q0 -16 -6.5 -31.5t-18 -27.5t-27.5 -19t-36 -7q-12 0 -25 3
t-24.5 11.5t-19 22.5t-7.5 35h46q1 -14 9 -23t22 -9q18 0 29 12t11 28q0 14 -8.5 23t-23.5 9q-22 0 -32 -18h-40l8 81q-37 4 -67 19.5t-50.5 40t-30 58t-4.5 74.5h90z" />
    <glyph glyph-name="Igrave.smcp" horiz-adv-x="277" 
d="M152 560h91l-59 -560h-91zM91 693l40 63l196 -107l-39 -62z" />
    <glyph glyph-name="Odieresis.001.smcp" horiz-adv-x="710" 
d="M379 592h-59l80 104h59zM478 592h-59l80 104h59zM356 -13q-65 0 -114 22t-83 58.5t-51 84.5t-17 100q0 61 23.5 119t66 103t102 72t131.5 27q64 0 113.5 -22t83 -58.5t50.5 -84t17 -99.5q0 -62 -23.5 -120t-65.5 -103t-101.5 -72t-131.5 -27zM364 68q49 0 89.5 20
t70 52.5t45.5 74.5t16 87q0 37 -11.5 71.5t-34.5 60.5t-56.5 42t-77.5 16q-49 0 -89.5 -19.5t-70 -52t-45.5 -74.5t-16 -87q0 -37 11.5 -71.5t34.5 -61t56.5 -42.5t77.5 -16z" />
    <glyph glyph-name="Ugrave.smcp" horiz-adv-x="574" 
d="M144 560h90l-40 -376q-3 -24 3 -45.5t19 -37.5t32.5 -25.5t45.5 -9.5q25 0 47 9.5t38.5 25.5t26.5 37.5t13 45.5l40 376h89l-40 -377q-4 -41 -22 -76.5t-47 -62t-68 -42t-85 -15.5q-47 0 -82.5 15.5t-59 42t-34 62t-6.5 76.5zM248 703l39 62l197 -107l-39 -62z" />
    <glyph glyph-name="OE.smcp" horiz-adv-x="965" 
d="M695 485l-17 -170h233l-8 -74h-233l-18 -165h233l-8 -76h-322l10 92q-28 -44 -79 -75t-130 -31q-64 0 -113.5 22t-83 58.5t-51 84.5t-17.5 100q0 61 23.5 119t66 103t101 72t129.5 27q39 0 71 -8.5t56 -22t41 -31t26 -36.5l9 86h322l-8 -75h-233zM364 67q49 0 89.5 19.5
t70 52t45.5 74.5t16 87q0 37 -11.5 72t-34.5 61t-56.5 42t-77.5 16q-49 0 -89.5 -19.5t-70 -52t-45.5 -74.5t-16 -87q0 -38 11.5 -72.5t34.5 -60.5t56.5 -42t77.5 -16z" />
    <glyph glyph-name="Gbreve.smcp" horiz-adv-x="732" 
d="M432 277h280l-8 -73h-59q-27 -101 -103 -159t-186 -58q-66 0 -116 21.5t-83 57.5t-49.5 83t-16.5 99q0 63 23.5 121.5t65.5 104t101 72.5t131 27q51 0 92 -14t70 -37.5t45.5 -55.5t17.5 -68h-93q-5 39 -42.5 67.5t-98.5 28.5q-50 0 -90.5 -20t-69.5 -53t-45 -76t-16 -89
q0 -38 11.5 -73t34.5 -61t57.5 -41.5t81.5 -15.5q75 0 122.5 39t62.5 100h-128zM333 719q6 -28 29.5 -43.5t59.5 -15.5q37 0 63.5 16t37.5 43h74q-7 -29 -24.5 -52t-42 -39.5t-54 -25.5t-60.5 -9q-32 0 -59.5 9t-48.5 25.5t-33.5 39.5t-14.5 52h73z" />
    <glyph glyph-name="minus.denominator" horiz-adv-x="390" 
d="M93 130l6 54h232l-6 -54h-232z" />
    <glyph glyph-name="AE.smcp" horiz-adv-x="769" 
d="M497 485l-18 -170h232l-8 -74h-232l-17 -165h232l-8 -76h-322l9 84h-185l-48 -84h-98l333 560h370l-8 -75h-232zM373 159l33 315l-183 -315h150z" />
    <glyph glyph-name="L.smcp" horiz-adv-x="414" 
d="M367 79l-8 -79h-266l59 560h90l-51 -481h176z" />
    <glyph glyph-name="Udieresis.001.smcp" horiz-adv-x="574" 
d="M318 592h-59l81 104h59zM418 592h-60l81 104h59zM144 560h90l-40 -376q-3 -24 3 -45.5t19 -37.5t32.5 -25.5t45.5 -9.5q25 0 47 9.5t38.5 25.5t26.5 37.5t13 45.5l40 376h89l-40 -377q-4 -41 -22 -76.5t-47 -62t-68 -42t-85 -15.5q-47 0 -82.5 15.5t-59 42t-34 62
t-6.5 76.5z" />
    <glyph glyph-name="parenright.smcp" horiz-adv-x="363" 
d="M120 629q46 0 82 -16t60 -44t34.5 -64.5t6.5 -76.5l-44 -416q-4 -41 -22.5 -77.5t-48 -64.5t-69 -44t-85.5 -16l8 79q27 0 49.5 10t39 26.5t27 39t13.5 47.5l44 416q3 25 -3 47.5t-19.5 39t-33.5 26.5t-47 10z" />
    <glyph glyph-name="Ecircumflex.smcp" horiz-adv-x="504" 
d="M234 485l-18 -170h233l-8 -74h-233l-17 -165h233l-8 -76h-323l59 560h323l-8 -75h-233zM336 770l137 -121l-52 -53l-94 82l-109 -81l-43 52z" />
    <glyph glyph-name="Agrave.smcp" horiz-adv-x="543" 
d="M506 0h-97l-18 83h-222l-37 -83h-95l255 560h76zM201 158h174l-58 278zM236 703l38 62l197 -107l-38 -62z" />
    <glyph glyph-name="Gcommaaccent.smcp" horiz-adv-x="732" 
d="M432 277h280l-8 -73h-59q-27 -101 -103 -159t-186 -58q-66 0 -116 21.5t-83 57.5t-49.5 83t-16.5 99q0 63 23.5 121.5t65.5 104t101 72.5t131 27q51 0 92 -14t70 -37.5t45.5 -55.5t17.5 -68h-93q-5 39 -42.5 67.5t-98.5 28.5q-50 0 -90.5 -20t-69.5 -53t-45 -76t-16 -89
q0 -38 11.5 -73t34.5 -61t57.5 -41.5t81.5 -15.5q75 0 122.5 39t62.5 100h-128zM296 -76q0 23 16.5 38t39.5 15t37 -16.5t14 -51.5q0 -51 -31 -78.5t-85 -27.5l3 31q20 0 33 5t21 12t11 14.5t3 12.5q0 2 -0.5 3t-0.5 2l-1 1q-6 -4 -17 -4q-19 0 -31 12t-12 32z" />
    <glyph glyph-name="V.smcp" horiz-adv-x="541" 
d="M308 0h-76l-140 560h96l95 -434l187 434h97z" />
    <glyph glyph-name="Yacute.smcp" horiz-adv-x="546" 
d="M235 0h-99l133 218l-172 342h105l124 -252l151 252h99zM276 592l-25 62l219 107l26 -62z" />
    <glyph glyph-name="slash.smcp" horiz-adv-x="428" 
d="M392 643l77 -34l-358 -667l-75 34z" />
    <glyph glyph-name="Omacron.smcp" horiz-adv-x="710" 
d="M356 -13q-65 0 -114 22t-83 58.5t-51 84.5t-17 100q0 61 23.5 119t66 103t102 72t131.5 27q64 0 113.5 -22t83 -58.5t50.5 -84t17 -99.5q0 -62 -23.5 -120t-65.5 -103t-101.5 -72t-131.5 -27zM364 68q49 0 89.5 20t70 52.5t45.5 74.5t16 87q0 37 -11.5 71.5t-34.5 60.5
t-56.5 42t-77.5 16q-49 0 -89.5 -19.5t-70 -52t-45.5 -74.5t-16 -87q0 -37 11.5 -71.5t34.5 -61t56.5 -42.5t77.5 -16zM567 638h-290l8 69h290z" />
    </font>
</defs>
</svg>
