<?xml version="1.0" encoding="UTF-8"?>
<svg width="55px" height="57px" viewBox="0 0 55 57" version="1.1" xmlns="http://www.w3.org/2000/svg" xmlns:xlink="http://www.w3.org/1999/xlink">
    <!-- Generator: Sketch 45.2 (43514) - http://www.bohemiancoding.com/sketch -->
    <title>logo-khb</title>
    <desc>Created with Sketch.</desc>
    <defs></defs>
    <g id="logos" stroke="none" stroke-width="1" fill="none" fill-rule="evenodd">
        <g id="logo-khb" fill="#FFFFFF">
            <path d="M0.463,41.31 L5.951,41.31 L5.951,22.31 L10.967,41.31 L16.571,41.31 L11.085,20.18 L16.396,0 L10.967,0 L5.951,19 L5.951,0 L0.463,0 L0.463,41.31 Z M20.111,41.31 L25.601,41.31 L25.601,23.37 L29.552,23.37 L29.552,41.31 L35.041,41.31 L35.041,0 L29.552,0 L29.552,17.94 L25.601,17.94 L25.601,0 L20.111,0 L20.111,41.31 Z M39.761,41.31 L47.194,41.31 C51.502,41.31 54.688,38.18 54.688,33.87 L54.688,26.67 C54.688,24.08 53.509,21.89 51.561,20.65 C53.509,19.36 54.688,17.17 54.688,14.58 L54.688,7.44 C54.688,3.13 51.502,0 47.194,0 L39.761,0 L39.761,41.31 Z M45.247,35.88 L45.247,23.37 L47.194,23.37 C48.376,23.37 49.201,24.19 49.201,25.37 L49.201,33.87 C49.201,35.05 48.376,35.88 47.194,35.88 L45.247,35.88 Z M45.247,17.94 L45.247,5.43 L47.194,5.43 C48.376,5.43 49.201,6.26 49.201,7.44 L49.201,15.93 C49.201,17.11 48.376,17.94 47.194,17.94 L45.247,17.94 L45.247,17.94 Z" id="Fill-61"></path>
            <path d="M32.106,47.89 C32.037,47.66 32.015,47.5 32.015,47.15 L34.479,47.15 C34.486,47.03 34.486,46.95 34.486,46.9 C34.486,45.98 33.963,45.42 33.118,45.42 C32.091,45.42 31.361,46.22 31.361,47.35 C31.361,48.46 32.053,49.22 33.071,49.22 C33.551,49.22 33.984,49.08 34.486,48.76 L34.486,48.34 C33.963,48.68 33.666,48.78 33.285,48.78 C32.714,48.78 32.281,48.46 32.106,47.89 L32.106,47.89 Z M32.053,46.83 C32.136,46.15 32.494,45.76 33.034,45.76 C33.338,45.76 33.566,45.89 33.703,46.14 C33.787,46.31 33.81,46.47 33.81,46.83 L32.053,46.83 Z M31.627,53.8 C31.627,53.04 31.284,52.71 30.479,52.71 C29.582,52.71 28.957,53.07 28.957,53.58 C28.957,53.74 29.019,53.8 29.192,53.8 L29.718,53.8 L29.718,53.16 C29.954,53.08 30.105,53.04 30.311,53.04 C30.813,53.04 30.995,53.27 30.995,53.89 L30.995,54.13 C30.074,54.36 29.907,54.42 29.534,54.56 C29.011,54.77 28.774,55.08 28.774,55.52 C28.774,56.1 29.162,56.49 29.739,56.49 C30.113,56.49 30.439,56.36 30.995,56 L31.094,56.44 L32.159,56.44 L32.159,56.16 L31.755,56.12 L31.627,56 L31.627,53.8 Z M30.995,55.74 C30.546,55.99 30.295,56.08 30.038,56.08 C29.68,56.08 29.443,55.83 29.443,55.45 C29.443,55.14 29.604,54.92 29.968,54.75 C30.228,54.63 30.342,54.59 30.995,54.4 L30.995,55.74 Z M29.146,49.15 L30.935,49.15 L30.935,48.87 L30.494,48.84 L30.355,48.71 L30.355,43.55 L30.067,43.55 L29.14,43.82 L29.14,44.06 L29.726,44.06 L29.726,48.71 L29.596,48.84 L29.146,48.87 L29.146,49.15 Z M27.002,49.15 L28.79,49.15 L28.79,48.87 L28.35,48.84 L28.211,48.71 L28.211,43.55 L27.923,43.55 L26.995,43.82 L26.995,44.06 L27.579,44.06 L27.579,48.71 L27.451,48.84 L27.002,48.87 L27.002,49.15 Z M27.679,53.21 L26.706,55.7 L25.815,53.21 L25.906,53.09 L26.311,53.05 L26.311,52.78 L24.659,52.78 L24.659,53.05 L25.123,53.11 L26.348,56.44 L26.774,56.44 L28.105,53.12 L28.554,53.05 L28.554,52.78 L27.207,52.78 L27.207,53.05 L27.618,53.09 L27.679,53.21 Z M25.587,49.15 L26.653,49.15 L26.653,48.87 L26.249,48.84 L26.119,48.71 L26.119,46.51 C26.119,45.75 25.778,45.42 24.971,45.42 C24.074,45.42 23.45,45.78 23.45,46.29 C23.45,46.46 23.511,46.51 23.686,46.51 L24.21,46.51 L24.21,45.87 C24.446,45.79 24.599,45.76 24.804,45.76 C25.307,45.76 25.489,45.98 25.489,46.6 L25.489,46.84 C24.568,47.07 24.401,47.12 24.028,47.27 C23.503,47.48 23.268,47.79 23.268,48.24 C23.268,48.81 23.654,49.2 24.233,49.2 C24.606,49.2 24.934,49.07 25.489,48.71 L25.587,49.15 Z M25.489,48.45 C25.04,48.7 24.789,48.79 24.53,48.79 C24.174,48.79 23.938,48.54 23.938,48.16 C23.938,47.85 24.098,47.63 24.462,47.46 C24.721,47.34 24.835,47.3 25.489,47.11 L25.489,48.45 Z M22.979,52.71 C22.081,52.71 21.457,53.07 21.457,53.58 C21.457,53.74 21.518,53.8 21.693,53.8 L22.218,53.8 L22.218,53.16 C22.453,53.08 22.606,53.04 22.811,53.04 C23.313,53.04 23.495,53.27 23.495,53.89 L23.495,54.13 C22.575,54.36 22.407,54.42 22.035,54.56 C21.51,54.77 21.274,55.08 21.274,55.52 C21.274,56.1 21.663,56.49 22.24,56.49 C22.614,56.49 22.941,56.36 23.495,56 L23.595,56.44 L24.659,56.44 L24.659,56.16 L24.257,56.12 L24.126,56 L24.126,53.8 C24.126,53.04 23.785,52.71 22.979,52.71 L22.979,52.71 Z M23.495,55.74 C23.047,55.99 22.796,56.08 22.537,56.08 C22.179,56.08 21.943,55.83 21.943,55.45 C21.943,55.14 22.104,54.92 22.469,54.75 C22.727,54.63 22.842,54.59 23.495,54.4 L23.495,55.74 Z M21.153,49.15 L22.818,49.15 L22.818,48.87 L22.409,48.84 L22.278,48.71 L22.278,46.57 C22.278,45.85 21.914,45.42 21.29,45.42 C20.97,45.42 20.666,45.53 20.026,45.87 L20.026,43.55 L19.738,43.55 L18.81,43.82 L18.81,44.06 L19.396,44.06 L19.396,48.71 L19.267,48.84 L18.855,48.87 L18.855,49.15 L20.521,49.15 L20.521,48.87 L20.165,48.84 L20.026,48.71 L20.026,46.17 C20.423,45.98 20.644,45.92 20.918,45.92 C21.426,45.92 21.647,46.16 21.647,46.7 L21.647,48.71 L21.518,48.84 L21.153,48.87 L21.153,49.15 Z M18.498,55.36 C18.498,55.1 18.415,54.89 18.255,54.75 C18.087,54.59 18.003,54.54 17.441,54.28 C16.924,54.05 16.756,53.87 16.756,53.57 C16.756,53.24 16.991,53.04 17.372,53.04 C17.57,53.04 17.73,53.08 17.951,53.19 L18.011,53.73 L18.384,53.73 L18.384,52.87 C18.079,52.76 17.844,52.71 17.495,52.71 C16.65,52.71 16.147,53.1 16.147,53.75 C16.147,54.23 16.346,54.44 17.129,54.81 C17.479,54.97 17.563,55.02 17.685,55.1 C17.829,55.22 17.905,55.38 17.905,55.56 C17.905,55.93 17.623,56.17 17.214,56.17 C16.97,56.17 16.778,56.12 16.543,56 L16.452,55.36 L16.087,55.36 L16.087,56.35 C16.422,56.46 16.719,56.51 17.067,56.51 C17.966,56.51 18.498,56.08 18.498,55.36 L18.498,55.36 Z M17.426,49.17 C17.754,49.17 18.034,49.13 18.438,49 L18.438,48.72 C18.247,48.77 18.072,48.78 17.897,48.78 C17.426,48.78 17.282,48.59 17.282,47.95 L17.282,45.95 L18.438,45.95 L18.438,45.59 L17.282,45.59 L17.282,44.78 L16.999,44.78 L16.673,45.49 L16.171,45.71 L16.171,45.95 L16.65,45.95 L16.65,48.4 C16.65,48.98 16.848,49.17 17.426,49.17 L17.426,49.17 Z M13.95,46.28 C13.95,45.95 14.186,45.76 14.566,45.76 C14.765,45.76 14.923,45.79 15.146,45.9 L15.205,46.44 L15.578,46.44 L15.578,45.58 C15.273,45.47 15.038,45.42 14.688,45.42 C13.843,45.42 13.342,45.81 13.342,46.46 C13.342,46.94 13.539,47.15 14.322,47.52 C14.673,47.68 14.757,47.73 14.878,47.82 C15.022,47.93 15.098,48.09 15.098,48.27 C15.098,48.64 14.817,48.88 14.406,48.88 C14.162,48.88 13.973,48.84 13.737,48.71 L13.646,48.07 L13.281,48.07 L13.281,49.06 C13.614,49.17 13.912,49.22 14.262,49.22 C15.159,49.22 15.692,48.79 15.692,48.07 C15.692,47.82 15.609,47.6 15.449,47.46 C15.281,47.3 15.197,47.25 14.634,47 C14.118,46.76 13.95,46.58 13.95,46.28 L13.95,46.28 Z M11.166,49.15 L12.833,49.15 L12.833,48.87 L12.422,48.84 L12.292,48.71 L12.292,46.57 C12.292,45.84 11.934,45.42 11.303,45.42 C10.97,45.42 10.71,45.51 10.041,45.87 L10.041,45.45 L9.751,45.45 L8.869,45.73 L8.869,45.96 L9.409,45.96 L9.409,48.71 L9.28,48.84 L8.869,48.87 L8.869,49.15 L10.534,49.15 L10.534,48.87 L10.17,48.84 L10.041,48.71 L10.041,46.17 C10.444,45.98 10.657,45.92 10.938,45.92 C11.44,45.92 11.661,46.16 11.661,46.7 L11.661,48.71 L11.531,48.84 L11.166,48.87 L11.166,49.15 Z M7.302,49.15 L8.429,49.15 L8.429,48.87 L8.07,48.84 L7.934,48.71 L7.934,45.41 L7.645,45.41 L6.762,45.69 L6.762,45.93 L7.302,45.93 L7.302,48.51 C6.953,48.67 6.701,48.73 6.42,48.73 C5.91,48.73 5.682,48.48 5.682,47.93 L5.682,45.41 L5.394,45.41 L4.511,45.69 L4.511,45.93 L5.05,45.93 L5.05,48.06 C5.05,48.8 5.408,49.22 6.047,49.22 C6.442,49.22 6.746,49.09 7.302,48.72 L7.302,49.15 Z M3.833,44.42 L4.337,44.36 L4.337,44.04 L2.754,44.04 L2.754,44.36 L3.179,44.39 L3.226,44.5 L1.537,46.56 L1.247,46.56 L1.247,44.5 L1.377,44.39 L1.85,44.36 L1.85,44.04 L0,44.04 L0,44.36 L0.434,44.39 L0.563,44.5 L0.563,48.69 L0.434,48.8 L0,48.84 L0,49.15 L1.85,49.15 L1.85,48.84 L1.377,48.8 L1.247,48.69 L1.247,46.87 L1.811,46.87 L3.263,48.92 L3.263,49.15 L4.518,49.15 L4.518,48.84 L3.963,48.8 L2.236,46.32 L3.833,44.42 Z M1.94,51.33 L0,51.33 L0,51.64 L0.434,51.68 L0.563,51.79 L0.563,55.98 L0.434,56.09 L0,56.12 L0,56.44 L2.009,56.44 C3.278,56.44 4.001,55.9 4.001,54.98 C4.001,54.19 3.53,53.77 2.578,53.73 C3.369,53.49 3.682,53.15 3.682,52.54 C3.682,51.74 3.097,51.33 1.94,51.33 L1.94,51.33 Z M1.247,54.03 C1.566,54 1.795,53.98 2.009,53.98 C2.838,53.98 3.249,54.32 3.249,55 C3.249,55.74 2.791,56.08 1.787,56.08 C1.674,56.08 1.643,56.08 1.247,56.06 L1.247,54.03 Z M1.766,51.67 C2.518,51.67 2.929,52 2.929,52.61 C2.929,53.32 2.48,53.65 1.537,53.65 C1.469,53.65 1.445,53.65 1.247,53.64 L1.247,51.69 C1.598,51.67 1.674,51.67 1.766,51.67 L1.766,51.67 Z M5.454,52.74 L4.571,53.01 L4.571,53.25 L5.111,53.25 L5.111,56 L4.982,56.12 L4.571,56.16 L4.571,56.44 L6.405,56.44 L6.405,56.16 L5.872,56.12 L5.743,56 L5.743,53.83 C6.093,53.43 6.329,53.27 6.579,53.27 C6.738,53.27 6.838,53.32 6.959,53.46 L7.202,53.46 L7.202,52.8 C7.014,52.72 6.906,52.7 6.738,52.7 L6.557,52.72 C6.237,52.98 5.994,53.2 5.743,53.46 L5.743,52.74 L5.454,52.74 Z M7.575,55.52 C7.575,56.1 7.963,56.49 8.542,56.49 C8.915,56.49 9.241,56.36 9.797,56 L9.895,56.44 L10.961,56.44 L10.961,56.16 L10.558,56.12 L10.429,56 L10.429,53.8 C10.429,53.04 10.086,52.71 9.279,52.71 C8.382,52.71 7.758,53.07 7.758,53.58 C7.758,53.74 7.819,53.8 7.994,53.8 L8.519,53.8 L8.519,53.16 C8.755,53.08 8.907,53.04 9.112,53.04 C9.614,53.04 9.797,53.27 9.797,53.89 L9.797,54.13 C8.877,54.36 8.71,54.42 8.337,54.56 C7.812,54.77 7.575,55.08 7.575,55.52 L7.575,55.52 Z M8.245,55.45 C8.245,55.14 8.405,54.92 8.77,54.75 C9.029,54.63 9.143,54.59 9.797,54.4 L9.797,55.74 C9.348,55.99 9.098,56.08 8.839,56.08 C8.481,56.08 8.245,55.83 8.245,55.45 L8.245,55.45 Z M11.79,52.78 L11.287,53 L11.287,53.23 L11.767,53.23 L11.767,55.69 C11.767,56.27 11.965,56.46 12.543,56.46 C12.87,56.46 13.15,56.41 13.555,56.29 L13.555,56.01 C13.363,56.06 13.189,56.07 13.015,56.07 C12.543,56.07 12.398,55.88 12.398,55.24 L12.398,53.23 L13.555,53.23 L13.555,52.88 L12.398,52.88 L12.398,52.07 L12.117,52.07 L11.79,52.78 Z M15.243,51.49 C15.243,51.25 15.046,51.05 14.81,51.05 C14.566,51.05 14.367,51.25 14.367,51.49 C14.367,51.74 14.559,51.93 14.802,51.93 C15.054,51.93 15.243,51.74 15.243,51.49 L15.243,51.49 Z M14.779,52.74 L13.896,53.01 L13.896,53.25 L14.437,53.25 L14.437,56 L14.307,56.12 L13.896,56.16 L13.896,56.44 L15.615,56.44 L15.615,56.16 L15.205,56.12 L15.075,56 L15.075,52.74 L14.779,52.74 Z M19.942,50.84 L19.015,51.11 L19.015,51.35 L19.602,51.35 L19.602,56 L19.471,56.12 L19.022,56.16 L19.022,56.44 L20.811,56.44 L20.811,56.16 L20.37,56.12 L20.233,56 L20.233,50.84 L19.942,50.84 L19.942,50.84 Z" id="Fill-62"></path>
        </g>
    </g>
</svg>