<?xml version="1.0" encoding="UTF-8"?>
<svg width="144px" height="35px" viewBox="0 0 144 35" version="1.1" xmlns="http://www.w3.org/2000/svg" xmlns:xlink="http://www.w3.org/1999/xlink">
    <!-- Generator: Sketch 45.2 (43514) - http://www.bohemiancoding.com/sketch -->
    <title>logo-ministerstvo</title>
    <desc>Created with Sketch.</desc>
    <defs></defs>
    <g id="logos" stroke="none" stroke-width="1" fill="none" fill-rule="evenodd">
        <g id="logo-ministerstvo" fill="#FFFFFF">
            <polygon id="Fill-15" points="29.8836255 11.17 53.8586255 11.17 53.8586255 10.1001 29.8836255 10.1001"></polygon>
            <polygon id="Fill-16" points="53.8226255 11.17 77.7966255 11.17 77.7966255 10.1001 53.8226255 10.1001"></polygon>
            <polygon id="Fill-17" points="77.7596255 11.17 101.731626 11.17 101.731626 10.1001 77.7596255 10.1001"></polygon>
            <path d="M3.35062552,21.52 C3.35062552,21.52 6.83762552,25.36 8.00962552,26.18 C9.21962552,27.04 11.6026255,28.25 11.6026255,28.25 C11.6026255,28.25 13.6306255,27.57 14.5546255,26.75 C15.4806255,25.9 19.6766255,21.74 19.6766255,21.56 C19.6766255,21.38 18.5386255,19.53 17.6856255,19.28 C16.8676255,19.07 15.2306255,19.6 14.8406255,19.85 C14.4126255,20.06 13.9156255,18.36 13.1686255,18.04 C12.4216255,17.72 10.9266255,17.11 10.4286255,17.29 C9.93062552,17.47 8.08162552,19.1 8.08162552,19.46 C8.08162552,19.85 6.83762552,18.75 6.09062552,18.93 C5.34262552,19.1 3.28062552,20.95 3.35062552,21.52" id="Fill-18"></path>
            <path d="M10.6066255,16.94 C10.8556255,16.86 11.1396255,16.83 11.4256255,16.83 C11.7096255,16.83 11.9586255,16.86 12.2086255,16.94 L12.2086255,16.65 L10.6066255,16.65 L10.6066255,16.94" id="Fill-19"></path>
            <path d="M17.2586255,19.53 C17.1166255,19.5 16.9736255,19.5 16.7966255,19.5 C15.7636255,19.5 15.0166255,20.53 14.9816255,20.56 L14.3426255,21.49 L14.1646255,20.39 C14.1646255,20.28 13.7366255,17.75 11.4256255,17.75 C9.04262552,17.75 8.61462552,20.24 8.58062552,20.35 L8.40262552,21.45 L7.76162552,20.49 C7.76162552,20.46 7.08562552,19.46 6.01862552,19.46 C5.80462552,19.46 5.62762552,19.5 5.41362552,19.57 C4.56062552,19.92 3.95562552,21.1 3.81362552,21.45 L3.77762552,21.49 L3.81362552,21.52 C5.69862552,24.26 8.47262552,26.57 11.4256255,27.85 L11.4606255,27.89 L11.4606255,27.85 C14.3056255,26.72 17.0446255,24.48 18.9656255,21.74 L18.9656255,21.67 C18.8236255,21.13 18.3606255,19.85 17.2586255,19.53" id="Fill-20"></path>
            <path d="M22.5226255,0.57 L22.4866255,0.11 L0.434625517,0.11 L0.398625517,0.57 C0.363625517,0.61 -0.205374483,6.73 0.0796255166,13.56 C0.363625517,20.99 6.08962552,26.68 11.2476255,28.85 L11.4256255,28.92 L11.6026255,28.85 C16.8676255,26.82 22.5586255,20.78 22.7006255,13.63 C22.8426255,6.87 22.5226255,0.64 22.5226255,0.57 L22.5226255,0.57 Z M18.9666255,21.74 C17.0086255,24.48 14.3066255,26.72 11.4616255,27.85 L11.4616255,27.89 L11.4256255,27.85 C8.47162552,26.57 5.69962552,24.26 3.81262552,21.52 L3.77862552,21.49 L3.77862552,21.45 C3.95662552,21.1 4.56062552,19.92 5.41462552,19.57 C5.62762552,19.5 5.80462552,19.46 6.01862552,19.46 C7.08562552,19.46 7.76062552,20.46 7.76062552,20.49 L8.40162552,21.45 L8.57962552,20.35 C8.61562552,20.24 9.04262552,17.75 11.4256255,17.75 C13.7376255,17.75 14.1636255,20.28 14.1636255,20.39 L14.3416255,21.49 L14.9816255,20.56 C15.0176255,20.53 15.7646255,19.5 16.7956255,19.5 C16.9376255,19.5 17.1156255,19.5 17.2576255,19.53 C18.3256255,19.85 18.8226255,21.13 18.9666255,21.67 L18.9666255,21.74 Z M21.7406255,13.59 C21.7046255,16.01 20.9936255,18.39 19.6406255,20.67 L19.5696255,20.74 L19.5356255,20.67 C19.2146255,19.92 18.6106255,19 17.5076255,18.68 C16.6176255,18.43 15.6936255,18.64 14.8746255,19.35 L14.8406255,19.42 L14.8036255,19.35 C14.5916255,18.82 14.0926255,17.79 13.0256255,17.22 C12.4566255,16.9 11.7096255,16.86 11.4256255,16.86 C11.1396255,16.86 10.4286255,16.86 9.78962552,17.22 C8.68562552,17.79 8.15262552,18.78 7.97462552,19.32 L7.93862552,19.35 L7.86862552,19.32 C7.47662552,18.96 6.83662552,18.57 6.01862552,18.57 C5.69962552,18.57 5.41462552,18.61 5.09362552,18.75 C4.23962552,19.07 3.63462552,19.89 3.24362552,20.53 L3.20962552,20.6 L3.17362552,20.53 C1.85662552,18.32 1.14562552,15.97 1.03862552,13.52 C1.00462552,12.27 0.967625517,10.99 0.967625517,9.68 C0.967625517,5.62 1.21662552,2.35 1.28862552,1.14 L1.32362552,1.11 L21.5606255,1.11 L21.5606255,1.14 C21.6336255,2.46 21.7746255,5.98 21.7746255,10.21 C21.7746255,11.39 21.7746255,12.52 21.7406255,13.59 L21.7406255,13.59 Z" id="Fill-21"></path>
            <path d="M12.4566255,11.81 C13.7366255,11.81 16.2616255,11.88 18.5036255,11.14 C18.5036255,11.14 18.4316255,11.92 18.4316255,12.81 C18.4316255,13.73 18.5036255,14.48 18.5036255,14.48 C16.4406255,13.84 13.9146255,13.8 12.4566255,13.84 L12.4566255,18.61 L10.4286255,18.61 L10.4286255,13.84 C9.00762552,13.8 6.44562552,13.84 4.41862552,14.48 C4.41862552,14.48 4.48962552,13.73 4.48962552,12.81 C4.48962552,11.92 4.41862552,11.14 4.41862552,11.14 C6.62362552,11.88 9.14862552,11.81 10.4286255,11.81 L10.4286255,8.79 C9.25562552,8.79 7.58362552,8.86 5.66262552,9.47 C5.66262552,9.47 5.73362552,8.68 5.73362552,7.79 C5.73362552,6.91 5.66262552,6.12 5.66262552,6.12 C7.58362552,6.76 9.25562552,6.8 10.4286255,6.8 C10.3936255,4.88 9.78862552,2.49 9.78862552,2.49 C9.78862552,2.49 10.9986255,2.57 11.4616255,2.57 C11.9236255,2.57 13.0966255,2.49 13.0966255,2.49 C13.0966255,2.49 12.5276255,4.88 12.4926255,6.8 C13.6306255,6.8 15.3386255,6.76 17.2226255,6.12 C17.2226255,6.12 17.1516255,6.91 17.1516255,7.79 C17.1516255,8.68 17.2226255,9.47 17.2226255,9.47 C15.3386255,8.86 13.6306255,8.79 12.4566255,8.79 L12.4566255,11.81" id="Fill-22"></path>
            <polyline id="Fill-23" points="36.6076255 7.01 36.6076255 2.39 34.1876255 7.01 33.2626255 7.01 30.9526255 2.46 30.9526255 7.01 29.8836255 7.01 29.8836255 0.08 31.0226255 0.08 33.7616255 5.62 36.6076255 0.08 37.6386255 0.08 37.6386255 7.01 36.6076255 7.01"></polyline>
            <polygon id="Fill-24" points="39.9156255 7.01 40.9816255 7.01 40.9816255 0.08 39.9156255 0.08"></polygon>
            <polyline id="Fill-25" points="50.0876255 0.08 50.0876255 7.01 49.2336255 7.01 44.2896255 1.85 44.2896255 7.01 43.2586255 7.01 43.2586255 0.08 44.1116255 0.08 49.0556255 5.23 49.0556255 0.08 50.0876255 0.08"></polyline>
            <polygon id="Fill-26" points="52.3996255 7.01 53.4315255 7.01 53.4315255 0.08 52.3996255 0.08"></polygon>
            <path d="M55.6006255,5.38 C55.9216255,5.73 56.5956255,6.12 57.1656255,6.12 C57.7696255,6.12 58.2686255,5.77 58.2686255,5.13 C58.2686255,3.92 55.3516255,4.09 55.3516255,2 C55.3516255,0.75 56.3826255,0 57.3796255,0 C58.0546255,0 58.5166255,0.25 58.8016255,0.47 L58.8016255,1.85 C58.5526255,1.46 58.0546255,1 57.4146255,1 C56.8096255,1 56.4186255,1.39 56.4186255,1.96 C56.4186255,3.24 59.3356255,3.03 59.3356255,5.09 C59.3356255,6.37 58.2686255,7.12 57.0946255,7.12 C56.4546255,7.12 55.9216255,6.87 55.6006255,6.58 L55.6006255,5.38" id="Fill-27"></path>
            <polyline id="Fill-28" points="59.7986255 0.08 65.3826255 0.08 65.3826255 1.07 63.1056255 1.07 63.1056255 7.01 62.0736255 7.01 62.0736255 1.07 59.7986255 1.07 59.7986255 0.08"></polyline>
            <polyline id="Fill-29" points="69.6856255 7.01 66.4846255 7.01 66.4846255 0.08 69.6856255 0.08 69.6856255 1.07 67.5166255 1.07 67.5166255 3.06 69.0816255 3.06 69.0816255 4.02 67.5166255 4.02 67.5166255 6.02 69.6856255 6.02 69.6856255 7.01"></polyline>
            <path d="M73.6696255,4.34 C73.4916255,4.38 73.2776255,4.41 73.0656255,4.41 L72.7086255,4.41 L72.7086255,7.01 L71.6416255,7.01 L71.6416255,0.08 L73.0996255,0.08 C74.7016255,0.08 75.7316255,0.75 75.7316255,2.25 C75.7316255,3.06 75.3416255,3.63 74.7356255,3.99 L77.4746255,7.01 L75.9816255,7.01 L73.6696255,4.34 Z M72.7086255,3.46 L73.0996255,3.46 C74.0246255,3.46 74.5936255,3.06 74.5936255,2.25 C74.5936255,1.43 74.0246255,1.07 73.1356255,1.07 L72.7086255,1.07 L72.7086255,3.46 L72.7086255,3.46 Z" id="Fill-30"></path>
            <path d="M77.9726255,5.38 C78.2586255,5.73 78.9336255,6.12 79.5026255,6.12 C80.1416255,6.12 80.6046255,5.77 80.6046255,5.13 C80.6046255,3.92 77.7246255,4.09 77.7246255,2 C77.7246255,0.75 78.7556255,0 79.7526255,0 C80.3916255,0 80.8896255,0.25 81.1746255,0.47 L81.1746255,1.85 C80.9256255,1.46 80.3916255,1 79.7526255,1 C79.1826255,1 78.7916255,1.39 78.7916255,1.96 C78.7916255,3.24 81.7076255,3.03 81.7076255,5.09 C81.7076255,6.37 80.6406255,7.12 79.4676255,7.12 C78.8276255,7.12 78.2946255,6.87 77.9726255,6.58 L77.9726255,5.38" id="Fill-31"></path>
            <polyline id="Fill-32" points="82.1346255 0.08 87.7186255 0.08 87.7186255 1.07 85.4426255 1.07 85.4426255 7.01 84.3766255 7.01 84.3766255 1.07 82.1346255 1.07 82.1346255 0.08"></polyline>
            <polyline id="Fill-33" points="91.1336255 5.8 93.1956255 0.07 94.3346255 0.07 91.6666255 7.01 90.5296255 7.01 88.0396255 0.07 89.1766255 0.07 91.1336255 5.8"></polyline>
            <path d="M98.6746255,0.04 C100.701626,0.08 102.123626,1.36 102.195626,3.46 C102.195626,5.48 100.772626,7.08 98.6026255,7.15 C96.1496255,7.12 95.0816255,5.23 95.1176255,3.6 C95.1176255,2.17 96.1836255,0.08 98.6746255,0.04 M98.6026255,6.16 C100.168626,6.12 101.128626,4.95 101.092626,3.49 C101.056626,1.96 100.095626,1.04 98.6746255,1.04 C96.8606255,1.04 96.2196255,2.56 96.2196255,3.6 C96.1836255,4.77 96.8606255,6.12 98.6026255,6.16" id="Fill-34"></path>
            <polyline id="Fill-35" points="30.9526255 15.58 30.9526255 18.96 33.9746255 15.58 35.3976255 15.58 32.1616255 19.03 35.3626255 22.48 33.9386255 22.48 30.9526255 19.18 30.9526255 22.48 29.8846255 22.48 29.8846255 15.58 30.9526255 15.58"></polyline>
            <path d="M37.6746255,15.58 L37.6746255,18.86 C37.6746255,20.28 38.3146255,21.67 39.8796255,21.67 C41.1966255,21.67 42.1196255,20.6 42.1196255,18.89 L42.1196255,15.58 L43.1516255,15.58 L43.1516255,18.86 C43.1516255,21.13 41.8006255,22.59 39.8796255,22.59 C37.6036255,22.59 36.6076255,21.06 36.6076255,18.89 L36.6076255,15.58 L37.6746255,15.58" id="Fill-36"></path>
            <polyline id="Fill-37" points="48.7366255 22.48 45.1086255 22.48 45.1086255 15.58 46.1386255 15.58 46.1386255 21.52 48.7366255 21.52 48.7366255 22.48"></polyline>
            <polyline id="Fill-38" points="49.0556255 15.58 54.6036255 15.58 54.6036255 16.54 52.3646255 16.54 52.3646255 22.48 51.2986255 22.48 51.2986255 16.54 49.0556255 16.54 49.0556255 15.58"></polyline>
            <path d="M56.8816255,15.58 L56.8816255,18.89 C56.8816255,20.31 57.5576255,21.67 59.1226255,21.67 C60.4376255,21.67 61.3626255,20.6 61.3626255,18.89 L61.3626255,15.58 L62.3946255,15.58 L62.3946255,18.89 C62.3946255,21.13 61.0436255,22.59 59.1226255,22.59 C56.8446255,22.59 55.8486255,21.06 55.8486255,18.89 L55.8486255,15.58 L56.8816255,15.58 Z M58.8386255,15.26 L58.2686255,14.73 L59.5496255,13.41 L60.1186255,14.02 L58.8386255,15.26 L58.8386255,15.26 Z" id="Fill-39"></path>
            <path d="M66.4496255,19.85 C66.2716255,19.89 66.0576255,19.89 65.8446255,19.89 L65.4876255,19.89 L65.4876255,22.48 L64.4216255,22.48 L64.4216255,15.58 L65.8806255,15.58 C67.4806255,15.58 68.5106255,16.22 68.5106255,17.72 C68.5106255,18.5 68.1216255,19.1 67.5156255,19.46 L70.2546255,22.48 L68.7606255,22.48 L66.4496255,19.85 Z M65.4876255,18.93 L65.8806255,18.93 C66.8046255,18.93 67.3746255,18.54 67.3746255,17.68 C67.3746255,16.9 66.8046255,16.54 65.9166255,16.54 L65.4876255,16.54 L65.4876255,18.93 L65.4876255,18.93 Z" id="Fill-40"></path>
            <polyline id="Fill-41" points="73.6696255 22.48 72.6026255 22.48 72.6026255 19.75 70.3256255 15.58 71.5346255 15.58 73.2076255 18.68 74.7716255 15.58 75.9816255 15.58 73.6696255 19.75 73.6696255 22.48"></polyline>
            <path d="M29.7786255,31.09 C30.0986255,31.45 30.7736255,31.84 31.3066255,31.84 C31.9836255,31.84 32.4456255,31.45 32.4456255,30.81 C32.4456255,29.63 29.5296255,29.81 29.5296255,27.68 C29.5296255,26.43 30.5596255,25.68 31.5566255,25.68 C32.2316255,25.68 32.6946255,25.93 32.9786255,26.18 L32.9786255,27.53 C32.7306255,27.18 32.1976255,26.68 31.5566255,26.68 C30.9876255,26.68 30.6326255,27.07 30.6326255,27.64 C30.6326255,28.92 33.5126255,28.71 33.5126255,30.77 C33.5126255,32.09 32.4456255,32.83 31.3066255,32.83 C30.6326255,32.83 30.0986255,32.59 29.7786255,32.3 L29.7786255,31.09" id="Fill-42"></path>
            <polyline id="Fill-43" points="38.9196255 32.69 35.2566255 32.69 35.2566255 25.79 36.3226255 25.79 36.3226255 31.73 38.9196255 31.73 38.9196255 32.69"></polyline>
            <path d="M43.0456255,25.76 C45.0726255,25.76 46.5306255,27.04 46.5666255,29.13 C46.6376255,31.2 45.1436255,32.8 43.0086255,32.83 C40.5546255,32.8 39.4886255,30.95 39.5226255,29.28 C39.5226255,27.85 40.5916255,25.76 43.0456255,25.76 M43.0086255,31.87 C44.5746255,31.84 45.4996255,30.66 45.4996255,29.21 C45.4646255,27.68 44.5036255,26.72 43.0456255,26.72 C41.2656255,26.72 40.6266255,28.28 40.6266255,29.28 C40.5916255,30.49 41.2656255,31.84 43.0086255,31.87" id="Fill-44"></path>
            <polyline id="Fill-45" points="50.2656255 31.48 52.3276255 25.79 53.4676255 25.79 50.7996255 32.69 49.6966255 32.69 47.2066255 25.79 48.3086255 25.79 50.2656255 31.48"></polyline>
            <polyline id="Fill-46" points="57.9836255 32.69 54.7466255 32.69 54.7466255 25.79 57.9836255 25.79 57.9836255 26.79 55.7786255 26.79 55.7786255 28.74 57.3436255 28.74 57.3436255 29.74 55.7786255 29.74 55.7786255 31.73 57.9836255 31.73 57.9836255 32.69"></polyline>
            <polyline id="Fill-47" points="66.6986255 25.79 66.6986255 32.69 65.8436255 32.69 60.8996255 27.57 60.8996255 32.69 59.8336255 32.69 59.8336255 25.79 60.6876255 25.79 65.6316255 30.95 65.6316255 25.79 66.6986255 25.79"></polyline>
            <path d="M68.6546255,31.09 C68.9736255,31.45 69.6496255,31.84 70.2186255,31.84 C70.8596255,31.84 71.3216255,31.45 71.3216255,30.81 C71.3216255,29.63 68.4406255,29.81 68.4406255,27.68 C68.4406255,26.43 69.4716255,25.68 70.4676255,25.68 C71.1076255,25.68 71.6066255,25.93 71.8556255,26.18 L71.8556255,27.53 C71.6416255,27.18 71.1076255,26.68 70.4676255,26.68 C69.8986255,26.68 69.5086255,27.07 69.5086255,27.64 C69.5086255,28.92 72.3886255,28.71 72.3886255,30.77 C72.3886255,32.09 71.3216255,32.83 70.1826255,32.83 C69.5436255,32.83 69.0096255,32.59 68.6546255,32.3 L68.6546255,31.09" id="Fill-48"></path>
            <polyline id="Fill-49" points="75.1986255 25.79 75.1986255 29.21 78.2216255 25.79 79.6436255 25.79 76.4426255 29.28 79.6096255 32.69 78.1856255 32.69 75.1986255 29.42 75.1986255 32.69 74.1676255 32.69 74.1676255 25.79 75.1986255 25.79"></polyline>
            <polyline id="Fill-50" points="84.2326255 32.69 80.9966255 32.69 80.9966255 25.79 84.2326255 25.79 84.2326255 26.79 82.0636255 26.79 82.0636255 28.74 83.5926255 28.74 83.5926255 29.74 82.0636255 29.74 82.0636255 31.73 84.2326255 31.73 84.2326255 32.69"></polyline>
            <path d="M85.4066255,34.22 C86.0106255,33.69 86.2956255,32.94 86.3316255,32.09 L86.3316255,25.79 L87.3986255,25.79 L87.3986255,32.09 C87.3986255,33.3 86.9016255,34.33 86.0836255,35 L85.4066255,34.22" id="Fill-51"></path>
            <path d="M94.6896255,30.06 C94.4756255,30.1 94.2986255,30.1 94.0866255,30.1 L93.6946255,30.1 L93.6946255,32.69 L92.6626255,32.69 L92.6626255,25.79 L94.1206255,25.79 C95.6856255,25.79 96.7176255,26.43 96.7176255,27.93 C96.7176255,28.74 96.3626255,29.35 95.7576255,29.7 L98.4956255,32.69 L97.0026255,32.69 L94.6896255,30.06 Z M93.6946255,29.13 L94.1206255,29.13 C95.0466255,29.13 95.6156255,28.74 95.6156255,27.93 C95.6156255,27.11 95.0466255,26.79 94.1566255,26.79 L93.6946255,26.79 L93.6946255,29.13 L93.6946255,29.13 Z" id="Fill-52"></path>
            <polyline id="Fill-53" points="102.373626 32.69 99.1356255 32.69 99.1356255 25.79 102.373626 25.79 102.373626 26.79 100.167626 26.79 100.167626 28.74 101.732626 28.74 101.732626 29.74 100.167626 29.74 100.167626 31.73 102.373626 31.73 102.373626 32.69"></polyline>
            <path d="M105.182626,30.1 L105.182626,32.69 L104.150626,32.69 L104.150626,25.79 L105.574626,25.79 C107.174626,25.79 108.206626,26.43 108.206626,27.93 C108.206626,29.35 107.032626,30.1 105.538626,30.1 L105.182626,30.1 Z M105.182626,29.13 L105.609626,29.13 C106.499626,29.13 107.103626,28.74 107.103626,27.93 C107.103626,27.11 106.534626,26.79 105.645626,26.79 L105.182626,26.79 L105.182626,29.13 L105.182626,29.13 Z" id="Fill-54"></path>
            <path d="M110.482626,25.79 L110.482626,29.1 C110.482626,30.52 111.158626,31.87 112.723626,31.87 C114.039626,31.87 114.964626,30.84 114.964626,29.1 L114.964626,25.79 L115.995626,25.79 L115.995626,29.1 C115.995626,31.34 114.644626,32.83 112.723626,32.83 C110.446626,32.83 109.450626,31.27 109.450626,29.1 L109.450626,25.79 L110.482626,25.79" id="Fill-55"></path>
            <path d="M117.916626,32.69 L117.916626,25.79 L118.912626,25.79 C120.476626,25.79 121.650626,26.29 121.650626,27.68 C121.650626,28.35 121.259626,28.74 120.654626,28.96 C121.615626,29.14 122.291626,29.67 122.291626,30.66 C122.291626,32.37 120.654626,32.69 119.232626,32.69 L117.916626,32.69 Z M119.267626,28.64 C120.085626,28.64 120.584626,28.35 120.584626,27.71 C120.584626,26.93 119.800626,26.79 119.126626,26.79 L118.982626,26.79 L118.982626,28.64 L119.267626,28.64 Z M119.410626,29.63 L118.982626,29.63 L118.982626,31.73 L119.374626,31.73 C120.476626,31.73 121.187626,31.59 121.187626,30.7 C121.187626,29.81 120.440626,29.63 119.410626,29.63 L119.410626,29.63 Z" id="Fill-56"></path>
            <polyline id="Fill-57" points="127.697626 32.69 124.034626 32.69 124.034626 25.79 125.100626 25.79 125.100626 31.73 127.697626 31.73 127.697626 32.69"></polyline>
            <polygon id="Fill-58" points="128.872626 32.69 129.938626 32.69 129.938626 25.7902 128.872626 25.7902"></polygon>
            <polyline id="Fill-59" points="133.352626 25.79 133.352626 29.21 136.376626 25.79 137.798626 25.79 134.562626 29.28 137.763626 32.69 136.340626 32.69 133.352626 29.42 133.352626 32.69 132.321626 32.69 132.321626 25.79 133.352626 25.79"></polyline>
            <polyline id="Fill-60" points="141.462626 32.69 140.395626 32.69 140.395626 29.95 138.118626 25.79 139.364626 25.79 141.000626 28.92 142.564626 25.79 143.774626 25.79 141.462626 29.95 141.462626 32.69"></polyline>
        </g>
    </g>
</svg>