<svg xmlns="http://www.w3.org/2000/svg" xmlns:xlink="http://www.w3.org/1999/xlink" viewBox="0 0 215 37">
    <defs>
        <path id="a" d="M0 36.93h214.935V0H0z"/>
    </defs>
    <g fill="none" fill-rule="evenodd">
        <path fill="#FFF" d="M55.61 24.658V7.68h7.847c3.177 0 5.547 1.386 5.547 4.305 0 2.14-1.1 3.333-3.005 3.965v.048c2.272.463 3.445 1.678 3.445 3.747 0 4.06-3.593 4.912-6.648 4.912h-7.185zm4.547-7.199v3.987h1.344c1.662 0 3.397-.241 3.397-1.967 0-1.85-1.784-2.02-3.348-2.02h-1.393zm0-6.568v3.503h1.27c1.491 0 3.032-.365 3.032-1.8 0-1.555-1.467-1.703-2.983-1.703h-1.319zm12.734 13.767V7.68h8.114c3.03 0 5.499 1.362 5.499 4.28 0 2.263-1.075 3.771-3.275 4.281v.05c1.466.388 1.564 1.678 2.42 3.745l1.662 4.62h-4.742l-.977-3.063c-.93-2.919-1.517-3.648-3.203-3.648h-.953v6.712h-4.545zm4.545-13.767v3.843h1.197c1.467 0 3.325-.047 3.325-1.97 0-1.581-1.59-1.873-3.325-1.873h-1.197zM88.9 24.658L95.375 7.68h5.574l6.574 16.977h-4.987l-1.271-3.623h-6.402l-1.345 3.623h-4.619zm11.292-6.835l-2.029-6.64h-.05l-2.198 6.64h4.277zm11.368 6.835v-13.62h-4.204V7.682h12.953v3.358h-4.203v13.619h-4.546zm11.853 0h4.546V7.68h-4.546v16.977zm8.578-.438c1.518.488 3.496.73 5.085.73 3.788 0 7.504-1.193 7.504-5.594 0-6.13-8.066-4.28-8.066-7.03 0-1.482 1.907-1.58 3.055-1.58 1.295 0 2.616.242 3.79.778l.294-3.502c-1.151-.39-2.765-.633-4.402-.633-3.422 0-7.43 1.12-7.43 5.205 0 6.179 8.065 4.184 8.065 7.346 0 1.362-1.368 1.654-2.81 1.654-1.883 0-3.52-.486-4.694-1.12l-.391 3.746zm16.255.438h11.584v-3.356h-7.038V7.682h-4.546v16.976zm13.174 0l6.476-16.977h5.573l6.574 16.977h-4.987l-1.27-3.623h-6.402l-1.345 3.623h-4.62zm11.291-6.835l-2.028-6.64h-.05l-2.199 6.64h4.277zm12.718 6.835l-5.72-16.977h4.84l3.788 13.33h.048l3.813-13.33h4.669l-5.816 16.977h-5.622zm10.882 0L202.79 7.68h5.57l6.576 16.977h-4.988l-1.268-3.623h-6.406l-1.343 3.623h-4.62zm11.293-6.835l-2.03-6.64h-.05l-2.198 6.64h4.278z"/>
        <mask id="b" fill="#fff">
            <use xlink:href="#a"/>
        </mask>
        <path fill="#FFF" d="M0 36.93h6.166v-6.137H0zM12.333 36.93h6.168v-6.137h-6.168zM24.558 36.93h6.166v-6.137h-6.166zM37.11 36.93h6.166v-6.137H37.11zM43.277 24.656V0h-6.168v6.3h-6.275V0h-6.167v6.3h-18.5V0H0v24.656h6.166V12.438h18.501v12.218h6.167V12.438h6.275v12.218h6.168zm-30.943 0H18.5v-6.19h-6.167v6.19z" mask="url(#b)"/>
    </g>
</svg>
