<?xml version="1.0" encoding="UTF-8"?>
<svg width="126px" height="42px" viewBox="0 0 126 42" version="1.1" xmlns="http://www.w3.org/2000/svg" xmlns:xlink="http://www.w3.org/1999/xlink">
    <!-- Generator: Sketch 45.2 (43514) - http://www.bohemiancoding.com/sketch -->
    <title>logo-bsk</title>
    <desc>Created with Sketch.</desc>
    <defs></defs>
    <g id="landing" stroke="none" stroke-width="1" fill="none" fill-rule="evenodd">
        <g id="KHB-artabase_HOMEv6c" transform="translate(-498.000000, -1264.000000)">
            <g id="logo-bsk" transform="translate(499.000000, 1264.000000)">
                <path d="M22.77,6.7 C22.77,6.7 21.77,6.81 21.84,6.61 C22.186375,6.0466636 22.6143619,5.53779729 23.11,5.1 C23.8217393,4.51932272 24.6941355,4.17036423 25.61,4.1 C26.4943676,4.02672869 27.3466208,3.73462577 28.09,3.25 C28.5875613,2.8939781 29.0618612,2.50652181 29.51,2.09 C29.74,1.84 30.26,1.53 30.08,2.3 C29.8002702,3.26860478 29.1499046,4.08784982 28.27,4.58 C28.564364,4.77484665 28.9233384,4.84664153 29.27,4.78 C29.79,4.62 30.44,3.9 30.58,3.97 C30.72,4.04 30.89,4.19 30.51,4.76 C30.3446121,5.04590364 30.1109907,5.28639627 29.83,5.46 C29.2949603,5.81951546 28.6263687,5.91870213 28.01,5.73 C28.01,5.73 27.4,5.12 27.11,5.12 C26.7806705,5.18355966 26.4440271,5.20039183 26.11,5.17 C26.11,5.17 26.96,5.3 27.11,5.96 C26.6877175,6.18629273 26.1882574,6.21910398 25.74,6.05 C25.2714569,5.7268074 24.6760751,5.64866353 24.14,5.84 C23.66,6.07 22.94,6.68 22.67,6.68" id="Shape" fill="#FFFFFF" fill-rule="nonzero"></path>
                <path d="M22.77,6.7 C22.77,6.7 21.77,6.81 21.84,6.61 C22.186375,6.0466636 22.6143619,5.53779729 23.11,5.1 C23.8217393,4.51932272 24.6941355,4.17036423 25.61,4.1 C26.4943676,4.02672869 27.3466208,3.73462577 28.09,3.25 C28.5875613,2.8939781 29.0618612,2.50652181 29.51,2.09 C29.74,1.84 30.26,1.53 30.08,2.3 C29.8002702,3.26860478 29.1499046,4.08784982 28.27,4.58 C28.564364,4.77484665 28.9233384,4.84664153 29.27,4.78 C29.79,4.62 30.44,3.9 30.58,3.97 C30.72,4.04 30.89,4.19 30.51,4.76 C30.3446121,5.04590364 30.1109907,5.28639627 29.83,5.46 C29.2949603,5.81951546 28.6263687,5.91870213 28.01,5.73 C28.01,5.73 27.4,5.12 27.11,5.12 C26.7806705,5.18355966 26.4440271,5.20039183 26.11,5.17 C26.11,5.17 26.96,5.3 27.11,5.96 C26.6877175,6.18629273 26.1882574,6.21910398 25.74,6.05 C25.2714569,5.7268074 24.6760751,5.64866353 24.14,5.84 C23.76,6.09 23,6.7 22.77,6.7 Z" id="Shape" stroke="#1D1D1B" stroke-width="0.21"></path>
                <path d="M21.05,4.77 C21.0756741,4.99215989 21.1545735,5.20484504 21.28,5.39 C21.4706858,5.62013829 21.6073688,5.89008723 21.68,6.18 C21.84,6.61 21.85,6.58 21.85,6.58 C21.4406488,6.61579886 21.0374582,6.70315683 20.65,6.84" id="Shape" stroke="#1D1D1B" stroke-width="0.21"></path>
                <polyline id="Shape" fill="#FFFFFF" fill-rule="nonzero" points="120.43 0.78 122.81 0.78 121.17 2.62 119.57 2.62 120.43 0.78"></polyline>
                <path d="M117.11,10.79 C117.403658,10.8860275 117.711058,10.9333199 118.02,10.93 C118.574886,10.9342289 119.057749,10.5512685 119.18,10.01 L116.49,3.21 L119,3.21 L120.42,7.55 L120.42,7.55 L121.78,3.21 L124.07,3.21 L121.64,9.4 C120.99,11.07 120.5,12.69 118.4,12.69 C117.919021,12.6873164 117.439679,12.6336838 116.97,12.53 L117.12,10.79 L117.11,10.79 Z M109.53,0.29 L111.82,0.29 L111.82,6 L111.82,6 L113.73,3.2 L116.24,3.2 L114,6.26 L116.49,9.86 L113.72,9.86 L111.88,6.57 L111.88,6.57 L111.88,9.86 L109.59,9.86 L109.53,0.29 Z M103.22,8 C103.900022,8.29140988 104.630272,8.44764928 105.37,8.46 C105.84,8.46 106.3,8.38 106.3,7.92 C106.3,6.8 103.04,7.59 103.04,5.19 C103.04,3.66 104.55,3.04 105.87,3.04 C106.663559,3.02038297 107.453795,3.14926252 108.2,3.42 L108,5 C107.454216,4.70202099 106.841823,4.54720272 106.22,4.55 C105.72,4.55 105.16,4.64 105.16,5.01 C105.16,6.01 108.57,5.23 108.57,7.75 C108.57,9.52 106.98,9.97 105.48,9.97 C104.667792,9.99711203 103.85673,9.88897036 103.08,9.65 L103.22,8 Z M95.22,3.19 L97.68,3.19 L99,7.94 L99,7.94 L100.38,3.21 L102.66,3.21 L100.21,9.86 L97.6,9.86 L95.22,3.19 Z M91,8.48 C91.8208913,8.43162474 92.4497989,7.73135173 92.41,6.91 C92.11,6.91 91.78,6.91 91.41,6.91 C90.63,6.91 90.02,7.15 90.02,7.79 C90,8.21 90.41,8.48 91,8.48 Z M92.57,9.86 C92.57,9.5 92.57,9.15 92.57,8.81 L92.57,8.81 C92.1591267,9.58066937 91.3425585,10.0472798 90.47,10.01 C89.16,10.01 87.99,9.36 87.99,7.92 C87.99,5.92 90.19,5.65 91.41,5.65 C91.768463,5.65216008 92.1262127,5.68225117 92.48,5.74 C92.48,4.83 91.79,4.59 90.96,4.59 C90.2254545,4.57322969 89.4989118,4.74539621 88.85,5.09 L88.85,3.53 C89.69392,3.20090923 90.5943795,3.0412051 91.5,3.06 C93.19,3.06 94.66,3.79 94.66,5.81 L94.66,8.29 C94.6505766,8.81594144 94.6907543,9.34160015 94.78,9.86 L92.57,9.86 Z M84.44,0.29 L86.73,0.29 L86.73,9.86 L84.44,9.86 L84.44,0.29 Z M77.83,8 C78.5093907,8.29339243 79.2400371,8.44971679 79.98,8.46 C80.45,8.46 80.91,8.38 80.91,7.92 C80.91,6.8 77.65,7.59 77.65,5.19 C77.65,3.66 79.15,3.04 80.48,3.04 C81.2702933,3.02045368 82.0572388,3.14934992 82.8,3.42 L82.63,5.02 C82.0810869,4.72078947 81.4651529,4.56594572 80.84,4.57 C80.35,4.57 79.84,4.66 79.84,5.03 C79.84,6.03 83.25,5.25 83.25,7.77 C83.25,9.54 81.66,9.99 80.16,9.99 C79.344555,10.0161944 78.530354,9.90808467 77.75,9.67 L77.83,8 Z M74.16,3.19 L76.45,3.19 L76.45,9.84 L74.16,9.84 L74.16,3.19 Z M76.45,2.11 L74.16,2.11 L74.16,0.45 L76.45,0.45 L76.45,2.11 Z M67.85,3.19 L69.2,3.19 L69.2,1.72 L71.46,1.02 L71.46,3.21 L73.06,3.21 L73.06,4.82 L71.46,4.82 L71.46,7.27 C71.46,8.07 71.65,8.48 72.37,8.48 C72.6054492,8.46973965 72.839613,8.43963287 73.07,8.39 L73.15,9.88 C72.6732673,9.95402884 72.192283,9.99745103 71.71,10.01 C69.71,10.01 69.17,9.1 69.17,7.52 L69.17,4.82 L67.85,4.82 L67.85,3.19 Z M63.62,8.46 C64.4208607,8.39626347 65.029312,7.71285807 65,6.91 C64.71,6.91 64.38,6.91 64,6.91 C63.23,6.91 62.62,7.15 62.62,7.79 C62.68,8.21 63.08,8.48 63.62,8.48 L63.62,8.46 Z M65.2,9.84 C65.2,9.48 65.14,9.13 65.14,8.79 L65.14,8.79 C64.725704,9.57812388 63.888905,10.0512672 63,10 C61.69,10 60.52,9.35 60.52,7.91 C60.52,5.91 62.72,5.64 63.94,5.64 C64.2984833,5.64170691 64.6562684,5.67180098 65.01,5.73 C65.01,4.82 64.32,4.58 63.5,4.58 C62.7621797,4.56240686 62.032202,4.7345714 61.38,5.08 L61.38,3.52 C62.2146748,3.19618441 63.1049393,3.03987842 64,3.06 C65.69,3.06 67.16,3.79 67.16,5.81 L67.16,8.29 C67.1505766,8.81594144 67.1907543,9.34160015 67.28,9.86 L65.2,9.84 Z M60.13,5.03 C59.8790736,4.96335339 59.6192678,4.93636057 59.36,4.95 C58.29,4.95 57.69,5.73 57.69,7.03 L57.69,9.84 L55.4,9.84 L55.4,3.21 L57.49,3.21 L57.49,4.44 L57.49,4.44 C57.7855098,3.59392578 58.5941257,3.03598081 59.49,3.06 C59.7517829,3.06475396 60.0127023,3.09151492 60.27,3.14 L60.13,5.03 Z M49.52,8.17 L50.22,8.17 C51.09,8.17 51.99,8.04 51.99,7.17 C51.99,6.3 51.06,6.11 50.25,6.11 L49.52,6.11 L49.52,8.17 Z M49.52,4.48 L50.18,4.48 C50.96,4.48 51.76,4.28 51.76,3.53 C51.76,2.78 51,2.64 50.21,2.64 L49.52,2.64 L49.52,4.48 Z M47.16,1 L51.24,1 C52.89,1 54.13,1.72 54.13,3.25 C54.1921888,4.23592648 53.5252125,5.11956392 52.56,5.33 L52.56,5.33 C53.75,5.57 54.36,6.21 54.36,7.33 C54.36,9.46 52.49,9.91 50.9,9.91 L47.16,9.91 L47.16,1 Z" id="Shape" fill="#FFFFFF" fill-rule="nonzero"></path>
                <path d="M100.59,23.09 C100.734828,23.1402885 100.886714,23.1672905 101.04,23.17 C101.88,23.17 102.16,22.01 102.16,21.91 C102.120028,21.720707 102.059676,21.5362989 101.98,21.36 L100.24,16.57 L101.24,16.57 L102.61,20.82 L102.61,20.82 L104.02,16.57 L105.02,16.57 L103.13,21.82 C102.77,22.82 102.4,23.94 101.13,23.94 C100.911476,23.9395676 100.693606,23.9161047 100.48,23.87 L100.54,23.09 L100.59,23.09 Z M95,16.57 L95.91,16.57 L95.91,17.38 L95.91,17.38 C96.2510112,16.7792011 96.8998186,16.4200398 97.59,16.45 C98.91,16.45 99.51,17.27 99.51,18.65 L99.51,21.7 L98.51,21.7 L98.51,19.05 C98.51,17.85 98.25,17.26 97.43,17.21 C96.35,17.21 95.87,18.08 95.87,19.33 L95.87,21.7 L95,21.7 L95,16.57 Z M92.39,21.7 L91.27,21.7 L89.43,16.57 L90.43,16.57 L91.82,20.76 L91.82,20.76 L93.24,16.57 L94.18,16.57 L92.39,21.7 Z M87.11,14.5 L88.2,14.5 L86.87,16 L86.2,16 L87.11,14.5 Z M87.73,19.26 L87.13,19.26 C86.61,19.26 85.35,19.34 85.35,20.26 C85.3648836,20.5065003 85.4804009,20.7360559 85.669491,20.8948916 C85.8585812,21.0537274 86.1046305,21.1278877 86.35,21.1 C86.7263586,21.1416177 87.1019967,21.0157795 87.3773355,20.7558443 C87.6526743,20.495909 87.7999058,20.128129 87.78,19.75 L87.73,19.26 Z M84.92,16.93 C85.4298125,16.6206919 86.0137142,16.45485 86.61,16.45 C88.08,16.45 88.67,17.17 88.67,18.57 L88.67,20.7 C88.6493018,21.033012 88.6493018,21.366988 88.67,21.7 L87.79,21.7 L87.79,21 L87.79,21 C87.4209916,21.5062159 86.8261768,21.7980119 86.2,21.78 C85.1,21.78 84.32,21.3 84.32,20.18 C84.32,18.89 85.73,18.49 86.7,18.49 C87.08,18.49 87.34,18.49 87.7,18.49 C87.7,17.61 87.38,17.15 86.43,17.15 C85.890452,17.1515273 85.3678622,17.3386709 84.95,17.68 L84.92,16.93 Z M80.92,16.57 L81.81,16.57 L81.81,17.36 L81.81,17.36 C82.0500342,16.8288422 82.5677609,16.4772517 83.15,16.45 C83.3587021,16.4488373 83.5668109,16.4723335 83.77,16.52 L83.77,17.36 C83.6040042,17.2970693 83.4274902,17.2665188 83.25,17.27 C82.4,17.27 81.85,18.08 81.85,19.37 L81.85,21.7 L80.85,21.7 L80.92,16.57 Z M77.4,17.21 C76.4,17.21 75.88,18.21 75.88,19.15 C75.88,20.09 76.32,21.06 77.39,21.06 C78.46,21.06 78.82,19.92 78.8,19.12 C78.78,18.32 78.41,17.21 77.39,17.21 L77.4,17.21 Z M74.94,16.57 L75.84,16.57 L75.84,17.29 L75.84,17.29 C76.2373102,16.7298277 76.8942478,16.4126854 77.58,16.45 C79.07,16.45 79.79,17.67 79.79,19.05 C79.79,20.43 79.14,21.82 77.59,21.82 C76.9152156,21.8825175 76.2611271,21.567016 75.89,21 L75.89,21 L75.89,23.82 L74.95,23.82 L74.94,16.57 Z M70.78,20.7 C71.138433,20.9136593 71.5433416,21.0371907 71.96,21.06 C72.39,21.06 72.96,20.88 72.96,20.32 C72.96,19.39 70.74,19.47 70.74,18.03 C70.74,16.96 71.54,16.45 72.55,16.45 C72.951223,16.4561889 73.3491461,16.5236335 73.73,16.65 L73.65,17.47 C73.3356821,17.3220484 72.9965762,17.2338809 72.65,17.21 C72.17,17.21 71.75,17.41 71.75,17.84 C71.75,18.84 73.97,18.58 73.97,20.22 C73.9700267,20.6783566 73.7746875,21.1149959 73.4329515,21.4204583 C73.0912155,21.7259206 72.6354829,21.8712448 72.18,21.82 C71.6942536,21.8423168 71.2103623,21.7462249 70.77,21.54 L70.78,20.7 Z M67.45,21.06 C67.9207734,21.0275195 68.357848,20.8041398 68.6599463,20.4416219 C68.9620446,20.079104 69.1029455,19.608913 69.05,19.14 C69.1635766,18.4990019 68.8848667,17.8518906 68.3410782,17.4940186 C67.7972898,17.1361467 67.0927102,17.1361467 66.5489218,17.4940186 C66.0051333,17.8518906 65.7264234,18.4990019 65.84,19.14 C65.784063,19.6111203 65.9252063,20.0844235 66.2300446,20.4479574 C66.5348829,20.8114913 66.9763413,21.0329677 67.45,21.06 Z M67.45,16.45 C68.1617348,16.4288537 68.8494316,16.7086081 69.3442886,17.2205947 C69.8391455,17.7325813 70.0953448,18.4293964 70.05,19.14 C70.05,20.5814632 68.8814632,21.75 67.44,21.75 C65.9985368,21.75 64.83,20.5814632 64.83,19.14 C64.7874011,18.4266298 65.0472909,17.7283176 65.5459135,17.216373 C66.0445361,16.7044284 66.7357547,16.4262209 67.45,16.45 L67.45,16.45 Z M56.38,16.57 L57.27,16.57 L57.27,17.31 L57.27,17.31 C57.6027139,16.7337004 58.2364858,16.3993177 58.9,16.45 C59.5478237,16.4377125 60.1312758,16.8400932 60.35,17.45 C60.6554608,16.8493471 61.2663086,16.4651661 61.94,16.45 C63.25,16.45 63.72,17.29 63.72,18.45 L63.72,21.7 L62.77,21.7 L62.77,18.64 C62.77,18.01 62.62,17.21 61.86,17.21 C60.86,17.21 60.51,18.16 60.51,19.12 L60.51,21.7 L59.57,21.7 L59.57,18.64 C59.57,18.01 59.42,17.21 58.65,17.21 C57.65,17.21 57.31,18.16 57.31,19.12 L57.31,21.7 L56.31,21.7 L56.38,16.57 Z M54,19.26 L53.4,19.26 C52.88,19.26 51.62,19.34 51.62,20.26 C51.6521421,20.7534306 52.0763466,21.1285167 52.57,21.1 C52.9537724,21.1432726 53.3367445,21.0123234 53.613678,20.7431363 C53.8906114,20.4739493 54.0323702,20.0948454 54,19.71 L54,19.26 Z M51.2,16.93 C51.7056864,16.6196473 52.2866837,16.453648 52.88,16.45 C54.35,16.45 54.94,17.17 54.94,18.57 L54.94,20.7 C54.9114087,21.0327202 54.9114087,21.3672798 54.94,21.7 L54.1,21.7 L54.1,21 L54.1,21 C53.7309916,21.5062159 53.1361768,21.7980119 52.51,21.78 C51.41,21.78 50.63,21.3 50.63,20.18 C50.63,18.89 52.04,18.49 53.02,18.49 C53.39,18.49 53.65,18.49 54.02,18.49 C54.02,17.61 53.7,17.15 52.75,17.15 C52.210452,17.1515273 51.6878622,17.3386709 51.27,17.68 L51.2,16.93 Z M46.81,20.7 C47.168433,20.9136593 47.5733416,21.0371907 47.99,21.06 C48.42,21.06 48.99,20.88 48.99,20.32 C48.99,19.39 46.76,19.47 46.76,18.03 C46.76,16.96 47.56,16.45 48.57,16.45 C48.971223,16.4561889 49.3691461,16.5236335 49.75,16.65 L49.67,17.47 C49.3556821,17.3220484 49.0165762,17.2338809 48.67,17.21 C48.19,17.21 47.77,17.41 47.77,17.84 C47.77,18.84 49.99,18.58 49.99,20.22 C49.9900267,20.6783566 49.7946875,21.1149959 49.4529515,21.4204583 C49.1112155,21.7259206 48.6554829,21.8712448 48.2,21.82 C47.7142536,21.8423168 47.2303623,21.7462249 46.79,21.54 L46.81,20.7 Z" id="Shape" fill="#FFFFFF" fill-rule="nonzero"></path>
                <path d="M63,27.47 L61.9,27.47 L61.9,26.4 L63,26.4 L63,27.47 Z M60.92,34.93 C61.0497265,34.9419265 61.1802735,34.9419265 61.31,34.93 C61.75,34.93 61.98,34.51 61.98,33.85 L61.98,28.42 L62.92,28.42 L62.92,33.73 C62.92,34.48 62.92,35.79 61.48,35.79 C61.2837005,35.8069956 61.0862995,35.8069956 60.89,35.79 L60.92,34.93 Z M59.47,31.11 L58.86,31.11 C58.35,31.11 57.09,31.19 57.09,32.11 C57.1048836,32.3565003 57.2204009,32.5860559 57.409491,32.7448916 C57.5985812,32.9037274 57.8446305,32.9778877 58.09,32.95 C58.4655677,32.9881081 58.8391531,32.8610828 59.113651,32.6019414 C59.3881488,32.3428001 59.5364475,31.9771376 59.52,31.6 L59.47,31.11 Z M56.66,28.78 C57.1698125,28.4706919 57.7537142,28.30485 58.35,28.3 C59.82,28.3 60.41,29.02 60.41,30.42 L60.41,32.55 C60.3893018,32.883012 60.3893018,33.216988 60.41,33.55 L59.53,33.55 L59.53,32.89 L59.53,32.89 C59.1598495,33.3948539 58.5657987,33.6862751 57.94,33.67 C56.83,33.67 56.06,33.19 56.06,32.07 C56.06,30.78 57.47,30.38 58.44,30.38 C58.81,30.38 59.08,30.38 59.44,30.38 C59.44,29.49 59.12,29.04 58.17,29.04 C57.627719,29.0432569 57.1025251,29.2300709 56.68,29.57 L56.66,28.78 Z M52.66,28.42 L53.55,28.42 L53.55,29.21 L53.55,29.21 C53.7884084,28.6819291 54.3014312,28.3309134 54.88,28.3 C55.0920297,28.298329 55.3035086,28.3218266 55.51,28.37 L55.51,29.21 C55.3440042,29.1470693 55.1674902,29.1165188 54.99,29.12 C54.14,29.12 53.59,29.93 53.59,31.22 L53.59,33.55 L52.59,33.55 L52.66,28.42 Z M47.2,26 L48.14,26 L48.14,30.5 L50.2,28.42 L51.49,28.42 L49.11,30.69 L51.79,33.55 L50.43,33.55 L48.14,30.91 L48.14,33.55 L47.2,33.55 L47.2,26 Z" id="Shape" fill="#FFFFFF" fill-rule="nonzero"></path>
                <path d="M36.44,0.73 L0.14,0.73 C0.14,3.03 0.14,5.33 0.14,7.63 C0.14,11.76 0.14,15.9 0.14,20.03 C0.14,23.17 -0.08,26.18 1,29.16 C3.56886231,36.5384168 10.5172098,41.4900666 18.33,41.51 C26.3877581,41.5448935 33.4960382,36.2432503 35.76,28.51 C36.93,24.14 36.42,19.66 36.46,15.19 C36.46,11.25 36.46,7.3 36.46,3.36 C36.46,2.5 36.46,1.64 36.46,0.78" id="Shape" fill="#FFFFFF" fill-rule="nonzero"></path>
                <path d="M22.88,6.81 C22.88,6.81 23.02,6.54 23.99,6.57 C24.8346371,6.46903474 25.66604,6.27794617 26.47,6 C27.01,5.93 28.12,5.79 28.9,5.75 C30.1051243,5.54577587 31.2436581,5.05538331 32.22,4.32 C32.72,3.78 33.3,2.4 33.53,2.4 C33.76,2.4 33.96,2.47 33.94,2.85 C33.92,3.23 34.05,4.66 31.45,6.24 C31.45,6.24 31.66,6.74 32.54,6.45 C33.1583199,6.19240311 33.6943492,5.77049622 34.09,5.23 C34.3,5.02 34.57,4.77 34.59,5.32 C34.4607773,5.95657679 34.1055782,6.52489542 33.59,6.92 C32.71,7.71 32.28,7.85 31.92,7.87 C31.3759781,7.83511568 30.849635,7.66310816 30.39,7.37 C29.7037935,7.05880461 28.9343937,6.98151331 28.2,7.15 C28.2,7.15 28.95,8.32 29.46,8.44 C30.0287497,8.54555799 30.6029919,8.61900757 31.18,8.66 C31.34,8.66 31.61,8.71 31.29,9.05 C30.602007,9.53698037 29.7297118,9.68420319 28.92,9.45 C28.0815144,9.17657008 27.3708187,8.60801355 26.92,7.85 C26.69,7.4 24.03,7.4 24.03,7.4 L22.79,7.92 L22.49,7.69 L22.83,6.85" id="Shape" fill="#000000" fill-rule="nonzero"></path>
                <path d="M22.88,6.81 C22.88,6.81 23.02,6.54 23.99,6.57 C24.8346371,6.46903474 25.66604,6.27794617 26.47,6 C27.01,5.93 28.12,5.79 28.9,5.75 C30.1051243,5.54577587 31.2436581,5.05538331 32.22,4.32 C32.72,3.78 33.3,2.4 33.53,2.4 C33.76,2.4 33.96,2.47 33.94,2.85 C33.92,3.23 34.05,4.66 31.45,6.24 C31.45,6.24 31.66,6.74 32.54,6.45 C33.1583199,6.19240311 33.6943492,5.77049622 34.09,5.23 C34.3,5.02 34.57,4.77 34.59,5.32 C34.4607773,5.95657679 34.1055782,6.52489542 33.59,6.92 C32.71,7.71 32.28,7.85 31.92,7.87 C31.3759781,7.83511568 30.849635,7.66310816 30.39,7.37 C29.7037935,7.05880461 28.9343937,6.98151331 28.2,7.15 C28.2,7.15 28.95,8.32 29.46,8.44 C30.0287497,8.54555799 30.6029919,8.61900757 31.18,8.66 C31.34,8.66 31.61,8.71 31.29,9.05 C30.602007,9.53698037 29.7297118,9.68420319 28.92,9.45 C28.0815144,9.17657008 27.3708187,8.60801355 26.92,7.85 C26.69,7.4 24.03,7.4 24.03,7.4 L22.79,7.92 L22.49,7.69 L22.88,6.81 Z" id="Shape" stroke="#FFFFFF" stroke-width="0.21"></path>
                <path d="M5.58,11 C4.50514574,11.5285689 3.69508241,12.4760537 3.34,13.62 C3.34,13.62 3.23,13.85 3.77,13.83 C3.8786719,13.8319034 3.98581991,13.8042523 4.08,13.75 L5.26,12.5 C5.26,12.5 3.52,14.1 3.79,14.37 C4.20524272,14.600273 4.69655353,14.6508491 5.15,14.51 C5.57174615,14.407006 5.93303688,14.136038 6.15,13.76 C6.41600094,13.418813 6.71771538,13.1070415 7.05,12.83 C6.99323323,12.0681734 6.53098001,11.395805 5.84,11.07 L5.58,11" id="Shape" fill="#000000" fill-rule="nonzero"></path>
                <path d="M5.58,11 C4.50514574,11.5285689 3.69508241,12.4760537 3.34,13.62 C3.34,13.62 3.23,13.85 3.77,13.83 C3.8786719,13.8319034 3.98581991,13.8042523 4.08,13.75 L5.26,12.5 C5.26,12.5 3.52,14.1 3.79,14.37 C4.20524272,14.600273 4.69655353,14.6508491 5.15,14.51 C5.57174615,14.407006 5.93303688,14.136038 6.15,13.76 C6.41600094,13.418813 6.71771538,13.1070415 7.05,12.83 C6.99323323,12.0681734 6.53098001,11.395805 5.84,11.07 L5.58,11 Z" id="Shape" stroke="#FFFFFF" stroke-width="0.26"></path>
                <path d="M14.74,13.59 C13.9182553,12.6164972 13.1790327,11.5762338 12.53,10.48 C12.12,9.72 11.11,9.86 10.39,9.95 C9.67,10.04 5.74,10.06 5.59,11.1 C5.8043656,11.2319013 6.01134253,11.3754498 6.21,11.53 C6.57031292,11.8531344 6.83639666,12.2678103 6.98,12.73 C7.06,13.12 7.53,12.89 7.72,12.85 C7.91,12.81 10.12,11.85 10.63,12.15 C11.14,12.45 10.94,12.58 10.94,12.58 L11.6,15.49 L13.77,15.68 L14.77,13.59" id="Shape" fill="#000000" fill-rule="nonzero"></path>
                <path d="M14.73,13.59 C13.9128302,12.6152575 13.1770277,11.5751003 12.53,10.48 C12.12,9.72 11.11,9.87 10.39,9.95 C9.67,10.03 5.74,10.06 5.59,11.1 C5.8043656,11.2319013 6.01134253,11.3754498 6.21,11.53 C6.57027442,11.85507 6.83918628,12.2687806 6.99,12.73 C7.06,13.12 7.53,12.89 7.72,12.85 C7.91,12.81 10.12,11.85 10.63,12.15 C11.14,12.45 10.94,12.58 10.94,12.58 L11.6,15.49 L13.77,15.68 L14.73,13.59 Z" id="Shape" stroke="#FFFFFF" stroke-width="0.26"></path>
                <path d="M15,22.83 C15,22.83 12.87,19.06 13.18,16.15 C13.1703914,14.540785 14.3096373,13.1535113 15.89,12.85 C16.24,12.73 18.95,12.15 19.15,11.49 C19.15,11.49 18.99,11.1 17.79,11.49 C16.59,11.88 15.62,10.96 15.79,10.71 C15.7857088,10.6768048 15.7857088,10.6431952 15.79,10.61 C15.508907,10.124161 15.5955762,9.50922253 16,9.12 C16,9.12 15.45,8.42 16.38,8.3 C17.2947811,8.24042681 18.2039174,8.11341511 19.1,7.92 C19.37,7.76 20.1,6.98 20.65,6.83 C20.5440994,6.44959687 20.5035233,6.05398029 20.53,5.66 C20.5561298,5.13091742 20.3930627,4.60981145 20.07,4.19 C20.4531589,4.28068243 20.8010267,4.48244574 21.07,4.77 C21.07,4.77 21.23,4.5 21.54,4.77 C21.85,5.04 22.54,5.61 22.54,5.61 C22.54,5.61 21.78,6.41 21.84,6.48 C21.9,6.55 22.46,6.48 22.73,6.63 C23,6.78 23.08,7.45 22.73,7.63 C23.2682375,7.53961714 23.7904054,7.37117588 24.28,7.13 C25.2235522,6.79948891 26.2697473,6.96073046 27.07,7.56 C27.57,7.87 27.73,7.82 27.73,7.82 C27.6403293,7.80911209 27.5496707,7.80911209 27.46,7.82 C26.9417787,8.0111643 26.4560866,8.2809932 26.02,8.62 C25.7586814,8.85091837 25.4415258,9.00949616 25.1,9.08 C25.1,9.08 25.25,12.42 23.66,14.28 C22.6511126,15.3145567 21.9753842,16.6276989 21.72,18.05 C21.3863386,19.5229442 21.4835387,21.0607882 22,22.48 L22.15,22.87 L15.06,22.87" id="Shape" fill="#000000" fill-rule="nonzero"></path>
                <path d="M15,22.83 C15,22.83 12.87,19.06 13.18,16.15 C13.1703914,14.540785 14.3096373,13.1535113 15.89,12.85 C16.24,12.73 18.95,12.15 19.15,11.49 C19.15,11.49 18.99,11.1 17.79,11.49 C16.59,11.88 15.62,10.96 15.79,10.71 C15.7857088,10.6768048 15.7857088,10.6431952 15.79,10.61 C15.508907,10.124161 15.5955762,9.50922253 16,9.12 C16,9.12 15.45,8.42 16.38,8.3 C17.2947811,8.24042681 18.2039174,8.11341511 19.1,7.92 C19.37,7.76 20.1,6.98 20.65,6.83 C20.5440994,6.44959687 20.5035233,6.05398029 20.53,5.66 C20.5561298,5.13091742 20.3930627,4.60981145 20.07,4.19 C20.4531589,4.28068243 20.8010267,4.48244574 21.07,4.77 C21.07,4.77 21.23,4.5 21.54,4.77 C21.85,5.04 22.54,5.61 22.54,5.61 C22.54,5.61 21.78,6.41 21.84,6.48 C21.9,6.55 22.46,6.48 22.73,6.63 C23,6.78 23.08,7.45 22.73,7.63 C23.2682375,7.53961714 23.7904054,7.37117588 24.28,7.13 C25.2235522,6.79948891 26.2697473,6.96073046 27.07,7.56 C27.57,7.87 27.73,7.82 27.73,7.82 C27.6403293,7.80911209 27.5496707,7.80911209 27.46,7.82 C26.9417787,8.0111643 26.4560866,8.2809932 26.02,8.62 C25.7586814,8.85091837 25.4415258,9.00949616 25.1,9.08 C25.1,9.08 25.25,12.42 23.66,14.28 C22.6511126,15.3145567 21.9753842,16.6276989 21.72,18.05 C21.3863386,19.5229442 21.4835387,21.0607882 22,22.48 L22.15,22.87 L15,22.83 Z" id="Shape" stroke="#FFFFFF" stroke-width="0.26"></path>
                <path d="M23.22,8.31 C23.5989119,8.3764949 23.9886544,8.34200441 24.35,8.21 C24.6837043,7.94678852 25.0799103,7.77452502 25.5,7.71 C26.1126245,7.61014684 26.7373755,7.61014684 27.35,7.71" id="Shape" fill="#000000" fill-rule="nonzero"></path>
                <path d="M23.22,8.31 C23.5989119,8.3764949 23.9886544,8.34200441 24.35,8.21 C24.6837043,7.94678852 25.0799103,7.77452502 25.5,7.71 C26.1126245,7.61014684 26.7373755,7.61014684 27.35,7.71" id="Shape" stroke="#FFFFFF" stroke-width="0.21"></path>
                <path d="M19.87,8.63 L20.28,8.37 C20.5419272,8.14943787 20.9142533,8.11740982 21.21,8.29 C21.3561293,8.38837274 21.4963696,8.49522248 21.63,8.61 C21.7170389,8.66058851 21.7894115,8.73296107 21.84,8.82 C21.7008573,8.79808886 21.5591427,8.79808886 21.42,8.82 C21.3613675,9.11321859 21.0988315,9.32070669 20.8,9.31 C20.5022493,9.30487064 20.2605914,9.06760643 20.25,8.77 C20.1270254,8.75669591 20.0029746,8.75669591 19.88,8.77 C19.88,8.77 19.74,8.77 19.88,8.68" id="Shape" fill="#FFFFFF" fill-rule="nonzero"></path>
                <path d="M21,8.68 C20.9893597,8.81414735 20.8744434,8.91580407 20.74,8.91 C20.6483106,8.92943691 20.5539983,8.89129236 20.501601,8.81357969 C20.4492037,8.73586702 20.4492037,8.63413298 20.501601,8.55642031 C20.5539983,8.47870764 20.6483106,8.44056309 20.74,8.46 C20.8709416,8.45382677 20.984415,8.54984273 21,8.68" id="Shape" fill="#000000" fill-rule="nonzero"></path>
                <path d="M4.92,17.71 C4.44863974,17.9712451 4.09196298,18.3992572 3.92,18.91 C3.59,19.82 3.34,19.91 3.34,20.52 C3.34,20.83 4.04,20.52 4.04,20.52 C4.49574853,20.0541554 4.86184905,19.5083945 5.12,18.91 C5.12,18.91 3.86,20.7 4,21.42 C4.06,21.76 4.65,21.49 5,21.33 C5.35,21.17 6.39,20.81 6.48,20.33 C6.48,20.33 6.48,20.1 6.48,20.04 C6.48,19.98 7.02,19.45 7.02,19.45 C7.02,19.45 6.16,17.45 4.92,17.75" id="Shape" fill="#000000" fill-rule="nonzero"></path>
                <path d="M4.92,17.71 C4.44863974,17.9712451 4.09196298,18.3992572 3.92,18.91 C3.59,19.82 3.34,19.91 3.34,20.52 C3.34,20.83 4.04,20.52 4.04,20.52 C4.49574853,20.0541554 4.86184905,19.5083945 5.12,18.91 C5.12,18.91 3.86,20.7 4,21.42 C4.06,21.76 4.65,21.49 5,21.33 C5.35,21.17 6.39,20.81 6.48,20.33 C6.48,20.33 6.48,20.1 6.48,20.04 C6.48,19.98 7.02,19.45 7.02,19.45 C7.02,19.45 6.16,17.44 4.92,17.71 Z" id="Shape" stroke="#FFFFFF" stroke-width="0.26"></path>
                <path d="M18.22,17.31 C18.22,17.31 16.48,19.1 15.36,19.14 C14.389698,19.1544039 13.4310068,18.9276167 12.57,18.48 C11.83,18.13 10.2,17 9.78,17 C9.36,17 9.27,17.2 8.85,17.47 C8.30834201,17.978989 7.84948184,18.5694341 7.49,19.22 C7.3,19.57 7.1,19.49 6.87,19.41 C6.64,19.33 6.52,18.64 6.05,18.32 C5.58,18 4.85,17.94 4.85,17.78 C4.85,17.62 5.12,17.39 5.71,17.12 C6.3,16.85 8.85,14.6 9.08,14.52 C9.56317707,14.3939717 10.0764958,14.4621748 10.51,14.71 C12.0835076,15.663432 14.0564924,15.663432 15.63,14.71" id="Shape" fill="#000000" fill-rule="nonzero"></path>
                <path d="M18.22,17.31 C18.22,17.31 16.48,19.1 15.36,19.14 C14.389698,19.1544039 13.4310068,18.9276167 12.57,18.48 C11.83,18.13 10.2,17 9.78,17 C9.36,17 9.27,17.2 8.85,17.47 C8.30834201,17.978989 7.84948184,18.5694341 7.49,19.22 C7.3,19.57 7.1,19.49 6.87,19.41 C6.64,19.33 6.52,18.63 6.06,18.32 C5.6,18.01 4.85,17.94 4.85,17.78 C4.85,17.62 5.13,17.39 5.71,17.12 C6.29,16.85 8.85,14.6 9.08,14.52 C9.56317707,14.3939717 10.0764958,14.4621748 10.51,14.71 C12.0872064,15.650097 14.0527936,15.650097 15.63,14.71" id="Shape" stroke="#FFFFFF" stroke-width="0.26"></path>
                <polyline id="Shape" fill="#000000" fill-rule="nonzero" points="17.76 29.16 12.18 28.93 12.1 30.33 18.18 30.36 17.76 29.16"></polyline>
                <polygon id="Shape" stroke="#FFFFFF" stroke-width="0.34" points="17.76 29.16 12.18 28.93 12.1 30.33 18.18 30.36"></polygon>
                <polyline id="Shape" fill="#000000" fill-rule="nonzero" points="13.73 25.51 17.02 28.77 18.22 28.5 14.97 24.19 13.73 25.51"></polyline>
                <polygon id="Shape" stroke="#FFFFFF" stroke-width="0.34" points="13.73 25.51 17.02 28.77 18.22 28.5 14.97 24.19"></polygon>
                <polyline id="Shape" fill="#000000" fill-rule="nonzero" points="17.99 22.79 18.27 27.8 19.31 27.96 19.85 22.99 17.99 22.79"></polyline>
                <polygon id="Shape" stroke="#FFFFFF" stroke-width="0.34" points="17.99 22.79 18.27 27.8 19.31 27.96 19.85 22.99"></polygon>
                <polyline id="Shape" fill="#000000" fill-rule="nonzero" points="19.78 27.92 22.8 24.77 24.08 26.25 20.44 28.93 19.78 27.92"></polyline>
                <polygon id="Shape" stroke="#FFFFFF" stroke-width="0.34" points="19.78 27.92 22.8 24.77 24.08 26.25 20.44 28.93"></polygon>
                <polyline id="Shape" fill="#000000" fill-rule="nonzero" points="19.74 29.2 25.01 29.16 24.81 30.87 19.12 30.05 19.74 29.2"></polyline>
                <polygon id="Shape" stroke="#FFFFFF" stroke-width="0.34" points="19.74 29.2 25.01 29.16 24.81 30.87 19.12 30.05"></polygon>
                <path d="M20.47,28.85 C20.5913574,29.6273187 20.2158702,30.3979969 19.5289393,30.7815042 C18.8420084,31.1650115 17.9889269,31.080232 17.3909129,30.5690265 C16.7928988,30.0578209 16.5764385,29.2283147 16.8484115,28.4900853 C17.1203846,27.751856 17.8232657,27.2610468 18.61,27.26 C19.5609027,27.1909119 20.3903161,27.8999265 20.47,28.85" id="Shape" fill="#000000" fill-rule="nonzero"></path>
                <path d="M20.47,28.85 C20.5913574,29.6273187 20.2158702,30.3979969 19.5289393,30.7815042 C18.8420084,31.1650115 17.9889269,31.080232 17.3909129,30.5690265 C16.7928988,30.0578209 16.5764385,29.2283147 16.8484115,28.4900853 C17.1203846,27.751856 17.8232657,27.2610468 18.61,27.26 C19.5609027,27.1909119 20.3903161,27.8999265 20.47,28.85 Z" id="Shape" stroke="#FFFFFF" stroke-width="0.34"></path>
                <path d="M13.3,32 C12.8934951,31.1970823 12.6811329,30.3099565 12.68,29.41 C12.68,26.1459971 15.3259971,23.5 18.59,23.5 C21.8540029,23.5 24.5,26.1459971 24.5,29.41 C24.502067,30.5248518 24.178865,31.6160931 23.57,32.55 C24.11,32.87 24.57,33.19 25.03,33.47 C25.8193173,32.263013 26.2397918,30.8521649 26.24,29.41 C26.0911609,25.2953323 22.7123588,22.0365411 18.595,22.0365411 C14.4776412,22.0365411 11.0988391,25.2953323 10.95,29.41 C10.9497739,30.513647 11.1957472,31.6034455 11.67,32.6 C12.07,32.45 12.67,32.23 13.3,32" id="Shape" fill="#000000" fill-rule="nonzero"></path>
                <path d="M13.3,32 C12.8934951,31.1970823 12.6811329,30.3099565 12.68,29.41 C12.68,26.1459971 15.3259971,23.5 18.59,23.5 C21.8540029,23.5 24.5,26.1459971 24.5,29.41 C24.502067,30.5248518 24.178865,31.6160931 23.57,32.55 C24.11,32.87 24.57,33.19 25.03,33.47 C25.8193173,32.263013 26.2397918,30.8521649 26.24,29.41 C26.0911609,25.2953323 22.7123588,22.0365411 18.595,22.0365411 C14.4776412,22.0365411 11.0988391,25.2953323 10.95,29.41 C10.9497739,30.513647 11.1957472,31.6034455 11.67,32.6 C12.07,32.43 12.64,32.21 13.3,32 Z" id="Shape" stroke="#FFFFFF" stroke-width="0.34"></path>
                <path d="M1.42,30.24 L0.92,29.04 C1.73480606,28.308563 2.73423155,27.8140375 3.81,27.61 C4.93785435,27.495478 6.05257897,27.9265048 6.81,28.77 C7.9,29.86 9.17,31.88 10.92,31.92 C12.67,31.96 13.55,31.87 14.92,30.25 C15.5144193,29.4175912 16.3428229,28.7806254 17.3,28.42 C18.2116101,28.1924558 19.1709295,28.2482708 20.05,28.58 C20.9289385,28.9668306 21.6860014,29.5856172 22.24,30.37 C23.2291814,31.7113986 24.8513267,32.4331963 26.51,32.27 C27.2525463,32.2088403 27.9548082,31.9068677 28.51,31.41 C30.07,29.71 31.05,28.35 33.33,28.35 C34.1123055,28.4309627 34.8758931,28.6404425 35.59,28.97 L34.59,31.41 C33.5020512,31.1833274 32.3689694,31.4266494 31.47,32.08 C30.5775971,32.9084441 29.7360639,33.7900504 28.95,34.72 C28.1457394,35.4562996 27.0902672,35.8570213 26,35.84 C24.45,35.96 23.17,35.03 22.09,33.55 C20.81,31.81 19.68,31.55 18.68,31.61 C17.3249386,31.563525 16.034141,32.1883459 15.23,33.28 C13.99,34.79 13.02,35.84 10.73,35.57 C8.44,35.3 8.02,33.9 7.28,33.08 C6.54,32.26 5.86,31 4.5,30.87 C3.60696482,30.8399314 2.71587941,30.9720695 1.87,31.26 L1.42,30.26" id="Shape" fill="#000000" fill-rule="nonzero"></path>
                <path d="M1.42,30.24 L0.92,29.04 C1.73480606,28.308563 2.73423155,27.8140375 3.81,27.61 C4.93807726,27.4938185 6.05353047,27.925127 6.81,28.77 C7.9,29.86 9.17,31.88 10.92,31.92 C12.67,31.96 13.55,31.87 14.92,30.25 C15.5149923,29.4204452 16.3435321,28.7868559 17.3,28.43 C18.2100856,28.1940493 19.1709774,28.2464616 20.05,28.58 C20.9289385,28.9668306 21.6860014,29.5856172 22.24,30.37 C23.2291814,31.7113986 24.8513267,32.4331963 26.51,32.27 C27.2525463,32.2088403 27.9548082,31.9068677 28.51,31.41 C30.07,29.71 31.05,28.35 33.33,28.35 C34.1094106,28.4293014 34.8699793,28.6388804 35.58,28.97 L34.58,31.41 C33.4920512,31.1833274 32.3589694,31.4266494 31.46,32.08 C30.5675971,32.9084441 29.7260639,33.7900504 28.94,34.72 C28.1346615,35.4545479 27.0799109,35.8549956 25.99,35.84 C24.44,35.96 23.16,35.03 22.08,33.55 C20.8,31.81 19.67,31.55 18.67,31.61 C17.3149386,31.563525 16.024141,32.1883459 15.22,33.28 C13.98,34.79 13.01,35.84 10.72,35.57 C8.43,35.3 8.01,33.9 7.27,33.08 C6.53,32.26 5.72,30.95 4.37,30.87 C3.47364955,30.8391605 2.5791462,30.971303 1.73,31.26 L1.42,30.24 Z" id="Shape" stroke="#FFFFFF" stroke-width="0.26"></path>
                <path d="M23.78,10.07 C23.6141487,10.7274818 23.2253895,11.3070865 22.68,11.71 C21.9463028,12.1347001 21.067169,12.2291524 20.26,11.97 C19.26,11.73 19.36,11.41 18.98,11.32" id="Shape" stroke="#FFFFFF" stroke-width="0.16"></path>
                <path d="M15.73,10.08 C15.73,10.08 15.73,10.59 16.6,10.49 L17.88,10.32 C17.88,10.32 18.29,10.15 18.39,9.89 C18.3462966,10.0977262 18.3462966,10.3122738 18.39,10.52 C18.2761918,10.431721 18.1336081,10.3889459 17.99,10.4 C17.93,10.4 17.46,10.52 16.37,10.65 C16.13,10.65 15.84,10.77 15.99,11.05 C16.0132496,11.0974264 16.0475436,11.1385792 16.09,11.17 C16.09,11.17 15.68,10.92 15.76,10.67 C15.76,10.67 15.49,10.13 15.76,10.08" id="Shape" fill="#FFFFFF" fill-rule="nonzero"></path>
                <path d="M23.42,8.92 C23.5553175,8.8522082 23.7146825,8.8522082 23.85,8.92 C24.1955227,9.05894839 24.5691214,9.11378857 24.94,9.08 C25.1842588,9.06901734 25.4246402,9.01484689 25.65,8.92" id="Shape" stroke="#FFFFFF" stroke-width="0.21"></path>
                <path d="M36.44,0.73 L0.14,0.73 C0.14,3.03 0.14,5.33 0.14,7.63 C0.14,11.76 0.14,15.9 0.14,20.03 C0.14,23.17 -0.08,26.18 1.01,29.16 C3.56762881,36.5337296 10.505335,41.4863696 18.31,41.51 C26.3677581,41.5448935 33.4760382,36.2432503 35.74,28.51 C36.91,24.14 36.4,19.66 36.44,15.19 C36.44,11.25 36.44,7.3 36.44,3.36 C36.42,2.45 36.44,1.59 36.44,0.73 Z" id="Shape" stroke="#000000" stroke-width="0.39"></path>
            </g>
        </g>
    </g>
</svg>