<?xml version="1.0" encoding="UTF-8"?>
<svg width="80px" height="18px" viewBox="0 0 80 18" version="1.1" xmlns="http://www.w3.org/2000/svg" xmlns:xlink="http://www.w3.org/1999/xlink">
    <!-- Generator: Sketch 45.2 (43514) - http://www.bohemiancoding.com/sketch -->
    <title>logo-bsk</title>
    <desc>Created with Sketch.</desc>
    <defs></defs>
    <g id="logos" stroke="none" stroke-width="1" fill="none" fill-rule="evenodd">
        <g id="logo-bsk" fill="#FFFFFF">
            <path d="M4.922,6.26 C5.846,6.26 6.528,6.16 6.968,5.95 C7.407,5.74 7.744,5.45 7.979,5.07 C8.213,4.69 8.33,4.21 8.33,3.63 C8.33,3.04 8.215,2.56 7.983,2.19 C7.752,1.81 7.422,1.53 6.992,1.33 C6.563,1.14 5.873,1.04 4.922,1.05 L4.922,6.26 Z M4.922,7.02 L4.922,11.27 L4.912,11.76 C4.912,12.11 5.002,12.38 5.181,12.56 C5.359,12.74 5.625,12.83 5.977,12.83 C6.498,12.83 6.978,12.71 7.417,12.48 C7.856,12.25 8.193,11.91 8.428,11.47 C8.662,11.03 8.779,10.54 8.779,10 C8.779,9.38 8.637,8.83 8.35,8.34 C8.063,7.85 7.67,7.5 7.168,7.31 C6.666,7.11 5.918,7.02 4.922,7.02 Z M8.477,6.53 C9.732,6.82 10.612,7.17 11.122,7.59 C11.852,8.18 12.212,8.95 12.212,9.9 C12.212,10.89 11.812,11.72 11.012,12.37 C10.033,13.15 8.604,13.55 6.729,13.55 L0,13.55 L0,13.19 C0.611,13.19 1.027,13.13 1.245,13.02 C1.463,12.9 1.616,12.75 1.704,12.57 C1.792,12.39 1.836,11.94 1.836,11.22 L1.836,2.63 C1.836,1.91 1.792,1.46 1.704,1.28 C1.616,1.09 1.461,0.94 1.24,0.83 C1.02,0.72 0.606,0.67 0,0.67 L0,0.31 L6.348,0.31 C7.865,0.31 8.94,0.44 9.57,0.71 C10.201,0.98 10.702,1.39 11.062,1.92 C11.432,2.46 11.612,3.03 11.612,3.64 C11.612,4.27 11.382,4.84 10.922,5.34 C10.452,5.84 9.643,6.23 8.477,6.53 L8.477,6.53 Z" id="Fill-63"></path>
            <path d="M22.312,0 L22.422,4.42 L22.022,4.42 C21.832,3.31 21.372,2.42 20.632,1.75 C19.892,1.07 19.092,0.74 18.232,0.74 C17.572,0.74 17.042,0.91 16.652,1.27 C16.272,1.62 16.072,2.03 16.072,2.49 C16.072,2.79 16.142,3.05 16.282,3.27 C16.472,3.58 16.772,3.88 17.192,4.18 C17.492,4.4 18.202,4.78 19.302,5.33 C20.852,6.09 21.902,6.81 22.442,7.48 C22.972,8.16 23.242,8.94 23.242,9.81 C23.242,10.91 22.812,11.87 21.952,12.66 C21.082,13.46 19.992,13.86 18.662,13.86 C18.242,13.86 17.852,13.82 17.482,13.73 C17.112,13.65 16.642,13.49 16.082,13.26 C15.772,13.12 15.512,13.06 15.312,13.06 C15.142,13.06 14.962,13.12 14.772,13.26 C14.582,13.39 14.432,13.58 14.312,13.85 L13.952,13.85 L13.952,8.85 L14.312,8.85 C14.602,10.26 15.152,11.33 15.972,12.07 C16.792,12.81 17.672,13.18 18.612,13.18 C19.342,13.18 19.922,12.98 20.352,12.58 C20.792,12.18 21.002,11.72 21.002,11.19 C21.002,10.88 20.922,10.58 20.752,10.29 C20.592,9.99 20.342,9.72 20.002,9.45 C19.662,9.19 19.062,8.84 18.202,8.42 C17.002,7.83 16.132,7.32 15.602,6.91 C15.082,6.49 14.672,6.03 14.392,5.51 C14.102,5 13.962,4.43 13.962,3.81 C13.962,2.76 14.352,1.86 15.132,1.12 C15.902,0.37 16.882,0 18.052,0 C18.482,0 18.902,0.06 19.302,0.16 C19.612,0.24 19.982,0.38 20.422,0.59 C20.862,0.81 21.172,0.91 21.352,0.91 C21.522,0.91 21.652,0.86 21.752,0.76 C21.842,0.65 21.942,0.4 22.022,0 L22.312,0" id="Fill-64"></path>
            <path d="M32.372,5.37 L37.032,11.2 C37.692,12.02 38.252,12.58 38.732,12.87 C39.072,13.08 39.442,13.19 39.822,13.19 L39.822,13.55 L32.932,13.55 L32.932,13.19 C33.362,13.15 33.652,13.08 33.772,12.98 C33.902,12.88 33.962,12.76 33.962,12.62 C33.962,12.35 33.662,11.83 33.062,11.08 L30.032,7.26 L29.542,7.67 L29.542,11.28 C29.542,11.97 29.582,12.4 29.662,12.57 C29.732,12.74 29.882,12.89 30.112,13.01 C30.332,13.13 30.682,13.19 31.172,13.19 L31.172,13.55 L24.492,13.55 L24.492,13.19 L24.932,13.19 C25.312,13.19 25.622,13.12 25.862,12.98 C26.032,12.89 26.162,12.73 26.252,12.51 C26.322,12.36 26.362,11.95 26.362,11.28 L26.362,2.57 C26.362,1.89 26.322,1.47 26.252,1.3 C26.182,1.13 26.032,0.98 25.812,0.86 C25.602,0.73 25.302,0.67 24.932,0.67 L24.492,0.67 L24.492,0.31 L31.082,0.31 L31.082,0.67 C30.632,0.67 30.292,0.73 30.062,0.86 C29.892,0.95 29.752,1.11 29.662,1.32 C29.582,1.48 29.542,1.9 29.542,2.57 L29.542,6.69 L34.452,2.72 C35.132,2.16 35.482,1.72 35.482,1.39 C35.482,1.14 35.342,0.95 35.062,0.8 C34.912,0.73 34.562,0.69 33.992,0.67 L33.992,0.31 L39.162,0.31 L39.162,0.67 C38.702,0.7 38.332,0.78 38.072,0.92 C37.812,1.05 37.202,1.5 36.252,2.27 L32.372,5.37" id="Fill-65"></path>
            <path d="M48.852,0.31 L48.852,11.65 C48.852,12.3 48.922,12.71 49.072,12.89 C49.222,13.07 49.512,13.17 49.952,13.2 L49.952,13.55 L45.022,13.55 L45.022,13.2 C45.422,13.18 45.722,13.07 45.922,12.85 C46.052,12.7 46.112,12.3 46.112,11.65 L46.112,2.2 C46.112,1.56 46.042,1.15 45.892,0.97 C45.742,0.8 45.452,0.69 45.022,0.67 L45.022,0.31 L48.852,0.31" id="Fill-66"></path>
            <path d="M55.172,4.84 C54.842,4.84 54.562,4.96 54.322,5.21 C54.082,5.46 53.932,5.96 53.852,6.7 C53.782,7.44 53.742,8.46 53.742,9.78 C53.742,10.48 53.782,11.13 53.882,11.73 C53.952,12.19 54.102,12.55 54.332,12.79 C54.572,13.03 54.842,13.15 55.132,13.15 C55.432,13.15 55.672,13.07 55.872,12.9 C56.122,12.68 56.292,12.37 56.382,11.98 C56.512,11.36 56.572,10.11 56.572,8.23 C56.572,7.12 56.512,6.36 56.382,5.95 C56.262,5.53 56.082,5.23 55.842,5.04 C55.672,4.91 55.452,4.84 55.172,4.84 Z M55.132,4.14 C55.932,4.14 56.672,4.35 57.352,4.76 C58.042,5.17 58.552,5.75 58.912,6.51 C59.262,7.26 59.442,8.09 59.442,8.99 C59.442,10.28 59.112,11.37 58.462,12.24 C57.662,13.29 56.562,13.82 55.162,13.82 C53.792,13.82 52.732,13.34 51.992,12.38 C51.252,11.41 50.882,10.3 50.882,9.03 C50.882,7.72 51.262,6.58 52.012,5.6 C52.772,4.63 53.812,4.14 55.132,4.14 L55.132,4.14 Z" id="Fill-67"></path>
            <path d="M65.002,4.75 C64.622,4.75 64.302,4.94 64.042,5.32 C63.782,5.7 63.652,6.49 63.652,7.69 C63.652,8.66 63.782,9.32 64.042,9.69 C64.292,10.05 64.602,10.23 64.952,10.23 C65.342,10.23 65.672,10.05 65.932,9.69 C66.192,9.33 66.322,8.64 66.322,7.6 C66.322,6.44 66.172,5.64 65.882,5.22 C65.672,4.91 65.382,4.75 65.002,4.75 Z M64.422,14.9 C63.762,14.9 63.322,14.95 63.102,15.06 C62.732,15.26 62.552,15.54 62.552,15.88 C62.552,16.21 62.742,16.52 63.122,16.79 C63.512,17.06 64.232,17.19 65.292,17.19 C66.202,17.19 66.912,17.07 67.422,16.83 C67.942,16.59 68.202,16.25 68.202,15.81 C68.202,15.65 68.152,15.51 68.052,15.4 C67.882,15.21 67.612,15.08 67.262,15 C66.902,14.93 65.962,14.9 64.422,14.9 Z M66.692,4.52 L69.762,4.52 L69.762,5.6 L68.022,5.6 C68.332,5.92 68.562,6.21 68.682,6.47 C68.842,6.82 68.912,7.19 68.912,7.57 C68.912,8.22 68.732,8.79 68.372,9.27 C68.012,9.74 67.522,10.12 66.902,10.39 C66.282,10.66 65.722,10.79 65.242,10.79 C65.202,10.79 64.812,10.78 64.072,10.75 C63.782,10.75 63.532,10.84 63.332,11.03 C63.132,11.23 63.042,11.45 63.042,11.72 C63.042,11.96 63.132,12.15 63.302,12.3 C63.482,12.45 63.772,12.52 64.182,12.52 L65.872,12.5 C67.232,12.5 68.182,12.65 68.692,12.95 C69.432,13.37 69.792,14.01 69.792,14.88 C69.792,15.43 69.622,15.93 69.292,16.39 C68.952,16.84 68.502,17.17 67.952,17.39 C67.112,17.7 66.142,17.86 65.052,17.86 C64.232,17.86 63.482,17.78 62.802,17.63 C62.122,17.47 61.642,17.24 61.352,16.96 C61.052,16.68 60.912,16.38 60.912,16.07 C60.912,15.77 61.022,15.5 61.242,15.26 C61.472,15.02 61.892,14.82 62.502,14.66 C61.652,14.24 61.232,13.67 61.232,12.92 C61.232,12.47 61.402,12.04 61.752,11.61 C62.092,11.19 62.642,10.82 63.392,10.51 C62.512,10.19 61.882,9.77 61.492,9.25 C61.102,8.73 60.912,8.13 60.912,7.44 C60.912,6.55 61.272,5.78 62.002,5.13 C62.732,4.47 63.672,4.14 64.812,4.14 C65.422,4.14 66.042,4.27 66.692,4.52 L66.692,4.52 Z" id="Fill-68"></path>
            <path d="M75.172,4.84 C74.842,4.84 74.562,4.96 74.322,5.21 C74.082,5.46 73.932,5.96 73.852,6.7 C73.782,7.44 73.742,8.46 73.742,9.78 C73.742,10.48 73.782,11.13 73.882,11.73 C73.952,12.19 74.102,12.55 74.332,12.79 C74.572,13.03 74.842,13.15 75.132,13.15 C75.432,13.15 75.672,13.07 75.872,12.9 C76.122,12.68 76.292,12.37 76.382,11.98 C76.512,11.36 76.572,10.11 76.572,8.23 C76.572,7.12 76.512,6.36 76.382,5.95 C76.262,5.53 76.082,5.23 75.842,5.04 C75.672,4.91 75.452,4.84 75.172,4.84 Z M75.132,4.14 C75.932,4.14 76.672,4.35 77.352,4.76 C78.042,5.17 78.552,5.75 78.912,6.51 C79.262,7.26 79.442,8.09 79.442,8.99 C79.442,10.28 79.112,11.37 78.462,12.24 C77.662,13.29 76.562,13.82 75.162,13.82 C73.792,13.82 72.732,13.34 71.992,12.38 C71.252,11.41 70.882,10.3 70.882,9.03 C70.882,7.72 71.262,6.58 72.012,5.6 C72.772,4.63 73.812,4.14 75.132,4.14 L75.132,4.14 Z" id="Fill-69"></path>
        </g>
    </g>
</svg>