<?xml version="1.0" encoding="UTF-8"?>
<svg width="178px" height="60px" viewBox="0 0 178 60" version="1.1" xmlns="http://www.w3.org/2000/svg" xmlns:xlink="http://www.w3.org/1999/xlink">
    <!-- Generator: Sketch 45.2 (43514) - http://www.bohemiancoding.com/sketch -->
    <title>Group</title>
    <desc>Created with Sketch.</desc>
    <defs></defs>
    <g id="logos" stroke="none" stroke-width="1" fill="none" fill-rule="evenodd">
        <g id="Group" fill="#000000">
            <path d="M15.136,42.045 L12.534,22.205 L10.013,42.045 L15.136,42.045 Z M8.794,1.553 L16.355,1.553 L24.649,58.47 L17.087,58.47 L15.868,49.525 L9.2,49.525 L8.062,58.47 L0.5,58.47 L8.794,1.553 L8.794,1.553 Z" id="Fill-77"></path>
            <path d="M40.422,28.222 C42.048,28.222 43.187,27.084 43.187,25.458 L43.187,11.798 C43.187,10.171 42.048,9.033 40.422,9.033 L37.739,9.033 L37.739,28.222 L40.422,28.222 Z M30.177,1.553 L40.422,1.553 C46.357,1.553 50.748,5.862 50.748,11.798 L50.748,23.587 C50.748,27.165 49.122,30.174 46.439,31.963 C49.122,33.67 50.748,36.678 50.748,40.256 L50.748,58.47 L43.187,58.47 L43.187,38.467 C43.187,36.841 42.048,35.703 40.422,35.703 L37.739,35.703 L37.739,58.47 L30.177,58.47 L30.177,1.553 L30.177,1.553 Z" id="Fill-78"></path>
            <polyline id="Fill-79" points="62.131 9.033 54.894 9.033 54.894 1.553 76.848 1.553 76.848 9.033 69.692 9.033 69.692 58.47 62.131 58.47 62.131 9.033"></polyline>
            <path d="M91.319,50.989 C92.945,50.989 94.084,49.851 94.084,48.225 L94.084,36.516 C94.084,34.89 92.945,33.751 91.319,33.751 L88.637,33.751 L88.637,50.989 L91.319,50.989 Z M91.319,26.271 C92.945,26.271 94.084,25.132 94.084,23.506 L94.084,11.798 C94.084,10.171 92.945,9.033 91.319,9.033 L88.637,9.033 L88.637,26.271 L91.319,26.271 Z M81.074,1.553 L91.319,1.553 C97.255,1.553 101.646,5.862 101.646,11.798 L101.646,21.636 C101.646,25.213 100.02,28.222 97.336,30.011 C100.02,31.718 101.646,34.727 101.646,38.305 L101.646,48.225 C101.646,54.16 97.255,58.47 91.319,58.47 L81.074,58.47 L81.074,1.553 L81.074,1.553 Z" id="Fill-80"></path>
            <path d="M120.183,42.045 L117.582,22.205 L115.062,42.045 L120.183,42.045 Z M113.841,1.553 L121.402,1.553 L129.697,58.47 L122.136,58.47 L120.915,49.525 L114.248,49.525 L113.109,58.47 L105.548,58.47 L113.841,1.553 L113.841,1.553 Z" id="Fill-81"></path>
            <path d="M141.16,39.118 L141.16,49.038 C141.16,50.664 142.299,51.802 143.844,51.802 C145.47,51.802 146.608,50.664 146.608,49.038 L146.608,41.882 C146.608,34.646 133.599,30.092 133.599,18.059 L133.599,10.984 C133.599,5.049 137.907,0.74 143.844,0.74 C149.779,0.74 154.169,5.049 154.169,10.984 L154.169,20.823 L146.608,20.823 L146.608,10.984 C146.608,9.358 145.47,8.22 143.844,8.22 C142.299,8.22 141.16,9.358 141.16,10.984 L141.16,18.059 C141.16,25.295 154.169,29.93 154.169,41.882 L154.169,49.038 C154.169,54.973 149.779,59.283 143.844,59.283 C137.907,59.283 133.599,54.973 133.599,49.038 L133.599,39.118 L141.16,39.118" id="Fill-82"></path>
            <polyline id="Fill-83" points="159.86 1.553 177.585 1.553 177.585 9.033 167.423 9.033 167.423 26.271 175.96 26.271 175.96 33.751 167.423 33.751 167.423 50.989 177.585 50.989 177.585 58.47 159.86 58.47 159.86 1.553"></polyline>
        </g>
    </g>
</svg>