<?xml version="1.0" standalone="no"?>
<!DOCTYPE svg PUBLIC "-//W3C//DTD SVG 20010904//EN"
 "http://www.w3.org/TR/2001/REC-SVG-20010904/DTD/svg10.dtd">
<svg version="1.0" xmlns="http://www.w3.org/2000/svg"
 width="700.000000pt" height="700.000000pt" viewBox="0 0 700.000000 700.000000"
 preserveAspectRatio="xMidYMid meet">
<metadata>
Created by potrace 1.11, written by Peter Selinger 2001-2013
</metadata>
<g transform="translate(0.000000,700.000000) scale(0.100000,-0.100000)"
fill="#000000" stroke="none">
<path d="M4897 6394 c-1 -1 -49 -4 -107 -8 -130 -7 -162 -12 -276 -41 -470
-119 -804 -456 -930 -937 -50 -195 -59 -531 -18 -679 4 -15 33 -16 272 -15
261 1 267 1 264 21 -1 11 -6 49 -11 85 -10 68 -7 387 3 430 4 14 9 40 12 59 3
19 10 45 15 58 5 13 6 23 4 23 -6 0 34 106 65 175 64 140 182 267 320 343 50
27 148 62 219 78 48 10 275 13 326 3 28 -5 61 -11 75 -14 42 -8 133 -47 186
-81 96 -60 185 -178 218 -291 32 -108 -2 -96 285 -97 192 -1 255 2 258 11 7
19 -42 184 -78 261 -41 88 -126 214 -188 279 -152 157 -387 275 -630 314 -56
9 -279 27 -284 23z"/>
<path d="M888 6336 c-2 -6 -3 -609 -3 -1341 l1 -1330 230 -3 229 -2 -1 1032
c0 568 1 1037 4 1041 4 9 142 -208 142 -223 0 -5 3 -10 8 -12 9 -4 72 -107 72
-119 0 -5 5 -9 10 -9 6 0 10 -4 10 -9 0 -5 90 -154 199 -332 l199 -324 256 0
c215 -1 256 2 251 13 -4 12 -241 397 -868 1412 -49 80 -99 161 -112 180 l-22
35 -301 1 c-203 0 -302 -3 -304 -10z"/>
<path d="M2662 5526 l3 -821 226 0 226 -1 -1 821 -1 820 -228 1 -227 0 2 -820z"/>
<path d="M4958 5063 c-2 -5 -4 -87 -3 -183 l0 -175 335 0 335 -1 -1 -69 c0
-91 -8 -139 -34 -208 -48 -127 -162 -254 -289 -321 -77 -40 -219 -84 -286 -87
-25 -2 -49 -8 -53 -13 -5 -6 -8 -94 -7 -196 l0 -185 30 2 c144 10 322 71 452
155 73 47 157 131 200 200 20 32 37 57 38 56 2 -2 6 -42 10 -90 3 -48 8 -98
10 -110 2 -13 6 -54 10 -93 3 -38 8 -71 10 -73 2 -2 92 -6 202 -9 l198 -5 0
706 0 706 -577 0 c-317 0 -578 -3 -580 -7z"/>
<path d="M888 3265 c-2 -11 -3 -616 -3 -1344 l1 -1325 233 0 c128 -1 237 2
242 5 6 3 10 195 9 483 0 372 3 478 13 481 6 2 201 6 432 8 386 4 427 6 510
26 212 50 340 116 458 235 80 81 155 221 183 341 21 91 37 254 25 256 -3 1
-115 2 -248 3 l-243 2 -1 -26 c-5 -180 -81 -311 -216 -375 -115 -55 -140 -58
-540 -62 l-372 -5 0 469 0 468 302 0 302 0 5 190 5 190 -547 0 c-541 1 -547 0
-550 -20z"/>
</g>
</svg>
