<?xml version="1.0" encoding="utf-8"?>
<!-- Generator: Adobe Illustrator 19.2.1, SVG Export Plug-In . SVG Version: 6.00 Build 0)  -->
<svg version="1.1" id="Layer_1" xmlns="http://www.w3.org/2000/svg" xmlns:xlink="http://www.w3.org/1999/xlink" x="0px" y="0px"
	 viewBox="0 0 700 40" style="enable-background:new 0 0 700 40;" xml:space="preserve">
<style type="text/css">
	.st0{fill:#FFFFFF;}
	.st1{fill:#C1C2C2;}
	.st2{font-family:'TimesNewRomanPSMT';}
	.st3{font-size:38.3298px;}
</style>
<g>
	<polygon class="st0" points="34.8,11.1 34.8,36.7 29.9,36.7 29.9,11.8 29,11.8 23.6,31.1 13.2,31.1 7.8,11.8 6.9,11.8 6.9,36.7 
		2,36.7 2,11.1 12.4,11.1 18,30.4 18.8,30.4 24.4,11.1 	"/>
	<g>
		<path class="st0" d="M42.7,23.9c0,6.7,5.2,12,11.6,12S66,30.6,66,23.9c0-6.7-5.3-12-11.7-12S42.7,17.2,42.7,23.9 M37.8,23.9
			c0-5.1,2.3-9.6,6-12.8h21c3.8,3.1,6.1,7.7,6.1,12.8c0,5-2.4,9.8-6,12.8h-21C40.3,33.8,37.8,28.9,37.8,23.9"/>
		<path class="st0" d="M79.4,21.8h6.2c1.5,0,3.4-1.2,3.4-3.3c0-2.1-1.6-3.4-3.4-3.4h-6.2V21.8z M86.4,11.1c3.7,0,7.5,2.7,7.5,7.3
			c0,4.7-4.1,7.5-7.5,7.5h-0.9l8.8,9.7v1h-5.1l-9.5-10.7h-0.3v10.7h-4.9V11.1H86.4z"/>
	</g>
	<path class="st0" d="M112.8,27.3l-4.4-15.4h-0.9l-4.4,15.4H112.8z M120.2,35.7v1h-4.7l-1.5-5.3H102l-1.5,5.3h-4.7v-1l7.1-24.6H113
		L120.2,35.7z"/>
	<polygon class="st0" points="143.4,11.1 143.4,12.1 136.2,36.7 126.1,36.7 118.9,12.1 118.9,11.1 123.7,11.1 130.7,35.9 
		131.6,35.9 138.6,11.1 	"/>
	<g>
		<path class="st0" d="M163,30.8c0-2.6-1.9-4.2-4.3-4.7l-5.4-1.1c-3.9-0.7-8.1-3.7-8.1-8.1c0-2.1,0.9-4.3,2.6-5.8h16.1
			c2,2,2.9,5.4,2.9,7.5h-4.9c0-3.4-2-6.8-5.9-6.8c-4.1,0-5.9,2.4-5.9,4.9c0,2.7,2.3,3.8,4.5,4.3l5.2,1.1c3.6,0.7,8.1,2.9,8.1,8.8
			c0,2.5-1.2,4.6-2.6,5.8h-18.5c-1.6-1.7-2.8-4.3-2.8-7.5h4.9c0,3.7,2.7,6.8,7,6.8C160.4,35.9,163,33.6,163,30.8"/>
	</g>
	<polygon class="st0" points="176.5,11.1 176.5,22.6 176.8,22.6 187.8,11.1 193,11.1 193,12.1 182.9,22.7 193.7,35.7 193.7,36.7 
		188.4,36.7 179.7,26 176.5,29.4 176.5,36.7 171.6,36.7 171.6,11.1 	"/>
	<path class="st0" d="M204.7,9.1V8.1l2.2-4.7h4.1v0.9l-3.4,4.7H204.7z M212,27.3l-4.4-15.4h-0.9l-4.4,15.4H212z M219.4,35.7v1h-4.7
		l-1.5-5.3h-11.9l-1.5,5.3h-4.7v-1l7.1-24.6h10.1L219.4,35.7z"/>
	<g>
		<path class="st0" d="M264.1,23.9c0,5-2.4,9.8-6,12.8h-21c-3.6-2.9-6.1-7.7-6.1-12.8c0-5.1,2.3-9.6,6-12.8h21
			c1.7,1.4,3.7,3.8,4.8,6.5v1H258c-1.6-3.1-4.8-6.8-10.5-6.8c-6.4,0-11.6,5.4-11.6,12c0,6.7,5.2,12,11.6,12c5.8,0,10.6-4.3,11.5-10
			h-11.5v-4.1H264C264.1,22.5,264.1,23.2,264.1,23.9"/>
	</g>
	<path class="st0" d="M281.4,27.3L277,11.8h-0.9l-4.4,15.4H281.4z M288.8,35.7v1h-4.7l-1.5-5.3h-11.9l-1.5,5.3h-4.7v-1l7.1-24.6
		h10.1L288.8,35.7z"/>
	<polygon class="st0" points="291.2,36.7 291.2,11.1 296.1,11.1 296.1,32.6 308,32.6 308,36.7 	"/>
	<polygon class="st0" points="327.7,36.7 310.1,36.7 310.1,11.1 327.7,11.1 327.7,15.2 315,15.2 315,21.8 326,21.8 326,25.9 
		315,25.9 315,32.6 327.7,32.6 	"/>
	<g>
		<path class="st0" d="M336.4,21.8h6.2c1.5,0,3.4-1.2,3.4-3.3c0-2.1-1.6-3.4-3.4-3.4h-6.2V21.8z M343.4,11.1c3.7,0,7.5,2.7,7.5,7.3
			c0,4.7-4.1,7.5-7.5,7.5h-0.9l8.8,9.7v1h-5.1l-9.5-10.7h-0.3v10.7h-4.9V11.1H343.4z"/>
	</g>
	<rect x="354.4" y="11.1" class="st0" width="4.9" height="25.6"/>
	<polygon class="st0" points="381.6,36.7 364,36.7 364,11.1 381.6,11.1 381.6,15.2 368.9,15.2 368.9,21.8 379.9,21.8 379.9,25.9 
		368.9,25.9 368.9,32.6 381.6,32.6 	"/>
	<g>
		<path class="st1" d="M421.6,10.7v8.8h-0.7c-0.2-1.7-0.6-3-1.2-4c-0.6-1-1.4-1.8-2.5-2.4c-1.1-0.6-2.2-0.9-3.3-0.9
			c-1.3,0-2.4,0.4-3.2,1.2c-0.8,0.8-1.3,1.7-1.3,2.7c0,0.8,0.3,1.5,0.8,2.1c0.8,0.9,2.6,2.2,5.5,3.7c2.4,1.3,4,2.2,4.9,2.9
			s1.5,1.5,2,2.4c0.5,0.9,0.7,1.9,0.7,2.9c0,1.9-0.7,3.6-2.2,5c-1.5,1.4-3.4,2.1-5.8,2.1c-0.7,0-1.4-0.1-2.1-0.2
			c-0.4-0.1-1.2-0.3-2.4-0.7c-1.2-0.4-2-0.6-2.3-0.6c-0.3,0-0.6,0.1-0.7,0.3s-0.3,0.6-0.4,1.2h-0.7v-8.7h0.7
			c0.3,1.8,0.8,3.2,1.3,4.1s1.4,1.7,2.5,2.3c1.1,0.6,2.4,0.9,3.7,0.9c1.6,0,2.8-0.4,3.7-1.2c0.9-0.8,1.4-1.8,1.4-2.9
			c0-0.6-0.2-1.3-0.5-1.9c-0.3-0.6-0.9-1.2-1.6-1.8c-0.5-0.4-1.8-1.2-4-2.4c-2.2-1.2-3.7-2.2-4.6-2.9s-1.6-1.5-2.1-2.4
			c-0.5-0.9-0.7-1.8-0.7-2.9c0-1.8,0.7-3.4,2.1-4.7c1.4-1.3,3.2-2,5.3-2c1.3,0,2.8,0.3,4.3,1c0.7,0.3,1.2,0.5,1.5,0.5
			c0.3,0,0.6-0.1,0.8-0.3c0.2-0.2,0.4-0.6,0.5-1.2H421.6z"/>
		<path class="st1" d="M440.3,23.7c1.8,0.4,3.1,1,3.9,1.8c1.2,1.1,1.8,2.6,1.8,4.2c0,1.3-0.4,2.5-1.2,3.6c-0.8,1.2-1.9,2-3.3,2.5
			c-1.4,0.5-3.5,0.8-6.4,0.8h-12V36h1c1.1,0,1.8-0.3,2.3-1c0.3-0.4,0.4-1.4,0.4-2.8V15.8c0-1.6-0.2-2.6-0.5-3
			c-0.5-0.5-1.2-0.8-2.2-0.8h-1v-0.7h11c2,0,3.7,0.1,4.9,0.4c1.9,0.4,3.3,1.2,4.3,2.4c1,1.1,1.5,2.5,1.5,3.9c0,1.3-0.4,2.4-1.2,3.4
			C443,22.5,441.8,23.2,440.3,23.7z M430.5,22.7c0.5,0.1,1,0.2,1.6,0.2c0.6,0,1.2,0.1,2,0.1c1.8,0,3.2-0.2,4.1-0.6
			c0.9-0.4,1.6-1,2.1-1.8c0.5-0.8,0.7-1.7,0.7-2.7c0-1.5-0.6-2.8-1.8-3.8c-1.2-1-3-1.6-5.3-1.6c-1.2,0-2.4,0.1-3.4,0.4V22.7z
			 M430.5,34.8c1.4,0.3,2.9,0.5,4.3,0.5c2.3,0,4-0.5,5.2-1.5c1.2-1,1.8-2.3,1.8-3.8c0-1-0.3-1.9-0.8-2.8c-0.5-0.9-1.4-1.6-2.6-2.2
			c-1.2-0.5-2.7-0.8-4.5-0.8c-0.8,0-1.4,0-2,0c-0.5,0-1,0.1-1.3,0.1V34.8z"/>
		<path class="st1" d="M456.9,36v0.7H446V36h0.9c1,0,1.8-0.3,2.3-0.9c0.3-0.4,0.4-1.4,0.4-2.9V15.8c0-1.3-0.1-2.1-0.2-2.5
			c-0.1-0.3-0.4-0.6-0.8-0.8c-0.5-0.3-1.1-0.4-1.7-0.4H446v-0.7h10.9V12H456c-1,0-1.8,0.3-2.3,0.9c-0.3,0.4-0.5,1.4-0.5,2.9v16.4
			c0,1.3,0.1,2.1,0.2,2.5c0.1,0.3,0.4,0.6,0.8,0.8c0.5,0.3,1.1,0.4,1.7,0.4H456.9z M455.7,3l-5.5,6.5h-0.6l2-6.5H455.7z"/>
		<path class="st1" d="M482.5,36.7h-6.8l-8.6-11.9c-0.6,0-1.2,0-1.6,0c-0.2,0-0.3,0-0.5,0c-0.2,0-0.4,0-0.6,0v7.4
			c0,1.6,0.2,2.6,0.5,3c0.5,0.5,1.2,0.8,2.1,0.8h1v0.7h-10.9V36h1c1.1,0,1.8-0.3,2.3-1c0.3-0.4,0.4-1.3,0.4-2.8V15.8
			c0-1.6-0.2-2.6-0.5-3c-0.5-0.5-1.2-0.8-2.2-0.8h-1v-0.7h9.2c2.7,0,4.7,0.2,6,0.6s2.4,1.1,3.3,2.2c0.9,1.1,1.3,2.3,1.3,3.8
			c0,1.6-0.5,2.9-1.5,4.1c-1,1.1-2.6,2-4.7,2.4l5.2,7.3c1.2,1.7,2.2,2.8,3.1,3.3c0.9,0.5,2,0.9,3.4,1V36.7z M464.5,23.6
			c0.2,0,0.4,0,0.6,0s0.3,0,0.4,0c2.4,0,4.2-0.5,5.5-1.6c1.2-1,1.8-2.4,1.8-4c0-1.6-0.5-2.9-1.5-3.9c-1-1-2.3-1.5-3.9-1.5
			c-0.7,0-1.7,0.1-2.9,0.4V23.6z"/>
		<path class="st1" d="M493.1,22.6l9.4,9.3c1.5,1.5,2.8,2.6,3.9,3.1c1.1,0.6,2.2,0.9,3.3,0.9v0.7h-12.1V36c0.7,0,1.2-0.1,1.6-0.4
			c0.3-0.2,0.5-0.5,0.5-0.8c0-0.3-0.1-0.6-0.2-0.8c-0.1-0.2-0.5-0.7-1.2-1.3l-8.8-8.7v8.2c0,1.3,0.1,2.1,0.2,2.5
			c0.1,0.3,0.4,0.6,0.8,0.8c0.5,0.3,1.1,0.4,1.7,0.4h0.9v0.7h-10.8V36h0.9c1,0,1.8-0.3,2.3-0.9c0.3-0.4,0.4-1.4,0.4-2.9V15.8
			c0-1.3-0.1-2.1-0.2-2.6c-0.1-0.3-0.4-0.6-0.8-0.8c-0.5-0.3-1.1-0.4-1.7-0.4h-0.9v-0.7h10.8V12h-0.9c-0.6,0-1.2,0.1-1.7,0.4
			c-0.4,0.2-0.7,0.5-0.8,0.9c-0.1,0.4-0.2,1.2-0.2,2.5v7.8c0.2-0.2,1.1-1,2.6-2.4c3.7-3.4,5.9-5.7,6.7-6.8c0.3-0.5,0.5-0.9,0.5-1.3
			c0-0.3-0.1-0.5-0.4-0.8s-0.7-0.3-1.3-0.3H497v-0.7h9.3V12c-0.5,0-1,0.1-1.5,0.2s-1,0.4-1.6,0.8c-0.6,0.4-1.4,1-2.4,1.9
			c-0.3,0.2-1.5,1.5-3.8,3.8L493.1,22.6z"/>
		<path class="st1" d="M526.5,28.2h-9.8l-1.7,4c-0.4,1-0.6,1.7-0.6,2.2c0,0.4,0.2,0.7,0.6,1c0.4,0.3,1.2,0.5,2.4,0.6v0.7h-8V36
			c1.1-0.2,1.7-0.4,2.1-0.7c0.6-0.6,1.3-1.8,2.1-3.6l8.9-20.9h0.7l8.8,21.1c0.7,1.7,1.4,2.8,1.9,3.3c0.6,0.5,1.4,0.8,2.4,0.9v0.7
			h-10V36c1,0,1.7-0.2,2-0.5c0.4-0.3,0.5-0.6,0.5-1c0-0.5-0.2-1.4-0.7-2.6L526.5,28.2z M526,26.8l-4.3-10.3l-4.4,10.3H526z"/>
		<path class="st1" d="M557.3,10.7c3.3,0,6.1,1.3,8.6,3.8c2.4,2.5,3.6,5.6,3.6,9.4c0,3.9-1.2,7.1-3.6,9.6c-2.4,2.5-5.4,3.8-8.8,3.8
			c-3.5,0-6.4-1.2-8.8-3.7c-2.4-2.5-3.6-5.7-3.6-9.6c0-4,1.4-7.3,4.1-9.9C551.1,11.8,553.9,10.7,557.3,10.7z M556.9,12.1
			c-2.3,0-4.1,0.8-5.5,2.5c-1.7,2.1-2.6,5.2-2.6,9.2c0,4.1,0.9,7.3,2.7,9.6c1.4,1.7,3.2,2.5,5.4,2.5c2.4,0,4.4-0.9,5.9-2.8
			s2.3-4.8,2.3-8.8c0-4.3-0.9-7.6-2.6-9.7C561.2,12.9,559.3,12.1,556.9,12.1z"/>
		<path class="st1" d="M567.6,11.3h6.9l15.5,19V15.7c0-1.6-0.2-2.5-0.5-2.9c-0.5-0.5-1.2-0.8-2.2-0.8h-0.9v-0.7h8.8V12h-0.9
			c-1.1,0-1.8,0.3-2.3,1c-0.3,0.4-0.4,1.3-0.4,2.7v21.4H591l-16.7-20.4v15.6c0,1.6,0.2,2.5,0.5,2.9c0.5,0.5,1.2,0.8,2.2,0.8h0.9v0.7
			H569V36h0.9c1.1,0,1.9-0.3,2.3-1c0.3-0.4,0.4-1.3,0.4-2.7V14.6c-0.7-0.9-1.3-1.4-1.7-1.7c-0.4-0.3-0.9-0.5-1.7-0.8
			c-0.4-0.1-0.9-0.2-1.6-0.2V11.3z"/>
	</g>
	<text transform="matrix(1 0 0 1 594.4229 33.8539)" class="st1 st2 st3">–</text>
	<g>
		<path class="st1" d="M634.2,29.6l0.6,0.1l-2.2,6.9H613V36h1c1.1,0,1.8-0.3,2.3-1c0.3-0.4,0.4-1.3,0.4-2.8V15.8
			c0-1.6-0.2-2.6-0.5-3c-0.5-0.5-1.2-0.8-2.2-0.8h-1v-0.7h11.5V12c-1.3,0-2.3,0.1-2.8,0.4c-0.5,0.3-0.9,0.6-1.1,1
			c-0.2,0.4-0.3,1.4-0.3,2.9v15.9c0,1,0.1,1.7,0.3,2.1c0.2,0.3,0.4,0.5,0.7,0.6c0.3,0.1,1.3,0.2,2.9,0.2h1.9c1.9,0,3.3-0.1,4.1-0.4
			c0.8-0.3,1.5-0.8,2.2-1.5C632.9,32.4,633.5,31.2,634.2,29.6z"/>
		<path class="st1" d="M645.2,36v0.7h-10.9V36h0.9c1,0,1.8-0.3,2.3-0.9c0.3-0.4,0.4-1.4,0.4-2.9V15.8c0-1.3-0.1-2.1-0.2-2.5
			c-0.1-0.3-0.4-0.6-0.8-0.8c-0.5-0.3-1.1-0.4-1.7-0.4h-0.9v-0.7h10.9V12h-0.9c-1,0-1.8,0.3-2.3,0.9c-0.3,0.4-0.5,1.4-0.5,2.9v16.4
			c0,1.3,0.1,2.1,0.2,2.5c0.1,0.3,0.4,0.6,0.8,0.8c0.5,0.3,1.1,0.4,1.7,0.4H645.2z"/>
		<path class="st1" d="M645.1,11.3h6.9l15.5,19V15.7c0-1.6-0.2-2.5-0.5-2.9c-0.5-0.5-1.2-0.8-2.2-0.8h-0.9v-0.7h8.8V12h-0.9
			c-1.1,0-1.8,0.3-2.3,1c-0.3,0.4-0.4,1.3-0.4,2.7v21.4h-0.7l-16.7-20.4v15.6c0,1.6,0.2,2.5,0.5,2.9c0.5,0.5,1.2,0.8,2.2,0.8h0.9
			v0.7h-8.8V36h0.9c1.1,0,1.9-0.3,2.3-1c0.3-0.4,0.4-1.3,0.4-2.7V14.6c-0.7-0.9-1.3-1.4-1.7-1.7c-0.4-0.3-0.9-0.5-1.7-0.8
			c-0.4-0.1-0.9-0.2-1.6-0.2V11.3z"/>
		<path class="st1" d="M680.2,12.7v10h5.6c1.4,0,2.4-0.2,2.9-0.7c0.6-0.6,1-1.6,1.1-3h0.7v8.8h-0.7c-0.2-1.2-0.3-2-0.5-2.4
			c-0.2-0.4-0.6-0.8-1.1-1c-0.5-0.2-1.3-0.4-2.4-0.4h-5.6v8.4c0,1.1,0,1.8,0.1,2c0.1,0.2,0.3,0.4,0.5,0.6c0.2,0.1,0.7,0.2,1.4,0.2
			h4.3c1.4,0,2.5-0.1,3.1-0.3c0.6-0.2,1.3-0.6,1.9-1.2c0.8-0.8,1.6-1.9,2.4-3.5h0.7l-2.2,6.4H673V36h0.9c0.6,0,1.2-0.1,1.7-0.4
			c0.4-0.2,0.7-0.5,0.8-0.9c0.1-0.4,0.2-1.2,0.2-2.5V15.7c0-1.6-0.2-2.6-0.5-3c-0.4-0.5-1.2-0.7-2.2-0.7H673v-0.7h19.6l0.3,5.6h-0.7
			c-0.3-1.3-0.6-2.3-0.9-2.8c-0.3-0.5-0.8-0.9-1.4-1.1c-0.5-0.2-1.4-0.3-2.6-0.3H680.2z"/>
	</g>
</g>
</svg>
