<?xml version="1.0" encoding="utf-8"?>
<!-- Generator: Adobe Illustrator 16.0.0, SVG Export Plug-In . SVG Version: 6.00 Build 0)  -->
<!DOCTYPE svg PUBLIC "-//W3C//DTD SVG 1.1//EN" "http://www.w3.org/Graphics/SVG/1.1/DTD/svg11.dtd">
<svg version="1.1" id="Layer_1" xmlns="http://www.w3.org/2000/svg" xmlns:xlink="http://www.w3.org/1999/xlink" x="0px" y="0px"
	 width="80px" height="25px" viewBox="0 0 80 25" enable-background="new 0 0 80 25" xml:space="preserve">
<g>
	<circle fill="#FFFFFF" cx="12.654" cy="12.618" r="10.899"/>
	<g>
		<path fill="#888888" d="M12.58,0.166c3.465,0,6.387,1.189,8.766,3.568c2.392,2.394,3.59,5.315,3.59,8.766
			c0,3.466-1.175,6.351-3.524,8.656c-2.497,2.452-5.44,3.678-8.832,3.678c-3.333,0-6.226-1.212-8.678-3.635
			c-2.422-2.423-3.634-5.322-3.634-8.699s1.212-6.299,3.634-8.766C6.281,1.355,9.173,0.166,12.58,0.166z M12.624,2.39
			c-2.805,0-5.176,0.984-7.114,2.952C3.498,7.398,2.492,9.784,2.492,12.5c0,2.731,0.998,5.095,2.995,7.09
			c1.997,1.998,4.375,2.997,7.136,2.997c2.746,0,5.14-1.006,7.181-3.019c1.938-1.863,2.907-4.221,2.907-7.07
			c0-2.804-0.984-5.189-2.951-7.158C17.792,3.375,15.413,2.39,12.624,2.39z M15.928,9.438v5.044h-1.409v5.989h-3.833v-5.989H9.277
			V9.438c0-0.221,0.077-0.407,0.23-0.562c0.155-0.154,0.342-0.231,0.562-0.231h5.066c0.206,0,0.389,0.077,0.55,0.231
			C15.846,9.031,15.928,9.218,15.928,9.438z M10.884,6.267c0-1.16,0.572-1.74,1.718-1.74s1.718,0.58,1.718,1.74
			c0,1.145-0.573,1.718-1.718,1.718C11.457,7.985,10.884,7.412,10.884,6.267z"/>
	</g>
</g>
<g>
	<circle fill="#FFFFFF" cx="40.135" cy="12.463" r="11.138"/>
	<path fill="#888888" d="M49.108,3.742c-2.387-2.384-5.31-3.576-8.767-3.576c-3.417,0-6.309,1.191-8.675,3.576
		c-2.429,2.467-3.643,5.386-3.643,8.758c0,3.371,1.214,6.27,3.643,8.695c2.428,2.427,5.319,3.639,8.675,3.639
		c3.395,0,6.338-1.224,8.829-3.671c2.347-2.321,3.521-5.21,3.521-8.663C52.691,9.046,51.497,6.126,49.108,3.742z M47.564,19.562
		c-2.037,2.014-4.436,3.021-7.192,3.021c-2.758,0-5.136-0.997-7.132-2.991c-1.996-1.995-2.995-4.357-2.995-7.091
		c0-1.156,0.183-2.25,0.543-3.28l3.268,1.447h-0.235v1.466h1.157c0,0.208-0.021,0.414-0.021,0.62v0.351h-1.136v1.466h1.342
		c0.186,1.095,0.6,1.983,1.156,2.685c1.157,1.528,3.015,2.354,5.039,2.354c1.321,0,2.517-0.392,3.221-0.784l-0.496-2.292
		c-0.434,0.228-1.404,0.536-2.354,0.536c-1.033,0-2.002-0.309-2.663-1.052c-0.31-0.352-0.537-0.827-0.681-1.446h4.489l6.379,2.823
		C48.811,18.176,48.251,18.899,47.564,19.562z M39.543,13.103l-0.027-0.021l0.047,0.021H39.543z M43.384,12.132h0.185v-1.466h-3.497
		l-1.42-0.628c0.123-0.274,0.267-0.521,0.436-0.713c0.64-0.786,1.548-1.116,2.539-1.116c0.909,0,1.755,0.268,2.292,0.495
		l0.578-2.354c-0.743-0.33-1.838-0.619-3.097-0.619c-1.941,0-3.593,0.785-4.771,2.106c-0.261,0.302-0.487,0.641-0.693,0.999
		L31.88,7.041c0.394-0.589,0.855-1.155,1.391-1.695c1.935-1.973,4.301-2.96,7.102-2.96c2.798,0,5.176,0.987,7.131,2.96
		c1.976,1.953,2.963,4.337,2.963,7.155c0,0.928-0.104,1.803-0.312,2.628L43.384,12.132z"/>
</g>
<g>
	<circle fill="#FFFFFF" cx="67.184" cy="12.55" r="11.218"/>
	<g>
		<path fill="#888888" d="M67.376,0.166c3.45,0,6.372,1.196,8.767,3.59c2.392,2.379,3.59,5.293,3.59,8.744
			c0,3.451-1.176,6.343-3.524,8.678c-2.481,2.438-5.426,3.656-8.832,3.656c-3.334,0-6.226-1.211-8.678-3.635
			c-2.423-2.422-3.634-5.321-3.634-8.699c0-3.363,1.211-6.277,3.634-8.744C61.092,1.362,63.984,0.166,67.376,0.166z M67.421,2.39
			c-2.805,0-5.177,0.992-7.114,2.974c-2.012,2.042-3.019,4.42-3.019,7.136c0,2.746,0.999,5.109,2.995,7.092
			c1.997,1.998,4.376,2.996,7.136,2.996c2.746,0,5.14-1.006,7.181-3.018c1.938-1.88,2.907-4.235,2.907-7.07
			c0-2.818-0.984-5.197-2.951-7.136C72.604,3.381,70.225,2.39,67.421,2.39z M61.914,10.76c0.234-1.513,0.844-2.684,1.827-3.513
			c0.983-0.83,2.181-1.244,3.591-1.244c1.938,0,3.479,0.624,4.625,1.871c1.146,1.249,1.718,2.849,1.718,4.802
			c0,1.895-0.595,3.469-1.783,4.724c-1.191,1.255-2.731,1.883-4.627,1.883c-1.395,0-2.599-0.417-3.611-1.255
			c-1.014-0.836-1.622-2.026-1.828-3.568h3.106c0.073,1.499,0.976,2.247,2.71,2.247c0.865,0,1.562-0.374,2.091-1.123
			c0.53-0.749,0.794-1.747,0.794-2.995c0-1.307-0.243-2.301-0.728-2.985c-0.483-0.682-1.181-1.024-2.092-1.024
			c-1.646,0-2.57,0.727-2.775,2.18h0.903l-2.444,2.446l-2.445-2.446L61.914,10.76L61.914,10.76z"/>
	</g>
</g>
</svg>
