<?xml version="1.0" encoding="utf-8"?>
<!-- Generator: Adobe Illustrator 16.0.0, SVG Export Plug-In . SVG Version: 6.00 Build 0)  -->
<!DOCTYPE svg PUBLIC "-//W3C//DTD SVG 1.1//EN" "http://www.w3.org/Graphics/SVG/1.1/DTD/svg11.dtd">
<svg version="1.1" id="Layer_1" xmlns="http://www.w3.org/2000/svg" xmlns:xlink="http://www.w3.org/1999/xlink" x="0px" y="0px"
	 width="295.15px" height="70.489px" viewBox="0 0 295.15 70.489" enable-background="new 0 0 295.15 70.489" xml:space="preserve">
<g>
	<path fill-rule="evenodd" clip-rule="evenodd" fill="#555A54" d="M91.826,47.837c-2.687-4.899-7.271-6.85-12.591-6.85
		c-7.744,0-13.908,5.479-13.908,14.752c0,9.43,5.794,14.75,14.171,14.75c5.374,0,9.957-2.95,12.485-7.428l-5.9-3.003
		c-1.317,3.162-3.319,4.11-5.848,4.11c-4.373,0-6.375-3.636-6.375-8.43s1.686-8.43,6.375-8.43c1.264,0,3.793,0.686,5.268,3.846
		L91.826,47.837z"/>
	<path fill-rule="evenodd" clip-rule="evenodd" fill="#555A54" d="M106.887,47.31c4.688,0,6.691,3.636,6.691,8.113
		c0,5.11-2.002,8.746-6.691,8.746s-6.69-3.636-6.69-8.43S102.199,47.31,106.887,47.31z M106.887,40.987
		c-8.745,0-14.908,5.322-14.908,14.752s6.163,14.75,14.908,14.75s14.909-5.32,14.909-14.75S115.632,40.987,106.887,40.987z"/>
	<path fill-rule="evenodd" clip-rule="evenodd" fill="#555A54" d="M123.48,69.752h8.219V52.314c0-2.529,1.053-4.688,4.373-4.688
		c3.161,0,4.003,1.843,4.003,4.582v17.543h8.218V52.524c0-2.844,1.422-4.897,4.162-4.897c3.107,0,4.215,1.79,4.215,5.741v16.384
		h8.217V48.363c0-6.427-5.898-7.376-8.639-7.376c-3.268,0-6.322,1.002-9.008,3.741c-1.844-2.476-4.214-3.741-7.428-3.741
		c-2.529,0-6.005,0.738-8.113,3.215v-2.477h-8.219V69.752z"/>
	<path fill-rule="evenodd" clip-rule="evenodd" fill="#555A54" d="M167.516,69.752h8.219V52.314c0-2.529,1.053-4.688,4.371-4.688
		c3.162,0,4.006,1.843,4.006,4.582v17.543h8.217V52.524c0-2.844,1.424-4.897,4.162-4.897c3.107,0,4.215,1.79,4.215,5.741v16.384
		h8.219V48.363c0-6.427-5.9-7.376-8.641-7.376c-3.266,0-6.32,1.002-9.008,3.741c-1.844-2.476-4.215-3.741-7.428-3.741
		c-2.529,0-6.006,0.738-8.113,3.215v-2.477h-8.219V69.752z"/>
	<path fill-rule="evenodd" clip-rule="evenodd" fill="#555A54" d="M225.514,47.31c4.688,0,6.689,3.636,6.689,8.113
		c0,5.11-2.002,8.746-6.689,8.746c-4.689,0-6.691-3.636-6.691-8.43S220.824,47.31,225.514,47.31z M225.514,40.987
		c-8.746,0-14.91,5.322-14.91,14.752s6.164,14.75,14.91,14.75c8.744,0,14.908-5.32,14.908-14.75S234.258,40.987,225.514,40.987z"/>
	<path fill-rule="evenodd" clip-rule="evenodd" fill="#555A54" d="M242.633,69.752h8.217V52.314c0-2.529,1.055-4.688,4.373-4.688
		c3.16,0,4.004,1.843,4.004,4.582v17.543h8.219V49.049c0-4.215-1.844-8.062-8.482-8.062c-2.527,0-6.006,0.738-8.113,3.215v-2.477
		h-8.217V69.752z"/>
	<path fill-rule="evenodd" clip-rule="evenodd" fill="#555A54" d="M294.887,45.045c-3.793-2.528-8.061-4.058-12.379-4.058
		c-5.691,0-11.855,2.74-11.855,9.8c0,9.956,16.596,6.48,16.596,10.853c0,2.529-3.107,2.845-4.479,2.845
		c-3.74,0-6.32-1.527-8.85-3.951l-5.111,4.425c4.109,3.793,7.586,5.531,13.699,5.531c6.109,0,12.643-2.634,12.643-10.009
		c0-10.483-16.594-6.533-16.594-11.326c0-1.423,1.473-2.16,3.527-2.16c2.582,0,6.113,1.053,7.744,3.003L294.887,45.045z"/>
	<path fill-rule="evenodd" clip-rule="evenodd" fill="#555A54" d="M91.826,15.594c-2.687-4.899-7.271-6.849-12.591-6.849
		c-7.744,0-13.908,5.479-13.908,14.75c0,9.43,5.794,14.75,14.171,14.75c5.374,0,9.957-2.95,12.485-7.428l-5.9-3.003
		c-1.317,3.161-3.319,4.109-5.848,4.109c-4.373,0-6.375-3.635-6.375-8.429c0-4.793,1.686-8.429,6.375-8.429
		c1.264,0,3.793,0.685,5.268,3.846L91.826,15.594z"/>
	<path fill-rule="evenodd" clip-rule="evenodd" fill="#555A54" d="M93.831,37.509h8.218V21.283c0-3.108,1.949-3.951,6.849-4.531
		l0.896-0.105l-0.053-7.27c-2.897,0.211-5.9,1.265-7.691,2.951V9.483h-8.218V37.509z"/>
	<path fill-rule="evenodd" clip-rule="evenodd" fill="#555A54" d="M137.703,25.182c-0.053-8.64-3.53-16.437-13.75-16.437
		c-8.534,0-13.75,5.689-13.75,15.594c0,7.902,5.058,13.907,13.75,13.907c6.269,0,10.747-2.476,13.592-7.744l-6.164-3.214
		c-2.371,3.372-3.793,4.952-6.848,4.952c-2.634,0-6.059-1.686-6.111-7.059H137.703z M118.316,20.125
		c0.369-3.688,3.213-5.374,5.584-5.374s5.321,1.264,5.584,5.374H118.316z"/>
	<path fill-rule="evenodd" clip-rule="evenodd" fill="#555A54" d="M156.555,25.814c0,4.267-2.422,6.427-5.637,6.427
		c-2.001,0-3.846-0.948-3.846-3.161c0-2.266,1.897-3.056,3.951-3.635l5.531-1.58V25.814z M164.457,16.858
		c-0.053-6.322-4.846-8.113-12.486-8.113c-3.792,0-11.273,0.738-11.536,8.798h7.902c0.421-2.792,1.685-3.74,4.319-3.74
		c2.213,0,3.898,0.896,3.898,3.002v2.318l-3.004,0.421c-8.955,1.265-14.381,3.635-14.381,10.378c0,5.374,4.004,8.323,9.377,8.323
		c2.951,0,7.058-1.422,8.429-3.635h0.105c0.051,0.948,0.211,1.949,0.525,2.897h7.588c-0.686-1.738-0.738-3.898-0.738-5.847V16.858z"
		/>
	<path fill-rule="evenodd" clip-rule="evenodd" fill="#555A54" d="M183.783,10.01h-4.9V1.896h-8.219v8.113h-4.004v5.057h4.004
		v14.751c0,4.056,1.002,8.428,8.008,8.428c1.791,0,4.215-0.21,5.27-0.315v-6.48c-0.422,0.052-1.582,0.158-2.477,0.158
		c-1.477,0-2.582-0.58-2.582-2.792v-13.75h4.9V10.01z"/>
	<path fill-rule="evenodd" clip-rule="evenodd" fill="#555A54" d="M186.879,9.483v28.026h8.219V9.483H186.879z M195.098,6.322V0
		h-8.219v6.322H195.098z"/>
	<polygon fill-rule="evenodd" clip-rule="evenodd" fill="#555A54" points="206.156,37.509 214.426,37.509 224.016,9.483 
		215.27,9.483 210.424,29.291 210.318,29.291 205.471,9.483 196.674,9.483 	"/>
	<path fill-rule="evenodd" clip-rule="evenodd" fill="#555A54" d="M250.555,25.182c-0.053-8.64-3.529-16.437-13.75-16.437
		c-8.535,0-13.748,5.689-13.748,15.594c0,7.902,5.055,13.907,13.748,13.907c6.27,0,10.748-2.476,13.592-7.744l-6.164-3.214
		c-2.369,3.372-3.793,4.952-6.848,4.952c-2.633,0-6.059-1.686-6.111-7.059H250.555z M231.168,20.125
		c0.369-3.688,3.213-5.374,5.584-5.374s5.322,1.264,5.586,5.374H231.168z"/>
	<g>
		<path fill-rule="evenodd" clip-rule="evenodd" fill="#555A54" d="M30.779,8.274c-8.456,0-15.897,3.129-21.647,8.963
			C3.213,23.241,0,31.021,0,39.139C0,47.34,3.128,54.95,9.047,60.87c5.919,5.919,13.614,9.132,21.731,9.132
			s15.982-3.213,22.07-9.217c5.75-5.666,8.794-13.191,8.794-21.646c0-8.372-3.044-15.982-8.878-21.817
			C46.845,11.403,39.235,8.274,30.779,8.274z M30.863,13.855c6.934,0,13.106,2.621,17.927,7.441
			c4.735,4.736,7.272,10.993,7.272,17.843c0,6.934-2.453,13.021-7.188,17.673c-4.989,4.904-11.416,7.525-18.011,7.525
			c-6.68,0-12.938-2.621-17.757-7.44c-4.82-4.82-7.526-11.163-7.526-17.758c0-6.681,2.706-13.022,7.526-17.927
			C17.841,16.392,23.93,13.855,30.863,13.855z"/>
		<path fill-rule="evenodd" clip-rule="evenodd" fill="#555A54" d="M30.465,34.01c-1.743-3.179-4.717-4.444-8.17-4.444
			c-5.026,0-9.026,3.556-9.026,9.573c0,6.119,3.761,9.572,9.197,9.572c3.487,0,6.461-1.915,8.103-4.82l-3.83-1.949
			c-0.855,2.052-2.154,2.666-3.795,2.666c-2.837,0-4.136-2.358-4.136-5.469c0-3.111,1.094-5.471,4.136-5.471
			c0.82,0,2.461,0.444,3.419,2.495L30.465,34.01z"/>
		<path fill-rule="evenodd" clip-rule="evenodd" fill="#555A54" d="M48.271,34.01c-1.744-3.179-4.718-4.444-8.171-4.444
			c-5.025,0-9.026,3.556-9.026,9.573c0,6.119,3.761,9.572,9.197,9.572c3.487,0,6.461-1.915,8.103-4.82l-3.829-1.949
			c-0.854,2.052-2.154,2.666-3.795,2.666c-2.837,0-4.137-2.358-4.137-5.469c0-3.111,1.094-5.471,4.137-5.471
			c0.82,0,2.461,0.444,3.419,2.495L48.271,34.01z"/>
	</g>
</g>
</svg>
