<svg enable-background="new 0 0 400 500" viewBox="0 0 400 500" xmlns="http://www.w3.org/2000/svg"><path d="m167.2 47.4c-5.5.4-11.4 1.3-19.5 3-45.8 11-64 56.8-70.8 99.2h1.3c10.6-15.7 25.9-26.3 46.6-26.3 35.2 0 59.3 32.2 59.3 84.8 0 52.1-23.7 94.1-67.8 94.1-47.9 0-72-48.7-72-111.9 0-53.4 14-94.9 35.6-124.2 16.5-23.3 42.8-38.6 66.5-43.6 8.9-1.7 16.1-2.1 20.8-2.5zm-15.7 163.2c0-41.5-14.4-62.3-36.9-62.3-13.6 0-27.5 9.3-35.6 29.7-1.3 3-2.5 8.5-2.5 16.5.4 56.4 17.8 82.2 39.8 82.2 18.6 0 35.2-18.2 35.2-66.1z"/><path d="m336.2 52.1h-74.2l-11.4 73.3c3.4-.8 6.4-.8 10.2-.8 14.8 0 37.7 6.4 52.5 20.8 14.4 14.4 22.9 34.7 22.9 62.7 0 54.7-34.3 94.1-83.5 94.1-16.5 0-35.6-4.7-46.6-11.9l7.2-26.3c8.5 5.1 23.3 11 38.6 11 28 0 52.1-21.6 52.1-63.6 0-43.6-26.7-61.9-62.3-61.9-10.2 0-16.5.4-21.6 1.3l17.4-127.6h98.7z"/><path d="m83.5 401.8c0 6.6.2 12.1.4 16.6h-10.7l-.6-8.4h-.2c-2.1 4-6.9 9.7-15.5 9.7-8.8 0-16.9-6-16.9-24.2v-32.6h12.2v30.2c0 9.2 2.6 15.1 9 15.1 4.9 0 8-4 9.3-7.5.4-1.3.7-2.7.7-4.3v-33.5h12.2v38.9z"/><path d="m96.7 379.5c0-6.4-.1-11.7-.4-16.5h10.7l.6 8.3h.3c2.1-4.3 7.3-9.6 15.4-9.6 8.4 0 17.2 6.3 17.2 23.8v32.9h-12.2v-31.3c0-8-2.6-14-9.2-14-4.9 0-8.2 4-9.5 8.2-.4 1.3-.5 3-.5 4.6v32.6h-12.4z"/><path d="m166.5 347.4c0 4.2-2.7 7.5-7 7.5-4.1 0-6.8-3.3-6.8-7.5 0-4.3 2.8-7.6 6.9-7.6 4.2 0 6.8 3.3 6.9 7.6zm-13 71v-55.5h12.3v55.5z"/><path d="m191.1 387.3h.2c1.2-2.2 2.6-4.6 3.9-6.5l11.7-17.9h14.7l-17.9 22.7 20.5 32.8h-15l-13.9-24.5-4.2 5.6v18.9h-12.2v-80.9h12.2z"/><path d="m257.8 418.4-.8-6.2h-.3c-3 4.3-8 7.4-14.3 7.4-9.7 0-15.2-8.1-15.2-16.5 0-14 10.8-21.1 28.7-21v-.9c0-3.6-1.3-9.7-9.8-9.7-4.8 0-9.7 1.7-13 4.1l-2.4-9.1c3.6-2.5 9.8-4.9 17.5-4.9 15.5 0 20 11.3 20 23.4v20c0 5 .2 9.9.7 13.3h-11.1zm-1.6-27.1c-8.6-.2-16.9 1.9-16.9 10.4 0 5.5 3.1 8 7 8 4.9 0 8.4-3.6 9.5-7.6.3-1 .4-2.2.4-3.1zm7.5-52.4-12.2 16.9h-8.4l8.6-16.9z"/><path d="m294.4 347.1v15.8h11.6v10.5h-11.6v24.5c0 6.7 1.6 10.3 6.3 10.3 2.1 0 3.7-.3 4.8-.7l.2 10.7c-1.8.8-5 1.4-8.8 1.4-4.5 0-8.2-1.7-10.5-4.6-2.6-3.2-3.8-8.2-3.8-15.5v-26.1h-7v-10.5h7v-12.5z"/><path d="m358.6 401.8c0 6.6.2 12.1.4 16.6h-10.7l-.6-8.4h-.2c-2.1 4-6.9 9.7-15.5 9.7-8.8 0-16.9-6-16.9-24.2v-32.6h12.2v30.2c0 9.2 2.6 15.1 9 15.1 4.9 0 8-4 9.3-7.5.4-1.3.7-2.7.7-4.3v-33.5h12.2v38.9zm-32.4-55.4c0-6.3 4-11.2 10.9-11.2 6.7 0 10.5 4.8 10.5 11.1 0 6.2-4.3 10.8-10.6 10.8-6.5 0-10.8-4.6-10.8-10.7zm15.6-.2c0-3.1-1.8-5.8-5-5.8-2.9 0-4.6 2.8-4.6 6 0 2.7 1.8 5.7 4.7 5.7 3 0 4.9-2.7 4.9-5.9z"/><path d="m42.8 435.5c1-.2 2.4-.3 4.3-.3 2 0 3.5.4 4.5 1.2.9.7 1.5 1.9 1.5 3.4 0 1.4-.5 2.6-1.3 3.5-1.1 1.1-2.9 1.6-4.8 1.6-.5 0-1 0-1.4-.1v5.7h-2.8zm2.7 7.1c.3.1.8.1 1.4.1 2.1 0 3.3-1 3.3-2.8 0-1.7-1.2-2.6-3.1-2.6-.8 0-1.3.1-1.6.1z"/><path d="m61 450.5-.2-1.2h-.1c-.7.9-1.8 1.5-3.3 1.5-2.2 0-3.5-1.6-3.5-3.3 0-2.8 2.5-4.2 6.5-4.2v-.2c0-.7-.3-1.9-2.2-1.9-1.1 0-2.2.3-3 .8l-.5-1.8c.8-.5 2.2-1 4-1 3.5 0 4.5 2.2 4.5 4.6v4c0 1 0 2 .2 2.6h-2.4zm-.3-5.4c-2 0-3.8.4-3.8 2.1 0 1.1.7 1.6 1.6 1.6 1.1 0 1.9-.7 2.2-1.5.1-.2.1-.4.1-.6v-1.6z"/><path d="m66.3 442.8c0-1.3 0-2.3-.1-3.3h2.4l.1 1.6h.1c.5-.9 1.5-1.9 3.4-1.9 1.4 0 2.6.8 3.1 2 .4-.6.8-1.1 1.4-1.4.6-.4 1.3-.7 2.2-.7 1.8 0 3.7 1.2 3.7 4.8v6.5h-2.7v-6.1c0-1.8-.6-2.9-2-2.9-1 0-1.7.7-1.9 1.5-.1.3-.1.6-.1.9v6.6h-2.7v-6.4c0-1.5-.6-2.6-1.9-2.6-1 0-1.7.8-2 1.6-.1.3-.2.6-.2.9v6.5h-2.7v-7.6z"/><path d="m91.7 450.5-.2-1.2h-.1c-.7.9-1.8 1.5-3.3 1.5-2.2 0-3.5-1.6-3.5-3.3 0-2.8 2.5-4.2 6.5-4.2v-.2c0-.7-.3-1.9-2.2-1.9-1.1 0-2.2.3-3 .8l-.5-1.8c.8-.5 2.2-1 4-1 3.5 0 4.5 2.2 4.5 4.6v4c0 1 0 2 .2 2.6h-2.4zm-.4-5.4c-2 0-3.8.4-3.8 2.1 0 1.1.7 1.6 1.6 1.6 1.1 0 1.9-.7 2.2-1.5.1-.2.1-.4.1-.6v-1.6zm1.8-10.4-2.8 3.3h-1.9l2-3.3z"/><path d="m100.1 436.3v3.1h2.6v2.1h-2.6v4.9c0 1.3.4 2 1.4 2 .5 0 .8-.1 1.1-.1v2.1c-.4.2-1.1.3-2 .3-1 0-1.9-.3-2.4-.9-.6-.6-.9-1.6-.9-3.1v-5.2h-1.6v-2.1h1.6v-2.4z"/><path d="m104.8 442.8c0-1.3 0-2.3-.1-3.3h2.4l.1 1.7h.1c.5-.9 1.7-1.9 3.5-1.9 1.9 0 3.9 1.2 3.9 4.7v6.5h-2.7v-6.2c0-1.6-.6-2.8-2.1-2.8-1.1 0-1.9.8-2.2 1.6-.1.3-.1.6-.1.9v6.5h-2.8z"/><path d="m117.7 450.5v-11h2.8v11zm4.8-15.8-2.8 3.3h-1.9l2-3.3z"/><path d="m126.3 444.3c.3-.4.6-.9.9-1.3l2.7-3.6h3.3l-4.1 4.5 4.7 6.5h-3.4l-3.2-4.9-1 1.1v3.8h-2.8v-16.1h2.8v10z"/><path d="m139.7 442.8c0-1.3 0-2.3-.1-3.3h2.4l.1 1.7h.1c.5-.9 1.7-1.9 3.5-1.9 1.9 0 3.9 1.2 3.9 4.7v6.5h-2.8v-6.2c0-1.6-.6-2.8-2.1-2.8-1.1 0-1.9.8-2.2 1.6-.1.3-.1.6-.1.9v6.5h-2.8v-7.7z"/><path d="m158.9 450.5-.2-1.2h-.1c-.7.9-1.8 1.5-3.3 1.5-2.2 0-3.5-1.6-3.5-3.3 0-2.8 2.5-4.2 6.5-4.2v-.2c0-.7-.3-1.9-2.2-1.9-1.1 0-2.2.3-3 .8l-.5-1.8c.8-.5 2.2-1 4-1 3.5 0 4.5 2.2 4.5 4.6v4c0 1 0 2 .2 2.6h-2.4zm-.4-5.4c-2 0-3.8.4-3.8 2.1 0 1.1.7 1.6 1.6 1.6 1.1 0 1.9-.7 2.2-1.5.1-.2.1-.4.1-.6v-1.6zm1.7-10.4-2.8 3.3h-1.9l2-3.3z"/><path d="m164.2 443c0-1.5 0-2.6-.1-3.6h2.4l.1 2.1h.1c.5-1.6 1.8-2.4 3-2.4.3 0 .4 0 .7.1v2.6c-.2 0-.5-.1-.8-.1-1.3 0-2.2.9-2.5 2.1 0 .2-.1.5-.1.9v5.7h-2.8z"/><path d="m182.5 444.9c0 4.1-2.9 5.9-5.7 5.9-3.1 0-5.5-2.1-5.5-5.7s2.4-5.8 5.7-5.8c3.3-.1 5.5 2.2 5.5 5.6zm-8.3.1c0 2.1 1 3.7 2.7 3.7 1.6 0 2.7-1.6 2.7-3.8 0-1.7-.8-3.7-2.7-3.7-1.9.1-2.7 2-2.7 3.8z"/><path d="m195 434.4v13c0 1.1 0 2.4.1 3.1h-2.5l-.1-1.7c-.7 1.2-2 2-3.6 2-2.6 0-4.7-2.2-4.7-5.6 0-3.7 2.3-5.9 4.9-5.9 1.5 0 2.6.6 3.1 1.4v-6.2h2.8zm-2.8 9.7c0-.2 0-.5-.1-.7-.2-1.1-1.1-2-2.4-2-1.8 0-2.8 1.6-2.8 3.6s1 3.5 2.8 3.5c1.1 0 2.1-.8 2.4-2 .1-.2.1-.5.1-.8z"/><path d="m197.9 442.8c0-1.3 0-2.3-.1-3.3h2.4l.1 1.7h.1c.5-.9 1.7-1.9 3.5-1.9 1.9 0 3.9 1.2 3.9 4.7v6.5h-2.8v-6.2c0-1.6-.6-2.8-2.1-2.8-1.1 0-1.9.8-2.2 1.6-.1.3-.1.6-.1.9v6.5h-2.8v-7.7z"/><path d="m210.9 450.5v-11h2.8v11zm4.8-15.8-2.8 3.3h-1.9l2-3.3z"/><path d="m216.7 434.4h2.8v6.6c.3-.5.8-1 1.4-1.3.5-.3 1.2-.5 1.9-.5 1.9 0 3.8 1.2 3.8 4.8v6.5h-2.8v-6.2c0-1.6-.6-2.8-2.1-2.8-1.1 0-1.9.7-2.1 1.6-.1.2-.1.5-.1.8v6.6h-2.8z"/><path d="m240.1 444.9c0 4.1-2.9 5.9-5.7 5.9-3.1 0-5.5-2.1-5.5-5.7s2.4-5.8 5.7-5.8c3.3-.1 5.5 2.2 5.5 5.6zm-8.3.1c0 2.1 1 3.7 2.7 3.7 1.6 0 2.7-1.6 2.7-3.8 0-1.7-.8-3.7-2.7-3.7-1.9.1-2.7 2-2.7 3.8z"/><path d="m247.1 443.1c0-1.4 0-2.6-.1-3.7h2.4l.1 1.7c.8-1.2 2.1-1.9 3.8-1.9 2.5 0 4.6 2.2 4.6 5.6 0 4-2.5 5.9-5 5.9-1.4 0-2.5-.6-3.1-1.5v5.7h-2.8v-11.8zm2.7 2.8c0 .3 0 .5.1.8.3 1.1 1.3 1.9 2.4 1.9 1.8 0 2.8-1.5 2.8-3.6 0-1.9-1-3.5-2.7-3.5-1.2 0-2.2.8-2.5 2.1-.1.2-.1.5-.1.7z"/><path d="m260.3 450.5v-11h2.8v11zm4.8-15.8-2.8 3.3h-1.9l2-3.3z"/><path d="m266 447.9c.6.4 1.8.8 2.8.8 1.2 0 1.8-.5 1.8-1.2s-.5-1.1-1.8-1.6c-2.2-.7-3.1-1.9-3-3.2 0-1.9 1.6-3.5 4.2-3.5 1.2 0 2.3.3 2.9.7l-.5 2c-.5-.3-1.4-.6-2.3-.6-1 0-1.5.5-1.5 1.2s.5 1 1.9 1.5c2 .7 2.9 1.7 2.9 3.4 0 2-1.6 3.4-4.5 3.4-1.3 0-2.5-.3-3.4-.8z"/><path d="m277.5 445.8c.1 2 1.6 2.9 3.4 2.9 1.3 0 2.2-.2 3.1-.5l.4 1.9c-.9.4-2.3.7-3.8.7-3.6 0-5.7-2.2-5.7-5.6 0-3.1 1.9-5.9 5.4-5.9 3.6 0 4.8 2.9 4.8 5.4 0 .5 0 .9-.1 1.2h-7.5zm4.8-2c0-1-.4-2.7-2.3-2.7-1.7 0-2.4 1.6-2.6 2.7z"/><path d="m287.2 442.8c0-1.3 0-2.3-.1-3.3h2.4l.1 1.6h.1c.5-.9 1.5-1.9 3.4-1.9 1.4 0 2.6.8 3.1 2 .4-.6.8-1.1 1.4-1.4.6-.4 1.3-.7 2.2-.7 1.8 0 3.7 1.2 3.7 4.8v6.5h-2.7v-6.1c0-1.8-.6-2.9-2-2.9-1 0-1.7.7-1.9 1.5-.1.3-.1.6-.1.9v6.6h-2.8v-6.4c0-1.5-.6-2.6-1.9-2.6-1 0-1.7.8-2 1.6-.1.3-.2.6-.2.9v6.5h-2.7z"/><path d="m306.4 442.8c0-1.3 0-2.3-.1-3.3h2.4l.1 1.7h.1c.5-.9 1.7-1.9 3.5-1.9 1.9 0 3.9 1.2 3.9 4.7v6.5h-2.8v-6.2c0-1.6-.6-2.8-2.1-2.8-1.1 0-1.9.8-2.2 1.6-.1.3-.1.6-.1.9v6.5h-2.8v-7.7z"/><path d="m322.3 436.4c0 .8-.6 1.5-1.6 1.5-.9 0-1.5-.7-1.5-1.5 0-.9.6-1.5 1.6-1.5.9 0 1.5.6 1.5 1.5zm-3 14.1v-11h2.8v11z"/><path d="m333.2 450.2c-.6.3-1.7.6-3.1.6-3.4 0-5.7-2.2-5.7-5.6 0-3.3 2.3-5.9 6.1-5.9 1 0 2.1.2 2.7.5l-.5 2.1c-.5-.2-1.1-.4-2.1-.4-2.1 0-3.4 1.6-3.4 3.6 0 2.3 1.5 3.6 3.4 3.6 1 0 1.7-.2 2.2-.4z"/><path d="m338.8 436.3v3.1h2.6v2.1h-2.6v4.9c0 1.3.4 2 1.4 2 .5 0 .8-.1 1.1-.1v2.1c-.4.2-1.1.3-2 .3-1 0-1.9-.3-2.4-.9-.6-.6-.9-1.6-.9-3.1v-5.2h-1.6v-2.1h1.6v-2.4z"/><path d="m345.5 439.5 1.8 5.6c.3 1 .5 1.9.7 2.8h.1c.2-.9.5-1.8.7-2.8l1.7-5.6h2.9l-4.2 11h-2.7l-4.1-11z"/><path d="m355.2 450.5v-11h2.8v11zm4.8-15.8-2.8 3.3h-1.9l2-3.3z"/><path d="m146.4 467.6-2.8 1.4-.5-2.1 3.6-1.8h2.4v14.8h-2.7z"/><path d="m155.4 477.9h1.6c1.1-.1 2.2-.5 3-1.1 1-.8 1.6-1.9 1.9-3.3-.8.8-1.8 1.3-3.2 1.3-2.6 0-4.5-1.9-4.5-4.6 0-2.8 2.2-5.3 5.4-5.3 3.4 0 5.3 2.7 5.3 6.3 0 3.2-1.1 5.4-2.6 6.9-1.3 1.2-3.1 1.9-5.1 2-.6.1-1.3.1-1.7 0v-2.2zm1.5-8c0 1.5.9 2.7 2.4 2.7 1.1 0 2-.5 2.4-1.2.1-.2.2-.4.2-.8 0-2-.7-3.7-2.6-3.7-1.4 0-2.4 1.2-2.4 3z"/><path d="m176 467.4h-5.7l-.4 3c.3 0 .6-.1 1.1-.1 1.3 0 2.6.3 3.6 1 1.1.7 1.9 2 1.9 3.8 0 2.8-2.4 5.1-6 5.1-1.7 0-3.2-.4-3.9-.9l.6-2.1c.6.3 1.9.8 3.3.8 1.6 0 3.2-.9 3.2-2.7 0-1.7-1.3-2.8-4.2-2.8-.8 0-1.4 0-2 .1l1-7.5h7.7v2.3z"/><path d="m179.3 477c.6.3 2 .9 3.4.9 2.1 0 3-1.2 3-2.4 0-1.8-1.6-2.5-3.4-2.5h-1.3v-2.1h1.3c1.3 0 2.9-.6 2.9-2.1 0-1-.8-1.8-2.4-1.8-1.2 0-2.4.5-3 .9l-.6-2c.8-.6 2.5-1.1 4.3-1.1 3.1 0 4.6 1.7 4.6 3.6 0 1.6-.9 2.8-2.7 3.5 1.8.3 3.3 1.7 3.3 3.7 0 2.5-2.1 4.5-5.8 4.5-1.8 0-3.4-.5-4.2-1z"/><path d="m205.5 473.2v1.8h-10v-1.8z"/><path d="m211.9 479.9v-1.7l1.8-1.6c3.5-3.2 5.1-5 5.2-7 0-1.3-.7-2.5-2.6-2.5-1.3 0-2.4.7-3.2 1.2l-.8-2c1.1-.9 2.7-1.5 4.6-1.5 3.3 0 4.9 2.1 4.9 4.5 0 2.6-1.9 4.7-4.5 7.1l-1.3 1.1h6.1v2.3h-10.2z"/><path d="m234.6 472.4c0 4.8-1.9 7.8-5.4 7.8-3.4 0-5.3-3.1-5.3-7.6 0-4.6 2-7.7 5.4-7.7 3.6-.1 5.3 3.1 5.3 7.5zm-7.8.1c0 3.6 1 5.5 2.5 5.5 1.6 0 2.5-2 2.5-5.6 0-3.4-.8-5.5-2.5-5.5-1.5 0-2.6 1.9-2.5 5.6z"/><path d="m240.8 467.6-2.8 1.4-.5-2.1 3.6-1.8h2.4v14.8h-2.7z"/><path d="m248.4 476.1c0-1.8 1.1-3.1 2.8-3.9v-.1c-1.6-.8-2.3-2-2.3-3.3 0-2.4 2.1-4.1 5-4.1 3.2 0 4.7 1.9 4.7 3.7 0 1.3-.7 2.6-2.3 3.4v.1c1.6.6 2.8 1.9 2.8 3.7 0 2.6-2.2 4.4-5.4 4.4-3.5.1-5.3-1.9-5.3-3.9zm7.8-.2c0-1.5-1.1-2.3-2.8-2.8-1.4.4-2.2 1.4-2.2 2.6 0 1.3.9 2.4 2.5 2.4s2.5-.9 2.5-2.2zm-4.6-7.2c0 1.2 1 1.9 2.4 2.3 1-.3 1.8-1.1 1.8-2.2 0-1-.6-2.1-2.1-2.1-1.4 0-2.1 1-2.1 2z"/></svg>