<?xml version="1.0" standalone="no"?>
<!DOCTYPE svg PUBLIC "-//W3C//DTD SVG 20010904//EN"
 "http://www.w3.org/TR/2001/REC-SVG-20010904/DTD/svg10.dtd">
<svg version="1.0" xmlns="http://www.w3.org/2000/svg"
 width="260.000000pt" height="260.000000pt" viewBox="0 0 260.000000 260.000000"
 preserveAspectRatio="xMidYMid meet">
<metadata>
Created by potrace 1.11, written by Peter Selinger 2001-2013
</metadata>
<g transform="translate(0.000000,260.000000) scale(0.100000,-0.100000)"
fill="#000000" stroke="none">
<path d="M500 2000 l0 -30 70 0 c58 0 71 -3 80 -19 6 -13 10 -229 10 -631 0
-402 -4 -618 -10 -631 -9 -16 -22 -19 -80 -19 l-70 0 0 -30 0 -30 300 0 300 0
0 30 c0 30 0 30 -59 30 -99 0 -91 -29 -91 321 l0 309 335 0 335 0 0 -296 c0
-184 -4 -303 -10 -315 -9 -16 -22 -19 -80 -19 l-70 0 0 -30 0 -30 300 0 300 0
0 30 0 29 -72 3 -73 3 -3 639 c-2 505 0 641 10 648 7 4 41 8 76 8 l62 0 0 30
0 30 -300 0 -300 0 0 -30 0 -30 70 0 c58 0 71 -3 80 -19 6 -12 10 -121 10
-285 l0 -266 -335 0 -335 0 0 279 c0 316 -8 291 91 291 59 0 59 0 59 30 l0 30
-300 0 -300 0 0 -30z"/>
</g>
</svg>
