<?xml version="1.0" standalone="no"?>
<!DOCTYPE svg PUBLIC "-//W3C//DTD SVG 20010904//EN"
 "http://www.w3.org/TR/2001/REC-SVG-20010904/DTD/svg10.dtd">
<svg version="1.0" xmlns="http://www.w3.org/2000/svg"
 width="1200.000000pt" height="1200.000000pt" viewBox="0 0 1200.000000 1200.000000"
 preserveAspectRatio="xMidYMid meet">
<metadata>
Created by potrace 1.11, written by Peter Selinger 2001-2013
</metadata>
<g transform="translate(0.000000,1200.000000) scale(0.100000,-0.100000)"
fill="#000000" stroke="none">
<path d="M0 8653 c0 -1840 2 -3344 4 -3342 4 3 2353 6404 2442 6652 l13 37
-1229 0 -1230 0 0 -3347z"/>
<path d="M3505 11995 c6 -3 1000 -237 2210 -521 l2200 -517 826 3 825 2 733
-367 734 -366 366 -86 c201 -47 369 -88 373 -92 4 -3 10 -222 13 -486 17
-1403 75 -7348 72 -7351 -1 -2 -1807 -404 -4012 -894 -2206 -490 -4017 -893
-4026 -896 -11 -3 -126 79 -319 227 l-302 231 -307 -121 c-168 -66 -524 -208
-791 -315 -407 -162 -486 -191 -491 -177 -3 9 -109 503 -234 1098 l-229 1082
-559 428 c-308 235 -566 432 -574 436 -11 7 -13 -265 -13 -1653 l0 -1660 6000
0 6000 0 0 6000 0 6000 -4252 -1 c-2339 0 -4248 -2 -4243 -4z"/>
<path d="M5500 9863 c-305 -31 -459 -60 -640 -118 -398 -129 -758 -347 -1059
-640 -144 -141 -217 -226 -333 -390 -455 -642 -722 -1447 -797 -2405 -29 -357
-23 -790 15 -1115 115 -1004 516 -1704 1120 -1959 368 -155 818 -147 1183 20
176 81 385 250 517 419 316 405 494 1016 494 1695 0 1013 -382 1748 -1021
1965 -286 98 -638 81 -922 -45 -192 -85 -406 -261 -537 -442 -90 -125 -96
-110 -50 123 183 919 540 1557 1070 1914 247 165 529 261 917 312 l133 17 0
328 0 328 -27 -2 c-16 0 -44 -3 -63 -5z m-965 -3088 c337 -91 559 -417 644
-943 59 -361 49 -854 -25 -1220 -44 -222 -130 -438 -230 -578 -248 -350 -693
-401 -996 -116 -171 162 -288 376 -373 688 -72 260 -108 519 -125 887 -15 330
2 476 74 645 150 349 395 582 682 646 85 19 262 15 349 -9z"/>
<path d="M7275 9768 c-6 -29 -414 -3022 -411 -3025 1 -1 33 3 71 8 126 17 520
23 650 10 622 -63 1028 -359 1198 -876 117 -354 114 -858 -8 -1230 -166 -509
-534 -820 -1036 -875 -275 -31 -690 62 -967 217 -35 19 -67 31 -72 27 -8 -9
-170 -594 -170 -614 0 -15 233 -126 340 -160 562 -183 1153 -162 1615 59 208
99 368 215 536 387 316 326 510 738 590 1255 19 121 23 187 23 414 1 352 -24
531 -110 793 -188 573 -575 948 -1164 1126 -237 71 -519 102 -700 76 -35 -5
-65 -8 -66 -7 0 1 60 394 135 872 l136 870 888 3 887 2 0 345 0 345 -1180 0
-1180 0 -5 -22z"/>
</g>
</svg>
